<svg width="32" height="32" viewBox="0 0 32 32" fill="none" xmlns="http://www.w3.org/2000/svg">
<g id="Bicycle" style="mix-blend-mode:multiply">
<g id="Union" filter="url(#filter0_i_10904_10594)">
<path d="M14 9.5C14 9.22386 13.7761 9 13.5 9H11.5C10.1193 9 9 10.1193 9 11.5C9 12.8703 10.1011 13.9208 11.4246 13.9957C11.4963 13.9998 11.5448 14.0733 11.5166 14.1393L11.007 15.3316C10.8924 15.5996 11.0168 15.9097 11.2848 16.0243C11.5528 16.1388 11.8629 16.0144 11.9774 15.7464L12.5942 14.3035C12.6729 14.1194 12.8537 14 13.0539 14H13.104C13.3801 14 13.604 13.7761 13.604 13.5C13.604 13.2239 13.3801 13 13.104 13H11.5C10.6716 13 10 12.3284 10 11.5C10 10.6716 10.6716 10 11.5 10H13.5C13.7761 10 14 9.77614 14 9.5Z" fill="url(#paint0_linear_10904_10594)"/>
</g>
<g id="Union_2">
<path d="M14 9.5C14 9.22386 13.7761 9 13.5 9H11.5C10.1193 9 9 10.1193 9 11.5C9 12.8703 10.1011 13.9208 11.4246 13.9957C11.4963 13.9998 11.5448 14.0733 11.5166 14.1393L11.007 15.3316C10.8924 15.5996 11.0168 15.9097 11.2848 16.0243C11.5528 16.1388 11.8629 16.0144 11.9774 15.7464L12.5942 14.3035C12.6729 14.1194 12.8537 14 13.0539 14H13.104C13.3801 14 13.604 13.7761 13.604 13.5C13.604 13.2239 13.3801 13 13.104 13H11.5C10.6716 13 10 12.3284 10 11.5C10 10.6716 10.6716 10 11.5 10H13.5C13.7761 10 14 9.77614 14 9.5Z" fill="url(#paint1_radial_10904_10594)"/>
<path d="M14 9.5C14 9.22386 13.7761 9 13.5 9H11.5C10.1193 9 9 10.1193 9 11.5C9 12.8703 10.1011 13.9208 11.4246 13.9957C11.4963 13.9998 11.5448 14.0733 11.5166 14.1393L11.007 15.3316C10.8924 15.5996 11.0168 15.9097 11.2848 16.0243C11.5528 16.1388 11.8629 16.0144 11.9774 15.7464L12.5942 14.3035C12.6729 14.1194 12.8537 14 13.0539 14H13.104C13.3801 14 13.604 13.7761 13.604 13.5C13.604 13.2239 13.3801 13 13.104 13H11.5C10.6716 13 10 12.3284 10 11.5C10 10.6716 10.6716 10 11.5 10H13.5C13.7761 10 14 9.77614 14 9.5Z" fill="url(#paint2_radial_10904_10594)"/>
<path d="M14 9.5C14 9.22386 13.7761 9 13.5 9H11.5C10.1193 9 9 10.1193 9 11.5C9 12.8703 10.1011 13.9208 11.4246 13.9957C11.4963 13.9998 11.5448 14.0733 11.5166 14.1393L11.007 15.3316C10.8924 15.5996 11.0168 15.9097 11.2848 16.0243C11.5528 16.1388 11.8629 16.0144 11.9774 15.7464L12.5942 14.3035C12.6729 14.1194 12.8537 14 13.0539 14H13.104C13.3801 14 13.604 13.7761 13.604 13.5C13.604 13.2239 13.3801 13 13.104 13H11.5C10.6716 13 10 12.3284 10 11.5C10 10.6716 10.6716 10 11.5 10H13.5C13.7761 10 14 9.77614 14 9.5Z" fill="url(#paint3_radial_10904_10594)"/>
<path d="M14 9.5C14 9.22386 13.7761 9 13.5 9H11.5C10.1193 9 9 10.1193 9 11.5C9 12.8703 10.1011 13.9208 11.4246 13.9957C11.4963 13.9998 11.5448 14.0733 11.5166 14.1393L11.007 15.3316C10.8924 15.5996 11.0168 15.9097 11.2848 16.0243C11.5528 16.1388 11.8629 16.0144 11.9774 15.7464L12.5942 14.3035C12.6729 14.1194 12.8537 14 13.0539 14H13.104C13.3801 14 13.604 13.7761 13.604 13.5C13.604 13.2239 13.3801 13 13.104 13H11.5C10.6716 13 10 12.3284 10 11.5C10 10.6716 10.6716 10 11.5 10H13.5C13.7761 10 14 9.77614 14 9.5Z" fill="url(#paint4_radial_10904_10594)"/>
<path d="M14 9.5C14 9.22386 13.7761 9 13.5 9H11.5C10.1193 9 9 10.1193 9 11.5C9 12.8703 10.1011 13.9208 11.4246 13.9957C11.4963 13.9998 11.5448 14.0733 11.5166 14.1393L11.007 15.3316C10.8924 15.5996 11.0168 15.9097 11.2848 16.0243C11.5528 16.1388 11.8629 16.0144 11.9774 15.7464L12.5942 14.3035C12.6729 14.1194 12.8537 14 13.0539 14H13.104C13.3801 14 13.604 13.7761 13.604 13.5C13.604 13.2239 13.3801 13 13.104 13H11.5C10.6716 13 10 12.3284 10 11.5C10 10.6716 10.6716 10 11.5 10H13.5C13.7761 10 14 9.77614 14 9.5Z" fill="url(#paint5_radial_10904_10594)"/>
<path d="M14 9.5C14 9.22386 13.7761 9 13.5 9H11.5C10.1193 9 9 10.1193 9 11.5C9 12.8703 10.1011 13.9208 11.4246 13.9957C11.4963 13.9998 11.5448 14.0733 11.5166 14.1393L11.007 15.3316C10.8924 15.5996 11.0168 15.9097 11.2848 16.0243C11.5528 16.1388 11.8629 16.0144 11.9774 15.7464L12.5942 14.3035C12.6729 14.1194 12.8537 14 13.0539 14H13.104C13.3801 14 13.604 13.7761 13.604 13.5C13.604 13.2239 13.3801 13 13.104 13H11.5C10.6716 13 10 12.3284 10 11.5C10 10.6716 10.6716 10 11.5 10H13.5C13.7761 10 14 9.77614 14 9.5Z" fill="url(#paint6_radial_10904_10594)"/>
<path d="M14 9.5C14 9.22386 13.7761 9 13.5 9H11.5C10.1193 9 9 10.1193 9 11.5C9 12.8703 10.1011 13.9208 11.4246 13.9957C11.4963 13.9998 11.5448 14.0733 11.5166 14.1393L11.007 15.3316C10.8924 15.5996 11.0168 15.9097 11.2848 16.0243C11.5528 16.1388 11.8629 16.0144 11.9774 15.7464L12.5942 14.3035C12.6729 14.1194 12.8537 14 13.0539 14H13.104C13.3801 14 13.604 13.7761 13.604 13.5C13.604 13.2239 13.3801 13 13.104 13H11.5C10.6716 13 10 12.3284 10 11.5C10 10.6716 10.6716 10 11.5 10H13.5C13.7761 10 14 9.77614 14 9.5Z" fill="url(#paint7_radial_10904_10594)"/>
</g>
<path id="Vector" d="M19.2656 16.7344L19.75 13.7344" stroke="url(#paint8_radial_10904_10594)" stroke-miterlimit="10" stroke-linecap="round" stroke-linejoin="round"/>
<g id="Vector_2">
<path d="M12.5 24.5C12.5 27.2614 10.2614 29.5 7.5 29.5C4.73858 29.5 2.5 27.2614 2.5 24.5C2.5 21.7386 4.73858 19.5 7.5 19.5C10.2614 19.5 12.5 21.7386 12.5 24.5Z" fill="url(#paint9_radial_10904_10594)"/>
<path d="M12.5 24.5C12.5 27.2614 10.2614 29.5 7.5 29.5C4.73858 29.5 2.5 27.2614 2.5 24.5C2.5 21.7386 4.73858 19.5 7.5 19.5C10.2614 19.5 12.5 21.7386 12.5 24.5Z" fill="url(#paint10_radial_10904_10594)"/>
<path d="M12.5 24.5C12.5 27.2614 10.2614 29.5 7.5 29.5C4.73858 29.5 2.5 27.2614 2.5 24.5C2.5 21.7386 4.73858 19.5 7.5 19.5C10.2614 19.5 12.5 21.7386 12.5 24.5Z" stroke="url(#paint11_linear_10904_10594)" stroke-miterlimit="10" stroke-linecap="round" stroke-linejoin="round"/>
</g>
<g id="Vector_3">
<path d="M29.5 24.5C29.5 27.2614 27.2614 29.5 24.5 29.5C21.7386 29.5 19.5 27.2614 19.5 24.5C19.5 21.7386 21.7386 19.5 24.5 19.5C27.2614 19.5 29.5 21.7386 29.5 24.5Z" fill="url(#paint12_radial_10904_10594)"/>
<path d="M29.5 24.5C29.5 27.2614 27.2614 29.5 24.5 29.5C21.7386 29.5 19.5 27.2614 19.5 24.5C19.5 21.7386 21.7386 19.5 24.5 19.5C27.2614 19.5 29.5 21.7386 29.5 24.5Z" fill="url(#paint13_radial_10904_10594)"/>
<path d="M29.5 24.5C29.5 27.2614 27.2614 29.5 24.5 29.5C21.7386 29.5 19.5 27.2614 19.5 24.5C19.5 21.7386 21.7386 19.5 24.5 19.5C27.2614 19.5 29.5 21.7386 29.5 24.5Z" stroke="url(#paint14_linear_10904_10594)" stroke-miterlimit="10" stroke-linecap="round" stroke-linejoin="round"/>
<path d="M29.5 24.5C29.5 27.2614 27.2614 29.5 24.5 29.5C21.7386 29.5 19.5 27.2614 19.5 24.5C19.5 21.7386 21.7386 19.5 24.5 19.5C27.2614 19.5 29.5 21.7386 29.5 24.5Z" stroke="url(#paint15_radial_10904_10594)" stroke-miterlimit="10" stroke-linecap="round" stroke-linejoin="round"/>
</g>
<g id="Vector_4" filter="url(#filter1_f_10904_10594)">
<path d="M24.6084 29.412C27.3811 29.412 29.6288 27.1643 29.6288 24.3916C29.6288 21.6189 27.3811 19.3711 24.6084 19.3711C21.8356 19.3711 19.5879 21.6189 19.5879 24.3916C19.5879 27.1643 21.8356 29.412 24.6084 29.412Z" stroke="url(#paint16_linear_10904_10594)" stroke-width="0.25" stroke-miterlimit="10" stroke-linecap="round" stroke-linejoin="round"/>
</g>
<g id="Vector_5" filter="url(#filter2_f_10904_10594)">
<path d="M7.49996 29.412C10.2727 29.412 12.5204 27.1643 12.5204 24.3916C12.5204 21.6189 10.2727 19.3711 7.49996 19.3711C4.72723 19.3711 2.47949 21.6189 2.47949 24.3916C2.47949 27.1643 4.72723 29.412 7.49996 29.412Z" stroke="url(#paint17_linear_10904_10594)" stroke-width="0.25" stroke-miterlimit="10" stroke-linecap="round" stroke-linejoin="round"/>
</g>
<g id="Union_3" filter="url(#filter3_i_10904_10594)">
<path d="M12.0309 15.7358C12.1611 15.4428 12.0292 15.0998 11.7363 14.9696C11.4433 14.8394 11.1003 14.9713 10.9701 15.2643L6.97009 24.2643C6.8399 24.5572 6.97183 24.9003 7.26477 25.0305C7.55772 25.1606 7.90074 25.0287 8.03094 24.7358L10.5908 18.9761C10.6174 18.9162 10.6935 18.8977 10.7446 18.9387L17.6379 24.4533C17.7979 24.5813 18.0136 24.6155 18.2054 24.5431C18.3971 24.4708 18.5365 24.3027 18.5721 24.1009L19.7689 17.3192C19.777 17.2731 19.8384 17.2624 19.8616 17.3031L24.0665 24.6678C24.2255 24.9462 24.58 25.043 24.8584 24.8841C25.1368 24.7251 25.2336 24.3706 25.0747 24.0922L20.0046 15.2122C19.8833 14.9999 19.642 14.8863 19.4011 14.9281C19.1602 14.97 18.9714 15.1584 18.9289 15.3992L17.599 22.9354L11.2513 17.8574C11.1804 17.8006 11.1566 17.703 11.1935 17.62L12.0309 15.7358Z" fill="url(#paint18_linear_10904_10594)"/>
<path d="M12.0309 15.7358C12.1611 15.4428 12.0292 15.0998 11.7363 14.9696C11.4433 14.8394 11.1003 14.9713 10.9701 15.2643L6.97009 24.2643C6.8399 24.5572 6.97183 24.9003 7.26477 25.0305C7.55772 25.1606 7.90074 25.0287 8.03094 24.7358L10.5908 18.9761C10.6174 18.9162 10.6935 18.8977 10.7446 18.9387L17.6379 24.4533C17.7979 24.5813 18.0136 24.6155 18.2054 24.5431C18.3971 24.4708 18.5365 24.3027 18.5721 24.1009L19.7689 17.3192C19.777 17.2731 19.8384 17.2624 19.8616 17.3031L24.0665 24.6678C24.2255 24.9462 24.58 25.043 24.8584 24.8841C25.1368 24.7251 25.2336 24.3706 25.0747 24.0922L20.0046 15.2122C19.8833 14.9999 19.642 14.8863 19.4011 14.9281C19.1602 14.97 18.9714 15.1584 18.9289 15.3992L17.599 22.9354L11.2513 17.8574C11.1804 17.8006 11.1566 17.703 11.1935 17.62L12.0309 15.7358Z" fill="url(#paint19_radial_10904_10594)"/>
<path d="M12.0309 15.7358C12.1611 15.4428 12.0292 15.0998 11.7363 14.9696C11.4433 14.8394 11.1003 14.9713 10.9701 15.2643L6.97009 24.2643C6.8399 24.5572 6.97183 24.9003 7.26477 25.0305C7.55772 25.1606 7.90074 25.0287 8.03094 24.7358L10.5908 18.9761C10.6174 18.9162 10.6935 18.8977 10.7446 18.9387L17.6379 24.4533C17.7979 24.5813 18.0136 24.6155 18.2054 24.5431C18.3971 24.4708 18.5365 24.3027 18.5721 24.1009L19.7689 17.3192C19.777 17.2731 19.8384 17.2624 19.8616 17.3031L24.0665 24.6678C24.2255 24.9462 24.58 25.043 24.8584 24.8841C25.1368 24.7251 25.2336 24.3706 25.0747 24.0922L20.0046 15.2122C19.8833 14.9999 19.642 14.8863 19.4011 14.9281C19.1602 14.97 18.9714 15.1584 18.9289 15.3992L17.599 22.9354L11.2513 17.8574C11.1804 17.8006 11.1566 17.703 11.1935 17.62L12.0309 15.7358Z" fill="url(#paint20_linear_10904_10594)"/>
<path d="M12.0309 15.7358C12.1611 15.4428 12.0292 15.0998 11.7363 14.9696C11.4433 14.8394 11.1003 14.9713 10.9701 15.2643L6.97009 24.2643C6.8399 24.5572 6.97183 24.9003 7.26477 25.0305C7.55772 25.1606 7.90074 25.0287 8.03094 24.7358L10.5908 18.9761C10.6174 18.9162 10.6935 18.8977 10.7446 18.9387L17.6379 24.4533C17.7979 24.5813 18.0136 24.6155 18.2054 24.5431C18.3971 24.4708 18.5365 24.3027 18.5721 24.1009L19.7689 17.3192C19.777 17.2731 19.8384 17.2624 19.8616 17.3031L24.0665 24.6678C24.2255 24.9462 24.58 25.043 24.8584 24.8841C25.1368 24.7251 25.2336 24.3706 25.0747 24.0922L20.0046 15.2122C19.8833 14.9999 19.642 14.8863 19.4011 14.9281C19.1602 14.97 18.9714 15.1584 18.9289 15.3992L17.599 22.9354L11.2513 17.8574C11.1804 17.8006 11.1566 17.703 11.1935 17.62L12.0309 15.7358Z" fill="url(#paint21_radial_10904_10594)"/>
</g>
<g id="Vector_6" filter="url(#filter4_i_10904_10594)">
<path d="M25 23.4011L18.2016 22.0177C17.0391 21.8587 16 22.7915 16 24C16 25.2085 17.0288 26.1413 18.2016 25.9823L25 25.5C25.5144 25.4258 25.8951 24.9806 25.8951 24.4506C25.8951 23.9205 25.5041 23.4647 25 23.4011Z" fill="#FFB650"/>
<path d="M25 23.4011L18.2016 22.0177C17.0391 21.8587 16 22.7915 16 24C16 25.2085 17.0288 26.1413 18.2016 25.9823L25 25.5C25.5144 25.4258 25.8951 24.9806 25.8951 24.4506C25.8951 23.9205 25.5041 23.4647 25 23.4011Z" fill="url(#paint22_radial_10904_10594)"/>
<path d="M25 23.4011L18.2016 22.0177C17.0391 21.8587 16 22.7915 16 24C16 25.2085 17.0288 26.1413 18.2016 25.9823L25 25.5C25.5144 25.4258 25.8951 24.9806 25.8951 24.4506C25.8951 23.9205 25.5041 23.4647 25 23.4011Z" fill="url(#paint23_linear_10904_10594)"/>
<path d="M25 23.4011L18.2016 22.0177C17.0391 21.8587 16 22.7915 16 24C16 25.2085 17.0288 26.1413 18.2016 25.9823L25 25.5C25.5144 25.4258 25.8951 24.9806 25.8951 24.4506C25.8951 23.9205 25.5041 23.4647 25 23.4011Z" fill="url(#paint24_radial_10904_10594)"/>
</g>
<g id="Rectangle 255" filter="url(#filter5_i_10904_10594)">
<rect x="17.75" y="12" width="4" height="2" rx="1" fill="#A86F5F"/>
<rect x="17.75" y="12" width="4" height="2" rx="1" fill="url(#paint25_radial_10904_10594)"/>
</g>
<g id="Rectangle 256">
<rect x="12" y="9" width="3" height="1" rx="0.5" fill="url(#paint26_linear_10904_10594)"/>
<rect x="12" y="9" width="3" height="1" rx="0.5" fill="url(#paint27_radial_10904_10594)"/>
<rect x="12" y="9" width="3" height="1" rx="0.5" fill="url(#paint28_radial_10904_10594)"/>
</g>
<path id="Vector_7" d="M18 25C18.5523 25 19 24.5523 19 24C19 23.4477 18.5523 23 18 23C17.4477 23 17 23.4477 17 24C17 24.5523 17.4477 25 18 25Z" fill="url(#paint29_radial_10904_10594)"/>
<g id="Vector 927" filter="url(#filter6_f_10904_10594)">
<path d="M19.1719 12.6562H21.3906" stroke="url(#paint30_linear_10904_10594)" stroke-width="0.4"/>
</g>
</g>
<defs>
<filter id="filter0_i_10904_10594" x="9" y="8.8" width="5.2" height="7.26689" filterUnits="userSpaceOnUse" color-interpolation-filters="sRGB">
<feFlood flood-opacity="0" result="BackgroundImageFix"/>
<feBlend mode="normal" in="SourceGraphic" in2="BackgroundImageFix" result="shape"/>
<feColorMatrix in="SourceAlpha" type="matrix" values="0 0 0 0 0 0 0 0 0 0 0 0 0 0 0 0 0 0 127 0" result="hardAlpha"/>
<feOffset dx="0.2" dy="-0.2"/>
<feGaussianBlur stdDeviation="0.25"/>
<feComposite in2="hardAlpha" operator="arithmetic" k2="-1" k3="1"/>
<feColorMatrix type="matrix" values="0 0 0 0 0.603922 0 0 0 0 0.407843 0 0 0 0 0.74902 0 0 0 1 0"/>
<feBlend mode="normal" in2="shape" result="effect1_innerShadow_10904_10594"/>
</filter>
<filter id="filter1_f_10904_10594" x="19.2129" y="18.9961" width="10.791" height="10.791" filterUnits="userSpaceOnUse" color-interpolation-filters="sRGB">
<feFlood flood-opacity="0" result="BackgroundImageFix"/>
<feBlend mode="normal" in="SourceGraphic" in2="BackgroundImageFix" result="shape"/>
<feGaussianBlur stdDeviation="0.125" result="effect1_foregroundBlur_10904_10594"/>
</filter>
<filter id="filter2_f_10904_10594" x="2.10449" y="18.9961" width="10.791" height="10.791" filterUnits="userSpaceOnUse" color-interpolation-filters="sRGB">
<feFlood flood-opacity="0" result="BackgroundImageFix"/>
<feBlend mode="normal" in="SourceGraphic" in2="BackgroundImageFix" result="shape"/>
<feGaussianBlur stdDeviation="0.125" result="effect1_foregroundBlur_10904_10594"/>
</filter>
<filter id="filter3_i_10904_10594" x="6.91992" y="14.9194" width="18.5314" height="10.1611" filterUnits="userSpaceOnUse" color-interpolation-filters="sRGB">
<feFlood flood-opacity="0" result="BackgroundImageFix"/>
<feBlend mode="normal" in="SourceGraphic" in2="BackgroundImageFix" result="shape"/>
<feColorMatrix in="SourceAlpha" type="matrix" values="0 0 0 0 0 0 0 0 0 0 0 0 0 0 0 0 0 0 127 0" result="hardAlpha"/>
<feOffset dx="0.3"/>
<feGaussianBlur stdDeviation="0.25"/>
<feComposite in2="hardAlpha" operator="arithmetic" k2="-1" k3="1"/>
<feColorMatrix type="matrix" values="0 0 0 0 0.584314 0 0 0 0 0.203922 0 0 0 0 0.27451 0 0 0 1 0"/>
<feBlend mode="normal" in2="shape" result="effect1_innerShadow_10904_10594"/>
</filter>
<filter id="filter4_i_10904_10594" x="16" y="21.75" width="10.1455" height="4.25" filterUnits="userSpaceOnUse" color-interpolation-filters="sRGB">
<feFlood flood-opacity="0" result="BackgroundImageFix"/>
<feBlend mode="normal" in="SourceGraphic" in2="BackgroundImageFix" result="shape"/>
<feColorMatrix in="SourceAlpha" type="matrix" values="0 0 0 0 0 0 0 0 0 0 0 0 0 0 0 0 0 0 127 0" result="hardAlpha"/>
<feOffset dx="0.25" dy="-0.25"/>
<feGaussianBlur stdDeviation="0.25"/>
<feComposite in2="hardAlpha" operator="arithmetic" k2="-1" k3="1"/>
<feColorMatrix type="matrix" values="0 0 0 0 0.972549 0 0 0 0 0.427451 0 0 0 0 0.45098 0 0 0 1 0"/>
<feBlend mode="normal" in2="shape" result="effect1_innerShadow_10904_10594"/>
</filter>
<filter id="filter5_i_10904_10594" x="17.75" y="11.4" width="4.4" height="2.6" filterUnits="userSpaceOnUse" color-interpolation-filters="sRGB">
<feFlood flood-opacity="0" result="BackgroundImageFix"/>
<feBlend mode="normal" in="SourceGraphic" in2="BackgroundImageFix" result="shape"/>
<feColorMatrix in="SourceAlpha" type="matrix" values="0 0 0 0 0 0 0 0 0 0 0 0 0 0 0 0 0 0 127 0" result="hardAlpha"/>
<feOffset dx="0.4" dy="-0.6"/>
<feGaussianBlur stdDeviation="0.4"/>
<feComposite in2="hardAlpha" operator="arithmetic" k2="-1" k3="1"/>
<feColorMatrix type="matrix" values="0 0 0 0 0.447059 0 0 0 0 0.192157 0 0 0 0 0.34902 0 0 0 1 0"/>
<feBlend mode="normal" in2="shape" result="effect1_innerShadow_10904_10594"/>
</filter>
<filter id="filter6_f_10904_10594" x="18.7719" y="12.0561" width="3.01875" height="1.20039" filterUnits="userSpaceOnUse" color-interpolation-filters="sRGB">
<feFlood flood-opacity="0" result="BackgroundImageFix"/>
<feBlend mode="normal" in="SourceGraphic" in2="BackgroundImageFix" result="shape"/>
<feGaussianBlur stdDeviation="0.2" result="effect1_foregroundBlur_10904_10594"/>
</filter>
<linearGradient id="paint0_linear_10904_10594" x1="11.5" y1="9" x2="11.5" y2="16.0669" gradientUnits="userSpaceOnUse">
<stop stop-color="#B5A5C6"/>
<stop offset="1" stop-color="#D1BBE7"/>
</linearGradient>
<radialGradient id="paint1_radial_10904_10594" cx="0" cy="0" r="1" gradientUnits="userSpaceOnUse" gradientTransform="translate(13.6721 13.2938) rotate(155.462) scale(0.847998 0.701082)">
<stop stop-color="#FFFBFF"/>
<stop offset="1" stop-color="#FFFBFF" stop-opacity="0"/>
</radialGradient>
<radialGradient id="paint2_radial_10904_10594" cx="0" cy="0" r="1" gradientUnits="userSpaceOnUse" gradientTransform="translate(11.1094 15.2969) rotate(-65.9798) scale(1.57379 0.42766)">
<stop stop-color="#7F7987"/>
<stop offset="1" stop-color="#7F7987" stop-opacity="0"/>
</radialGradient>
<radialGradient id="paint3_radial_10904_10594" cx="0" cy="0" r="1" gradientUnits="userSpaceOnUse" gradientTransform="translate(14 13.182) rotate(-144.06) scale(5.95817 4.21556)">
<stop offset="0.819127" stop-color="#7C7B7D" stop-opacity="0"/>
<stop offset="0.949105" stop-color="#7C7B7D"/>
</radialGradient>
<radialGradient id="paint4_radial_10904_10594" cx="0" cy="0" r="1" gradientUnits="userSpaceOnUse" gradientTransform="translate(11.6376 12.2022) rotate(120.399) scale(1.35891 1.99946)">
<stop offset="0.325017" stop-color="#B7B5BB"/>
<stop offset="1" stop-color="#B7B5BB" stop-opacity="0"/>
</radialGradient>
<radialGradient id="paint5_radial_10904_10594" cx="0" cy="0" r="1" gradientUnits="userSpaceOnUse" gradientTransform="translate(12.0871 9.87945) rotate(143.842) scale(1.7949 0.629168)">
<stop stop-color="#A972D4"/>
<stop offset="1" stop-color="#A972D4" stop-opacity="0"/>
</radialGradient>
<radialGradient id="paint6_radial_10904_10594" cx="0" cy="0" r="1" gradientUnits="userSpaceOnUse" gradientTransform="translate(12.519 8.75075) rotate(161.565) scale(1.80666 0.265749)">
<stop stop-color="#BDB6C2"/>
<stop offset="1" stop-color="#BDB6C2" stop-opacity="0"/>
</radialGradient>
<radialGradient id="paint7_radial_10904_10594" cx="0" cy="0" r="1" gradientUnits="userSpaceOnUse" gradientTransform="translate(11.845 15.2615) rotate(-71.2001) scale(1.64403 0.409174)">
<stop stop-color="#E1C9F8"/>
<stop offset="1" stop-color="#E1C9F8" stop-opacity="0"/>
</radialGradient>
<radialGradient id="paint8_radial_10904_10594" cx="0" cy="0" r="1" gradientUnits="userSpaceOnUse" gradientTransform="translate(19.9665 15.2344) rotate(180) scale(0.933436 1.84091)">
<stop stop-color="#E6D6F2"/>
<stop offset="1" stop-color="#7B6787"/>
</radialGradient>
<radialGradient id="paint9_radial_10904_10594" cx="0" cy="0" r="1" gradientUnits="userSpaceOnUse" gradientTransform="translate(7.5 24.5) rotate(90) scale(5.5)">
<stop offset="0.652404" stop-color="#FEEEFF"/>
<stop offset="1" stop-color="#DFD2EA"/>
</radialGradient>
<radialGradient id="paint10_radial_10904_10594" cx="0" cy="0" r="1" gradientUnits="userSpaceOnUse" gradientTransform="translate(9.50352 20.7926) rotate(118.277) scale(11.3535)">
<stop offset="0.640859" stop-color="#C3BAC3" stop-opacity="0"/>
<stop offset="1" stop-color="#C3BAC3"/>
</radialGradient>
<linearGradient id="paint11_linear_10904_10594" x1="10.537" y1="21.0512" x2="2.95271" y2="28.5413" gradientUnits="userSpaceOnUse">
<stop offset="0.00558659" stop-color="#2E2060"/>
<stop offset="1" stop-color="#411461"/>
</linearGradient>
<radialGradient id="paint12_radial_10904_10594" cx="0" cy="0" r="1" gradientUnits="userSpaceOnUse" gradientTransform="translate(24.5 24.5) rotate(90) scale(5.5)">
<stop offset="0.652404" stop-color="#FEEEFF"/>
<stop offset="1" stop-color="#DFD2EA"/>
</radialGradient>
<radialGradient id="paint13_radial_10904_10594" cx="0" cy="0" r="1" gradientUnits="userSpaceOnUse" gradientTransform="translate(27.0659 23.2182) rotate(144.502) scale(7.86919)">
<stop offset="0.718826" stop-color="#C3BAC3" stop-opacity="0"/>
<stop offset="1" stop-color="#C3BAC3"/>
</radialGradient>
<linearGradient id="paint14_linear_10904_10594" x1="27.537" y1="21.0512" x2="19.9527" y2="28.5413" gradientUnits="userSpaceOnUse">
<stop offset="0.00558659" stop-color="#2E2060"/>
<stop offset="1" stop-color="#411461"/>
</linearGradient>
<radialGradient id="paint15_radial_10904_10594" cx="0" cy="0" r="1" gradientUnits="userSpaceOnUse" gradientTransform="translate(19 23.335) rotate(-11.2812) scale(5.60836 4.66283)">
<stop stop-color="#291C31"/>
<stop offset="1" stop-color="#291C31" stop-opacity="0"/>
</radialGradient>
<linearGradient id="paint16_linear_10904_10594" x1="28.2588" y1="20.4104" x2="21.7111" y2="29.412" gradientUnits="userSpaceOnUse">
<stop stop-color="#3C4372"/>
<stop offset="0.258913" stop-color="#472E57" stop-opacity="0"/>
<stop offset="0.759234" stop-color="#472E57" stop-opacity="0"/>
<stop offset="1" stop-color="#472E57"/>
</linearGradient>
<linearGradient id="paint17_linear_10904_10594" x1="11.1504" y1="20.4104" x2="4.60273" y2="29.412" gradientUnits="userSpaceOnUse">
<stop stop-color="#3C4372"/>
<stop offset="0.258913" stop-color="#472E57" stop-opacity="0"/>
<stop offset="0.759234" stop-color="#472E57" stop-opacity="0"/>
<stop offset="1" stop-color="#472E57"/>
</linearGradient>
<linearGradient id="paint18_linear_10904_10594" x1="8.89699" y1="20.161" x2="23.063" y2="20.161" gradientUnits="userSpaceOnUse">
<stop stop-color="#DF3C6D"/>
<stop offset="1" stop-color="#FF4C65"/>
</linearGradient>
<radialGradient id="paint19_radial_10904_10594" cx="0" cy="0" r="1" gradientUnits="userSpaceOnUse" gradientTransform="translate(20.2192 18.2188) rotate(-109.799) scale(2.07583 0.41284)">
<stop offset="0.285151" stop-color="#9E4049"/>
<stop offset="1" stop-color="#9E4049" stop-opacity="0"/>
</radialGradient>
<linearGradient id="paint20_linear_10904_10594" x1="22.5474" y1="19.6563" x2="21.9692" y2="20" gradientUnits="userSpaceOnUse">
<stop stop-color="#FF656F"/>
<stop offset="1" stop-color="#FF656F" stop-opacity="0"/>
</linearGradient>
<radialGradient id="paint21_radial_10904_10594" cx="0" cy="0" r="1" gradientUnits="userSpaceOnUse" gradientTransform="translate(11.4536 19.8281) rotate(-130.365) scale(2.05069 0.524736)">
<stop stop-color="#AE205B"/>
<stop offset="1" stop-color="#AE205B" stop-opacity="0"/>
</radialGradient>
<radialGradient id="paint22_radial_10904_10594" cx="0" cy="0" r="1" gradientUnits="userSpaceOnUse" gradientTransform="translate(25.75 23.7031) rotate(163.578) scale(1.54751 2.9008)">
<stop stop-color="#FFED66"/>
<stop offset="1" stop-color="#FFED66" stop-opacity="0"/>
</radialGradient>
<linearGradient id="paint23_linear_10904_10594" x1="21.2629" y1="22.4623" x2="20.9475" y2="24" gradientUnits="userSpaceOnUse">
<stop stop-color="#FFCA44"/>
<stop offset="1" stop-color="#FFCA44" stop-opacity="0"/>
</linearGradient>
<radialGradient id="paint24_radial_10904_10594" cx="0" cy="0" r="1" gradientUnits="userSpaceOnUse" gradientTransform="translate(21.9375 26) rotate(-143.817) scale(6.77549 6.80484)">
<stop offset="0.799663" stop-color="#C28849" stop-opacity="0"/>
<stop offset="0.951574" stop-color="#C28849"/>
</radialGradient>
<radialGradient id="paint25_radial_10904_10594" cx="0" cy="0" r="1" gradientUnits="userSpaceOnUse" gradientTransform="translate(21.5937 12.1875) rotate(130.972) scale(1.57278 1.31672)">
<stop stop-color="#C4877A"/>
<stop offset="1" stop-color="#C4877A" stop-opacity="0"/>
</radialGradient>
<linearGradient id="paint26_linear_10904_10594" x1="13.5" y1="9.69022" x2="13.5" y2="10" gradientUnits="userSpaceOnUse">
<stop stop-color="#3B2E4C"/>
<stop offset="1" stop-color="#47265F"/>
</linearGradient>
<radialGradient id="paint27_radial_10904_10594" cx="0" cy="0" r="1" gradientUnits="userSpaceOnUse" gradientTransform="translate(14.403 9.45015) rotate(180) scale(1.94541 0.34769)">
<stop stop-color="#423E47"/>
<stop offset="1" stop-color="#423E47" stop-opacity="0"/>
</radialGradient>
<radialGradient id="paint28_radial_10904_10594" cx="0" cy="0" r="1" gradientUnits="userSpaceOnUse" gradientTransform="translate(15.0736 9.5) rotate(180) scale(0.877503 0.828011)">
<stop stop-color="#575657"/>
<stop offset="1" stop-color="#575657" stop-opacity="0"/>
</radialGradient>
<radialGradient id="paint29_radial_10904_10594" cx="0" cy="0" r="1" gradientUnits="userSpaceOnUse" gradientTransform="translate(17.4559 24.5441) rotate(-35.0738) scale(1.68907)">
<stop stop-color="#E7E4EA"/>
<stop offset="1" stop-color="#CDC3D9"/>
</radialGradient>
<linearGradient id="paint30_linear_10904_10594" x1="21.75" y1="12.6562" x2="19.0625" y2="12.6562" gradientUnits="userSpaceOnUse">
<stop stop-color="#C58677"/>
<stop offset="1" stop-color="#C58677" stop-opacity="0"/>
</linearGradient>
</defs>
</svg>
