<svg width="32" height="32" viewBox="0 0 32 32" fill="none" xmlns="http://www.w3.org/2000/svg">
<g id="Rocket" clip-path="url(#clip0_10904_28692)">
<g id="Polygon 6">
<path d="M10.5817 13.7178C11.7822 13.2759 12.9494 14.4431 12.5075 15.6436L9.88867 22.758C9.63653 23.4429 8.75925 23.6357 8.24313 23.1196L3.10563 17.9821C2.58951 17.466 2.78232 16.5887 3.4673 16.3366L10.5817 13.7178Z" fill="url(#paint0_linear_10904_28692)"/>
<path d="M10.5817 13.7178C11.7822 13.2759 12.9494 14.4431 12.5075 15.6436L9.88867 22.758C9.63653 23.4429 8.75925 23.6357 8.24313 23.1196L3.10563 17.9821C2.58951 17.466 2.78232 16.5887 3.4673 16.3366L10.5817 13.7178Z" fill="url(#paint1_radial_10904_28692)"/>
<path d="M10.5817 13.7178C11.7822 13.2759 12.9494 14.4431 12.5075 15.6436L9.88867 22.758C9.63653 23.4429 8.75925 23.6357 8.24313 23.1196L3.10563 17.9821C2.58951 17.466 2.78232 16.5887 3.4673 16.3366L10.5817 13.7178Z" fill="url(#paint2_linear_10904_28692)"/>
</g>
<g id="Polygon 5">
<path d="M16.5817 19.7178C17.7822 19.2759 18.9494 20.4431 18.5075 21.6436L15.8887 28.758C15.6365 29.4429 14.7593 29.6357 14.2431 29.1196L9.10563 23.9821C8.58951 23.466 8.78232 22.5887 9.4673 22.3366L16.5817 19.7178Z" fill="url(#paint3_linear_10904_28692)"/>
<path d="M16.5817 19.7178C17.7822 19.2759 18.9494 20.4431 18.5075 21.6436L15.8887 28.758C15.6365 29.4429 14.7593 29.6357 14.2431 29.1196L9.10563 23.9821C8.58951 23.466 8.78232 22.5887 9.4673 22.3366L16.5817 19.7178Z" fill="url(#paint4_radial_10904_28692)"/>
<path d="M16.5817 19.7178C17.7822 19.2759 18.9494 20.4431 18.5075 21.6436L15.8887 28.758C15.6365 29.4429 14.7593 29.6357 14.2431 29.1196L9.10563 23.9821C8.58951 23.466 8.78232 22.5887 9.4673 22.3366L16.5817 19.7178Z" fill="url(#paint5_radial_10904_28692)"/>
</g>
<g id="Subtract" filter="url(#filter0_i_10904_28692)">
<path d="M22.3992 3.55105C22.4551 3.5283 22.519 3.54157 22.5616 3.58445L28.4475 9.51474C28.4898 9.55735 28.5027 9.62087 28.4801 9.67647C27.0707 13.1359 25.1275 16.8159 22.5256 19.4179C19.9918 21.9517 15.7061 24.1112 11.8364 25.6993L6.34473 20.2076C7.93275 16.3379 10.0923 12.0522 12.6261 9.51839C15.236 6.90851 18.9305 4.96147 22.3992 3.55105Z" fill="url(#paint6_linear_10904_28692)"/>
<path d="M22.3992 3.55105C22.4551 3.5283 22.519 3.54157 22.5616 3.58445L28.4475 9.51474C28.4898 9.55735 28.5027 9.62087 28.4801 9.67647C27.0707 13.1359 25.1275 16.8159 22.5256 19.4179C19.9918 21.9517 15.7061 24.1112 11.8364 25.6993L6.34473 20.2076C7.93275 16.3379 10.0923 12.0522 12.6261 9.51839C15.236 6.90851 18.9305 4.96147 22.3992 3.55105Z" fill="url(#paint7_radial_10904_28692)"/>
<path d="M22.3992 3.55105C22.4551 3.5283 22.519 3.54157 22.5616 3.58445L28.4475 9.51474C28.4898 9.55735 28.5027 9.62087 28.4801 9.67647C27.0707 13.1359 25.1275 16.8159 22.5256 19.4179C19.9918 21.9517 15.7061 24.1112 11.8364 25.6993L6.34473 20.2076C7.93275 16.3379 10.0923 12.0522 12.6261 9.51839C15.236 6.90851 18.9305 4.96147 22.3992 3.55105Z" fill="url(#paint8_radial_10904_28692)"/>
<path d="M22.3992 3.55105C22.4551 3.5283 22.519 3.54157 22.5616 3.58445L28.4475 9.51474C28.4898 9.55735 28.5027 9.62087 28.4801 9.67647C27.0707 13.1359 25.1275 16.8159 22.5256 19.4179C19.9918 21.9517 15.7061 24.1112 11.8364 25.6993L6.34473 20.2076C7.93275 16.3379 10.0923 12.0522 12.6261 9.51839C15.236 6.90851 18.9305 4.96147 22.3992 3.55105Z" fill="url(#paint9_radial_10904_28692)"/>
<path d="M22.3992 3.55105C22.4551 3.5283 22.519 3.54157 22.5616 3.58445L28.4475 9.51474C28.4898 9.55735 28.5027 9.62087 28.4801 9.67647C27.0707 13.1359 25.1275 16.8159 22.5256 19.4179C19.9918 21.9517 15.7061 24.1112 11.8364 25.6993L6.34473 20.2076C7.93275 16.3379 10.0923 12.0522 12.6261 9.51839C15.236 6.90851 18.9305 4.96147 22.3992 3.55105Z" fill="url(#paint10_radial_10904_28692)"/>
</g>
<g id="Window Ring" filter="url(#filter1_dii_10904_28692)">
<path d="M24.5 11.0625C24.5 12.9178 22.996 14.4219 21.1406 14.4219C19.2853 14.4219 17.7812 12.9178 17.7812 11.0625C17.7812 9.20717 19.2853 7.70312 21.1406 7.70312C22.996 7.70312 24.5 9.20717 24.5 11.0625Z" fill="url(#paint11_linear_10904_28692)"/>
<path d="M24.5 11.0625C24.5 12.9178 22.996 14.4219 21.1406 14.4219C19.2853 14.4219 17.7812 12.9178 17.7812 11.0625C17.7812 9.20717 19.2853 7.70312 21.1406 7.70312C22.996 7.70312 24.5 9.20717 24.5 11.0625Z" fill="url(#paint12_radial_10904_28692)"/>
</g>
<path id="Glass" d="M23.4659 11.0625C23.4659 12.347 22.4246 13.3883 21.1402 13.3883C19.8557 13.3883 18.8145 12.347 18.8145 11.0625C18.8145 9.77808 19.8557 8.73682 21.1402 8.73682C22.4246 8.73682 23.4659 9.77808 23.4659 11.0625Z" fill="url(#paint13_radial_10904_28692)"/>
<g id="Fire" filter="url(#filter2_i_10904_28692)">
<path d="M2.42357 29.5326C1.71646 28.8255 2.00014 23.9217 4.50012 22.9217C4.50012 22.9217 7.00012 21.9217 8.61113 23.5223C10.2221 25.1229 9.50011 26.9217 9.50011 26.9217C8.79303 29.043 5.78268 29.8862 5.42914 29.5327C5.23388 29.3374 5.58549 28.9819 5.42914 28.8256C5.2728 28.6692 5.03139 28.8477 4.36848 29.1791C3.89708 29.4148 2.70641 29.8155 2.42357 29.5326Z" fill="url(#paint14_radial_10904_28692)"/>
<path d="M2.42357 29.5326C1.71646 28.8255 2.00014 23.9217 4.50012 22.9217C4.50012 22.9217 7.00012 21.9217 8.61113 23.5223C10.2221 25.1229 9.50011 26.9217 9.50011 26.9217C8.79303 29.043 5.78268 29.8862 5.42914 29.5327C5.23388 29.3374 5.58549 28.9819 5.42914 28.8256C5.2728 28.6692 5.03139 28.8477 4.36848 29.1791C3.89708 29.4148 2.70641 29.8155 2.42357 29.5326Z" fill="url(#paint15_radial_10904_28692)"/>
</g>
<g id="Exhaust">
<path d="M6.06043 20.9825C6.64622 20.3967 7.59597 20.3967 8.18175 20.9825L11.7173 24.5181C12.3031 25.1039 12.3031 26.0536 11.7173 26.6394C11.1315 27.2252 10.1818 27.2252 9.59597 26.6394L6.06043 23.1039C5.47465 22.5181 5.47465 21.5683 6.06043 20.9825Z" fill="url(#paint16_linear_10904_28692)"/>
<path d="M6.06043 20.9825C6.64622 20.3967 7.59597 20.3967 8.18175 20.9825L11.7173 24.5181C12.3031 25.1039 12.3031 26.0536 11.7173 26.6394C11.1315 27.2252 10.1818 27.2252 9.59597 26.6394L6.06043 23.1039C5.47465 22.5181 5.47465 21.5683 6.06043 20.9825Z" fill="url(#paint17_radial_10904_28692)"/>
<path d="M6.06043 20.9825C6.64622 20.3967 7.59597 20.3967 8.18175 20.9825L11.7173 24.5181C12.3031 25.1039 12.3031 26.0536 11.7173 26.6394C11.1315 27.2252 10.1818 27.2252 9.59597 26.6394L6.06043 23.1039C5.47465 22.5181 5.47465 21.5683 6.06043 20.9825Z" fill="url(#paint18_radial_10904_28692)"/>
</g>
<g id="Union">
<path d="M29.1721 2.87137C28.2251 1.92428 26.5642 2.03149 25.3538 2.44712C24.4847 2.74553 23.5714 3.08024 22.6395 3.45373C22.5731 3.48032 22.5555 3.56599 22.6059 3.61672L28.4149 9.46559C28.4655 9.5165 28.5516 9.49913 28.5784 9.43254C28.9565 8.49073 29.2949 7.56765 29.5964 6.68976C30.0065 5.49557 30.3363 4.03549 29.1721 2.87137Z" fill="url(#paint19_linear_10904_28692)"/>
<path d="M29.1721 2.87137C28.2251 1.92428 26.5642 2.03149 25.3538 2.44712C24.4847 2.74553 23.5714 3.08024 22.6395 3.45373C22.5731 3.48032 22.5555 3.56599 22.6059 3.61672L28.4149 9.46559C28.4655 9.5165 28.5516 9.49913 28.5784 9.43254C28.9565 8.49073 29.2949 7.56765 29.5964 6.68976C30.0065 5.49557 30.3363 4.03549 29.1721 2.87137Z" fill="url(#paint20_radial_10904_28692)"/>
<path d="M29.1721 2.87137C28.2251 1.92428 26.5642 2.03149 25.3538 2.44712C24.4847 2.74553 23.5714 3.08024 22.6395 3.45373C22.5731 3.48032 22.5555 3.56599 22.6059 3.61672L28.4149 9.46559C28.4655 9.5165 28.5516 9.49913 28.5784 9.43254C28.9565 8.49073 29.2949 7.56765 29.5964 6.68976C30.0065 5.49557 30.3363 4.03549 29.1721 2.87137Z" fill="url(#paint21_linear_10904_28692)"/>
</g>
<g id="Polygon 4">
<path d="M13.5817 16.7178C14.7822 16.2759 15.9494 17.4431 15.5075 18.6436L12.8887 25.758C12.6365 26.4429 11.7593 26.6357 11.2431 26.1196L6.10563 20.9821C5.58951 20.466 5.78232 19.5887 6.4673 19.3366L13.5817 16.7178Z" fill="url(#paint22_linear_10904_28692)"/>
<path d="M13.5817 16.7178C14.7822 16.2759 15.9494 17.4431 15.5075 18.6436L12.8887 25.758C12.6365 26.4429 11.7593 26.6357 11.2431 26.1196L6.10563 20.9821C5.58951 20.466 5.78232 19.5887 6.4673 19.3366L13.5817 16.7178Z" fill="url(#paint23_radial_10904_28692)"/>
<path d="M13.5817 16.7178C14.7822 16.2759 15.9494 17.4431 15.5075 18.6436L12.8887 25.758C12.6365 26.4429 11.7593 26.6357 11.2431 26.1196L6.10563 20.9821C5.58951 20.466 5.78232 19.5887 6.4673 19.3366L13.5817 16.7178Z" fill="url(#paint24_radial_10904_28692)"/>
<path d="M13.5817 16.7178C14.7822 16.2759 15.9494 17.4431 15.5075 18.6436L12.8887 25.758C12.6365 26.4429 11.7593 26.6357 11.2431 26.1196L6.10563 20.9821C5.58951 20.466 5.78232 19.5887 6.4673 19.3366L13.5817 16.7178Z" fill="url(#paint25_radial_10904_28692)"/>
</g>
<g id="Vector 1" filter="url(#filter3_f_10904_28692)">
<path d="M9.20508 22.0469L14.8301 17.6406L11.2051 24.0781L9.20508 22.0469Z" fill="url(#paint26_linear_10904_28692)"/>
</g>
</g>
<defs>
<filter id="filter0_i_10904_28692" x="6.09473" y="3.04004" width="22.3965" height="22.6592" filterUnits="userSpaceOnUse" color-interpolation-filters="sRGB">
<feFlood flood-opacity="0" result="BackgroundImageFix"/>
<feBlend mode="normal" in="SourceGraphic" in2="BackgroundImageFix" result="shape"/>
<feColorMatrix in="SourceAlpha" type="matrix" values="0 0 0 0 0 0 0 0 0 0 0 0 0 0 0 0 0 0 127 0" result="hardAlpha"/>
<feOffset dx="-0.25" dy="-0.5"/>
<feGaussianBlur stdDeviation="0.75"/>
<feComposite in2="hardAlpha" operator="arithmetic" k2="-1" k3="1"/>
<feColorMatrix type="matrix" values="0 0 0 0 0.745098 0 0 0 0 0.772549 0 0 0 0 0.952941 0 0 0 1 0"/>
<feBlend mode="normal" in2="shape" result="effect1_innerShadow_10904_28692"/>
</filter>
<filter id="filter1_dii_10904_28692" x="16.7812" y="6.95312" width="8.71875" height="8.71875" filterUnits="userSpaceOnUse" color-interpolation-filters="sRGB">
<feFlood flood-opacity="0" result="BackgroundImageFix"/>
<feColorMatrix in="SourceAlpha" type="matrix" values="0 0 0 0 0 0 0 0 0 0 0 0 0 0 0 0 0 0 127 0" result="hardAlpha"/>
<feOffset dy="0.25"/>
<feGaussianBlur stdDeviation="0.5"/>
<feComposite in2="hardAlpha" operator="out"/>
<feColorMatrix type="matrix" values="0 0 0 0 0.866667 0 0 0 0 0.764706 0 0 0 0 0.847059 0 0 0 1 0"/>
<feBlend mode="normal" in2="BackgroundImageFix" result="effect1_dropShadow_10904_28692"/>
<feBlend mode="normal" in="SourceGraphic" in2="effect1_dropShadow_10904_28692" result="shape"/>
<feColorMatrix in="SourceAlpha" type="matrix" values="0 0 0 0 0 0 0 0 0 0 0 0 0 0 0 0 0 0 127 0" result="hardAlpha"/>
<feOffset dx="-0.1" dy="0.1"/>
<feGaussianBlur stdDeviation="0.05"/>
<feComposite in2="hardAlpha" operator="arithmetic" k2="-1" k3="1"/>
<feColorMatrix type="matrix" values="0 0 0 0 0.721569 0 0 0 0 0.690196 0 0 0 0 0.701961 0 0 0 1 0"/>
<feBlend mode="normal" in2="shape" result="effect2_innerShadow_10904_28692"/>
<feColorMatrix in="SourceAlpha" type="matrix" values="0 0 0 0 0 0 0 0 0 0 0 0 0 0 0 0 0 0 127 0" result="hardAlpha"/>
<feOffset dx="0.1" dy="-0.1"/>
<feGaussianBlur stdDeviation="0.05"/>
<feComposite in2="hardAlpha" operator="arithmetic" k2="-1" k3="1"/>
<feColorMatrix type="matrix" values="0 0 0 0 0.615686 0 0 0 0 0.560784 0 0 0 0 0.65098 0 0 0 1 0"/>
<feBlend mode="normal" in2="effect2_innerShadow_10904_28692" result="effect3_innerShadow_10904_28692"/>
</filter>
<filter id="filter2_i_10904_28692" x="2.08789" y="22.4133" width="7.57324" height="7.2166" filterUnits="userSpaceOnUse" color-interpolation-filters="sRGB">
<feFlood flood-opacity="0" result="BackgroundImageFix"/>
<feBlend mode="normal" in="SourceGraphic" in2="BackgroundImageFix" result="shape"/>
<feColorMatrix in="SourceAlpha" type="matrix" values="0 0 0 0 0 0 0 0 0 0 0 0 0 0 0 0 0 0 127 0" result="hardAlpha"/>
<feOffset dy="-0.2"/>
<feGaussianBlur stdDeviation="0.2"/>
<feComposite in2="hardAlpha" operator="arithmetic" k2="-1" k3="1"/>
<feColorMatrix type="matrix" values="0 0 0 0 0.847059 0 0 0 0 0.505882 0 0 0 0 0.360784 0 0 0 1 0"/>
<feBlend mode="normal" in2="shape" result="effect1_innerShadow_10904_28692"/>
</filter>
<filter id="filter3_f_10904_28692" x="8.20508" y="16.6406" width="7.625" height="8.4375" filterUnits="userSpaceOnUse" color-interpolation-filters="sRGB">
<feFlood flood-opacity="0" result="BackgroundImageFix"/>
<feBlend mode="normal" in="SourceGraphic" in2="BackgroundImageFix" result="shape"/>
<feGaussianBlur stdDeviation="0.5" result="effect1_foregroundBlur_10904_28692"/>
</filter>
<linearGradient id="paint0_linear_10904_28692" x1="8.11104" y1="17.3078" x2="3.11104" y2="16.4841" gradientUnits="userSpaceOnUse">
<stop stop-color="#EE2452"/>
<stop offset="1" stop-color="#F63E7A"/>
</linearGradient>
<radialGradient id="paint1_radial_10904_28692" cx="0" cy="0" r="1" gradientUnits="userSpaceOnUse" gradientTransform="translate(2.39769 17.063) rotate(-19.9576) scale(8.00168 1.36045)">
<stop offset="0.163866" stop-color="#FF8DB0"/>
<stop offset="1" stop-color="#FF8DB0" stop-opacity="0"/>
</radialGradient>
<linearGradient id="paint2_linear_10904_28692" x1="4.9049" y1="19.733" x2="5.72018" y2="18.9381" gradientUnits="userSpaceOnUse">
<stop offset="0.491189" stop-color="#DD467C"/>
<stop offset="1" stop-color="#DD467C" stop-opacity="0"/>
</linearGradient>
<linearGradient id="paint3_linear_10904_28692" x1="17.8923" y1="21.6716" x2="11.6744" y2="26.5509" gradientUnits="userSpaceOnUse">
<stop stop-color="#F83267"/>
<stop offset="1" stop-color="#FF3190"/>
</linearGradient>
<radialGradient id="paint4_radial_10904_28692" cx="0" cy="0" r="1" gradientUnits="userSpaceOnUse" gradientTransform="translate(14.5798 22.2029) rotate(86.482) scale(7.63907 6.58606)">
<stop offset="0.756562" stop-color="#E76CBE" stop-opacity="0"/>
<stop offset="0.951296" stop-color="#E76CBE"/>
</radialGradient>
<radialGradient id="paint5_radial_10904_28692" cx="0" cy="0" r="1" gradientUnits="userSpaceOnUse" gradientTransform="translate(13.4548 26.2341) rotate(-57.3464) scale(5.27051 2.31507)">
<stop stop-color="#FF5898"/>
<stop offset="1" stop-color="#FF5898" stop-opacity="0"/>
</radialGradient>
<linearGradient id="paint6_linear_10904_28692" x1="13.486" y1="8.67183" x2="22.2985" y2="17.5468" gradientUnits="userSpaceOnUse">
<stop stop-color="#CCBBC0"/>
<stop offset="1" stop-color="#EAD2EC"/>
</linearGradient>
<radialGradient id="paint7_radial_10904_28692" cx="0" cy="0" r="1" gradientUnits="userSpaceOnUse" gradientTransform="translate(23.9695 21.5772) rotate(-142.447) scale(16.6769 31.3483)">
<stop offset="0.811143" stop-color="#E7E5E5" stop-opacity="0"/>
<stop offset="1" stop-color="#E7E5E5"/>
</radialGradient>
<radialGradient id="paint8_radial_10904_28692" cx="0" cy="0" r="1" gradientUnits="userSpaceOnUse" gradientTransform="translate(9.18147 21.3097) rotate(-56.9293) scale(9.80381 4.6077)">
<stop offset="0.281006" stop-color="#B5A3A5"/>
<stop offset="1" stop-color="#B5A3A5" stop-opacity="0"/>
</radialGradient>
<radialGradient id="paint9_radial_10904_28692" cx="0" cy="0" r="1" gradientUnits="userSpaceOnUse" gradientTransform="translate(6.34473 20.0911) rotate(-73.625) scale(8.69119 1.4727)">
<stop offset="0.207885" stop-color="#B28F96"/>
<stop offset="1" stop-color="#B28F96" stop-opacity="0"/>
</radialGradient>
<radialGradient id="paint10_radial_10904_28692" cx="0" cy="0" r="1" gradientUnits="userSpaceOnUse" gradientTransform="translate(27.111 7.10933) rotate(137.284) scale(13.175 4.09069)">
<stop stop-color="#FAECF1"/>
<stop offset="1" stop-color="#FAECF1" stop-opacity="0"/>
</radialGradient>
<linearGradient id="paint11_linear_10904_28692" x1="17.7813" y1="10.4914" x2="24.5" y2="11.0625" gradientUnits="userSpaceOnUse">
<stop stop-color="#A796A0"/>
<stop offset="1" stop-color="#A5959F"/>
</linearGradient>
<radialGradient id="paint12_radial_10904_28692" cx="0" cy="0" r="1" gradientUnits="userSpaceOnUse" gradientTransform="translate(21.1406 11.0625) rotate(90) scale(3.35938)">
<stop offset="0.586538" stop-color="#93859B"/>
<stop offset="1" stop-color="#93859B" stop-opacity="0"/>
</radialGradient>
<radialGradient id="paint13_radial_10904_28692" cx="0" cy="0" r="1" gradientUnits="userSpaceOnUse" gradientTransform="translate(21.1402 13.3883) rotate(-90) scale(4.84559 4.45626)">
<stop stop-color="#72CDFF"/>
<stop offset="0.738019" stop-color="#66ACFF"/>
<stop offset="1" stop-color="#3B57F4"/>
</radialGradient>
<radialGradient id="paint14_radial_10904_28692" cx="0" cy="0" r="1" gradientUnits="userSpaceOnUse" gradientTransform="translate(8.19125 24.2458) rotate(135) scale(5.80645 4.56401)">
<stop stop-color="#D46213"/>
<stop offset="1" stop-color="#FF9542"/>
</radialGradient>
<radialGradient id="paint15_radial_10904_28692" cx="0" cy="0" r="1" gradientUnits="userSpaceOnUse" gradientTransform="translate(8.30374 28.9703) rotate(-131.186) scale(7.17453 7.56076)">
<stop offset="0.870944" stop-color="#FFC484" stop-opacity="0"/>
<stop offset="1" stop-color="#FFC484"/>
</radialGradient>
<linearGradient id="paint16_linear_10904_28692" x1="5.79818" y1="21.9531" x2="11.2982" y2="27.3594" gradientUnits="userSpaceOnUse">
<stop stop-color="#452860"/>
<stop offset="1" stop-color="#51509F"/>
</linearGradient>
<radialGradient id="paint17_radial_10904_28692" cx="0" cy="0" r="1" gradientUnits="userSpaceOnUse" gradientTransform="translate(6.82943 21.4531) rotate(77.8285) scale(1.6304 1.4405)">
<stop stop-color="#8E839A"/>
<stop offset="1" stop-color="#8E839A" stop-opacity="0"/>
</radialGradient>
<radialGradient id="paint18_radial_10904_28692" cx="0" cy="0" r="1" gradientUnits="userSpaceOnUse" gradientTransform="translate(7.20665 22.418) rotate(47.9357) scale(6.2123 3.25637)">
<stop offset="0.860492" stop-color="#6175B9" stop-opacity="0"/>
<stop offset="1" stop-color="#6175B9"/>
</radialGradient>
<linearGradient id="paint19_linear_10904_28692" x1="29.1765" y1="2.87575" x2="25.5004" y2="6.55184" gradientUnits="userSpaceOnUse">
<stop stop-color="#FF3745"/>
<stop offset="1" stop-color="#ED224B"/>
</linearGradient>
<radialGradient id="paint20_radial_10904_28692" cx="0" cy="0" r="1" gradientUnits="userSpaceOnUse" gradientTransform="translate(28.7383 4.34731) rotate(135) scale(8.24677 1.9797)">
<stop offset="0.189394" stop-color="#FF5971"/>
<stop offset="1" stop-color="#FF5971" stop-opacity="0"/>
</radialGradient>
<linearGradient id="paint21_linear_10904_28692" x1="25.8217" y1="6.79665" x2="26.1889" y2="6.41383" gradientUnits="userSpaceOnUse">
<stop stop-color="#D2575E"/>
<stop offset="1" stop-color="#F93251" stop-opacity="0"/>
</linearGradient>
<linearGradient id="paint22_linear_10904_28692" x1="15.1605" y1="17.0648" x2="8.67438" y2="23.5509" gradientUnits="userSpaceOnUse">
<stop stop-color="#FF2644"/>
<stop offset="1" stop-color="#FF2982"/>
</linearGradient>
<radialGradient id="paint23_radial_10904_28692" cx="0" cy="0" r="1" gradientUnits="userSpaceOnUse" gradientTransform="translate(6.23604 19.4216) rotate(-20.8651) scale(7.45782 1.95239)">
<stop stop-color="#FF95AF"/>
<stop offset="1" stop-color="#FF95AF" stop-opacity="0"/>
</radialGradient>
<radialGradient id="paint24_radial_10904_28692" cx="0" cy="0" r="1" gradientUnits="userSpaceOnUse" gradientTransform="translate(5.39769 20.3078) rotate(44.7044) scale(4.61021 1.36182)">
<stop offset="0.381871" stop-color="#E14678"/>
<stop offset="1" stop-color="#E14678" stop-opacity="0"/>
</radialGradient>
<radialGradient id="paint25_radial_10904_28692" cx="0" cy="0" r="1" gradientUnits="userSpaceOnUse" gradientTransform="translate(11.5798 19.1404) rotate(84.6743) scale(7.40698 7.89321)">
<stop offset="0.831791" stop-color="#E67BC7" stop-opacity="0"/>
<stop offset="1" stop-color="#E67BC7"/>
</radialGradient>
<linearGradient id="paint26_linear_10904_28692" x1="13.9863" y1="18.1094" x2="9.86133" y2="22.4219" gradientUnits="userSpaceOnUse">
<stop stop-color="#FF5970"/>
<stop offset="1" stop-color="#FF5794"/>
</linearGradient>
<clipPath id="clip0_10904_28692">
<rect width="32" height="32" fill="white"/>
</clipPath>
</defs>
</svg>
