<svg width="164" height="44" viewBox="0 0 164 44" fill="none" xmlns="http://www.w3.org/2000/svg">
<g filter="url(#filter0_d_4170_24937)">
<path d="M2 9C2 4.58172 5.58172 1 10 1H154C158.418 1 162 4.58172 162 9V33C162 37.4183 158.418 41 154 41H10C5.58172 41 2 37.4183 2 33V9Z" fill="white"/>
<g clip-path="url(#clip0_4170_24937)">
<path d="M63.2663 21.2763C63.2663 20.4605 63.2001 19.6404 63.059 18.8379H51.7402V23.4589H58.222C57.953 24.9492 57.0888 26.2676 55.8233 27.1054V30.1037H59.6903C61.9611 28.0137 63.2663 24.9272 63.2663 21.2763Z" fill="#4285F4"/>
<path d="M51.7401 33.0008C54.9766 33.0008 57.7059 31.9382 59.6945 30.1039L55.8276 27.1055C54.7517 27.8375 53.3627 28.252 51.7445 28.252C48.6139 28.252 45.9595 26.1399 45.007 23.3003H41.0166V26.3912C43.0537 30.4434 47.2029 33.0008 51.7401 33.0008Z" fill="#34A853"/>
<path d="M45.0028 23.3002C44.5001 21.8099 44.5001 20.196 45.0028 18.7057V15.6147H41.0167C39.3147 19.0055 39.3147 23.0004 41.0167 26.3912L45.0028 23.3002Z" fill="#FBBC04"/>
<path d="M51.7401 13.7497C53.4509 13.7232 55.1044 14.367 56.3434 15.5487L59.7695 12.1226C57.6001 10.0855 54.7208 8.96553 51.7401 9.00081C47.2029 9.00081 43.0537 11.5582 41.0166 15.6148L45.0026 18.7058C45.9506 15.8617 48.6095 13.7497 51.7401 13.7497Z" fill="#EA4335"/>
</g>
<path d="M83.3253 19.0696C83.2424 18.8011 83.1281 18.5608 82.9822 18.3487C82.8397 18.1333 82.6674 17.9493 82.4652 17.7969C82.2663 17.6444 82.0376 17.5301 81.7791 17.4538C81.5206 17.3743 81.2389 17.3345 80.9339 17.3345C80.3871 17.3345 79.8999 17.4721 79.4723 17.7472C79.0447 18.0223 78.7083 18.4266 78.4631 18.9602C78.2211 19.4905 78.1001 20.1368 78.1001 20.8991C78.1001 21.6681 78.2211 22.3194 78.4631 22.853C78.705 23.3866 79.0414 23.7926 79.4723 24.071C79.9032 24.3461 80.4036 24.4837 80.9737 24.4837C81.4908 24.4837 81.9382 24.3842 82.3161 24.1854C82.6972 23.9865 82.9905 23.7048 83.196 23.3402C83.4015 22.9723 83.5043 22.5414 83.5043 22.0476L83.9219 22.1122H81.1577V20.6705H85.2891V21.8935C85.2891 22.7652 85.1035 23.5192 84.7322 24.1555C84.361 24.7919 83.8506 25.2824 83.201 25.6271C82.5514 25.9685 81.8056 26.1392 80.9638 26.1392C80.0258 26.1392 79.2022 25.9287 78.4929 25.5078C77.7869 25.0836 77.2351 24.482 76.8374 23.7031C76.4429 22.9209 76.2457 21.9929 76.2457 20.919C76.2457 20.0971 76.3617 19.3629 76.5938 18.7166C76.8291 18.0703 77.1572 17.5218 77.5781 17.071C77.9991 16.617 78.4929 16.2723 79.0597 16.0369C79.6264 15.7983 80.2429 15.679 80.9091 15.679C81.4725 15.679 81.9979 15.7618 82.4851 15.9276C82.9723 16.09 83.4048 16.322 83.7827 16.6236C84.1638 16.9252 84.477 17.2831 84.7223 17.6974C84.9676 18.1117 85.1283 18.5691 85.2045 19.0696H83.3253ZM90.324 26.1491C89.5783 26.1491 88.932 25.9851 88.3851 25.657C87.8382 25.3288 87.414 24.8698 87.1124 24.2798C86.8141 23.6899 86.665 23.0005 86.665 22.2116C86.665 21.4228 86.8141 20.7318 87.1124 20.1385C87.414 19.5452 87.8382 19.0845 88.3851 18.7564C88.932 18.4283 89.5783 18.2642 90.324 18.2642C91.0698 18.2642 91.7161 18.4283 92.263 18.7564C92.8098 19.0845 93.2324 19.5452 93.5307 20.1385C93.8323 20.7318 93.9831 21.4228 93.9831 22.2116C93.9831 23.0005 93.8323 23.6899 93.5307 24.2798C93.2324 24.8698 92.8098 25.3288 92.263 25.657C91.7161 25.9851 91.0698 26.1491 90.324 26.1491ZM90.334 24.7074C90.7383 24.7074 91.0764 24.5964 91.3482 24.3743C91.62 24.1489 91.8221 23.8473 91.9547 23.4695C92.0906 23.0916 92.1586 22.6707 92.1586 22.2067C92.1586 21.7393 92.0906 21.3168 91.9547 20.9389C91.8221 20.5578 91.62 20.2545 91.3482 20.0291C91.0764 19.8037 90.7383 19.6911 90.334 19.6911C89.9197 19.6911 89.575 19.8037 89.2999 20.0291C89.0281 20.2545 88.8243 20.5578 88.6884 20.9389C88.5558 21.3168 88.4895 21.7393 88.4895 22.2067C88.4895 22.6707 88.5558 23.0916 88.6884 23.4695C88.8243 23.8473 89.0281 24.1489 89.2999 24.3743C89.575 24.5964 89.9197 24.7074 90.334 24.7074ZM98.8416 26.1491C98.0959 26.1491 97.4496 25.9851 96.9027 25.657C96.3558 25.3288 95.9316 24.8698 95.63 24.2798C95.3317 23.6899 95.1825 23.0005 95.1825 22.2116C95.1825 21.4228 95.3317 20.7318 95.63 20.1385C95.9316 19.5452 96.3558 19.0845 96.9027 18.7564C97.4496 18.4283 98.0959 18.2642 98.8416 18.2642C99.5874 18.2642 100.234 18.4283 100.781 18.7564C101.327 19.0845 101.75 19.5452 102.048 20.1385C102.35 20.7318 102.501 21.4228 102.501 22.2116C102.501 23.0005 102.35 23.6899 102.048 24.2798C101.75 24.8698 101.327 25.3288 100.781 25.657C100.234 25.9851 99.5874 26.1491 98.8416 26.1491ZM98.8516 24.7074C99.2559 24.7074 99.594 24.5964 99.8658 24.3743C100.138 24.1489 100.34 23.8473 100.472 23.4695C100.608 23.0916 100.676 22.6707 100.676 22.2067C100.676 21.7393 100.608 21.3168 100.472 20.9389C100.34 20.5578 100.138 20.2545 99.8658 20.0291C99.594 19.8037 99.2559 19.6911 98.8516 19.6911C98.4373 19.6911 98.0926 19.8037 97.8175 20.0291C97.5457 20.2545 97.3419 20.5578 97.206 20.9389C97.0734 21.3168 97.0071 21.7393 97.0071 22.2067C97.0071 22.6707 97.0734 23.0916 97.206 23.4695C97.3419 23.8473 97.5457 24.1489 97.8175 24.3743C98.0926 24.5964 98.4373 24.7074 98.8516 24.7074ZM107.349 29.0227C106.703 29.0227 106.148 28.9349 105.684 28.7592C105.22 28.5869 104.847 28.3549 104.565 28.0632C104.283 27.7715 104.088 27.4484 103.979 27.0938L105.599 26.701C105.672 26.8501 105.778 26.9976 105.917 27.1435C106.057 27.2926 106.244 27.4152 106.479 27.5114C106.718 27.6108 107.018 27.6605 107.379 27.6605C107.89 27.6605 108.312 27.5362 108.647 27.2876C108.982 27.0424 109.149 26.638 109.149 26.0746V24.6278H109.059C108.967 24.8134 108.831 25.004 108.652 25.1996C108.476 25.3951 108.242 25.5592 107.951 25.6918C107.662 25.8243 107.3 25.8906 106.862 25.8906C106.275 25.8906 105.743 25.7531 105.266 25.478C104.792 25.1996 104.414 24.7853 104.133 24.2351C103.854 23.6816 103.715 22.9889 103.715 22.157C103.715 21.3184 103.854 20.6108 104.133 20.0341C104.414 19.4541 104.794 19.0149 105.271 18.7166C105.748 18.415 106.28 18.2642 106.867 18.2642C107.314 18.2642 107.682 18.3404 107.971 18.4929C108.262 18.642 108.494 18.8227 108.667 19.0348C108.839 19.2436 108.97 19.4408 109.059 19.6264H109.159V18.3636H110.934V26.1243C110.934 26.7772 110.778 27.3175 110.466 27.745C110.155 28.1726 109.729 28.4924 109.189 28.7045C108.648 28.9167 108.035 29.0227 107.349 29.0227ZM107.364 24.4787C107.745 24.4787 108.07 24.3859 108.339 24.2003C108.607 24.0147 108.811 23.7479 108.95 23.3999C109.089 23.0518 109.159 22.6342 109.159 22.147C109.159 21.6664 109.089 21.2455 108.95 20.8842C108.814 20.523 108.612 20.2429 108.344 20.044C108.078 19.8419 107.752 19.7408 107.364 19.7408C106.963 19.7408 106.628 19.8452 106.36 20.054C106.091 20.2628 105.889 20.5495 105.753 20.9141C105.617 21.2753 105.55 21.6863 105.55 22.147C105.55 22.6143 105.617 23.0237 105.753 23.375C105.893 23.723 106.096 23.9948 106.365 24.1903C106.637 24.3826 106.97 24.4787 107.364 24.4787ZM114.578 15.8182V26H112.778V15.8182H114.578ZM119.809 26.1491C119.044 26.1491 118.382 25.9901 117.826 25.6719C117.272 25.3504 116.846 24.8963 116.548 24.3097C116.25 23.7197 116.1 23.0253 116.1 22.2266C116.1 21.4411 116.25 20.7517 116.548 20.1584C116.85 19.5618 117.27 19.0978 117.811 18.7663C118.351 18.4316 118.986 18.2642 119.715 18.2642C120.185 18.2642 120.63 18.3404 121.047 18.4929C121.468 18.642 121.839 18.8741 122.161 19.1889C122.486 19.5038 122.741 19.9048 122.926 20.392C123.112 20.8759 123.205 21.4527 123.205 22.1222V22.674H116.946V21.4609H121.48C121.476 21.1162 121.402 20.8097 121.256 20.5412C121.11 20.2694 120.906 20.0556 120.645 19.8999C120.386 19.7441 120.084 19.6662 119.74 19.6662C119.372 19.6662 119.049 19.7557 118.77 19.9347C118.492 20.1103 118.275 20.3423 118.119 20.6307C117.967 20.9157 117.889 21.2289 117.885 21.5703V22.6293C117.885 23.0734 117.967 23.4545 118.129 23.7727C118.291 24.0876 118.518 24.3295 118.81 24.4986C119.102 24.6643 119.443 24.7472 119.834 24.7472C120.096 24.7472 120.333 24.7107 120.545 24.6378C120.757 24.5616 120.941 24.4505 121.097 24.3047C121.253 24.1589 121.37 23.9782 121.45 23.7628L123.13 23.9517C123.024 24.3958 122.822 24.7836 122.524 25.1151C122.229 25.4432 121.851 25.6984 121.39 25.8807C120.93 26.0597 120.403 26.1491 119.809 26.1491Z" fill="#344054"/>
<path d="M2.5 9C2.5 4.85786 5.85786 1.5 10 1.5H154C158.142 1.5 161.5 4.85786 161.5 9V33C161.5 37.1421 158.142 40.5 154 40.5H10C5.85787 40.5 2.5 37.1421 2.5 33V9Z" stroke="#D0D5DD"/>
</g>
<defs>
<filter id="filter0_d_4170_24937" x="0" y="0" width="164" height="44" filterUnits="userSpaceOnUse" color-interpolation-filters="sRGB">
<feFlood flood-opacity="0" result="BackgroundImageFix"/>
<feColorMatrix in="SourceAlpha" type="matrix" values="0 0 0 0 0 0 0 0 0 0 0 0 0 0 0 0 0 0 127 0" result="hardAlpha"/>
<feOffset dy="1"/>
<feGaussianBlur stdDeviation="1"/>
<feColorMatrix type="matrix" values="0 0 0 0 0.0627451 0 0 0 0 0.0941176 0 0 0 0 0.156863 0 0 0 0.05 0"/>
<feBlend mode="normal" in2="BackgroundImageFix" result="effect1_dropShadow_4170_24937"/>
<feBlend mode="normal" in="SourceGraphic" in2="effect1_dropShadow_4170_24937" result="shape"/>
</filter>
<clipPath id="clip0_4170_24937">
<rect width="24" height="24" fill="white" transform="translate(39.5 9)"/>
</clipPath>
</defs>
</svg>
