<svg width="164" height="44" viewBox="0 0 164 44" fill="none" xmlns="http://www.w3.org/2000/svg">
<g filter="url(#filter0_d_4170_24966)">
<path d="M2 9C2 4.58172 5.58172 1 10 1H154C158.418 1 162 4.58172 162 9V33C162 37.4183 158.418 41 154 41H10C5.58172 41 2 37.4183 2 33V9Z" fill="black"/>
<path d="M55.8428 26.1447C55.5101 26.9133 55.1163 27.6208 54.66 28.2713C54.0381 29.158 53.5288 29.7719 53.1364 30.1127C52.528 30.6722 51.8762 30.9587 51.1782 30.975C50.6771 30.975 50.0728 30.8324 49.3693 30.5432C48.6636 30.2553 48.015 30.1127 47.422 30.1127C46.8 30.1127 46.133 30.2553 45.4195 30.5432C44.7049 30.8324 44.1293 30.9832 43.6892 30.9981C43.0198 31.0266 42.3526 30.7319 41.6867 30.1127C41.2616 29.742 40.73 29.1064 40.0931 28.2061C39.4098 27.2446 38.848 26.1297 38.4078 24.8587C37.9365 23.4857 37.7002 22.1563 37.7002 20.8692C37.7002 19.3948 38.0188 18.1232 38.6569 17.0576C39.1584 16.2017 39.8256 15.5265 40.6606 15.0308C41.4956 14.5351 42.3979 14.2826 43.3695 14.2664C43.9011 14.2664 44.5983 14.4309 45.4647 14.7541C46.3287 15.0783 46.8834 15.2428 47.1266 15.2428C47.3085 15.2428 47.9247 15.0505 48.9694 14.6671C49.9573 14.3116 50.7911 14.1644 51.4742 14.2224C53.3251 14.3718 54.7157 15.1014 55.6405 16.416C53.9851 17.419 53.1662 18.8238 53.1825 20.626C53.1975 22.0297 53.7067 23.1979 54.7076 24.1254C55.1611 24.5558 55.6676 24.8885 56.2312 25.1248C56.109 25.4793 55.98 25.8188 55.8428 26.1447ZM51.5978 9.44013C51.5978 10.5404 51.1958 11.5677 50.3946 12.5185C49.4277 13.6489 48.2582 14.3021 46.99 14.199C46.9738 14.067 46.9645 13.9281 46.9645 13.7821C46.9645 12.7259 47.4243 11.5955 48.2408 10.6713C48.6485 10.2033 49.167 9.81421 49.7957 9.50381C50.4231 9.19805 51.0166 9.02896 51.5747 9C51.591 9.14709 51.5978 9.29418 51.5978 9.44011V9.44013Z" fill="white"/>
<path d="M73.3118 26H71.343L74.9276 15.8182H77.2045L80.794 26H78.8253L76.1058 17.9062H76.0263L73.3118 26ZM73.3764 22.0078H78.7457V23.4893H73.3764V22.0078ZM82.0556 28.8636V18.3636H83.8255V19.6264H83.9299C84.0227 19.4408 84.1536 19.2436 84.3226 19.0348C84.4917 18.8227 84.7203 18.642 85.0087 18.4929C85.2971 18.3404 85.665 18.2642 86.1124 18.2642C86.7024 18.2642 87.2343 18.415 87.7083 18.7166C88.1855 19.0149 88.5634 19.4574 88.8418 20.044C89.1235 20.6274 89.2644 21.3433 89.2644 22.1918C89.2644 23.0303 89.1268 23.7429 88.8517 24.3295C88.5766 24.9162 88.2021 25.3636 87.7282 25.6719C87.2542 25.9801 86.7173 26.1342 86.1174 26.1342C85.6799 26.1342 85.3169 26.0613 85.0286 25.9155C84.7402 25.7696 84.5082 25.594 84.3326 25.3885C84.1602 25.1797 84.026 24.9825 83.9299 24.7969H83.8553V28.8636H82.0556ZM83.8205 22.1818C83.8205 22.6757 83.8901 23.1082 84.0293 23.4794C84.1718 23.8506 84.3757 24.1406 84.6408 24.3494C84.9093 24.5549 85.2341 24.6577 85.6152 24.6577C86.013 24.6577 86.3461 24.5516 86.6145 24.3395C86.883 24.1241 87.0852 23.8307 87.2211 23.4595C87.3603 23.085 87.4299 22.6591 87.4299 22.1818C87.4299 21.7079 87.3619 21.2869 87.226 20.919C87.0901 20.5511 86.888 20.2628 86.6195 20.054C86.351 19.8452 86.0163 19.7408 85.6152 19.7408C85.2308 19.7408 84.9043 19.8419 84.6358 20.044C84.3674 20.2462 84.1635 20.5296 84.0243 20.8942C83.8884 21.2588 83.8205 21.688 83.8205 22.1818ZM90.8056 28.8636V18.3636H92.5755V19.6264H92.6799C92.7727 19.4408 92.9036 19.2436 93.0726 19.0348C93.2417 18.8227 93.4703 18.642 93.7587 18.4929C94.0471 18.3404 94.415 18.2642 94.8624 18.2642C95.4524 18.2642 95.9843 18.415 96.4583 18.7166C96.9355 19.0149 97.3134 19.4574 97.5918 20.044C97.8735 20.6274 98.0144 21.3433 98.0144 22.1918C98.0144 23.0303 97.8768 23.7429 97.6017 24.3295C97.3266 24.9162 96.9521 25.3636 96.4782 25.6719C96.0042 25.9801 95.4673 26.1342 94.8674 26.1342C94.4299 26.1342 94.0669 26.0613 93.7786 25.9155C93.4902 25.7696 93.2582 25.594 93.0826 25.3885C92.9102 25.1797 92.776 24.9825 92.6799 24.7969H92.6053V28.8636H90.8056ZM92.5705 22.1818C92.5705 22.6757 92.6401 23.1082 92.7793 23.4794C92.9218 23.8506 93.1257 24.1406 93.3908 24.3494C93.6593 24.5549 93.9841 24.6577 94.3652 24.6577C94.763 24.6577 95.0961 24.5516 95.3645 24.3395C95.633 24.1241 95.8352 23.8307 95.9711 23.4595C96.1103 23.085 96.1799 22.6591 96.1799 22.1818C96.1799 21.7079 96.1119 21.2869 95.976 20.919C95.8401 20.5511 95.638 20.2628 95.3695 20.054C95.101 19.8452 94.7663 19.7408 94.3652 19.7408C93.9808 19.7408 93.6543 19.8419 93.3858 20.044C93.1174 20.2462 92.9135 20.5296 92.7743 20.8942C92.6384 21.2588 92.5705 21.688 92.5705 22.1818ZM101.355 15.8182V26H99.5556V15.8182H101.355ZM106.587 26.1491C105.821 26.1491 105.16 25.9901 104.603 25.6719C104.049 25.3504 103.624 24.8963 103.325 24.3097C103.027 23.7197 102.878 23.0253 102.878 22.2266C102.878 21.4411 103.027 20.7517 103.325 20.1584C103.627 19.5618 104.048 19.0978 104.588 18.7663C105.128 18.4316 105.763 18.2642 106.492 18.2642C106.963 18.2642 107.407 18.3404 107.825 18.4929C108.246 18.642 108.617 18.8741 108.938 19.1889C109.263 19.5038 109.518 19.9048 109.704 20.392C109.889 20.8759 109.982 21.4527 109.982 22.1222V22.674H103.723V21.4609H108.257C108.254 21.1162 108.179 20.8097 108.033 20.5412C107.888 20.2694 107.684 20.0556 107.422 19.8999C107.163 19.7441 106.862 19.6662 106.517 19.6662C106.149 19.6662 105.826 19.7557 105.548 19.9347C105.269 20.1103 105.052 20.3423 104.896 20.6307C104.744 20.9157 104.666 21.2289 104.663 21.5703V22.6293C104.663 23.0734 104.744 23.4545 104.906 23.7727C105.069 24.0876 105.296 24.3295 105.587 24.4986C105.879 24.6643 106.22 24.7472 106.612 24.7472C106.873 24.7472 107.11 24.7107 107.322 24.6378C107.535 24.5616 107.719 24.4505 107.874 24.3047C108.03 24.1589 108.148 23.9782 108.227 23.7628L109.908 23.9517C109.802 24.3958 109.599 24.7836 109.301 25.1151C109.006 25.4432 108.628 25.6984 108.168 25.8807C107.707 26.0597 107.18 26.1491 106.587 26.1491ZM116.901 15.8182V26H115.057V15.8182H116.901ZM122.349 26H118.899V15.8182H122.419C123.43 15.8182 124.298 16.022 125.024 16.4297C125.753 16.834 126.313 17.4157 126.704 18.1747C127.095 18.9337 127.291 19.8419 127.291 20.8991C127.291 21.9598 127.094 22.8712 126.699 23.6335C126.308 24.3958 125.743 24.9808 125.004 25.3885C124.268 25.7962 123.383 26 122.349 26ZM120.743 24.4041H122.26C122.969 24.4041 123.56 24.2749 124.034 24.0163C124.508 23.7545 124.865 23.3651 125.103 22.848C125.342 22.3277 125.461 21.678 125.461 20.8991C125.461 20.1203 125.342 19.474 125.103 18.9602C124.865 18.4432 124.512 18.0571 124.044 17.8018C123.58 17.5433 123.004 17.4141 122.314 17.4141H120.743V24.4041Z" fill="white"/>
</g>
<defs>
<filter id="filter0_d_4170_24966" x="0" y="0" width="164" height="44" filterUnits="userSpaceOnUse" color-interpolation-filters="sRGB">
<feFlood flood-opacity="0" result="BackgroundImageFix"/>
<feColorMatrix in="SourceAlpha" type="matrix" values="0 0 0 0 0 0 0 0 0 0 0 0 0 0 0 0 0 0 127 0" result="hardAlpha"/>
<feOffset dy="1"/>
<feGaussianBlur stdDeviation="1"/>
<feColorMatrix type="matrix" values="0 0 0 0 0.0627451 0 0 0 0 0.0941176 0 0 0 0 0.156863 0 0 0 0.05 0"/>
<feBlend mode="normal" in2="BackgroundImageFix" result="effect1_dropShadow_4170_24966"/>
<feBlend mode="normal" in="SourceGraphic" in2="effect1_dropShadow_4170_24966" result="shape"/>
</filter>
</defs>
</svg>
