<svg width="396" height="72" viewBox="0 0 396 72" fill="none" xmlns="http://www.w3.org/2000/svg">
<path fill-rule="evenodd" clip-rule="evenodd" d="M33 69C51.2254 69 66 54.2254 66 36C66 17.7746 51.2254 3 33 3C14.7746 3 0 17.7746 0 36C0 54.2254 14.7746 69 33 69ZM43.2949 18.3728C43.796 16.5928 42.0686 15.5402 40.491 16.6642L18.4686 32.3528C16.7578 33.5717 17.0269 36 18.8729 36H24.672V35.9551H35.9741L26.765 39.2044L22.7052 53.6273C22.2041 55.4073 23.9313 56.4598 25.509 55.3358L47.5314 39.6473C49.2423 38.4284 48.973 36 47.1271 36H38.333L43.2949 18.3728Z" fill="url(#paint0_linear_5145_54223)"/>
<path d="M83.0703 50.8639V45.6439H87.2103V24.5839H83.0703V19.3639H99.2703C101.19 19.3639 102.855 19.6939 104.265 20.3539C105.705 20.9839 106.815 21.8989 107.595 23.0989C108.405 24.2689 108.81 25.6789 108.81 27.3289V27.7789C108.81 29.2189 108.54 30.4039 108 31.3339C107.46 32.2339 106.815 32.9389 106.065 33.4489C105.345 33.9289 104.655 34.2739 103.995 34.4839V35.2939C104.655 35.4739 105.375 35.8189 106.155 36.3289C106.935 36.8089 107.595 37.5139 108.135 38.4439C108.705 39.3739 108.99 40.5889 108.99 42.0889V42.5389C108.99 44.2789 108.585 45.7789 107.775 47.0389C106.965 48.2689 105.84 49.2139 104.4 49.8739C102.99 50.5339 101.34 50.8639 99.4503 50.8639H83.0703ZM93.1503 45.4639H98.7303C100.02 45.4639 101.055 45.1489 101.835 44.5189C102.645 43.8889 103.05 42.9889 103.05 41.8189V41.3689C103.05 40.1989 102.66 39.2989 101.88 38.6689C101.1 38.0389 100.05 37.7239 98.7303 37.7239H93.1503V45.4639ZM93.1503 32.3239H98.6403C99.8703 32.3239 100.875 32.0089 101.655 31.3789C102.465 30.7489 102.87 29.8789 102.87 28.7689V28.3189C102.87 27.1789 102.48 26.3089 101.7 25.7089C100.92 25.0789 99.9003 24.7639 98.6403 24.7639H93.1503V32.3239Z" fill="#870064"/>
<path d="M122.403 51.4939C120.183 51.4939 118.188 51.0439 116.418 50.1439C114.648 49.2439 113.253 47.9389 112.233 46.2289C111.213 44.5189 110.703 42.4639 110.703 40.0639V39.3439C110.703 36.9439 111.213 34.8889 112.233 33.1789C113.253 31.4689 114.648 30.1639 116.418 29.2639C118.188 28.3639 120.183 27.9139 122.403 27.9139C124.623 27.9139 126.618 28.3639 128.388 29.2639C130.158 30.1639 131.553 31.4689 132.573 33.1789C133.593 34.8889 134.103 36.9439 134.103 39.3439V40.0639C134.103 42.4639 133.593 44.5189 132.573 46.2289C131.553 47.9389 130.158 49.2439 128.388 50.1439C126.618 51.0439 124.623 51.4939 122.403 51.4939ZM122.403 46.4539C124.143 46.4539 125.583 45.8989 126.723 44.7889C127.863 43.6489 128.433 42.0289 128.433 39.9289V39.4789C128.433 37.3789 127.863 35.7739 126.723 34.6639C125.613 33.5239 124.173 32.9539 122.403 32.9539C120.663 32.9539 119.223 33.5239 118.083 34.6639C116.943 35.7739 116.373 37.3789 116.373 39.4789V39.9289C116.373 42.0289 116.943 43.6489 118.083 44.7889C119.223 45.8989 120.663 46.4539 122.403 46.4539Z" fill="#870064"/>
<path d="M137.087 50.8639V19.3639H142.757V50.8639H137.087Z" fill="#870064"/>
<path d="M155.34 50.8639C153.87 50.8639 152.67 50.4139 151.74 49.5139C150.84 48.5839 150.39 47.3539 150.39 45.8239V33.2239H144.81V28.5439H150.39V21.6139H156.06V28.5439H162.18V33.2239H156.06V44.8339C156.06 45.7339 156.48 46.1839 157.32 46.1839H161.64V50.8639H155.34Z" fill="#870064"/>
<path d="M174.332 51.4939C171.422 51.4939 169.037 50.8639 167.177 49.6039C165.317 48.3439 164.192 46.5439 163.802 44.2039L169.022 42.8539C169.232 43.9039 169.577 44.7289 170.057 45.3289C170.567 45.9289 171.182 46.3639 171.902 46.6339C172.652 46.8739 173.462 46.9939 174.332 46.9939C175.652 46.9939 176.627 46.7689 177.257 46.3189C177.887 45.8389 178.202 45.2539 178.202 44.5639C178.202 43.8739 177.902 43.3489 177.302 42.9889C176.702 42.5989 175.742 42.2839 174.422 42.0439L173.162 41.8189C171.602 41.5189 170.177 41.1139 168.887 40.6039C167.597 40.0639 166.562 39.3289 165.782 38.3989C165.002 37.4689 164.612 36.2689 164.612 34.7989C164.612 32.5789 165.422 30.8839 167.042 29.7139C168.662 28.5139 170.792 27.9139 173.432 27.9139C175.922 27.9139 177.992 28.4689 179.642 29.5789C181.292 30.6889 182.372 32.1439 182.882 33.9439L177.617 35.5639C177.377 34.4239 176.882 33.6139 176.132 33.1339C175.412 32.6539 174.512 32.4139 173.432 32.4139C172.352 32.4139 171.527 32.6089 170.957 32.9989C170.387 33.3589 170.102 33.8689 170.102 34.5289C170.102 35.2489 170.402 35.7889 171.002 36.1489C171.602 36.4789 172.412 36.7339 173.432 36.9139L174.692 37.1389C176.372 37.4389 177.887 37.8439 179.237 38.3539C180.617 38.8339 181.697 39.5389 182.477 40.4689C183.287 41.3689 183.692 42.5989 183.692 44.1589C183.692 46.4989 182.837 48.3139 181.127 49.6039C179.447 50.8639 177.182 51.4939 174.332 51.4939Z" fill="#870064"/>
<path d="M186.411 50.8639V19.3639H192.081V31.2889H192.891C193.131 30.8089 193.506 30.3289 194.016 29.8489C194.526 29.3689 195.201 28.9789 196.041 28.6789C196.911 28.3489 198.006 28.1839 199.326 28.1839C201.066 28.1839 202.581 28.5889 203.871 29.3989C205.191 30.1789 206.211 31.2739 206.931 32.6839C207.651 34.0639 208.011 35.6839 208.011 37.5439V50.8639H202.341V37.9939C202.341 36.3139 201.921 35.0539 201.081 34.2139C200.271 33.3739 199.101 32.9539 197.571 32.9539C195.831 32.9539 194.481 33.5389 193.521 34.7089C192.561 35.8489 192.081 37.4539 192.081 39.5239V50.8639H186.411Z" fill="#870064"/>
<path d="M211.891 50.8639V28.5439H217.561V50.8639H211.891ZM214.726 25.9339C213.706 25.9339 212.836 25.6039 212.116 24.9439C211.426 24.2839 211.081 23.4139 211.081 22.3339C211.081 21.2539 211.426 20.3839 212.116 19.7239C212.836 19.0639 213.706 18.7339 214.726 18.7339C215.776 18.7339 216.646 19.0639 217.336 19.7239C218.026 20.3839 218.371 21.2539 218.371 22.3339C218.371 23.4139 218.026 24.2839 217.336 24.9439C216.646 25.6039 215.776 25.9339 214.726 25.9339Z" fill="#870064"/>
<path d="M225.284 50.8639V33.2239H219.614V28.5439H225.284V24.4039C225.284 22.8739 225.734 21.6589 226.634 20.7589C227.564 19.8289 228.764 19.3639 230.234 19.3639H236.084V24.0439H232.214C231.374 24.0439 230.954 24.4939 230.954 25.3939V28.5439H236.804V33.2239H230.954V50.8639H225.284Z" fill="#870064"/>
<path d="M247.054 50.8639C245.584 50.8639 244.384 50.4139 243.454 49.5139C242.554 48.5839 242.104 47.3539 242.104 45.8239V33.2239H236.524V28.5439H242.104V21.6139H247.774V28.5439H253.894V33.2239H247.774V44.8339C247.774 45.7339 248.194 46.1839 249.034 46.1839H253.354V50.8639H247.054Z" fill="#870064"/>
<g style="mix-blend-mode:multiply">
<rect x="267.75" y="20.25" width="127.5" height="31.5" rx="15.75" fill="#FFF0FB"/>
<path d="M280.801 42.5V29.4091H285.468C286.486 29.4091 287.33 29.5945 287.999 29.9652C288.668 30.3359 289.169 30.843 289.501 31.4865C289.833 32.1257 290 32.8459 290 33.647C290 34.4524 289.831 35.1768 289.495 35.8203C289.162 36.4595 288.659 36.9666 287.986 37.3416C287.317 37.7124 286.475 37.8977 285.461 37.8977H282.252V36.223H285.282C285.926 36.223 286.448 36.1122 286.848 35.8906C287.249 35.6648 287.543 35.358 287.73 34.9702C287.918 34.5824 288.012 34.1413 288.012 33.647C288.012 33.1527 287.918 32.7138 287.73 32.3303C287.543 31.9467 287.247 31.6463 286.842 31.429C286.441 31.2116 285.913 31.103 285.257 31.103H282.777V42.5H280.801ZM292.162 42.5V32.6818H294.009V34.2415H294.111C294.29 33.7131 294.606 33.2976 295.057 32.995C295.513 32.6882 296.029 32.5348 296.604 32.5348C296.724 32.5348 296.864 32.5391 297.026 32.5476C297.192 32.5561 297.322 32.5668 297.416 32.5795V34.4077C297.339 34.3864 297.203 34.3629 297.007 34.3374C296.811 34.3075 296.615 34.2926 296.419 34.2926C295.967 34.2926 295.564 34.3885 295.211 34.5803C294.861 34.7678 294.584 35.0298 294.38 35.3665C294.175 35.6989 294.073 36.0781 294.073 36.5043V42.5H292.162ZM299.07 42.5V32.6818H300.981V42.5H299.07ZM300.035 31.1669C299.703 31.1669 299.417 31.0561 299.179 30.8345C298.944 30.6087 298.827 30.3402 298.827 30.0291C298.827 29.7138 298.944 29.4453 299.179 29.2237C299.417 28.9979 299.703 28.8849 300.035 28.8849C300.368 28.8849 300.651 28.9979 300.885 29.2237C301.124 29.4453 301.243 29.7138 301.243 30.0291C301.243 30.3402 301.124 30.6087 300.885 30.8345C300.651 31.0561 300.368 31.1669 300.035 31.1669ZM311.952 32.6818L308.391 42.5H306.346L302.779 32.6818H304.831L307.317 40.2372H307.42L309.9 32.6818H311.952ZM316.324 42.7173C315.702 42.7173 315.139 42.6023 314.636 42.3722C314.133 42.1378 313.735 41.799 313.441 41.3558C313.151 40.9126 313.006 40.3693 313.006 39.7259C313.006 39.1719 313.113 38.7159 313.326 38.358C313.539 38 313.827 37.7166 314.189 37.5078C314.551 37.299 314.956 37.1413 315.403 37.0348C315.851 36.9283 316.307 36.8473 316.771 36.7919C317.359 36.7237 317.836 36.6683 318.203 36.6257C318.569 36.5788 318.836 36.5043 319.002 36.402C319.168 36.2997 319.251 36.1335 319.251 35.9034V35.8587C319.251 35.3004 319.094 34.8679 318.778 34.5611C318.467 34.2543 318.003 34.1009 317.385 34.1009C316.741 34.1009 316.234 34.2436 315.863 34.5291C315.497 34.8104 315.243 35.1236 315.103 35.4688L313.307 35.0597C313.52 34.4631 313.831 33.9815 314.24 33.6151C314.653 33.2443 315.128 32.9759 315.665 32.8097C316.202 32.6392 316.767 32.554 317.359 32.554C317.751 32.554 318.167 32.6009 318.606 32.6946C319.049 32.7841 319.462 32.9503 319.846 33.1932C320.233 33.4361 320.551 33.7834 320.798 34.2351C321.045 34.6825 321.169 35.2642 321.169 35.9801V42.5H319.302V41.1577H319.226C319.102 41.4048 318.917 41.6477 318.67 41.8864C318.422 42.125 318.105 42.3232 317.717 42.4808C317.329 42.6385 316.865 42.7173 316.324 42.7173ZM316.739 41.1832C317.268 41.1832 317.719 41.0788 318.094 40.87C318.474 40.6612 318.761 40.3885 318.957 40.0518C319.157 39.7109 319.258 39.3466 319.258 38.9588V37.6932C319.189 37.7614 319.057 37.8253 318.861 37.8849C318.67 37.9403 318.45 37.9893 318.203 38.032C317.956 38.0703 317.715 38.1065 317.481 38.1406C317.246 38.1705 317.05 38.196 316.893 38.2173C316.522 38.2642 316.183 38.343 315.876 38.4538C315.574 38.5646 315.331 38.7244 315.148 38.9332C314.969 39.1378 314.879 39.4105 314.879 39.7514C314.879 40.2244 315.054 40.5824 315.403 40.8253C315.753 41.0639 316.198 41.1832 316.739 41.1832ZM328.298 32.6818V34.2159H322.935V32.6818H328.298ZM324.373 30.3295H326.284V39.6172C326.284 39.9879 326.339 40.267 326.45 40.4545C326.561 40.6378 326.704 40.7635 326.879 40.8317C327.058 40.8956 327.251 40.9276 327.46 40.9276C327.614 40.9276 327.748 40.9169 327.863 40.8956C327.978 40.8743 328.067 40.8572 328.131 40.8445L328.477 42.4233C328.366 42.4659 328.208 42.5085 328.004 42.5511C327.799 42.598 327.543 42.6236 327.237 42.6278C326.734 42.6364 326.265 42.5469 325.83 42.3594C325.396 42.1719 325.044 41.8821 324.776 41.4901C324.507 41.098 324.373 40.6058 324.373 40.0135V30.3295ZM334.538 42.6982C333.57 42.6982 332.737 42.4915 332.039 42.0781C331.344 41.6605 330.807 41.0746 330.428 40.3203C330.053 39.5618 329.865 38.6733 329.865 37.6548C329.865 36.6491 330.053 35.7628 330.428 34.9957C330.807 34.2287 331.335 33.63 332.013 33.1996C332.695 32.7692 333.492 32.554 334.404 32.554C334.958 32.554 335.494 32.6456 336.014 32.8288C336.534 33.0121 337.001 33.2997 337.414 33.6918C337.828 34.0838 338.154 34.593 338.392 35.2195C338.631 35.8416 338.75 36.598 338.75 37.4886V38.1662H330.945V36.7344H336.877C336.877 36.2315 336.775 35.7862 336.57 35.3984C336.366 35.0064 336.078 34.6974 335.708 34.4716C335.341 34.2457 334.911 34.1328 334.416 34.1328C333.879 34.1328 333.411 34.2649 333.01 34.5291C332.614 34.7891 332.307 35.13 332.09 35.5518C331.877 35.9695 331.77 36.4233 331.77 36.9134V38.032C331.77 38.6882 331.885 39.2464 332.115 39.7067C332.35 40.1669 332.676 40.5185 333.093 40.7614C333.511 41 333.999 41.1193 334.557 41.1193C334.919 41.1193 335.249 41.0682 335.548 40.9659C335.846 40.8594 336.104 40.7017 336.321 40.4929C336.539 40.2841 336.705 40.0263 336.82 39.7195L338.629 40.0455C338.484 40.5781 338.224 41.0447 337.849 41.4453C337.478 41.8416 337.012 42.1506 336.449 42.3722C335.891 42.5895 335.254 42.6982 334.538 42.6982ZM345.788 42.5V29.4091H350.582C351.511 29.4091 352.28 29.5625 352.889 29.8693C353.499 30.1719 353.955 30.5831 354.257 31.103C354.56 31.6186 354.711 32.2003 354.711 32.848C354.711 33.3935 354.611 33.8537 354.411 34.2287C354.21 34.5994 353.942 34.8977 353.605 35.1236C353.273 35.3452 352.906 35.5071 352.506 35.6094V35.7372C352.941 35.7585 353.365 35.8991 353.778 36.1591C354.195 36.4148 354.541 36.7791 354.813 37.2521C355.086 37.7251 355.222 38.3004 355.222 38.978C355.222 39.647 355.065 40.2479 354.749 40.7805C354.438 41.3089 353.957 41.7287 353.305 42.0398C352.653 42.3466 351.82 42.5 350.806 42.5H345.788ZM347.763 40.8061H350.614C351.56 40.8061 352.237 40.6229 352.646 40.2564C353.056 39.8899 353.26 39.4318 353.26 38.8821C353.26 38.4687 353.156 38.0895 352.947 37.7443C352.738 37.3991 352.44 37.1243 352.052 36.9197C351.669 36.7152 351.213 36.6129 350.684 36.6129H347.763V40.8061ZM347.763 35.0724H350.409C350.852 35.0724 351.251 34.9872 351.605 34.8168C351.963 34.6463 352.246 34.4077 352.455 34.1009C352.668 33.7898 352.774 33.4233 352.774 33.0014C352.774 32.4602 352.585 32.0064 352.205 31.6399C351.826 31.2734 351.244 31.0902 350.46 31.0902H347.763V35.0724ZM361.643 42.6982C360.676 42.6982 359.843 42.4915 359.144 42.0781C358.449 41.6605 357.912 41.0746 357.533 40.3203C357.158 39.5618 356.971 38.6733 356.971 37.6548C356.971 36.6491 357.158 35.7628 357.533 34.9957C357.912 34.2287 358.441 33.63 359.118 33.1996C359.8 32.7692 360.597 32.554 361.509 32.554C362.063 32.554 362.6 32.6456 363.12 32.8288C363.64 33.0121 364.106 33.2997 364.52 33.6918C364.933 34.0838 365.259 34.593 365.498 35.2195C365.736 35.8416 365.856 36.598 365.856 37.4886V38.1662H358.051V36.7344H363.983C363.983 36.2315 363.881 35.7862 363.676 35.3984C363.471 35.0064 363.184 34.6974 362.813 34.4716C362.447 34.2457 362.016 34.1328 361.522 34.1328C360.985 34.1328 360.516 34.2649 360.116 34.5291C359.719 34.7891 359.412 35.13 359.195 35.5518C358.982 35.9695 358.876 36.4233 358.876 36.9134V38.032C358.876 38.6882 358.991 39.2464 359.221 39.7067C359.455 40.1669 359.781 40.5185 360.199 40.7614C360.616 41 361.104 41.1193 361.662 41.1193C362.025 41.1193 362.355 41.0682 362.653 40.9659C362.952 40.8594 363.209 40.7017 363.427 40.4929C363.644 40.2841 363.81 40.0263 363.925 39.7195L365.734 40.0455C365.589 40.5781 365.329 41.0447 364.954 41.4453C364.584 41.8416 364.117 42.1506 363.555 42.3722C362.996 42.5895 362.359 42.6982 361.643 42.6982ZM372.559 32.6818V34.2159H367.196V32.6818H372.559ZM368.635 30.3295H370.546V39.6172C370.546 39.9879 370.601 40.267 370.712 40.4545C370.823 40.6378 370.966 40.7635 371.14 40.8317C371.319 40.8956 371.513 40.9276 371.722 40.9276C371.875 40.9276 372.01 40.9169 372.125 40.8956C372.24 40.8743 372.329 40.8572 372.393 40.8445L372.738 42.4233C372.627 42.4659 372.47 42.5085 372.265 42.5511C372.061 42.598 371.805 42.6236 371.498 42.6278C370.995 42.6364 370.527 42.5469 370.092 42.3594C369.657 42.1719 369.306 41.8821 369.037 41.4901C368.769 41.098 368.635 40.6058 368.635 40.0135V30.3295ZM377.531 42.7173C376.909 42.7173 376.346 42.6023 375.843 42.3722C375.34 42.1378 374.942 41.799 374.648 41.3558C374.358 40.9126 374.213 40.3693 374.213 39.7259C374.213 39.1719 374.32 38.7159 374.533 38.358C374.746 38 375.034 37.7166 375.396 37.5078C375.758 37.299 376.163 37.1413 376.61 37.0348C377.058 36.9283 377.514 36.8473 377.978 36.7919C378.566 36.7237 379.044 36.6683 379.41 36.6257C379.776 36.5788 380.043 36.5043 380.209 36.402C380.375 36.2997 380.458 36.1335 380.458 35.9034V35.8587C380.458 35.3004 380.301 34.8679 379.985 34.5611C379.674 34.2543 379.21 34.1009 378.592 34.1009C377.948 34.1009 377.441 34.2436 377.07 34.5291C376.704 34.8104 376.45 35.1236 376.31 35.4688L374.514 35.0597C374.727 34.4631 375.038 33.9815 375.447 33.6151C375.86 33.2443 376.335 32.9759 376.872 32.8097C377.409 32.6392 377.974 32.554 378.566 32.554C378.958 32.554 379.374 32.6009 379.813 32.6946C380.256 32.7841 380.669 32.9503 381.053 33.1932C381.441 33.4361 381.758 33.7834 382.005 34.2351C382.252 34.6825 382.376 35.2642 382.376 35.9801V42.5H380.509V41.1577H380.433C380.309 41.4048 380.124 41.6477 379.877 41.8864C379.629 42.125 379.312 42.3232 378.924 42.4808C378.536 42.6385 378.072 42.7173 377.531 42.7173ZM377.946 41.1832C378.475 41.1832 378.926 41.0788 379.301 40.87C379.681 40.6612 379.968 40.3885 380.164 40.0518C380.365 39.7109 380.465 39.3466 380.465 38.9588V37.6932C380.396 37.7614 380.264 37.8253 380.068 37.8849C379.877 37.9403 379.657 37.9893 379.41 38.032C379.163 38.0703 378.922 38.1065 378.688 38.1406C378.453 38.1705 378.257 38.196 378.1 38.2173C377.729 38.2642 377.39 38.343 377.083 38.4538C376.781 38.5646 376.538 38.7244 376.355 38.9332C376.176 39.1378 376.086 39.4105 376.086 39.7514C376.086 40.2244 376.261 40.5824 376.61 40.8253C376.96 41.0639 377.405 41.1832 377.946 41.1832Z" fill="#4D0039"/>
<rect x="267.75" y="20.25" width="127.5" height="31.5" rx="15.75" stroke="#FFB8EC" stroke-width="1.5"/>
</g>
<defs>
<linearGradient id="paint0_linear_5145_54223" x1="0" y1="3" x2="66" y2="69" gradientUnits="userSpaceOnUse">
<stop stop-color="#F093FB"/>
<stop offset="1" stop-color="#F5576C"/>
</linearGradient>
</defs>
</svg>
