<svg width="16" height="16" viewBox="0 0 16 16" fill="none" xmlns="http://www.w3.org/2000/svg">
<g id="message-smile-circle">
<path id="Icon" d="M5.9991 9.33333C5.9991 9.33333 6.8741 10.3333 8.33243 10.3333C9.79077 10.3333 10.6658 9.33333 10.6658 9.33333M10.1658 6H10.1724M6.4991 6H6.50577M8.33243 13.3333C11.462 13.3333 13.9991 10.7963 13.9991 7.66667C13.9991 4.53705 11.462 2 8.33243 2C5.20282 2 2.66577 4.53705 2.66577 7.66667C2.66577 8.3 2.76966 8.90906 2.96135 9.47774C3.03348 9.69175 3.06955 9.79875 3.07605 9.88095C3.08247 9.96213 3.07762 10.019 3.05753 10.098C3.0372 10.1779 2.9923 10.261 2.90249 10.4272L1.81206 12.4456C1.65652 12.7335 1.57875 12.8774 1.59615 12.9885C1.61131 13.0853 1.66826 13.1705 1.75188 13.2215C1.84788 13.2801 2.01063 13.2632 2.33613 13.2296L5.75014 12.8767C5.85353 12.866 5.90522 12.8606 5.95234 12.8624C5.99868 12.8642 6.0314 12.8686 6.07659 12.879C6.12253 12.8896 6.18031 12.9118 6.29587 12.9564C6.9279 13.1999 7.61458 13.3333 8.33243 13.3333ZM10.4991 6C10.4991 6.18409 10.3499 6.33333 10.1658 6.33333C9.98167 6.33333 9.83243 6.18409 9.83243 6C9.83243 5.8159 9.98167 5.66667 10.1658 5.66667C10.3499 5.66667 10.4991 5.8159 10.4991 6ZM6.83243 6C6.83243 6.18409 6.68319 6.33333 6.4991 6.33333C6.315 6.33333 6.16577 6.18409 6.16577 6C6.16577 5.8159 6.315 5.66667 6.4991 5.66667C6.68319 5.66667 6.83243 5.8159 6.83243 6Z" stroke="#344054" stroke-width="1.5" stroke-linecap="round" stroke-linejoin="round"/>
</g>
</svg>
