<svg width="118" height="24" viewBox="0 0 118 24" fill="none" xmlns="http://www.w3.org/2000/svg">
<g style="mix-blend-mode:multiply">
<rect x="0.5" y="0.5" width="117" height="23" rx="11.5" fill="#FDF2FA"/>
<path d="M18.1254 10.0348C18.0293 9.73319 17.9001 9.46307 17.7377 9.22443C17.5786 8.98248 17.388 8.77699 17.1659 8.60795C16.9439 8.43561 16.6903 8.30469 16.4053 8.2152C16.1235 8.12571 15.8137 8.08097 15.4756 8.08097C14.9022 8.08097 14.3852 8.22846 13.9244 8.52344C13.4637 8.81842 13.0992 9.25095 12.8307 9.82102C12.5655 10.3878 12.433 11.0821 12.433 11.9041C12.433 12.7294 12.5672 13.4271 12.8357 13.9972C13.1041 14.5672 13.472 14.9998 13.9394 15.2947C14.4067 15.5897 14.9387 15.7372 15.5352 15.7372C16.0887 15.7372 16.571 15.6245 16.982 15.3991C17.3963 15.1738 17.7161 14.8556 17.9415 14.4446C18.1702 14.0303 18.2845 13.5431 18.2845 12.983L18.6823 13.0575H15.7689V11.7898H19.771V12.9482C19.771 13.8033 19.5887 14.5457 19.2242 15.1754C18.8629 15.8018 18.3624 16.2857 17.7227 16.6271C17.0864 16.9685 16.3572 17.1392 15.5352 17.1392C14.6138 17.1392 13.8051 16.9271 13.1091 16.5028C12.4164 16.0786 11.8762 15.477 11.4884 14.6982C11.1006 13.916 10.9067 12.9879 10.9067 11.9141C10.9067 11.102 11.0194 10.3729 11.2448 9.72656C11.4701 9.08026 11.7867 8.53172 12.1943 8.08097C12.6053 7.62689 13.0876 7.28054 13.6411 7.0419C14.1979 6.79995 14.8061 6.67898 15.4656 6.67898C16.0158 6.67898 16.5279 6.76018 17.0019 6.92258C17.4791 7.08499 17.9034 7.31534 18.2746 7.61364C18.6491 7.91193 18.959 8.26657 19.2043 8.67756C19.4495 9.08523 19.6153 9.53764 19.7014 10.0348H18.1254ZM24.8184 17.1541C24.1025 17.1541 23.4778 16.9901 22.9442 16.6619C22.4105 16.3338 21.9962 15.8748 21.7013 15.2848C21.4063 14.6948 21.2588 14.0054 21.2588 13.2166C21.2588 12.4245 21.4063 11.7318 21.7013 11.1385C21.9962 10.5452 22.4105 10.0845 22.9442 9.75639C23.4778 9.42827 24.1025 9.2642 24.8184 9.2642C25.5344 9.2642 26.1591 9.42827 26.6927 9.75639C27.2264 10.0845 27.6407 10.5452 27.9356 11.1385C28.2306 11.7318 28.3781 12.4245 28.3781 13.2166C28.3781 14.0054 28.2306 14.6948 27.9356 15.2848C27.6407 15.8748 27.2264 16.3338 26.6927 16.6619C26.1591 16.9901 25.5344 17.1541 24.8184 17.1541ZM24.8234 15.9062C25.2874 15.9062 25.6719 15.7836 25.9768 15.5384C26.2818 15.2931 26.5071 14.9666 26.653 14.5589C26.8021 14.1513 26.8767 13.7022 26.8767 13.2116C26.8767 12.7244 26.8021 12.277 26.653 11.8693C26.5071 11.4583 26.2818 11.1286 25.9768 10.88C25.6719 10.6314 25.2874 10.5071 24.8234 10.5071C24.3561 10.5071 23.9683 10.6314 23.6601 10.88C23.3551 11.1286 23.1281 11.4583 22.979 11.8693C22.8331 12.277 22.7602 12.7244 22.7602 13.2116C22.7602 13.7022 22.8331 14.1513 22.979 14.5589C23.1281 14.9666 23.3551 15.2931 23.6601 15.5384C23.9683 15.7836 24.3561 15.9062 24.8234 15.9062ZM31.5239 6.81818V17H30.0374V6.81818H31.5239ZM36.3824 17.1491C35.7659 17.1491 35.2157 16.9917 34.7318 16.6768C34.2512 16.3587 33.8734 15.9062 33.5983 15.3196C33.3265 14.7296 33.1906 14.022 33.1906 13.1967C33.1906 12.3714 33.3282 11.6655 33.6032 11.0788C33.8817 10.4922 34.2628 10.0431 34.7467 9.73153C35.2306 9.41998 35.7791 9.2642 36.3923 9.2642C36.8663 9.2642 37.2474 9.34375 37.5358 9.50284C37.8274 9.65862 38.0528 9.84091 38.2119 10.0497C38.3743 10.2585 38.5003 10.4425 38.5898 10.6016H38.6792V6.81818H40.1657V17H38.714V15.8118H38.5898C38.5003 15.9742 38.371 16.1598 38.202 16.3686C38.0363 16.5774 37.8076 16.7597 37.5159 16.9155C37.2242 17.0713 36.8464 17.1491 36.3824 17.1491ZM36.7105 15.8814C37.1381 15.8814 37.4993 15.7687 37.7943 15.5433C38.0926 15.3146 38.318 14.9981 38.4704 14.5938C38.6262 14.1894 38.7041 13.7187 38.7041 13.1818C38.7041 12.6515 38.6279 12.1875 38.4754 11.7898C38.3229 11.392 38.0992 11.0821 37.8042 10.8601C37.5093 10.638 37.1447 10.527 36.7105 10.527C36.2631 10.527 35.8902 10.643 35.5919 10.875C35.2936 11.107 35.0682 11.4235 34.9157 11.8246C34.7666 12.2256 34.692 12.678 34.692 13.1818C34.692 13.6922 34.7683 14.1513 34.9207 14.5589C35.0732 14.9666 35.2986 15.2898 35.5969 15.5284C35.8985 15.7637 36.2697 15.8814 36.7105 15.8814ZM46.1118 17V6.81818H49.8405C50.563 6.81818 51.1613 6.9375 51.6352 7.17614C52.1092 7.41146 52.4638 7.7313 52.6991 8.13565C52.9345 8.53669 53.0521 8.98911 53.0521 9.4929C53.0521 9.91714 52.9742 10.2751 52.8184 10.5668C52.6627 10.8551 52.4539 11.0871 52.192 11.2628C51.9335 11.4351 51.6485 11.5611 51.3369 11.6406V11.7401C51.675 11.7566 52.0048 11.866 52.3263 12.0682C52.6511 12.267 52.9195 12.5504 53.1317 12.9183C53.3438 13.2862 53.4498 13.7337 53.4498 14.2607C53.4498 14.781 53.3272 15.2483 53.0819 15.6626C52.84 16.0736 52.4655 16.4001 51.9584 16.642C51.4513 16.8807 50.8033 17 50.0145 17H46.1118ZM47.648 15.6825H49.8653C50.6011 15.6825 51.1281 15.54 51.4463 15.255C51.7645 14.9699 51.9236 14.6136 51.9236 14.1861C51.9236 13.8646 51.8424 13.5696 51.68 13.3011C51.5175 13.0327 51.2855 12.8189 50.9839 12.6598C50.6856 12.5007 50.331 12.4212 49.92 12.4212H47.648V15.6825ZM47.648 11.223H49.7062C50.0509 11.223 50.3608 11.1567 50.6359 11.0241C50.9143 10.8916 51.1347 10.706 51.2971 10.4673C51.4629 10.2254 51.5457 9.94034 51.5457 9.61222C51.5457 9.19129 51.3982 8.8383 51.1032 8.55327C50.8083 8.26823 50.3559 8.12571 49.746 8.12571H47.648V11.223ZM55.1526 17V9.36364H56.5894V10.5767H56.6689C56.8081 10.1657 57.0534 9.84257 57.4047 9.60724C57.7594 9.36861 58.1604 9.24929 58.6079 9.24929C58.7007 9.24929 58.81 9.2526 58.936 9.25923C59.0653 9.26586 59.1663 9.27415 59.2393 9.28409V10.706C59.1796 10.6894 59.0735 10.6712 58.9211 10.6513C58.7686 10.6281 58.6162 10.6165 58.4637 10.6165C58.1124 10.6165 57.7992 10.6911 57.5241 10.8402C57.2523 10.986 57.0368 11.1899 56.8778 11.4517C56.7187 11.7102 56.6391 12.0052 56.6391 12.3366V17H55.1526ZM62.6796 17.169C62.1957 17.169 61.7582 17.0795 61.3671 16.9006C60.976 16.7183 60.6661 16.4548 60.4374 16.1101C60.212 15.7654 60.0993 15.3428 60.0993 14.8423C60.0993 14.4115 60.1822 14.0568 60.3479 13.7784C60.5136 13.5 60.7374 13.2796 61.0191 13.1172C61.3008 12.9548 61.6157 12.8321 61.9637 12.7493C62.3117 12.6664 62.6663 12.6035 63.0276 12.5604C63.485 12.5073 63.8562 12.4643 64.1412 12.4311C64.4263 12.3946 64.6334 12.3366 64.7627 12.2571C64.892 12.1776 64.9566 12.0483 64.9566 11.8693V11.8345C64.9566 11.4003 64.834 11.0639 64.5887 10.8253C64.3467 10.5866 63.9855 10.4673 63.5049 10.4673C63.0044 10.4673 62.61 10.5784 62.3216 10.8004C62.0366 11.0192 61.8394 11.2628 61.73 11.5312L60.333 11.2131C60.4987 10.7491 60.7407 10.3745 61.0589 10.0895C61.3804 9.80114 61.7499 9.59233 62.1675 9.46307C62.5851 9.33049 63.0243 9.2642 63.485 9.2642C63.7899 9.2642 64.1131 9.30066 64.4545 9.37358C64.7992 9.44318 65.1206 9.57244 65.4189 9.76136C65.7206 9.95028 65.9675 10.2204 66.1597 10.5717C66.3519 10.9197 66.4481 11.3722 66.4481 11.929V17H64.9964V15.956H64.9367C64.8406 16.1482 64.6964 16.3371 64.5042 16.5227C64.3119 16.7083 64.065 16.8625 63.7634 16.9851C63.4618 17.1077 63.1005 17.169 62.6796 17.169ZM63.0028 15.9759C63.4137 15.9759 63.7651 15.8946 64.0567 15.7322C64.3517 15.5698 64.5754 15.3577 64.7279 15.0959C64.8837 14.8307 64.9616 14.5473 64.9616 14.2457V13.2614C64.9085 13.3144 64.8058 13.3641 64.6533 13.4105C64.5042 13.4536 64.3335 13.4917 64.1412 13.5249C63.949 13.5547 63.7617 13.5829 63.5795 13.6094C63.3972 13.6326 63.2447 13.6525 63.1221 13.669C62.8337 13.7055 62.5702 13.7668 62.3316 13.853C62.0963 13.9392 61.9073 14.0634 61.7648 14.2259C61.6256 14.3849 61.556 14.5971 61.556 14.8622C61.556 15.2301 61.6919 15.5085 61.9637 15.6974C62.2355 15.883 62.5818 15.9759 63.0028 15.9759ZM71.6446 17.1541C70.9055 17.1541 70.2691 16.9867 69.7355 16.652C69.2052 16.3139 68.7976 15.8482 68.5125 15.255C68.2275 14.6617 68.085 13.9822 68.085 13.2166C68.085 12.4411 68.2308 11.7566 68.5225 11.1634C68.8141 10.5668 69.2251 10.1011 69.7554 9.76633C70.2857 9.43158 70.9105 9.2642 71.6297 9.2642C72.2097 9.2642 72.7268 9.37192 73.1808 9.58736C73.6349 9.79948 74.0012 10.0978 74.2796 10.4822C74.5613 10.8667 74.7287 11.3158 74.7817 11.8295H73.335C73.2554 11.4716 73.0731 11.1634 72.7881 10.9048C72.5064 10.6463 72.1285 10.517 71.6546 10.517C71.2403 10.517 70.8773 10.6264 70.5658 10.8452C70.2575 11.0606 70.0173 11.3688 69.8449 11.7699C69.6726 12.1676 69.5864 12.6383 69.5864 13.1818C69.5864 13.7386 69.6709 14.2192 69.8399 14.6236C70.009 15.0279 70.2476 15.3411 70.5558 15.5632C70.8674 15.7853 71.2336 15.8963 71.6546 15.8963C71.9363 15.8963 72.1915 15.8449 72.4202 15.7422C72.6522 15.6361 72.8461 15.4853 73.0019 15.2898C73.161 15.0942 73.272 14.8589 73.335 14.5838H74.7817C74.7287 15.0777 74.5679 15.5185 74.2994 15.9062C74.031 16.294 73.6714 16.599 73.2206 16.821C72.7732 17.0431 72.2478 17.1541 71.6446 17.1541ZM79.6626 17.1541C78.9102 17.1541 78.2622 16.9934 77.7187 16.6719C77.1784 16.3471 76.7608 15.8913 76.4658 15.3047C76.1742 14.7147 76.0283 14.0237 76.0283 13.2315C76.0283 12.4493 76.1742 11.7599 76.4658 11.1634C76.7608 10.5668 77.1718 10.1011 77.6988 9.76633C78.2291 9.43158 78.8489 9.2642 79.5581 9.2642C79.989 9.2642 80.4066 9.33546 80.811 9.47798C81.2153 9.6205 81.5783 9.84422 81.8998 10.1491C82.2213 10.4541 82.4748 10.8501 82.6604 11.3374C82.846 11.8213 82.9388 12.4096 82.9388 13.1023V13.6293H76.8685V12.5156H81.4822C81.4822 12.1245 81.4026 11.7782 81.2435 11.4766C81.0844 11.1716 80.8607 10.9313 80.5724 10.7557C80.2873 10.58 79.9526 10.4922 79.5681 10.4922C79.1505 10.4922 78.7859 10.5949 78.4743 10.8004C78.1661 11.0026 77.9275 11.2678 77.7584 11.5959C77.5927 11.9207 77.5099 12.2737 77.5099 12.6548V13.5249C77.5099 14.0353 77.5993 14.4695 77.7783 14.8274C77.9606 15.1854 78.2142 15.4588 78.539 15.6477C78.8638 15.8333 79.2433 15.9261 79.6775 15.9261C79.9592 15.9261 80.2161 15.8864 80.4481 15.8068C80.6801 15.724 80.8806 15.6013 81.0496 15.4389C81.2187 15.2765 81.3479 15.076 81.4374 14.8374L82.8444 15.0909C82.7317 15.5052 82.5295 15.8681 82.2378 16.1797C81.9495 16.4879 81.5866 16.7282 81.1491 16.9006C80.7149 17.0696 80.2194 17.1541 79.6626 17.1541ZM86.0747 6.81818V17H84.5882V6.81818H86.0747ZM91.3657 17.1541C90.6133 17.1541 89.9653 16.9934 89.4218 16.6719C88.8815 16.3471 88.4639 15.8913 88.1689 15.3047C87.8773 14.7147 87.7314 14.0237 87.7314 13.2315C87.7314 12.4493 87.8773 11.7599 88.1689 11.1634C88.4639 10.5668 88.8749 10.1011 89.4019 9.76633C89.9322 9.43158 90.552 9.2642 91.2613 9.2642C91.6921 9.2642 92.1098 9.33546 92.5141 9.47798C92.9185 9.6205 93.2814 9.84422 93.6029 10.1491C93.9244 10.4541 94.1779 10.8501 94.3635 11.3374C94.5492 11.8213 94.642 12.4096 94.642 13.1023V13.6293H88.5716V12.5156H93.1853C93.1853 12.1245 93.1057 11.7782 92.9466 11.4766C92.7876 11.1716 92.5638 10.9313 92.2755 10.7557C91.9904 10.58 91.6557 10.4922 91.2712 10.4922C90.8536 10.4922 90.489 10.5949 90.1775 10.8004C89.8692 11.0026 89.6306 11.2678 89.4616 11.5959C89.2958 11.9207 89.213 12.2737 89.213 12.6548V13.5249C89.213 14.0353 89.3025 14.4695 89.4814 14.8274C89.6637 15.1854 89.9173 15.4588 90.2421 15.6477C90.5669 15.8333 90.9464 15.9261 91.3806 15.9261C91.6623 15.9261 91.9192 15.8864 92.1512 15.8068C92.3832 15.724 92.5837 15.6013 92.7528 15.4389C92.9218 15.2765 93.051 15.076 93.1405 14.8374L94.5475 15.0909C94.4348 15.5052 94.2326 15.8681 93.941 16.1797C93.6526 16.4879 93.2897 16.7282 92.8522 16.9006C92.418 17.0696 91.9225 17.1541 91.3657 17.1541ZM99.8559 9.36364V10.5568H95.6847V9.36364H99.8559ZM96.8034 7.53409H98.2899V14.7578C98.2899 15.0462 98.3329 15.2633 98.4191 15.4091C98.5053 15.5516 98.6163 15.6494 98.7522 15.7024C98.8914 15.7521 99.0422 15.777 99.2046 15.777C99.324 15.777 99.4284 15.7687 99.5178 15.7521C99.6073 15.7356 99.6769 15.7223 99.7267 15.7124L99.9951 16.9403C99.9089 16.9735 99.7863 17.0066 99.6272 17.0398C99.4681 17.0762 99.2693 17.0961 99.0306 17.0994C98.6395 17.1061 98.2749 17.0365 97.9369 16.8906C97.5988 16.7448 97.3254 16.5194 97.1166 16.2145C96.9078 15.9096 96.8034 15.5268 96.8034 15.0661V7.53409ZM107.1 11.228L105.752 11.4666C105.696 11.2943 105.606 11.1302 105.484 10.9744C105.364 10.8187 105.202 10.6911 104.997 10.5916C104.791 10.4922 104.534 10.4425 104.226 10.4425C103.805 10.4425 103.454 10.5369 103.172 10.7259C102.89 10.9115 102.749 11.1518 102.749 11.4467C102.749 11.7019 102.844 11.9074 103.033 12.0632C103.222 12.219 103.527 12.3466 103.948 12.446L105.161 12.7244C105.863 12.8868 106.387 13.1371 106.732 13.4751C107.076 13.8132 107.249 14.2524 107.249 14.7926C107.249 15.25 107.116 15.6577 106.851 16.0156C106.589 16.3703 106.223 16.6487 105.752 16.8509C105.285 17.053 104.743 17.1541 104.127 17.1541C103.271 17.1541 102.574 16.9718 102.033 16.6072C101.493 16.2393 101.162 15.7173 101.039 15.0412L102.476 14.8224C102.565 15.197 102.749 15.4804 103.028 15.6726C103.306 15.8615 103.669 15.956 104.117 15.956C104.604 15.956 104.993 15.8549 105.285 15.6527C105.577 15.4472 105.722 15.197 105.722 14.902C105.722 14.6634 105.633 14.4628 105.454 14.3004C105.278 14.138 105.008 14.0154 104.644 13.9325L103.351 13.6491C102.638 13.4867 102.111 13.2282 101.77 12.8736C101.432 12.5189 101.263 12.0698 101.263 11.5263C101.263 11.0755 101.389 10.6811 101.641 10.343C101.893 10.005 102.241 9.74148 102.685 9.55256C103.129 9.36032 103.638 9.2642 104.211 9.2642C105.036 9.2642 105.686 9.44318 106.16 9.80114C106.634 10.1558 106.947 10.6314 107.1 11.228Z" fill="#C11574"/>
<rect x="0.5" y="0.5" width="117" height="23" rx="11.5" stroke="#FCCEEE"/>
</g>
</svg>
