<svg width="76" height="24" viewBox="0 0 76 24" fill="none" xmlns="http://www.w3.org/2000/svg">
<g style="mix-blend-mode:multiply">
<rect x="0.5" y="0.5" width="75" height="23" rx="11.5" fill="#F4F3FF"/>
<path d="M11.5424 17V6.81818H17.926V8.14062H13.0787V11.2429H17.5929V12.5604H13.0787V15.6776H17.9856V17H11.5424ZM22.081 17.169C21.5971 17.169 21.1596 17.0795 20.7685 16.9006C20.3774 16.7183 20.0675 16.4548 19.8388 16.1101C19.6134 15.7654 19.5007 15.3428 19.5007 14.8423C19.5007 14.4115 19.5836 14.0568 19.7493 13.7784C19.915 13.5 20.1387 13.2796 20.4205 13.1172C20.7022 12.9548 21.017 12.8321 21.3651 12.7493C21.7131 12.6664 22.0677 12.6035 22.429 12.5604C22.8864 12.5073 23.2576 12.4643 23.5426 12.4311C23.8277 12.3946 24.0348 12.3366 24.1641 12.2571C24.2933 12.1776 24.358 12.0483 24.358 11.8693V11.8345C24.358 11.4003 24.2353 11.0639 23.9901 10.8253C23.7481 10.5866 23.3868 10.4673 22.9062 10.4673C22.4058 10.4673 22.0114 10.5784 21.723 10.8004C21.438 11.0192 21.2408 11.2628 21.1314 11.5312L19.7344 11.2131C19.9001 10.7491 20.142 10.3745 20.4602 10.0895C20.7817 9.80114 21.1513 9.59233 21.5689 9.46307C21.9865 9.33049 22.4257 9.2642 22.8864 9.2642C23.1913 9.2642 23.5144 9.30066 23.8558 9.37358C24.2005 9.44318 24.522 9.57244 24.8203 9.76136C25.1219 9.95028 25.3688 10.2204 25.5611 10.5717C25.7533 10.9197 25.8494 11.3722 25.8494 11.929V17H24.3977V15.956H24.3381C24.242 16.1482 24.0978 16.3371 23.9055 16.5227C23.7133 16.7083 23.4664 16.8625 23.1648 16.9851C22.8632 17.1077 22.5019 17.169 22.081 17.169ZM22.4041 15.9759C22.8151 15.9759 23.1664 15.8946 23.4581 15.7322C23.7531 15.5698 23.9768 15.3577 24.1293 15.0959C24.285 14.8307 24.3629 14.5473 24.3629 14.2457V13.2614C24.3099 13.3144 24.2071 13.3641 24.0547 13.4105C23.9055 13.4536 23.7348 13.4917 23.5426 13.5249C23.3504 13.5547 23.1631 13.5829 22.9808 13.6094C22.7985 13.6326 22.6461 13.6525 22.5234 13.669C22.2351 13.7055 21.9716 13.7668 21.733 13.853C21.4976 13.9392 21.3087 14.0634 21.1662 14.2259C21.027 14.3849 20.9574 14.5971 20.9574 14.8622C20.9574 15.2301 21.0933 15.5085 21.3651 15.6974C21.6368 15.883 21.9832 15.9759 22.4041 15.9759ZM27.8294 17V9.36364H29.2662V10.5767H29.3457C29.4849 10.1657 29.7302 9.84257 30.0815 9.60724C30.4361 9.36861 30.8372 9.24929 31.2846 9.24929C31.3774 9.24929 31.4868 9.2526 31.6127 9.25923C31.742 9.26586 31.8431 9.27415 31.916 9.28409V10.706C31.8564 10.6894 31.7503 10.6712 31.5978 10.6513C31.4454 10.6281 31.2929 10.6165 31.1404 10.6165C30.7891 10.6165 30.4759 10.6911 30.2008 10.8402C29.929 10.986 29.7136 11.1899 29.5545 11.4517C29.3954 11.7102 29.3159 12.0052 29.3159 12.3366V17H27.8294ZM33.2024 17V9.36364H34.6392V10.5767H34.7188C34.858 10.1657 35.1032 9.84257 35.4545 9.60724C35.8092 9.36861 36.2102 9.24929 36.6577 9.24929C36.7505 9.24929 36.8598 9.2526 36.9858 9.25923C37.1151 9.26586 37.2161 9.27415 37.2891 9.28409V10.706C37.2294 10.6894 37.1233 10.6712 36.9709 10.6513C36.8184 10.6281 36.666 10.6165 36.5135 10.6165C36.1622 10.6165 35.849 10.6911 35.5739 10.8402C35.3021 10.986 35.0866 11.1899 34.9276 11.4517C34.7685 11.7102 34.6889 12.0052 34.6889 12.3366V17H33.2024ZM38.5755 17V9.36364H40.062V17H38.5755ZM39.3262 8.18537C39.0676 8.18537 38.8456 8.09919 38.66 7.92685C38.4777 7.75118 38.3865 7.54238 38.3865 7.30043C38.3865 7.05516 38.4777 6.84635 38.66 6.67401C38.8456 6.49834 39.0676 6.41051 39.3262 6.41051C39.5847 6.41051 39.8051 6.49834 39.9874 6.67401C40.173 6.84635 40.2658 7.05516 40.2658 7.30043C40.2658 7.54238 40.173 7.75118 39.9874 7.92685C39.8051 8.09919 39.5847 8.18537 39.3262 8.18537ZM43.5483 12.4659V17H42.0618V9.36364H43.4886V10.6065H43.5831C43.7588 10.2022 44.0339 9.87737 44.4084 9.6321C44.7862 9.38684 45.2618 9.2642 45.8352 9.2642C46.3556 9.2642 46.8113 9.37358 47.2024 9.59233C47.5935 9.80777 47.8968 10.1293 48.1122 10.5568C48.3277 10.9844 48.4354 11.513 48.4354 12.1428V17H46.9489V12.3217C46.9489 11.7682 46.8047 11.3357 46.5163 11.0241C46.228 10.7093 45.8319 10.5518 45.3281 10.5518C44.9834 10.5518 44.6768 10.6264 44.4084 10.7756C44.1432 10.9247 43.9328 11.1435 43.777 11.4318C43.6245 11.7169 43.5483 12.0616 43.5483 12.4659ZM53.6307 20.0227C53.0241 20.0227 52.5021 19.9432 52.0646 19.7841C51.6304 19.625 51.2758 19.4145 51.0007 19.1527C50.7256 18.8909 50.5201 18.6042 50.3842 18.2926L51.6619 17.7656C51.7514 17.9115 51.8707 18.0656 52.0199 18.228C52.1723 18.3937 52.3778 18.5346 52.6364 18.6506C52.8982 18.7666 53.2346 18.8246 53.6456 18.8246C54.209 18.8246 54.6747 18.687 55.0426 18.4119C55.4105 18.1402 55.5945 17.706 55.5945 17.1094V15.608H55.5C55.4105 15.7704 55.2813 15.951 55.1122 16.1499C54.9465 16.3487 54.7178 16.5211 54.4261 16.6669C54.1345 16.8127 53.755 16.8857 53.2876 16.8857C52.6844 16.8857 52.1409 16.7448 51.657 16.4631C51.1764 16.178 50.7952 15.7588 50.5135 15.2053C50.2351 14.6484 50.0959 13.964 50.0959 13.152C50.0959 12.34 50.2334 11.6439 50.5085 11.0639C50.7869 10.4839 51.1681 10.0398 51.652 9.73153C52.1359 9.41998 52.6844 9.2642 53.2976 9.2642C53.7715 9.2642 54.1544 9.34375 54.446 9.50284C54.7377 9.65862 54.9647 9.84091 55.1271 10.0497C55.2929 10.2585 55.4205 10.4425 55.5099 10.6016H55.6193V9.36364H57.076V17.169C57.076 17.8253 56.9235 18.3639 56.6186 18.7848C56.3137 19.2057 55.901 19.5173 55.3807 19.7195C54.8636 19.9216 54.2803 20.0227 53.6307 20.0227ZM53.6158 15.6527C54.0433 15.6527 54.4046 15.5533 54.6996 15.3544C54.9979 15.1522 55.2232 14.8639 55.3757 14.4893C55.5315 14.1115 55.6094 13.6591 55.6094 13.1321C55.6094 12.6184 55.5331 12.166 55.3807 11.7749C55.2282 11.3838 55.0045 11.0788 54.7095 10.8601C54.4145 10.638 54.05 10.527 53.6158 10.527C53.1683 10.527 52.7955 10.643 52.4972 10.875C52.1989 11.1037 51.9735 11.4152 51.821 11.8097C51.6719 12.2041 51.5973 12.6449 51.5973 13.1321C51.5973 13.6326 51.6735 14.0717 51.826 14.4496C51.9785 14.8274 52.2038 15.1224 52.5021 15.3345C52.8037 15.5466 53.175 15.6527 53.6158 15.6527ZM64.7919 11.228L63.4446 11.4666C63.3883 11.2943 63.2988 11.1302 63.1761 10.9744C63.0568 10.8187 62.8944 10.6911 62.6889 10.5916C62.4834 10.4922 62.2266 10.4425 61.9183 10.4425C61.4974 10.4425 61.1461 10.5369 60.8643 10.7259C60.5826 10.9115 60.4418 11.1518 60.4418 11.4467C60.4418 11.7019 60.5362 11.9074 60.7251 12.0632C60.9141 12.219 61.219 12.3466 61.6399 12.446L62.853 12.7244C63.5556 12.8868 64.0793 13.1371 64.424 13.4751C64.7687 13.8132 64.9411 14.2524 64.9411 14.7926C64.9411 15.25 64.8085 15.6577 64.5433 16.0156C64.2815 16.3703 63.9152 16.6487 63.4446 16.8509C62.9773 17.053 62.4354 17.1541 61.8189 17.1541C60.9638 17.1541 60.2661 16.9718 59.7259 16.6072C59.1856 16.2393 58.8542 15.7173 58.7315 15.0412L60.1683 14.8224C60.2578 15.197 60.4418 15.4804 60.7202 15.6726C60.9986 15.8615 61.3615 15.956 61.8089 15.956C62.2962 15.956 62.6856 15.8549 62.9773 15.6527C63.2689 15.4472 63.4148 15.197 63.4148 14.902C63.4148 14.6634 63.3253 14.4628 63.1463 14.3004C62.9706 14.138 62.7005 14.0154 62.3359 13.9325L61.0433 13.6491C60.3307 13.4867 59.8037 13.2282 59.4624 12.8736C59.1243 12.5189 58.9553 12.0698 58.9553 11.5263C58.9553 11.0755 59.0812 10.6811 59.3331 10.343C59.585 10.005 59.933 9.74148 60.3771 9.55256C60.8213 9.36032 61.33 9.2642 61.9034 9.2642C62.7287 9.2642 63.3783 9.44318 63.8523 9.80114C64.3262 10.1558 64.6394 10.6314 64.7919 11.228Z" fill="#5925DC"/>
<rect x="0.5" y="0.5" width="75" height="23" rx="11.5" stroke="#D9D6FE"/>
</g>
</svg>
