<svg width="84" height="24" viewBox="0 0 84 24" fill="none" xmlns="http://www.w3.org/2000/svg">
<g style="mix-blend-mode:multiply">
<rect x="0.5" y="0.5" width="83" height="23" rx="11.5" fill="#FEF6EE"/>
<path d="M11.27 17V6.81818H12.8062V11.6804H12.9305L17.2011 6.81818H19.135L15.0285 11.402L19.1499 17H17.3005L14.0093 12.451L12.8062 13.8331V17H11.27ZM23.1782 17.1541C22.4258 17.1541 21.7778 16.9934 21.2343 16.6719C20.694 16.3471 20.2764 15.8913 19.9814 15.3047C19.6898 14.7147 19.5439 14.0237 19.5439 13.2315C19.5439 12.4493 19.6898 11.7599 19.9814 11.1634C20.2764 10.5668 20.6874 10.1011 21.2144 9.76633C21.7447 9.43158 22.3645 9.2642 23.0738 9.2642C23.5046 9.2642 23.9223 9.33546 24.3266 9.47798C24.731 9.6205 25.0939 9.84422 25.4154 10.1491C25.7369 10.4541 25.9904 10.8501 26.176 11.3374C26.3617 11.8213 26.4545 12.4096 26.4545 13.1023V13.6293H20.3841V12.5156H24.9978C24.9978 12.1245 24.9182 11.7782 24.7591 11.4766C24.6001 11.1716 24.3763 10.9313 24.088 10.7557C23.8029 10.58 23.4682 10.4922 23.0837 10.4922C22.6661 10.4922 22.3015 10.5949 21.99 10.8004C21.6817 11.0026 21.4431 11.2678 21.2741 11.5959C21.1083 11.9207 21.0255 12.2737 21.0255 12.6548V13.5249C21.0255 14.0353 21.115 14.4695 21.2939 14.8274C21.4762 15.1854 21.7298 15.4588 22.0546 15.6477C22.3794 15.8333 22.7589 15.9261 23.1931 15.9261C23.4748 15.9261 23.7317 15.8864 23.9637 15.8068C24.1957 15.724 24.3962 15.6013 24.5653 15.4389C24.7343 15.2765 24.8635 15.076 24.953 14.8374L26.36 15.0909C26.2473 15.5052 26.0451 15.8681 25.7535 16.1797C25.4651 16.4879 25.1022 16.7282 24.6647 16.9006C24.2305 17.0696 23.735 17.1541 23.1782 17.1541ZM28.8247 19.8636C28.6026 19.8636 28.4004 19.8454 28.2181 19.8089C28.0358 19.7758 27.8999 19.7393 27.8105 19.6996L28.1684 18.4815C28.4402 18.5545 28.6821 18.5859 28.8943 18.576C29.1064 18.5661 29.2936 18.4865 29.4561 18.3374C29.6218 18.1882 29.7676 17.9446 29.8936 17.6065L30.0775 17.0994L27.2835 9.36364H28.8744L30.8083 15.2898H30.8879L32.8218 9.36364H34.4177L31.2707 18.0192C31.1249 18.4169 30.9392 18.7533 30.7139 19.0284C30.4885 19.3068 30.22 19.5156 29.9085 19.6548C29.5969 19.794 29.2356 19.8636 28.8247 19.8636ZM35.934 17V6.81818H37.4205V10.6016H37.51C37.5962 10.4425 37.7205 10.2585 37.8829 10.0497C38.0453 9.84091 38.2707 9.65862 38.559 9.50284C38.8474 9.34375 39.2285 9.2642 39.7025 9.2642C40.319 9.2642 40.8692 9.41998 41.3531 9.73153C41.837 10.0431 42.2165 10.4922 42.4916 11.0788C42.77 11.6655 42.9092 12.3714 42.9092 13.1967C42.9092 14.022 42.7716 14.7296 42.4965 15.3196C42.2214 15.9062 41.8436 16.3587 41.363 16.6768C40.8824 16.9917 40.3339 17.1491 39.7174 17.1491C39.2534 17.1491 38.8739 17.0713 38.5789 16.9155C38.2873 16.7597 38.0586 16.5774 37.8928 16.3686C37.7271 16.1598 37.5995 15.9742 37.51 15.8118H37.3857V17H35.934ZM37.3907 13.1818C37.3907 13.7187 37.4686 14.1894 37.6244 14.5938C37.7802 14.9981 38.0055 15.3146 38.3005 15.5433C38.5955 15.7687 38.9568 15.8814 39.3843 15.8814C39.8285 15.8814 40.1997 15.7637 40.498 15.5284C40.7963 15.2898 41.0216 14.9666 41.1741 14.5589C41.3299 14.1513 41.4078 13.6922 41.4078 13.1818C41.4078 12.678 41.3315 12.2256 41.1791 11.8246C41.0299 11.4235 40.8045 11.107 40.5029 10.875C40.2046 10.643 39.8318 10.527 39.3843 10.527C38.9535 10.527 38.5889 10.638 38.2906 10.8601C37.9956 11.0821 37.7719 11.392 37.6194 11.7898C37.4669 12.1875 37.3907 12.6515 37.3907 13.1818ZM47.795 17.1541C47.0791 17.1541 46.4543 16.9901 45.9207 16.6619C45.3871 16.3338 44.9728 15.8748 44.6778 15.2848C44.3828 14.6948 44.2354 14.0054 44.2354 13.2166C44.2354 12.4245 44.3828 11.7318 44.6778 11.1385C44.9728 10.5452 45.3871 10.0845 45.9207 9.75639C46.4543 9.42827 47.0791 9.2642 47.795 9.2642C48.5109 9.2642 49.1357 9.42827 49.6693 9.75639C50.2029 10.0845 50.6172 10.5452 50.9122 11.1385C51.2072 11.7318 51.3547 12.4245 51.3547 13.2166C51.3547 14.0054 51.2072 14.6948 50.9122 15.2848C50.6172 15.8748 50.2029 16.3338 49.6693 16.6619C49.1357 16.9901 48.5109 17.1541 47.795 17.1541ZM47.8 15.9062C48.264 15.9062 48.6485 15.7836 48.9534 15.5384C49.2583 15.2931 49.4837 14.9666 49.6295 14.5589C49.7787 14.1513 49.8532 13.7022 49.8532 13.2116C49.8532 12.7244 49.7787 12.277 49.6295 11.8693C49.4837 11.4583 49.2583 11.1286 48.9534 10.88C48.6485 10.6314 48.264 10.5071 47.8 10.5071C47.3327 10.5071 46.9449 10.6314 46.6366 10.88C46.3317 11.1286 46.1047 11.4583 45.9555 11.8693C45.8097 12.277 45.7368 12.7244 45.7368 13.2116C45.7368 13.7022 45.8097 14.1513 45.9555 14.5589C46.1047 14.9666 46.3317 15.2931 46.6366 15.5384C46.9449 15.7836 47.3327 15.9062 47.8 15.9062ZM55.2362 17.169C54.7523 17.169 54.3148 17.0795 53.9237 16.9006C53.5326 16.7183 53.2227 16.4548 52.9941 16.1101C52.7687 15.7654 52.656 15.3428 52.656 14.8423C52.656 14.4115 52.7388 14.0568 52.9046 13.7784C53.0703 13.5 53.294 13.2796 53.5757 13.1172C53.8575 12.9548 54.1723 12.8321 54.5203 12.7493C54.8683 12.6664 55.223 12.6035 55.5843 12.5604C56.0416 12.5073 56.4128 12.4643 56.6979 12.4311C56.9829 12.3946 57.1901 12.3366 57.3193 12.2571C57.4486 12.1776 57.5132 12.0483 57.5132 11.8693V11.8345C57.5132 11.4003 57.3906 11.0639 57.1453 10.8253C56.9034 10.5866 56.5421 10.4673 56.0615 10.4673C55.561 10.4673 55.1666 10.5784 54.8783 10.8004C54.5932 11.0192 54.396 11.2628 54.2867 11.5312L52.8896 11.2131C53.0554 10.7491 53.2973 10.3745 53.6155 10.0895C53.937 9.80114 54.3066 9.59233 54.7242 9.46307C55.1418 9.33049 55.5809 9.2642 56.0416 9.2642C56.3466 9.2642 56.6697 9.30066 57.0111 9.37358C57.3558 9.44318 57.6773 9.57244 57.9756 9.76136C58.2772 9.95028 58.5241 10.2204 58.7164 10.5717C58.9086 10.9197 59.0047 11.3722 59.0047 11.929V17H57.553V15.956H57.4933C57.3972 16.1482 57.253 16.3371 57.0608 16.5227C56.8686 16.7083 56.6217 16.8625 56.32 16.9851C56.0184 17.1077 55.6572 17.169 55.2362 17.169ZM55.5594 15.9759C55.9704 15.9759 56.3217 15.8946 56.6134 15.7322C56.9084 15.5698 57.1321 15.3577 57.2845 15.0959C57.4403 14.8307 57.5182 14.5473 57.5182 14.2457V13.2614C57.4652 13.3144 57.3624 13.3641 57.21 13.4105C57.0608 13.4536 56.8901 13.4917 56.6979 13.5249C56.5057 13.5547 56.3184 13.5829 56.1361 13.6094C55.9538 13.6326 55.8013 13.6525 55.6787 13.669C55.3904 13.7055 55.1269 13.7668 54.8882 13.853C54.6529 13.9392 54.464 14.0634 54.3215 14.2259C54.1823 14.3849 54.1127 14.5971 54.1127 14.8622C54.1127 15.2301 54.2485 15.5085 54.5203 15.6974C54.7921 15.883 55.1385 15.9759 55.5594 15.9759ZM60.9846 17V9.36364H62.4214V10.5767H62.501C62.6402 10.1657 62.8854 9.84257 63.2368 9.60724C63.5914 9.36861 63.9925 9.24929 64.4399 9.24929C64.5327 9.24929 64.6421 9.2526 64.768 9.25923C64.8973 9.26586 64.9984 9.27415 65.0713 9.28409V10.706C65.0116 10.6894 64.9056 10.6712 64.7531 10.6513C64.6006 10.6281 64.4482 10.6165 64.2957 10.6165C63.9444 10.6165 63.6312 10.6911 63.3561 10.8402C63.0843 10.986 62.8689 11.1899 62.7098 11.4517C62.5507 11.7102 62.4711 12.0052 62.4711 12.3366V17H60.9846ZM68.9429 17.1491C68.3264 17.1491 67.7762 16.9917 67.2923 16.6768C66.8118 16.3587 66.4339 15.9062 66.1588 15.3196C65.887 14.7296 65.7512 14.022 65.7512 13.1967C65.7512 12.3714 65.8887 11.6655 66.1638 11.0788C66.4422 10.4922 66.8234 10.0431 67.3073 9.73153C67.7912 9.41998 68.3397 9.2642 68.9529 9.2642C69.4268 9.2642 69.808 9.34375 70.0963 9.50284C70.388 9.65862 70.6134 9.84091 70.7725 10.0497C70.9349 10.2585 71.0608 10.4425 71.1503 10.6016H71.2398V6.81818H72.7263V17H71.2746V15.8118H71.1503C71.0608 15.9742 70.9316 16.1598 70.7625 16.3686C70.5968 16.5774 70.3681 16.7597 70.0764 16.9155C69.7848 17.0713 69.4069 17.1491 68.9429 17.1491ZM69.271 15.8814C69.6986 15.8814 70.0599 15.7687 70.3548 15.5433C70.6531 15.3146 70.8785 14.9981 71.031 14.5938C71.1868 14.1894 71.2646 13.7187 71.2646 13.1818C71.2646 12.6515 71.1884 12.1875 71.036 11.7898C70.8835 11.392 70.6598 11.0821 70.3648 10.8601C70.0698 10.638 69.7052 10.527 69.271 10.527C68.8236 10.527 68.4507 10.643 68.1524 10.875C67.8541 11.107 67.6288 11.4235 67.4763 11.8246C67.3271 12.2256 67.2526 12.678 67.2526 13.1818C67.2526 13.6922 67.3288 14.1513 67.4813 14.5589C67.6337 14.9666 67.8591 15.2898 68.1574 15.5284C68.459 15.7637 68.8302 15.8814 69.271 15.8814Z" fill="#B93815"/>
<rect x="0.5" y="0.5" width="83" height="23" rx="11.5" stroke="#F9DBAF"/>
</g>
</svg>
