<svg width="73" height="24" viewBox="0 0 73 24" fill="none" xmlns="http://www.w3.org/2000/svg">
<g style="mix-blend-mode:multiply">
<rect x="0.5" y="0.5" width="72" height="23" rx="11.5" fill="#ECFDF3"/>
<path d="M10.8665 8.14062V6.81818H18.7464V8.14062H15.5696V17H14.0384V8.14062H10.8665ZM23.938 12.0533V13.3409H19.4238V12.0533H23.938ZM31.6415 11.228L30.2942 11.4666C30.2379 11.2943 30.1484 11.1302 30.0257 10.9744C29.9064 10.8187 29.744 10.6911 29.5385 10.5916C29.333 10.4922 29.0762 10.4425 28.7679 10.4425C28.347 10.4425 27.9957 10.5369 27.714 10.7259C27.4322 10.9115 27.2914 11.1518 27.2914 11.4467C27.2914 11.7019 27.3858 11.9074 27.5748 12.0632C27.7637 12.219 28.0686 12.3466 28.4895 12.446L29.7026 12.7244C30.4052 12.8868 30.9289 13.1371 31.2736 13.4751C31.6183 13.8132 31.7907 14.2524 31.7907 14.7926C31.7907 15.25 31.6581 15.6577 31.3929 16.0156C31.1311 16.3703 30.7649 16.6487 30.2942 16.8509C29.8269 17.053 29.285 17.1541 28.6685 17.1541C27.8134 17.1541 27.1157 16.9718 26.5755 16.6072C26.0352 16.2393 25.7038 15.7173 25.5811 15.0412L27.0179 14.8224C27.1074 15.197 27.2914 15.4804 27.5698 15.6726C27.8482 15.8615 28.2111 15.956 28.6586 15.956C29.1458 15.956 29.5352 15.8549 29.8269 15.6527C30.1185 15.4472 30.2644 15.197 30.2644 14.902C30.2644 14.6634 30.1749 14.4628 29.9959 14.3004C29.8203 14.138 29.5501 14.0154 29.1855 13.9325L27.8929 13.6491C27.1803 13.4867 26.6533 13.2282 26.312 12.8736C25.9739 12.5189 25.8049 12.0698 25.8049 11.5263C25.8049 11.0755 25.9308 10.6811 26.1827 10.343C26.4346 10.005 26.7826 9.74148 27.2267 9.55256C27.6709 9.36032 28.1796 9.2642 28.753 9.2642C29.5783 9.2642 30.2279 9.44318 30.7019 9.80114C31.1758 10.1558 31.4891 10.6314 31.6415 11.228ZM34.9116 12.4659V17H33.4251V6.81818H34.8917V10.6065H34.9862C35.1651 10.1955 35.4386 9.86908 35.8065 9.62713C36.1744 9.38518 36.6549 9.2642 37.2482 9.2642C37.7719 9.2642 38.2293 9.37192 38.6204 9.58736C39.0148 9.80279 39.3197 10.1243 39.5352 10.5518C39.7539 10.9761 39.8633 11.5064 39.8633 12.1428V17H38.3768V12.3217C38.3768 11.7616 38.2326 11.3274 37.9442 11.0192C37.6559 10.7076 37.2549 10.5518 36.7411 10.5518C36.3898 10.5518 36.0749 10.6264 35.7965 10.7756C35.5214 10.9247 35.3043 11.1435 35.1452 11.4318C34.9895 11.7169 34.9116 12.0616 34.9116 12.4659ZM41.8469 17V9.36364H43.3335V17H41.8469ZM42.5977 8.18537C42.3391 8.18537 42.1171 8.09919 41.9315 7.92685C41.7492 7.75118 41.658 7.54238 41.658 7.30043C41.658 7.05516 41.7492 6.84635 41.9315 6.67401C42.1171 6.49834 42.3391 6.41051 42.5977 6.41051C42.8562 6.41051 43.0766 6.49834 43.2589 6.67401C43.4445 6.84635 43.5373 7.05516 43.5373 7.30043C43.5373 7.54238 43.4445 7.75118 43.2589 7.92685C43.0766 8.09919 42.8562 8.18537 42.5977 8.18537ZM45.3333 17V9.36364H46.7701V10.5767H46.8496C46.9888 10.1657 47.2341 9.84257 47.5854 9.60724C47.94 9.36861 48.3411 9.24929 48.7885 9.24929C48.8813 9.24929 48.9907 9.2526 49.1167 9.25923C49.2459 9.26586 49.347 9.27415 49.4199 9.28409V10.706C49.3603 10.6894 49.2542 10.6712 49.1017 10.6513C48.9493 10.6281 48.7968 10.6165 48.6444 10.6165C48.293 10.6165 47.9798 10.6911 47.7047 10.8402C47.4329 10.986 47.2175 11.1899 47.0584 11.4517C46.8993 11.7102 46.8198 12.0052 46.8198 12.3366V17H45.3333ZM54.7221 9.36364V10.5568H50.551V9.36364H54.7221ZM51.6696 7.53409H53.1561V14.7578C53.1561 15.0462 53.1992 15.2633 53.2853 15.4091C53.3715 15.5516 53.4825 15.6494 53.6184 15.7024C53.7576 15.7521 53.9084 15.777 54.0708 15.777C54.1902 15.777 54.2946 15.7687 54.3841 15.7521C54.4735 15.7356 54.5431 15.7223 54.5929 15.7124L54.8613 16.9403C54.7752 16.9735 54.6525 17.0066 54.4934 17.0398C54.3343 17.0762 54.1355 17.0961 53.8968 17.0994C53.5057 17.1061 53.1412 17.0365 52.8031 16.8906C52.465 16.7448 52.1916 16.5194 51.9828 16.2145C51.774 15.9096 51.6696 15.5268 51.6696 15.0661V7.53409ZM61.9657 11.228L60.6184 11.4666C60.5621 11.2943 60.4726 11.1302 60.35 10.9744C60.2306 10.8187 60.0682 10.6911 59.8627 10.5916C59.6573 10.4922 59.4004 10.4425 59.0922 10.4425C58.6712 10.4425 58.3199 10.5369 58.0382 10.7259C57.7565 10.9115 57.6156 11.1518 57.6156 11.4467C57.6156 11.7019 57.71 11.9074 57.899 12.0632C58.0879 12.219 58.3928 12.3466 58.8137 12.446L60.0268 12.7244C60.7295 12.8868 61.2531 13.1371 61.5978 13.4751C61.9425 13.8132 62.1149 14.2524 62.1149 14.7926C62.1149 15.25 61.9823 15.6577 61.7172 16.0156C61.4553 16.3703 61.0891 16.6487 60.6184 16.8509C60.1511 17.053 59.6092 17.1541 58.9927 17.1541C58.1376 17.1541 57.4399 16.9718 56.8997 16.6072C56.3594 16.2393 56.028 15.7173 55.9054 15.0412L57.3422 14.8224C57.4316 15.197 57.6156 15.4804 57.894 15.6726C58.1724 15.8615 58.5353 15.956 58.9828 15.956C59.47 15.956 59.8594 15.8549 60.1511 15.6527C60.4428 15.4472 60.5886 15.197 60.5886 14.902C60.5886 14.6634 60.4991 14.4628 60.3201 14.3004C60.1445 14.138 59.8743 14.0154 59.5098 13.9325L58.2172 13.6491C57.5046 13.4867 56.9776 13.2282 56.6362 12.8736C56.2981 12.5189 56.1291 12.0698 56.1291 11.5263C56.1291 11.0755 56.255 10.6811 56.5069 10.343C56.7588 10.005 57.1068 9.74148 57.551 9.55256C57.9951 9.36032 58.5038 9.2642 59.0772 9.2642C59.9025 9.2642 60.5521 9.44318 61.0261 9.80114C61.5001 10.1558 61.8133 10.6314 61.9657 11.228Z" fill="#067647"/>
<rect x="0.5" y="0.5" width="72" height="23" rx="11.5" stroke="#ABEFC6"/>
</g>
</svg>
