<svg width="48" height="48" viewBox="0 0 48 48" fill="none" xmlns="http://www.w3.org/2000/svg">
<g filter="url(#filter0_i_2316_55765)">
<path d="M24.8589 16.6135H43.4439C44.5611 16.6135 45.4667 17.5192 45.4667 18.6364V42H24.8589V16.6135Z" fill="url(#paint0_linear_2316_55765)"/>
<path d="M24.8589 16.6135H43.4439C44.5611 16.6135 45.4667 17.5192 45.4667 18.6364V42H24.8589V16.6135Z" fill="url(#paint1_linear_2316_55765)"/>
<path d="M24.8589 16.6135H43.4439C44.5611 16.6135 45.4667 17.5192 45.4667 18.6364V42H24.8589V16.6135Z" fill="url(#paint2_radial_2316_55765)"/>
</g>
<path d="M23.7209 41.3936H45.4667V43.9221H44.9609L44.4552 44.4278H23.7209V41.3936Z" fill="url(#paint3_linear_2316_55765)"/>
<path d="M23.7209 41.3936H45.4667V43.9221H44.9609L44.4552 44.4278H23.7209V41.3936Z" fill="url(#paint4_linear_2316_55765)"/>
<path d="M24.7325 16.6135C23.8946 16.6135 23.2153 17.2928 23.2153 18.1307V42.9107H24.2268C24.2268 42.3521 24.6796 41.8992 25.2382 41.8992H26.2496V16.6135H24.7325Z" fill="url(#paint5_linear_2316_55765)"/>
<path d="M24.7325 16.6135C23.8946 16.6135 23.2153 17.2928 23.2153 18.1307V42.9107H24.2268C24.2268 42.3521 24.6796 41.8992 25.2382 41.8992H26.2496V16.6135H24.7325Z" fill="url(#paint6_radial_2316_55765)"/>
<g filter="url(#filter1_i_2316_55765)">
<path d="M24.7325 40.8877C23.8946 40.8877 23.2153 41.5669 23.2153 42.4048V43.4163C23.2153 44.2542 23.8946 44.9334 24.7325 44.9334H44.362C45.0225 44.9334 45.4668 44.5951 45.4668 43.922H25.2382C24.6796 43.922 24.2268 43.4691 24.2268 42.9106C24.2268 42.352 24.6796 41.8991 25.2382 41.8991H45.4668V40.8877H24.7325Z" fill="url(#paint7_linear_2316_55765)"/>
</g>
<path d="M15.6558 10.5544H32.85C33.9672 10.5544 34.8729 11.4601 34.8729 12.5773V34.8287H15.6558V10.5544Z" fill="url(#paint8_linear_2316_55765)"/>
<path d="M15.6558 10.5544H32.85C33.9672 10.5544 34.8729 11.4601 34.8729 12.5773V34.8287H15.6558V10.5544Z" fill="url(#paint9_linear_2316_55765)"/>
<path d="M15.6558 10.5544H32.85C33.9672 10.5544 34.8729 11.4601 34.8729 12.5773V34.8287H15.6558V10.5544Z" fill="url(#paint10_radial_2316_55765)"/>
<path d="M13.1272 35.3345H34.8729V37.863H34.3672L33.8615 38.3688H13.1272V35.3345Z" fill="url(#paint11_linear_2316_55765)"/>
<path d="M13.1272 35.3345H34.8729V37.863H34.3672L33.8615 38.3688H13.1272V35.3345Z" fill="url(#paint12_linear_2316_55765)"/>
<path d="M14.1387 10.5544C13.3008 10.5544 12.6216 11.2337 12.6216 12.0716V36.8516H13.633C13.633 36.293 14.0858 35.8402 14.6444 35.8402H15.6559V10.5544H14.1387Z" fill="url(#paint13_linear_2316_55765)"/>
<path d="M14.1387 10.5544C13.3008 10.5544 12.6216 11.2337 12.6216 12.0716V36.8516H13.633C13.633 36.293 14.0858 35.8402 14.6444 35.8402H15.6559V10.5544H14.1387Z" fill="url(#paint14_radial_2316_55765)"/>
<path d="M14.1387 10.5544C13.3008 10.5544 12.6216 11.2337 12.6216 12.0716V36.8516H13.633C13.633 36.293 14.0858 35.8402 14.6444 35.8402H15.6559V10.5544H14.1387Z" fill="url(#paint15_radial_2316_55765)"/>
<g filter="url(#filter2_i_2316_55765)">
<path d="M14.1387 34.8286C13.3008 34.8286 12.6216 35.5079 12.6216 36.3458V37.3572C12.6216 38.1951 13.3008 38.8743 14.1387 38.8743H33.7682C34.4288 38.8743 34.873 38.536 34.873 37.8629H14.6444C14.0858 37.8629 13.633 37.4101 13.633 36.8515C13.633 36.2929 14.0858 35.84 14.6444 35.84H34.873V34.8286H14.1387Z" fill="url(#paint16_linear_2316_55765)"/>
</g>
<g filter="url(#filter3_i_2316_55765)">
<path d="M4.9231 6H23.5032C24.6201 6 25.5255 6.90542 25.5255 8.02232V30.2679H4.9231V6Z" fill="url(#paint17_linear_2316_55765)"/>
<path d="M4.9231 6H23.5032C24.6201 6 25.5255 6.90542 25.5255 8.02232V30.2679H4.9231V6Z" fill="url(#paint18_linear_2316_55765)"/>
</g>
<path d="M3.78564 30.7734H25.5256V33.3013H25.02L24.5144 33.8069H3.78564V30.7734Z" fill="url(#paint19_linear_2316_55765)"/>
<path d="M3.78564 30.7734H25.5256V33.3013H25.02L24.5144 33.8069H3.78564V30.7734Z" fill="url(#paint20_linear_2316_55765)"/>
<path d="M4.79677 6C3.9591 6 3.28003 6.67907 3.28003 7.51674V32.2902H4.29119C4.29119 31.7317 4.7439 31.279 5.30235 31.279H6.31351V6H4.79677Z" fill="url(#paint21_linear_2316_55765)"/>
<g filter="url(#filter4_i_2316_55765)">
<path d="M4.79677 30.2678C3.9591 30.2678 3.28003 30.9469 3.28003 31.7846V32.7957C3.28003 33.6334 3.9591 34.3125 4.79677 34.3125H24.4211C25.0815 34.3125 25.5256 33.9743 25.5256 33.3013H5.30235C4.7439 33.3013 4.29119 32.8486 4.29119 32.2901C4.29119 31.7317 4.7439 31.279 5.30235 31.279H25.5256V30.2678H4.79677Z" fill="url(#paint22_linear_2316_55765)"/>
</g>
<defs>
<filter id="filter0_i_2316_55765" x="24.8589" y="16.6135" width="20.6079" height="25.4865" filterUnits="userSpaceOnUse" color-interpolation-filters="sRGB">
<feFlood flood-opacity="0" result="BackgroundImageFix"/>
<feBlend mode="normal" in="SourceGraphic" in2="BackgroundImageFix" result="shape"/>
<feColorMatrix in="SourceAlpha" type="matrix" values="0 0 0 0 0 0 0 0 0 0 0 0 0 0 0 0 0 0 127 0" result="hardAlpha"/>
<feOffset dy="0.1"/>
<feGaussianBlur stdDeviation="0.25"/>
<feComposite in2="hardAlpha" operator="arithmetic" k2="-1" k3="1"/>
<feColorMatrix type="matrix" values="0 0 0 0 0.32549 0 0 0 0 0.807843 0 0 0 0 0.933333 0 0 0 1 0"/>
<feBlend mode="normal" in2="shape" result="effect1_innerShadow_2316_55765"/>
</filter>
<filter id="filter1_i_2316_55765" x="23.2153" y="40.8877" width="22.2515" height="4.14565" filterUnits="userSpaceOnUse" color-interpolation-filters="sRGB">
<feFlood flood-opacity="0" result="BackgroundImageFix"/>
<feBlend mode="normal" in="SourceGraphic" in2="BackgroundImageFix" result="shape"/>
<feColorMatrix in="SourceAlpha" type="matrix" values="0 0 0 0 0 0 0 0 0 0 0 0 0 0 0 0 0 0 127 0" result="hardAlpha"/>
<feOffset dy="0.1"/>
<feGaussianBlur stdDeviation="0.15"/>
<feComposite in2="hardAlpha" operator="arithmetic" k2="-1" k3="1"/>
<feColorMatrix type="matrix" values="0 0 0 0 0.168627 0 0 0 0 0.388235 0 0 0 0 0.74902 0 0 0 1 0"/>
<feBlend mode="normal" in2="shape" result="effect1_innerShadow_2316_55765"/>
</filter>
<filter id="filter2_i_2316_55765" x="12.6216" y="34.8286" width="22.2515" height="4.14565" filterUnits="userSpaceOnUse" color-interpolation-filters="sRGB">
<feFlood flood-opacity="0" result="BackgroundImageFix"/>
<feBlend mode="normal" in="SourceGraphic" in2="BackgroundImageFix" result="shape"/>
<feColorMatrix in="SourceAlpha" type="matrix" values="0 0 0 0 0 0 0 0 0 0 0 0 0 0 0 0 0 0 127 0" result="hardAlpha"/>
<feOffset dy="0.1"/>
<feGaussianBlur stdDeviation="0.15"/>
<feComposite in2="hardAlpha" operator="arithmetic" k2="-1" k3="1"/>
<feColorMatrix type="matrix" values="0 0 0 0 0.694118 0 0 0 0 0.192157 0 0 0 0 0.360784 0 0 0 1 0"/>
<feBlend mode="normal" in2="shape" result="effect1_innerShadow_2316_55765"/>
</filter>
<filter id="filter3_i_2316_55765" x="4.9231" y="6" width="20.6023" height="24.3678" filterUnits="userSpaceOnUse" color-interpolation-filters="sRGB">
<feFlood flood-opacity="0" result="BackgroundImageFix"/>
<feBlend mode="normal" in="SourceGraphic" in2="BackgroundImageFix" result="shape"/>
<feColorMatrix in="SourceAlpha" type="matrix" values="0 0 0 0 0 0 0 0 0 0 0 0 0 0 0 0 0 0 127 0" result="hardAlpha"/>
<feOffset dy="0.1"/>
<feGaussianBlur stdDeviation="0.25"/>
<feComposite in2="hardAlpha" operator="arithmetic" k2="-1" k3="1"/>
<feColorMatrix type="matrix" values="0 0 0 0 0.623529 0 0 0 0 0.858824 0 0 0 0 0.290196 0 0 0 1 0"/>
<feBlend mode="normal" in2="shape" result="effect1_innerShadow_2316_55765"/>
</filter>
<filter id="filter4_i_2316_55765" x="3.28003" y="30.2678" width="22.2456" height="4.14468" filterUnits="userSpaceOnUse" color-interpolation-filters="sRGB">
<feFlood flood-opacity="0" result="BackgroundImageFix"/>
<feBlend mode="normal" in="SourceGraphic" in2="BackgroundImageFix" result="shape"/>
<feColorMatrix in="SourceAlpha" type="matrix" values="0 0 0 0 0 0 0 0 0 0 0 0 0 0 0 0 0 0 127 0" result="hardAlpha"/>
<feOffset dy="0.1"/>
<feGaussianBlur stdDeviation="0.15"/>
<feComposite in2="hardAlpha" operator="arithmetic" k2="-1" k3="1"/>
<feColorMatrix type="matrix" values="0 0 0 0 0.113725 0 0 0 0 0.435294 0 0 0 0 0.439216 0 0 0 1 0"/>
<feBlend mode="normal" in2="shape" result="effect1_innerShadow_2316_55765"/>
</filter>
<linearGradient id="paint0_linear_2316_55765" x1="35.8582" y1="16.6135" x2="35.8582" y2="40.8878" gradientUnits="userSpaceOnUse">
<stop stop-color="#56D1F3"/>
<stop offset="1" stop-color="#39ADF1"/>
</linearGradient>
<linearGradient id="paint1_linear_2316_55765" x1="45.6248" y1="20.1851" x2="43.6335" y2="20.4696" gradientUnits="userSpaceOnUse">
<stop offset="0.0135725" stop-color="#7FECFF"/>
<stop offset="1" stop-color="#60DEFF" stop-opacity="0"/>
</linearGradient>
<radialGradient id="paint2_radial_2316_55765" cx="0" cy="0" r="1" gradientUnits="userSpaceOnUse" gradientTransform="translate(26.1216 40.8878) scale(9.04124 7.67563)">
<stop stop-color="#2E7CD5"/>
<stop offset="1" stop-color="#2E7CD5" stop-opacity="0"/>
</radialGradient>
<linearGradient id="paint3_linear_2316_55765" x1="24.9564" y1="43.3309" x2="45.2836" y2="43.3309" gradientUnits="userSpaceOnUse">
<stop stop-color="#D5BCEB"/>
<stop offset="1" stop-color="#DCCCED"/>
<stop offset="1" stop-color="#E3D3F2"/>
</linearGradient>
<linearGradient id="paint4_linear_2316_55765" x1="34.5938" y1="41.6343" x2="34.5938" y2="43.0699" gradientUnits="userSpaceOnUse">
<stop stop-color="#9F84AE"/>
<stop offset="1" stop-color="#C5B1D6" stop-opacity="0"/>
</linearGradient>
<linearGradient id="paint5_linear_2316_55765" x1="23.423" y1="31.5196" x2="25.8071" y2="31.5321" gradientUnits="userSpaceOnUse">
<stop stop-color="#44A3D2"/>
<stop offset="1" stop-color="#3C8FCC"/>
</linearGradient>
<radialGradient id="paint6_radial_2316_55765" cx="0" cy="0" r="1" gradientUnits="userSpaceOnUse" gradientTransform="translate(26.2496 38.4375) rotate(90) scale(6.32812 3.69054)">
<stop stop-color="#3163AE"/>
<stop offset="1" stop-color="#3163AE" stop-opacity="0"/>
</radialGradient>
<linearGradient id="paint7_linear_2316_55765" x1="24.6629" y1="43.8855" x2="45.4668" y2="43.8528" gradientUnits="userSpaceOnUse">
<stop stop-color="#3769C5"/>
<stop offset="1" stop-color="#3666C3"/>
</linearGradient>
<linearGradient id="paint8_linear_2316_55765" x1="25.2643" y1="10.5544" x2="25.2643" y2="34.8287" gradientUnits="userSpaceOnUse">
<stop stop-color="#E13074"/>
<stop offset="1" stop-color="#E0334C"/>
</linearGradient>
<linearGradient id="paint9_linear_2316_55765" x1="36.5823" y1="13.9755" x2="33.8415" y2="14.0734" gradientUnits="userSpaceOnUse">
<stop offset="0.408703" stop-color="#F76594"/>
<stop offset="1" stop-color="#FA6295" stop-opacity="0"/>
</linearGradient>
<radialGradient id="paint10_radial_2316_55765" cx="0" cy="0" r="1" gradientUnits="userSpaceOnUse" gradientTransform="translate(16.5121 34.2188) scale(10.125 8.1933)">
<stop stop-color="#B21940"/>
<stop offset="1" stop-color="#B21940" stop-opacity="0"/>
</radialGradient>
<linearGradient id="paint11_linear_2316_55765" x1="14.3627" y1="37.2718" x2="34.6899" y2="37.2718" gradientUnits="userSpaceOnUse">
<stop stop-color="#D5BCEB"/>
<stop offset="1" stop-color="#DCCCED"/>
<stop offset="1" stop-color="#E3D3F2"/>
</linearGradient>
<linearGradient id="paint12_linear_2316_55765" x1="24.0001" y1="35.5752" x2="24.0001" y2="37.0108" gradientUnits="userSpaceOnUse">
<stop stop-color="#9F84AE"/>
<stop offset="1" stop-color="#C5B1D6" stop-opacity="0"/>
</linearGradient>
<linearGradient id="paint13_linear_2316_55765" x1="12.8292" y1="25.4605" x2="15.6559" y2="25.4605" gradientUnits="userSpaceOnUse">
<stop stop-color="#9A3E4F"/>
<stop offset="1" stop-color="#AA2C4D"/>
</linearGradient>
<radialGradient id="paint14_radial_2316_55765" cx="0" cy="0" r="1" gradientUnits="userSpaceOnUse" gradientTransform="translate(13.025 35.5099) rotate(-90) scale(6.72135 1.18434)">
<stop stop-color="#9B3F51"/>
<stop offset="1" stop-color="#9B3F51" stop-opacity="0"/>
</radialGradient>
<radialGradient id="paint15_radial_2316_55765" cx="0" cy="0" r="1" gradientUnits="userSpaceOnUse" gradientTransform="translate(15.6559 33.5157) rotate(90) scale(4.92188 2.79991)">
<stop offset="0.266667" stop-color="#8F163A"/>
<stop offset="1" stop-color="#8F163A" stop-opacity="0"/>
</radialGradient>
<linearGradient id="paint16_linear_2316_55765" x1="14.0691" y1="37.8264" x2="34.873" y2="37.7937" gradientUnits="userSpaceOnUse">
<stop stop-color="#AB1F5C"/>
<stop offset="1" stop-color="#A51E5A"/>
</linearGradient>
<linearGradient id="paint17_linear_2316_55765" x1="15.9195" y1="6" x2="15.9195" y2="30.2679" gradientUnits="userSpaceOnUse">
<stop stop-color="#A6E051"/>
<stop offset="1" stop-color="#74D891"/>
</linearGradient>
<linearGradient id="paint18_linear_2316_55765" x1="25.6835" y1="9.57066" x2="23.6928" y2="9.85505" gradientUnits="userSpaceOnUse">
<stop offset="0.0135725" stop-color="#C0FA7C"/>
<stop offset="1" stop-color="#B0ED5B" stop-opacity="0"/>
</linearGradient>
<linearGradient id="paint19_linear_2316_55765" x1="5.02078" y1="32.7103" x2="25.3426" y2="32.7103" gradientUnits="userSpaceOnUse">
<stop stop-color="#D5BCEB"/>
<stop offset="1" stop-color="#DCCCED"/>
<stop offset="1" stop-color="#E3D3F2"/>
</linearGradient>
<linearGradient id="paint20_linear_2316_55765" x1="14.6556" y1="31.0141" x2="14.6556" y2="32.4493" gradientUnits="userSpaceOnUse">
<stop stop-color="#9F84AE"/>
<stop offset="1" stop-color="#C5B1D6" stop-opacity="0"/>
</linearGradient>
<linearGradient id="paint21_linear_2316_55765" x1="3.48764" y1="20.9021" x2="5.87113" y2="20.9146" gradientUnits="userSpaceOnUse">
<stop stop-color="#63B33B"/>
<stop offset="1" stop-color="#429B5B"/>
</linearGradient>
<linearGradient id="paint22_linear_2316_55765" x1="4.72717" y1="33.2648" x2="25.5256" y2="33.2322" gradientUnits="userSpaceOnUse">
<stop stop-color="#2E7671"/>
<stop offset="1" stop-color="#2E7172"/>
</linearGradient>
</defs>
</svg>
