<svg width="48" height="48" viewBox="0 0 48 48" fill="none" xmlns="http://www.w3.org/2000/svg">
<g filter="url(#filter0_d_3527_24904)">
<rect x="2" y="1" width="44" height="44" rx="8" fill="white"/>
<path d="M16.8215 17.7224C16.1912 17.018 15.8761 16.6657 15.8642 16.3664C15.8539 16.1064 15.9656 15.8564 16.1663 15.6907C16.3973 15.5 16.8699 15.5 17.8152 15.5H30.1843C31.1295 15.5 31.6021 15.5 31.8331 15.6907C32.0338 15.8564 32.1456 16.1064 32.1352 16.3664C32.1233 16.6657 31.8082 17.018 31.1779 17.7224L26.4227 23.037C26.2971 23.1774 26.2343 23.2477 26.1895 23.3276C26.1497 23.3984 26.1206 23.4747 26.1029 23.554C26.083 23.6435 26.083 23.7377 26.083 23.9261V28.382C26.083 28.5449 26.083 28.6264 26.0568 28.6969C26.0335 28.7591 25.9958 28.8149 25.9466 28.8596C25.8909 28.9102 25.8153 28.9404 25.664 29.001L22.8306 30.1343C22.5243 30.2568 22.3712 30.3181 22.2483 30.2925C22.1408 30.2702 22.0464 30.2063 21.9857 30.1148C21.9164 30.0101 21.9164 29.8452 21.9164 29.5153V23.9261C21.9164 23.7377 21.9164 23.6435 21.8965 23.554C21.8788 23.4747 21.8497 23.3984 21.8099 23.3276C21.7652 23.2477 21.7023 23.1774 21.5767 23.037L16.8215 17.7224Z" stroke="#344054" stroke-width="1.66667" stroke-linecap="round" stroke-linejoin="round"/>
<rect x="2.5" y="1.5" width="43" height="43" rx="7.5" stroke="#D0D5DD"/>
</g>
<defs>
<filter id="filter0_d_3527_24904" x="0" y="0" width="48" height="48" filterUnits="userSpaceOnUse" color-interpolation-filters="sRGB">
<feFlood flood-opacity="0" result="BackgroundImageFix"/>
<feColorMatrix in="SourceAlpha" type="matrix" values="0 0 0 0 0 0 0 0 0 0 0 0 0 0 0 0 0 0 127 0" result="hardAlpha"/>
<feOffset dy="1"/>
<feGaussianBlur stdDeviation="1"/>
<feColorMatrix type="matrix" values="0 0 0 0 0.0627451 0 0 0 0 0.0941176 0 0 0 0 0.156863 0 0 0 0.05 0"/>
<feBlend mode="normal" in2="BackgroundImageFix" result="effect1_dropShadow_3527_24904"/>
<feBlend mode="normal" in="SourceGraphic" in2="effect1_dropShadow_3527_24904" result="shape"/>
</filter>
</defs>
</svg>
