<svg width="40" height="40" viewBox="0 0 40 40" fill="none" xmlns="http://www.w3.org/2000/svg">
<g filter="url(#filter0_d_7333_7357)">
<rect x="2" y="1" width="36" height="36" rx="8" fill="#66004B"/>
<g clip-path="url(#clip0_7333_7357)">
<path d="M14.1671 20.6667H25.1135C25.9576 20.6667 26.3796 20.6667 26.7155 20.5094C27.0115 20.3708 27.2601 20.1482 27.4306 19.8694C27.6241 19.5529 27.6707 19.1334 27.7639 18.2946L28.2514 13.907C28.2799 13.6508 28.2941 13.5227 28.2529 13.4235C28.2167 13.3365 28.1521 13.2642 28.0695 13.2186C27.9755 13.1667 27.8466 13.1667 27.5888 13.1667H13.7504M11.667 10.6667H12.7074C12.9279 10.6667 13.0381 10.6667 13.1244 10.7087C13.2003 10.7456 13.2633 10.8047 13.3049 10.8782C13.3521 10.9617 13.359 11.0717 13.3727 11.2918L14.1279 23.375C14.1417 23.5951 14.1486 23.7051 14.1958 23.7886C14.2374 23.8621 14.3003 23.9212 14.3763 23.9581C14.4625 24.0001 14.5728 24.0001 14.7933 24.0001H25.8337M16.2503 26.9167H16.2587M23.7503 26.9167H23.7587M16.667 26.9167C16.667 27.1469 16.4804 27.3334 16.2503 27.3334C16.0202 27.3334 15.8337 27.1469 15.8337 26.9167C15.8337 26.6866 16.0202 26.5001 16.2503 26.5001C16.4804 26.5001 16.667 26.6866 16.667 26.9167ZM24.167 26.9167C24.167 27.1469 23.9804 27.3334 23.7503 27.3334C23.5202 27.3334 23.3337 27.1469 23.3337 26.9167C23.3337 26.6866 23.5202 26.5001 23.7503 26.5001C23.9804 26.5001 24.167 26.6866 24.167 26.9167Z" stroke="white" stroke-width="1.66667" stroke-linecap="round" stroke-linejoin="round"/>
</g>
<rect x="2.5" y="1.5" width="35" height="35" rx="7.5" stroke="#66004B"/>
</g>
<defs>
<filter id="filter0_d_7333_7357" x="0" y="0" width="40" height="40" filterUnits="userSpaceOnUse" color-interpolation-filters="sRGB">
<feFlood flood-opacity="0" result="BackgroundImageFix"/>
<feColorMatrix in="SourceAlpha" type="matrix" values="0 0 0 0 0 0 0 0 0 0 0 0 0 0 0 0 0 0 127 0" result="hardAlpha"/>
<feOffset dy="1"/>
<feGaussianBlur stdDeviation="1"/>
<feColorMatrix type="matrix" values="0 0 0 0 0.0627451 0 0 0 0 0.0941176 0 0 0 0 0.156863 0 0 0 0.05 0"/>
<feBlend mode="normal" in2="BackgroundImageFix" result="effect1_dropShadow_7333_7357"/>
<feBlend mode="normal" in="SourceGraphic" in2="effect1_dropShadow_7333_7357" result="shape"/>
</filter>
<clipPath id="clip0_7333_7357">
<rect width="20" height="20" fill="white" transform="translate(10 9)"/>
</clipPath>
</defs>
</svg>
