<svg width="95" height="24" viewBox="0 0 95 24" fill="none" xmlns="http://www.w3.org/2000/svg">
<g style="mix-blend-mode:multiply">
<rect x="0.5" y="0.5" width="94" height="23" rx="11.5" fill="#FFF0FB"/>
<path d="M11.5542 17V6.81818H17.9377V8.14062H13.0904V11.2429H17.6046V12.5604H13.0904V15.6776H17.9973V17H11.5542ZM21.3569 6.81818V17H19.8704V6.81818H21.3569ZM26.6479 17.1541C25.8955 17.1541 25.2476 16.9934 24.704 16.6719C24.1638 16.3471 23.7462 15.8913 23.4512 15.3047C23.1595 14.7147 23.0137 14.0237 23.0137 13.2315C23.0137 12.4493 23.1595 11.7599 23.4512 11.1634C23.7462 10.5668 24.1571 10.1011 24.6841 9.76633C25.2144 9.43158 25.8342 9.2642 26.5435 9.2642C26.9744 9.2642 27.392 9.33546 27.7963 9.47798C28.2007 9.6205 28.5636 9.84422 28.8851 10.1491C29.2066 10.4541 29.4602 10.8501 29.6458 11.3374C29.8314 11.8213 29.9242 12.4096 29.9242 13.1023V13.6293H23.8539V12.5156H28.4675C28.4675 12.1245 28.388 11.7782 28.2289 11.4766C28.0698 11.1716 27.8461 10.9313 27.5577 10.7557C27.2727 10.58 26.9379 10.4922 26.5534 10.4922C26.1358 10.4922 25.7712 10.5949 25.4597 10.8004C25.1515 11.0026 24.9128 11.2678 24.7438 11.5959C24.5781 11.9207 24.4952 12.2737 24.4952 12.6548V13.5249C24.4952 14.0353 24.5847 14.4695 24.7637 14.8274C24.946 15.1854 25.1995 15.4588 25.5243 15.6477C25.8491 15.8333 26.2286 15.9261 26.6628 15.9261C26.9445 15.9261 27.2014 15.8864 27.4334 15.8068C27.6654 15.724 27.8659 15.6013 28.035 15.4389C28.204 15.2765 28.3333 15.076 28.4228 14.8374L29.8297 15.0909C29.717 15.5052 29.5149 15.8681 29.2232 16.1797C28.9348 16.4879 28.5719 16.7282 28.1344 16.9006C27.7002 17.0696 27.2047 17.1541 26.6479 17.1541ZM34.7901 17.1541C34.051 17.1541 33.4147 16.9867 32.881 16.652C32.3507 16.3139 31.9431 15.8482 31.658 15.255C31.373 14.6617 31.2305 13.9822 31.2305 13.2166C31.2305 12.4411 31.3763 11.7566 31.668 11.1634C31.9596 10.5668 32.3706 10.1011 32.9009 9.76633C33.4312 9.43158 34.056 9.2642 34.7752 9.2642C35.3552 9.2642 35.8723 9.37192 36.3263 9.58736C36.7804 9.79948 37.1467 10.0978 37.4251 10.4822C37.7068 10.8667 37.8742 11.3158 37.9272 11.8295H36.4805C36.4009 11.4716 36.2186 11.1634 35.9336 10.9048C35.6519 10.6463 35.274 10.517 34.8001 10.517C34.3858 10.517 34.0228 10.6264 33.7113 10.8452C33.4031 11.0606 33.1628 11.3688 32.9904 11.7699C32.8181 12.1676 32.7319 12.6383 32.7319 13.1818C32.7319 13.7386 32.8164 14.2192 32.9854 14.6236C33.1545 15.0279 33.3931 15.3411 33.7013 15.5632C34.0129 15.7853 34.3791 15.8963 34.8001 15.8963C35.0818 15.8963 35.337 15.8449 35.5657 15.7422C35.7977 15.6361 35.9916 15.4853 36.1474 15.2898C36.3065 15.0942 36.4175 14.8589 36.4805 14.5838H37.9272C37.8742 15.0777 37.7134 15.5185 37.445 15.9062C37.1765 16.294 36.8169 16.599 36.3661 16.821C35.9187 17.0431 35.3933 17.1541 34.7901 17.1541ZM43.0815 9.36364V10.5568H38.9103V9.36364H43.0815ZM40.0289 7.53409H41.5154V14.7578C41.5154 15.0462 41.5585 15.2633 41.6447 15.4091C41.7309 15.5516 41.8419 15.6494 41.9778 15.7024C42.117 15.7521 42.2678 15.777 42.4302 15.777C42.5495 15.777 42.6539 15.7687 42.7434 15.7521C42.8329 15.7356 42.9025 15.7223 42.9522 15.7124L43.2207 16.9403C43.1345 16.9735 43.0119 17.0066 42.8528 17.0398C42.6937 17.0762 42.4949 17.0961 42.2562 17.0994C41.8651 17.1061 41.5005 17.0365 41.1625 16.8906C40.8244 16.7448 40.551 16.5194 40.3422 16.2145C40.1333 15.9096 40.0289 15.5268 40.0289 15.0661V7.53409ZM44.7259 17V9.36364H46.1626V10.5767H46.2422C46.3814 10.1657 46.6267 9.84257 46.978 9.60724C47.3326 9.36861 47.7337 9.24929 48.1811 9.24929C48.2739 9.24929 48.3833 9.2526 48.5092 9.25923C48.6385 9.26586 48.7396 9.27415 48.8125 9.28409V10.706C48.7528 10.6894 48.6468 10.6712 48.4943 10.6513C48.3419 10.6281 48.1894 10.6165 48.0369 10.6165C47.6856 10.6165 47.3724 10.6911 47.0973 10.8402C46.8255 10.986 46.6101 11.1899 46.451 11.4517C46.2919 11.7102 46.2124 12.0052 46.2124 12.3366V17H44.7259ZM53.0421 17.1541C52.3262 17.1541 51.7014 16.9901 51.1678 16.6619C50.6342 16.3338 50.2199 15.8748 49.9249 15.2848C49.6299 14.6948 49.4824 14.0054 49.4824 13.2166C49.4824 12.4245 49.6299 11.7318 49.9249 11.1385C50.2199 10.5452 50.6342 10.0845 51.1678 9.75639C51.7014 9.42827 52.3262 9.2642 53.0421 9.2642C53.758 9.2642 54.3828 9.42827 54.9164 9.75639C55.45 10.0845 55.8643 10.5452 56.1593 11.1385C56.4542 11.7318 56.6017 12.4245 56.6017 13.2166C56.6017 14.0054 56.4542 14.6948 56.1593 15.2848C55.8643 15.8748 55.45 16.3338 54.9164 16.6619C54.3828 16.9901 53.758 17.1541 53.0421 17.1541ZM53.0471 15.9062C53.5111 15.9062 53.8955 15.7836 54.2005 15.5384C54.5054 15.2931 54.7308 14.9666 54.8766 14.5589C55.0257 14.1513 55.1003 13.7022 55.1003 13.2116C55.1003 12.7244 55.0257 12.277 54.8766 11.8693C54.7308 11.4583 54.5054 11.1286 54.2005 10.88C53.8955 10.6314 53.5111 10.5071 53.0471 10.5071C52.5797 10.5071 52.1919 10.6314 51.8837 10.88C51.5788 11.1286 51.3517 11.4583 51.2026 11.8693C51.0568 12.277 50.9838 12.7244 50.9838 13.2116C50.9838 13.7022 51.0568 14.1513 51.2026 14.5589C51.3517 14.9666 51.5788 15.2931 51.8837 15.5384C52.1919 15.7836 52.5797 15.9062 53.0471 15.9062ZM59.7475 12.4659V17H58.261V9.36364H59.6879V10.6065H59.7823C59.958 10.2022 60.2331 9.87737 60.6076 9.6321C60.9854 9.38684 61.4611 9.2642 62.0344 9.2642C62.5548 9.2642 63.0105 9.37358 63.4016 9.59233C63.7927 9.80777 64.096 10.1293 64.3114 10.5568C64.5269 10.9844 64.6346 11.513 64.6346 12.1428V17H63.1481V12.3217C63.1481 11.7682 63.0039 11.3357 62.7156 11.0241C62.4272 10.7093 62.0311 10.5518 61.5273 10.5518C61.1826 10.5518 60.8761 10.6264 60.6076 10.7756C60.3424 10.9247 60.132 11.1435 59.9762 11.4318C59.8237 11.7169 59.7475 12.0616 59.7475 12.4659ZM66.6282 17V9.36364H68.1147V17H66.6282ZM67.3789 8.18537C67.1204 8.18537 66.8983 8.09919 66.7127 7.92685C66.5304 7.75118 66.4393 7.54238 66.4393 7.30043C66.4393 7.05516 66.5304 6.84635 66.7127 6.67401C66.8983 6.49834 67.1204 6.41051 67.3789 6.41051C67.6374 6.41051 67.8578 6.49834 68.0401 6.67401C68.2257 6.84635 68.3185 7.05516 68.3185 7.30043C68.3185 7.54238 68.2257 7.75118 68.0401 7.92685C67.8578 8.09919 67.6374 8.18537 67.3789 8.18537ZM73.3311 17.1541C72.592 17.1541 71.9557 16.9867 71.4221 16.652C70.8917 16.3139 70.4841 15.8482 70.199 15.255C69.914 14.6617 69.7715 13.9822 69.7715 13.2166C69.7715 12.4411 69.9173 11.7566 70.209 11.1634C70.5007 10.5668 70.9116 10.1011 71.4419 9.76633C71.9722 9.43158 72.597 9.2642 73.3162 9.2642C73.8962 9.2642 74.4133 9.37192 74.8674 9.58736C75.3214 9.79948 75.6877 10.0978 75.9661 10.4822C76.2478 10.8667 76.4152 11.3158 76.4682 11.8295H75.0215C74.9419 11.4716 74.7596 11.1634 74.4746 10.9048C74.1929 10.6463 73.815 10.517 73.3411 10.517C72.9268 10.517 72.5639 10.6264 72.2523 10.8452C71.9441 11.0606 71.7038 11.3688 71.5314 11.7699C71.3591 12.1676 71.2729 12.6383 71.2729 13.1818C71.2729 13.7386 71.3574 14.2192 71.5265 14.6236C71.6955 15.0279 71.9341 15.3411 72.2424 15.5632C72.5539 15.7853 72.9202 15.8963 73.3411 15.8963C73.6228 15.8963 73.878 15.8449 74.1067 15.7422C74.3387 15.6361 74.5326 15.4853 74.6884 15.2898C74.8475 15.0942 74.9585 14.8589 75.0215 14.5838H76.4682C76.4152 15.0777 76.2544 15.5185 75.986 15.9062C75.7175 16.294 75.3579 16.599 74.9071 16.821C74.4597 17.0431 73.9344 17.1541 73.3311 17.1541ZM83.7802 11.228L82.4329 11.4666C82.3765 11.2943 82.2871 11.1302 82.1644 10.9744C82.0451 10.8187 81.8827 10.6911 81.6772 10.5916C81.4717 10.4922 81.2148 10.4425 80.9066 10.4425C80.4857 10.4425 80.1344 10.5369 79.8526 10.7259C79.5709 10.9115 79.43 11.1518 79.43 11.4467C79.43 11.7019 79.5245 11.9074 79.7134 12.0632C79.9023 12.219 80.2073 12.3466 80.6282 12.446L81.8413 12.7244C82.5439 12.8868 83.0676 13.1371 83.4123 13.4751C83.757 13.8132 83.9293 14.2524 83.9293 14.7926C83.9293 15.25 83.7968 15.6577 83.5316 16.0156C83.2698 16.3703 82.9035 16.6487 82.4329 16.8509C81.9656 17.053 81.4237 17.1541 80.8072 17.1541C79.9521 17.1541 79.2544 16.9718 78.7141 16.6072C78.1739 16.2393 77.8424 15.7173 77.7198 15.0412L79.1566 14.8224C79.2461 15.197 79.43 15.4804 79.7085 15.6726C79.9869 15.8615 80.3498 15.956 80.7972 15.956C81.2844 15.956 81.6739 15.8549 81.9656 15.6527C82.2572 15.4472 82.4031 15.197 82.4031 14.902C82.4031 14.6634 82.3136 14.4628 82.1346 14.3004C81.9589 14.138 81.6888 14.0154 81.3242 13.9325L80.0316 13.6491C79.319 13.4867 78.792 13.2282 78.4506 12.8736C78.1126 12.5189 77.9435 12.0698 77.9435 11.5263C77.9435 11.0755 78.0695 10.6811 78.3214 10.343C78.5733 10.005 78.9213 9.74148 79.3654 9.55256C79.8095 9.36032 80.3183 9.2642 80.8917 9.2642C81.717 9.2642 82.3666 9.44318 82.8406 9.80114C83.3145 10.1558 83.6277 10.6314 83.7802 11.228Z" fill="#4D0039"/>
<rect x="0.5" y="0.5" width="94" height="23" rx="11.5" stroke="#FFB8EC"/>
</g>
</svg>
