<svg width="48" height="48" viewBox="0 0 48 48" fill="none" xmlns="http://www.w3.org/2000/svg">
<path d="M25.0514 42.0117C34.1622 42.0117 41.548 34.6259 41.548 25.515C41.548 16.4041 34.1622 9.01831 25.0514 9.01831C15.9405 9.01831 8.55469 16.4041 8.55469 25.515C8.55469 34.6259 15.9405 42.0117 25.0514 42.0117Z" fill="url(#paint0_linear_2316_55763)"/>
<path d="M25.0514 42.0117C34.1622 42.0117 41.548 34.6259 41.548 25.515C41.548 16.4041 34.1622 9.01831 25.0514 9.01831C15.9405 9.01831 8.55469 16.4041 8.55469 25.515C8.55469 34.6259 15.9405 42.0117 25.0514 42.0117Z" fill="url(#paint1_radial_2316_55763)"/>
<g filter="url(#filter0_f_2316_55763)">
<path d="M25.0894 41.4825C33.9291 41.4825 41.095 34.3165 41.095 25.4769C41.095 16.6372 33.9291 9.47119 25.0894 9.47119C16.2497 9.47119 9.08374 16.6372 9.08374 25.4769C9.08374 34.3165 16.2497 41.4825 25.0894 41.4825Z" fill="#DDCEF5"/>
<path d="M25.0894 41.4825C33.9291 41.4825 41.095 34.3165 41.095 25.4769C41.095 16.6372 33.9291 9.47119 25.0894 9.47119C16.2497 9.47119 9.08374 16.6372 9.08374 25.4769C9.08374 34.3165 16.2497 41.4825 25.0894 41.4825Z" fill="url(#paint2_radial_2316_55763)"/>
</g>
<g filter="url(#filter1_f_2316_55763)">
<path d="M23.6318 9.51584C28.4351 8.86112 34.5391 10.9345 37.5291 16.0049C33.6627 12.2908 29.5553 10.0024 23.6318 9.51584Z" fill="url(#paint3_radial_2316_55763)"/>
</g>
<path d="M25.0512 36.8656C31.3199 36.8656 36.4017 31.7838 36.4017 25.5151C36.4017 19.2463 31.3199 14.1646 25.0512 14.1646C18.7825 14.1646 13.7007 19.2463 13.7007 25.5151C13.7007 31.7838 18.7825 36.8656 25.0512 36.8656Z" fill="#D8CBF0"/>
<path d="M25.0512 36.8656C31.3199 36.8656 36.4017 31.7838 36.4017 25.5151C36.4017 19.2463 31.3199 14.1646 25.0512 14.1646C18.7825 14.1646 13.7007 19.2463 13.7007 25.5151C13.7007 31.7838 18.7825 36.8656 25.0512 36.8656Z" fill="url(#paint4_radial_2316_55763)"/>
<path d="M25.0512 36.8656C31.3199 36.8656 36.4017 31.7838 36.4017 25.5151C36.4017 19.2463 31.3199 14.1646 25.0512 14.1646C18.7825 14.1646 13.7007 19.2463 13.7007 25.5151C13.7007 31.7838 18.7825 36.8656 25.0512 36.8656Z" fill="url(#paint5_radial_2316_55763)"/>
<path d="M25.0512 36.8656C31.3199 36.8656 36.4017 31.7838 36.4017 25.5151C36.4017 19.2463 31.3199 14.1646 25.0512 14.1646C18.7825 14.1646 13.7007 19.2463 13.7007 25.5151C13.7007 31.7838 18.7825 36.8656 25.0512 36.8656Z" fill="url(#paint6_radial_2316_55763)"/>
<g filter="url(#filter2_f_2316_55763)">
<path d="M43.3594 15.7969V29.3438L40.2793 28.1119C38.204 27.2845 36.8369 25.0965 36.8369 22.6327V15.7969H43.3594Z" fill="#B9A9D2"/>
</g>
<path d="M41.9234 7.56323C43.6138 7.56323 44.985 8.90541 44.985 10.5602V27.3991H41.0391C38.8909 26.478 37.547 24.3971 37.547 22.0702V11.8657C37.5282 9.49382 39.4816 7.56323 41.9234 7.56323Z" fill="url(#paint7_linear_2316_55763)"/>
<path d="M41.9234 7.56323C43.6138 7.56323 44.985 8.90541 44.985 10.5602V27.3991H41.0391C38.8909 26.478 37.547 24.3971 37.547 22.0702V11.8657C37.5282 9.49382 39.4816 7.56323 41.9234 7.56323Z" fill="url(#paint8_radial_2316_55763)"/>
<path d="M41.9234 7.56323C43.6138 7.56323 44.985 8.90541 44.985 10.5602V27.3991H41.0391C38.8909 26.478 37.547 24.3971 37.547 22.0702V11.8657C37.5282 9.49382 39.4816 7.56323 41.9234 7.56323Z" fill="url(#paint9_radial_2316_55763)"/>
<path d="M41.9234 7.56323C43.6138 7.56323 44.985 8.90541 44.985 10.5602V27.3991H41.0391C38.8909 26.478 37.547 24.3971 37.547 22.0702V11.8657C37.5282 9.49382 39.4816 7.56323 41.9234 7.56323Z" fill="url(#paint10_radial_2316_55763)"/>
<g filter="url(#filter3_f_2316_55763)">
<path d="M41.7086 9.01831C42.8467 9.01831 43.7699 9.92197 43.7699 11.0361V26.0679C41.7086 26.0679 38.7621 24.4905 38.7621 20.5715L38.7621 11.9151C38.7494 10.3181 40.0646 9.01831 41.7086 9.01831Z" fill="url(#paint11_linear_2316_55763)"/>
</g>
<path d="M41.0216 27.3989V30.2875V43.2587C41.0216 44.2154 41.8105 44.9881 42.7872 44.9881H43.2192C44.1959 44.9881 44.9848 44.2154 44.9848 43.2587V30.2875V27.3989H41.0216Z" fill="url(#paint12_linear_2316_55763)"/>
<path d="M41.0216 27.3989V30.2875V43.2587C41.0216 44.2154 41.8105 44.9881 42.7872 44.9881H43.2192C44.1959 44.9881 44.9848 44.2154 44.9848 43.2587V30.2875V27.3989H41.0216Z" fill="url(#paint13_radial_2316_55763)"/>
<path d="M41.0216 27.3989V30.2875V43.2587C41.0216 44.2154 41.8105 44.9881 42.7872 44.9881H43.2192C44.1959 44.9881 44.9848 44.2154 44.9848 43.2587V30.2875V27.3989H41.0216Z" fill="url(#paint14_linear_2316_55763)"/>
<path d="M11.9476 7.56361C11.2422 7.56361 10.6853 8.05761 10.6853 8.64723V13.622C10.6853 13.9408 10.3883 14.1797 10.0356 14.1797C9.66429 14.1797 9.38586 13.9248 9.38586 13.622V8.69504C9.38586 8.10541 8.84751 7.57954 8.16066 7.56361C7.43668 7.54767 6.84263 8.04167 6.84263 8.64723V13.622C6.84263 13.9408 6.54563 14.1797 6.19293 14.1797C5.82166 14.1797 5.54319 13.9248 5.54319 13.622V8.69504C5.54319 8.10541 5.00484 7.57954 4.31799 7.56361C3.59402 7.54767 3 8.04167 3 8.64723V13.4917V14.3363V17.3907C3 20.4734 6.17435 21.3088 6.17435 23.4884C6.17435 25.6681 6.17435 42.9962 6.17435 42.9962C6.17435 44.0554 7.06638 44.9883 8.1328 44.9883C9.19922 44.9883 10.0913 44.0554 10.0913 42.9962C10.0913 42.9962 10.0913 25.7456 10.0913 23.4884C10.0913 21.2313 13.2656 20.4969 13.2656 17.3907V14.3363V13.4917V8.64723C13.2285 8.05761 12.653 7.56361 11.9476 7.56361Z" fill="url(#paint15_linear_2316_55763)"/>
<path d="M11.9476 7.56361C11.2422 7.56361 10.6853 8.05761 10.6853 8.64723V13.622C10.6853 13.9408 10.3883 14.1797 10.0356 14.1797C9.66429 14.1797 9.38586 13.9248 9.38586 13.622V8.69504C9.38586 8.10541 8.84751 7.57954 8.16066 7.56361C7.43668 7.54767 6.84263 8.04167 6.84263 8.64723V13.622C6.84263 13.9408 6.54563 14.1797 6.19293 14.1797C5.82166 14.1797 5.54319 13.9248 5.54319 13.622V8.69504C5.54319 8.10541 5.00484 7.57954 4.31799 7.56361C3.59402 7.54767 3 8.04167 3 8.64723V13.4917V14.3363V17.3907C3 20.4734 6.17435 21.3088 6.17435 23.4884C6.17435 25.6681 6.17435 42.9962 6.17435 42.9962C6.17435 44.0554 7.06638 44.9883 8.1328 44.9883C9.19922 44.9883 10.0913 44.0554 10.0913 42.9962C10.0913 42.9962 10.0913 25.7456 10.0913 23.4884C10.0913 21.2313 13.2656 20.4969 13.2656 17.3907V14.3363V13.4917V8.64723C13.2285 8.05761 12.653 7.56361 11.9476 7.56361Z" fill="url(#paint16_radial_2316_55763)"/>
<path d="M11.9476 7.56361C11.2422 7.56361 10.6853 8.05761 10.6853 8.64723V13.622C10.6853 13.9408 10.3883 14.1797 10.0356 14.1797C9.66429 14.1797 9.38586 13.9248 9.38586 13.622V8.69504C9.38586 8.10541 8.84751 7.57954 8.16066 7.56361C7.43668 7.54767 6.84263 8.04167 6.84263 8.64723V13.622C6.84263 13.9408 6.54563 14.1797 6.19293 14.1797C5.82166 14.1797 5.54319 13.9248 5.54319 13.622V8.69504C5.54319 8.10541 5.00484 7.57954 4.31799 7.56361C3.59402 7.54767 3 8.04167 3 8.64723V13.4917V14.3363V17.3907C3 20.4734 6.17435 21.3088 6.17435 23.4884C6.17435 25.6681 6.17435 42.9962 6.17435 42.9962C6.17435 44.0554 7.06638 44.9883 8.1328 44.9883C9.19922 44.9883 10.0913 44.0554 10.0913 42.9962C10.0913 42.9962 10.0913 25.7456 10.0913 23.4884C10.0913 21.2313 13.2656 20.4969 13.2656 17.3907V14.3363V13.4917V8.64723C13.2285 8.05761 12.653 7.56361 11.9476 7.56361Z" fill="url(#paint17_radial_2316_55763)"/>
<path d="M11.9476 7.56361C11.2422 7.56361 10.6853 8.05761 10.6853 8.64723V13.622C10.6853 13.9408 10.3883 14.1797 10.0356 14.1797C9.66429 14.1797 9.38586 13.9248 9.38586 13.622V8.69504C9.38586 8.10541 8.84751 7.57954 8.16066 7.56361C7.43668 7.54767 6.84263 8.04167 6.84263 8.64723V13.622C6.84263 13.9408 6.54563 14.1797 6.19293 14.1797C5.82166 14.1797 5.54319 13.9248 5.54319 13.622V8.69504C5.54319 8.10541 5.00484 7.57954 4.31799 7.56361C3.59402 7.54767 3 8.04167 3 8.64723V13.4917V14.3363V17.3907C3 20.4734 6.17435 21.3088 6.17435 23.4884C6.17435 25.6681 6.17435 42.9962 6.17435 42.9962C6.17435 44.0554 7.06638 44.9883 8.1328 44.9883C9.19922 44.9883 10.0913 44.0554 10.0913 42.9962C10.0913 42.9962 10.0913 25.7456 10.0913 23.4884C10.0913 21.2313 13.2656 20.4969 13.2656 17.3907V14.3363V13.4917V8.64723C13.2285 8.05761 12.653 7.56361 11.9476 7.56361Z" fill="url(#paint18_radial_2316_55763)"/>
<path d="M11.9476 7.56361C11.2422 7.56361 10.6853 8.05761 10.6853 8.64723V13.622C10.6853 13.9408 10.3883 14.1797 10.0356 14.1797C9.66429 14.1797 9.38586 13.9248 9.38586 13.622V8.69504C9.38586 8.10541 8.84751 7.57954 8.16066 7.56361C7.43668 7.54767 6.84263 8.04167 6.84263 8.64723V13.622C6.84263 13.9408 6.54563 14.1797 6.19293 14.1797C5.82166 14.1797 5.54319 13.9248 5.54319 13.622V8.69504C5.54319 8.10541 5.00484 7.57954 4.31799 7.56361C3.59402 7.54767 3 8.04167 3 8.64723V13.4917V14.3363V17.3907C3 20.4734 6.17435 21.3088 6.17435 23.4884C6.17435 25.6681 6.17435 42.9962 6.17435 42.9962C6.17435 44.0554 7.06638 44.9883 8.1328 44.9883C9.19922 44.9883 10.0913 44.0554 10.0913 42.9962C10.0913 42.9962 10.0913 25.7456 10.0913 23.4884C10.0913 21.2313 13.2656 20.4969 13.2656 17.3907V14.3363V13.4917V8.64723C13.2285 8.05761 12.653 7.56361 11.9476 7.56361Z" fill="url(#paint19_radial_2316_55763)"/>
<g filter="url(#filter4_f_2316_55763)">
<path d="M11.9414 8.33742C11.3584 8.33742 11.2734 8.87921 11.2734 9.46883V13.4917C11.2734 14.4493 10.5469 14.6837 10.0898 14.6837C9.63281 14.6837 8.8125 14.4258 8.8125 13.4917V9.46883C8.8125 8.87921 8.73047 8.33744 8.23828 8.33744C7.74609 8.33744 7.62891 8.86324 7.62891 9.4688V13.4917C7.62891 14.1432 6.96094 14.6837 6.19922 14.6837C5.63672 14.6837 4.875 14.3072 4.875 13.4917V9.46883C4.875 8.87921 4.76952 8.3374 4.27734 8.3374C3.78517 8.3374 3.67969 8.86327 3.67969 9.46883L3.67969 13.4917V14.3363V17.3907C3.67969 20.4734 6.86719 21.3088 6.86719 23.4885C6.86719 25.6681 6.86719 42.9259 6.86719 42.9259C6.86719 43.9851 7.20455 44.5782 8.08592 44.5782C8.9673 44.5782 9.46875 44.0554 9.46875 42.9962C9.46875 42.9962 9.46875 25.7456 9.46875 23.4885C9.46875 21.2313 12.6797 20.4969 12.6797 17.3907V14.3363V13.4917L12.5625 9.4688C12.5318 8.87917 12.5244 8.33742 11.9414 8.33742Z" fill="url(#paint20_linear_2316_55763)"/>
<path d="M11.9414 8.33742C11.3584 8.33742 11.2734 8.87921 11.2734 9.46883V13.4917C11.2734 14.4493 10.5469 14.6837 10.0898 14.6837C9.63281 14.6837 8.8125 14.4258 8.8125 13.4917V9.46883C8.8125 8.87921 8.73047 8.33744 8.23828 8.33744C7.74609 8.33744 7.62891 8.86324 7.62891 9.4688V13.4917C7.62891 14.1432 6.96094 14.6837 6.19922 14.6837C5.63672 14.6837 4.875 14.3072 4.875 13.4917V9.46883C4.875 8.87921 4.76952 8.3374 4.27734 8.3374C3.78517 8.3374 3.67969 8.86327 3.67969 9.46883L3.67969 13.4917V14.3363V17.3907C3.67969 20.4734 6.86719 21.3088 6.86719 23.4885C6.86719 25.6681 6.86719 42.9259 6.86719 42.9259C6.86719 43.9851 7.20455 44.5782 8.08592 44.5782C8.9673 44.5782 9.46875 44.0554 9.46875 42.9962C9.46875 42.9962 9.46875 25.7456 9.46875 23.4885C9.46875 21.2313 12.6797 20.4969 12.6797 17.3907V14.3363V13.4917L12.5625 9.4688C12.5318 8.87917 12.5244 8.33742 11.9414 8.33742Z" fill="url(#paint21_radial_2316_55763)"/>
</g>
<g filter="url(#filter5_f_2316_55763)">
<path d="M9.23438 23.3906V42.9375" stroke="#C3BDCF" stroke-width="0.5" stroke-linecap="round"/>
</g>
<g filter="url(#filter6_f_2316_55763)">
<path d="M4.91094 8.90039C4.91094 8.78993 4.82139 8.70039 4.71094 8.70039C4.60048 8.70039 4.51094 8.78993 4.51094 8.90039H4.91094ZM6.03516 15.1062H6.23516V14.7063H6.03516V15.1062ZM4.51094 8.90039V13.1016H4.91094V8.90039H4.51094ZM4.51094 13.1016C4.51094 13.3472 4.57356 13.8301 4.78494 14.2593C4.99882 14.6935 5.38581 15.1062 6.03516 15.1062V14.7063C5.59465 14.7063 5.31954 14.4393 5.14377 14.0825C4.96551 13.7206 4.91094 13.3012 4.91094 13.1016H4.51094Z" fill="url(#paint22_linear_2316_55763)"/>
</g>
<g filter="url(#filter7_f_2316_55763)">
<path d="M8.75469 8.90039C8.75469 8.78993 8.66514 8.70039 8.55469 8.70039C8.44423 8.70039 8.35469 8.78993 8.35469 8.90039H8.75469ZM9.87891 15.1062H10.0789V14.7063H9.87891V15.1062ZM8.35469 8.90039V13.1016H8.75469V8.90039H8.35469ZM8.35469 13.1016C8.35469 13.3472 8.41731 13.8301 8.62869 14.2593C8.84257 14.6935 9.22956 15.1062 9.87891 15.1062V14.7063C9.4384 14.7063 9.16329 14.4393 8.98752 14.0825C8.80926 13.7206 8.75469 13.3012 8.75469 13.1016H8.35469Z" fill="url(#paint23_linear_2316_55763)"/>
</g>
<g filter="url(#filter8_f_2316_55763)">
<path d="M12.5156 8.8125C12.5156 8.8125 12.5156 15.9609 12.5156 17.25C12.5156 18.5391 10.9922 20.4375 10.2891 21.0938" stroke="#C3BDCF" stroke-width="0.4" stroke-linecap="round"/>
</g>
<g filter="url(#filter9_f_2316_55763)">
<circle cx="4.59375" cy="8.63159" r="0.386719" fill="#E0DCE8"/>
</g>
<g filter="url(#filter10_f_2316_55763)">
<circle cx="8.51953" cy="8.63159" r="0.386719" fill="#E0DCE8"/>
</g>
<g filter="url(#filter11_f_2316_55763)">
<circle cx="12.293" cy="8.63159" r="0.386719" fill="#E0DCE8"/>
</g>
<defs>
<filter id="filter0_f_2316_55763" x="8.58374" y="8.97119" width="33.0114" height="33.0112" filterUnits="userSpaceOnUse" color-interpolation-filters="sRGB">
<feFlood flood-opacity="0" result="BackgroundImageFix"/>
<feBlend mode="normal" in="SourceGraphic" in2="BackgroundImageFix" result="shape"/>
<feGaussianBlur stdDeviation="0.25" result="effect1_foregroundBlur_2316_55763"/>
</filter>
<filter id="filter1_f_2316_55763" x="23.3318" y="9.09844" width="14.4972" height="7.20645" filterUnits="userSpaceOnUse" color-interpolation-filters="sRGB">
<feFlood flood-opacity="0" result="BackgroundImageFix"/>
<feBlend mode="normal" in="SourceGraphic" in2="BackgroundImageFix" result="shape"/>
<feGaussianBlur stdDeviation="0.15" result="effect1_foregroundBlur_2316_55763"/>
</filter>
<filter id="filter2_f_2316_55763" x="35.8369" y="14.7969" width="8.52246" height="15.5469" filterUnits="userSpaceOnUse" color-interpolation-filters="sRGB">
<feFlood flood-opacity="0" result="BackgroundImageFix"/>
<feBlend mode="normal" in="SourceGraphic" in2="BackgroundImageFix" result="shape"/>
<feGaussianBlur stdDeviation="0.5" result="effect1_foregroundBlur_2316_55763"/>
</filter>
<filter id="filter3_f_2316_55763" x="38.262" y="8.51831" width="6.00793" height="18.0496" filterUnits="userSpaceOnUse" color-interpolation-filters="sRGB">
<feFlood flood-opacity="0" result="BackgroundImageFix"/>
<feBlend mode="normal" in="SourceGraphic" in2="BackgroundImageFix" result="shape"/>
<feGaussianBlur stdDeviation="0.25" result="effect1_foregroundBlur_2316_55763"/>
</filter>
<filter id="filter4_f_2316_55763" x="2.92969" y="7.5874" width="10.5" height="37.7407" filterUnits="userSpaceOnUse" color-interpolation-filters="sRGB">
<feFlood flood-opacity="0" result="BackgroundImageFix"/>
<feBlend mode="normal" in="SourceGraphic" in2="BackgroundImageFix" result="shape"/>
<feGaussianBlur stdDeviation="0.375" result="effect1_foregroundBlur_2316_55763"/>
</filter>
<filter id="filter5_f_2316_55763" x="8.48438" y="22.6406" width="1.5" height="21.0469" filterUnits="userSpaceOnUse" color-interpolation-filters="sRGB">
<feFlood flood-opacity="0" result="BackgroundImageFix"/>
<feBlend mode="normal" in="SourceGraphic" in2="BackgroundImageFix" result="shape"/>
<feGaussianBlur stdDeviation="0.25" result="effect1_foregroundBlur_2316_55763"/>
</filter>
<filter id="filter6_f_2316_55763" x="4.26099" y="8.45044" width="2.22412" height="6.90576" filterUnits="userSpaceOnUse" color-interpolation-filters="sRGB">
<feFlood flood-opacity="0" result="BackgroundImageFix"/>
<feBlend mode="normal" in="SourceGraphic" in2="BackgroundImageFix" result="shape"/>
<feGaussianBlur stdDeviation="0.125" result="effect1_foregroundBlur_2316_55763"/>
</filter>
<filter id="filter7_f_2316_55763" x="8.10474" y="8.45044" width="2.22412" height="6.90576" filterUnits="userSpaceOnUse" color-interpolation-filters="sRGB">
<feFlood flood-opacity="0" result="BackgroundImageFix"/>
<feBlend mode="normal" in="SourceGraphic" in2="BackgroundImageFix" result="shape"/>
<feGaussianBlur stdDeviation="0.125" result="effect1_foregroundBlur_2316_55763"/>
</filter>
<filter id="filter8_f_2316_55763" x="9.58911" y="8.11255" width="3.62646" height="13.6812" filterUnits="userSpaceOnUse" color-interpolation-filters="sRGB">
<feFlood flood-opacity="0" result="BackgroundImageFix"/>
<feBlend mode="normal" in="SourceGraphic" in2="BackgroundImageFix" result="shape"/>
<feGaussianBlur stdDeviation="0.25" result="effect1_foregroundBlur_2316_55763"/>
</filter>
<filter id="filter9_f_2316_55763" x="3.70703" y="7.74487" width="1.77344" height="1.77344" filterUnits="userSpaceOnUse" color-interpolation-filters="sRGB">
<feFlood flood-opacity="0" result="BackgroundImageFix"/>
<feBlend mode="normal" in="SourceGraphic" in2="BackgroundImageFix" result="shape"/>
<feGaussianBlur stdDeviation="0.25" result="effect1_foregroundBlur_2316_55763"/>
</filter>
<filter id="filter10_f_2316_55763" x="7.63281" y="7.74487" width="1.77344" height="1.77344" filterUnits="userSpaceOnUse" color-interpolation-filters="sRGB">
<feFlood flood-opacity="0" result="BackgroundImageFix"/>
<feBlend mode="normal" in="SourceGraphic" in2="BackgroundImageFix" result="shape"/>
<feGaussianBlur stdDeviation="0.25" result="effect1_foregroundBlur_2316_55763"/>
</filter>
<filter id="filter11_f_2316_55763" x="11.4062" y="7.74487" width="1.77344" height="1.77344" filterUnits="userSpaceOnUse" color-interpolation-filters="sRGB">
<feFlood flood-opacity="0" result="BackgroundImageFix"/>
<feBlend mode="normal" in="SourceGraphic" in2="BackgroundImageFix" result="shape"/>
<feGaussianBlur stdDeviation="0.25" result="effect1_foregroundBlur_2316_55763"/>
</filter>
<linearGradient id="paint0_linear_2316_55763" x1="23.1705" y1="9.01831" x2="25.0514" y2="42.0117" gradientUnits="userSpaceOnUse">
<stop offset="0.115334" stop-color="#BCBBC4"/>
<stop offset="0.227922" stop-color="#8F8D9B"/>
<stop offset="0.689257" stop-color="#A8A0BC"/>
<stop offset="0.766146" stop-color="#BFA1E2"/>
</linearGradient>
<radialGradient id="paint1_radial_2316_55763" cx="0" cy="0" r="1" gradientUnits="userSpaceOnUse" gradientTransform="translate(33.0461 11.827) rotate(115.805) scale(9.1579 14.5673)">
<stop stop-color="#DADAE0"/>
<stop offset="1" stop-color="#D7D6DE" stop-opacity="0"/>
</radialGradient>
<radialGradient id="paint2_radial_2316_55763" cx="0" cy="0" r="1" gradientUnits="userSpaceOnUse" gradientTransform="translate(13.2187 34.2186) rotate(-42.3334) scale(24.2225 24.2225)">
<stop stop-color="#EAE0FD"/>
<stop offset="1" stop-color="#E7DDF9" stop-opacity="0"/>
</radialGradient>
<radialGradient id="paint3_radial_2316_55763" cx="0" cy="0" r="1" gradientUnits="userSpaceOnUse" gradientTransform="translate(31.6654 11.4903) rotate(114.444) scale(5.41546 10.1375)">
<stop stop-color="#E5E3EF"/>
<stop offset="1" stop-color="#E5E3EF" stop-opacity="0"/>
</radialGradient>
<radialGradient id="paint4_radial_2316_55763" cx="0" cy="0" r="1" gradientUnits="userSpaceOnUse" gradientTransform="translate(23.1705 27.6822) rotate(82.9973) scale(15.4267 17.6665)">
<stop offset="0.596424" stop-color="#DACEF3"/>
<stop offset="0.754428" stop-color="#CCB9EB"/>
<stop offset="0.962131" stop-color="#BCA7DC"/>
</radialGradient>
<radialGradient id="paint5_radial_2316_55763" cx="0" cy="0" r="1" gradientUnits="userSpaceOnUse" gradientTransform="translate(30.781 17.5348) rotate(142.239) scale(27.9629 26.6893)">
<stop offset="0.476664" stop-color="#DACEF3" stop-opacity="0"/>
<stop offset="0.693657" stop-color="#E9E2FD"/>
<stop offset="0.816307" stop-color="#EBE8FB"/>
<stop offset="0.962131" stop-color="#EAE7F9"/>
</radialGradient>
<radialGradient id="paint6_radial_2316_55763" cx="0" cy="0" r="1" gradientUnits="userSpaceOnUse" gradientTransform="translate(18.4592 18.7127) rotate(56.149) scale(26.8371 30.7335)">
<stop offset="0.536739" stop-color="#DACEF3" stop-opacity="0"/>
<stop offset="0.754428" stop-color="#B9B5CA"/>
<stop offset="0.962131" stop-color="#B2AEC4"/>
</radialGradient>
<linearGradient id="paint7_linear_2316_55763" x1="44.985" y1="18.0938" x2="37.5469" y2="18.0938" gradientUnits="userSpaceOnUse">
<stop stop-color="#C4C2CB"/>
<stop offset="0.0364583" stop-color="#CFC9D9"/>
<stop offset="0.514744" stop-color="#B9B1C7"/>
<stop offset="1" stop-color="#A398B4"/>
</linearGradient>
<radialGradient id="paint8_radial_2316_55763" cx="0" cy="0" r="1" gradientUnits="userSpaceOnUse" gradientTransform="translate(39.7969 26.9532) rotate(18.435) scale(6.22573 3.20442)">
<stop stop-color="#9B89B3"/>
<stop offset="1" stop-color="#A28EBB" stop-opacity="0"/>
</radialGradient>
<radialGradient id="paint9_radial_2316_55763" cx="0" cy="0" r="1" gradientUnits="userSpaceOnUse" gradientTransform="translate(38.1562 8.34381) rotate(47.386) scale(3.18474 12.4807)">
<stop stop-color="#94929A"/>
<stop offset="0.79896" stop-color="#A29EAB" stop-opacity="0"/>
</radialGradient>
<radialGradient id="paint10_radial_2316_55763" cx="0" cy="0" r="1" gradientUnits="userSpaceOnUse" gradientTransform="translate(43.9687 9.60944) rotate(136.219) scale(1.5582 2.43632)">
<stop stop-color="#D7D2E0"/>
<stop offset="1" stop-color="#E1DEE8" stop-opacity="0"/>
</radialGradient>
<linearGradient id="paint11_linear_2316_55763" x1="41.2659" y1="9.01831" x2="41.2659" y2="26.0679" gradientUnits="userSpaceOnUse">
<stop stop-color="#C1B6D0"/>
<stop offset="0.818225" stop-color="#B4A9C5"/>
</linearGradient>
<linearGradient id="paint12_linear_2316_55763" x1="41.0216" y1="37.0312" x2="44.9848" y2="37.0312" gradientUnits="userSpaceOnUse">
<stop stop-color="#7E748E"/>
<stop offset="0.359375" stop-color="#A69BB8"/>
<stop offset="0.734375" stop-color="#CBC4D9"/>
<stop offset="1" stop-color="#C4C1CC"/>
</linearGradient>
<radialGradient id="paint13_radial_2316_55763" cx="0" cy="0" r="1" gradientUnits="userSpaceOnUse" gradientTransform="translate(43.0032 44.9882) rotate(90) scale(3.33984 9.82263)">
<stop stop-color="#8B72A8"/>
<stop offset="0.733334" stop-color="#AE9AC8" stop-opacity="0"/>
</radialGradient>
<linearGradient id="paint14_linear_2316_55763" x1="43.0032" y1="27.3989" x2="43.0032" y2="27.7031" gradientUnits="userSpaceOnUse">
<stop stop-color="#8E80A3"/>
<stop offset="1" stop-color="#8D80A2" stop-opacity="0"/>
</linearGradient>
<linearGradient id="paint15_linear_2316_55763" x1="3" y1="12.0001" x2="16.125" y2="14.9063" gradientUnits="userSpaceOnUse">
<stop stop-color="#8B8893"/>
<stop offset="0.590491" stop-color="#938DA0"/>
<stop offset="0.838799" stop-color="#AFA3C1"/>
<stop offset="1" stop-color="#ACA0C0"/>
</linearGradient>
<radialGradient id="paint16_radial_2316_55763" cx="0" cy="0" r="1" gradientUnits="userSpaceOnUse" gradientTransform="translate(4.92188 8.25006) rotate(41.4237) scale(1.06273 1.29811)">
<stop stop-color="#C9C7D0"/>
<stop offset="1" stop-color="#CDCAD5" stop-opacity="0"/>
</radialGradient>
<radialGradient id="paint17_radial_2316_55763" cx="0" cy="0" r="1" gradientUnits="userSpaceOnUse" gradientTransform="translate(8.67188 7.99225) rotate(39.2072) scale(1.14939 1.40397)">
<stop stop-color="#C9C7D0"/>
<stop offset="1" stop-color="#CDCAD5" stop-opacity="0"/>
</radialGradient>
<radialGradient id="paint18_radial_2316_55763" cx="0" cy="0" r="1" gradientUnits="userSpaceOnUse" gradientTransform="translate(12.5859 7.96881) rotate(48.6914) scale(1.02965 1.25771)">
<stop stop-color="#C9C7D0"/>
<stop offset="1" stop-color="#CDCAD5" stop-opacity="0"/>
</radialGradient>
<radialGradient id="paint19_radial_2316_55763" cx="0" cy="0" r="1" gradientUnits="userSpaceOnUse" gradientTransform="translate(8.13281 44.9883) rotate(90) scale(1.88672 6.16406)">
<stop stop-color="#8F78AB"/>
<stop offset="1" stop-color="#9883B3" stop-opacity="0"/>
</radialGradient>
<linearGradient id="paint20_linear_2316_55763" x1="6.65625" y1="9.09381" x2="8.17969" y2="44.5782" gradientUnits="userSpaceOnUse">
<stop offset="0.142713" stop-color="#B4AAC2"/>
<stop offset="1" stop-color="#B5A9C8"/>
</linearGradient>
<radialGradient id="paint21_radial_2316_55763" cx="0" cy="0" r="1" gradientUnits="userSpaceOnUse" gradientTransform="translate(8.17969 45.0001) rotate(90) scale(1.875 14.1328)">
<stop stop-color="#8F78AB"/>
<stop offset="1" stop-color="#A493BC" stop-opacity="0"/>
</radialGradient>
<linearGradient id="paint22_linear_2316_55763" x1="5.01562" y1="9.32813" x2="7.40625" y2="15.8906" gradientUnits="userSpaceOnUse">
<stop offset="0.411738" stop-color="#C0B9CC"/>
<stop offset="1" stop-color="#C0B9CC" stop-opacity="0"/>
</linearGradient>
<linearGradient id="paint23_linear_2316_55763" x1="8.85937" y1="9.32813" x2="11.25" y2="15.8906" gradientUnits="userSpaceOnUse">
<stop offset="0.411738" stop-color="#C0B9CC"/>
<stop offset="1" stop-color="#C0B9CC" stop-opacity="0"/>
</linearGradient>
</defs>
</svg>
