<svg width="76" height="24" viewBox="0 0 76 24" fill="none" xmlns="http://www.w3.org/2000/svg">
<g style="mix-blend-mode:multiply">
<rect x="0.5" y="0.5" width="75" height="23" rx="11.5" fill="#F0F9FF"/>
<path d="M11.5014 17V6.81818H13.0376V11.2429H18.1136V6.81818H19.6548V17H18.1136V12.5604H13.0376V17H11.5014ZM24.9893 17.1541C24.2734 17.1541 23.6487 16.9901 23.1151 16.6619C22.5814 16.3338 22.1671 15.8748 21.8722 15.2848C21.5772 14.6948 21.4297 14.0054 21.4297 13.2166C21.4297 12.4245 21.5772 11.7318 21.8722 11.1385C22.1671 10.5452 22.5814 10.0845 23.1151 9.75639C23.6487 9.42827 24.2734 9.2642 24.9893 9.2642C25.7053 9.2642 26.33 9.42827 26.8636 9.75639C27.3973 10.0845 27.8116 10.5452 28.1065 11.1385C28.4015 11.7318 28.549 12.4245 28.549 13.2166C28.549 14.0054 28.4015 14.6948 28.1065 15.2848C27.8116 15.8748 27.3973 16.3338 26.8636 16.6619C26.33 16.9901 25.7053 17.1541 24.9893 17.1541ZM24.9943 15.9062C25.4583 15.9062 25.8428 15.7836 26.1477 15.5384C26.4527 15.2931 26.678 14.9666 26.8239 14.5589C26.973 14.1513 27.0476 13.7022 27.0476 13.2116C27.0476 12.7244 26.973 12.277 26.8239 11.8693C26.678 11.4583 26.4527 11.1286 26.1477 10.88C25.8428 10.6314 25.4583 10.5071 24.9943 10.5071C24.527 10.5071 24.1392 10.6314 23.831 10.88C23.526 11.1286 23.299 11.4583 23.1499 11.8693C23.004 12.277 22.9311 12.7244 22.9311 13.2116C22.9311 13.7022 23.004 14.1513 23.1499 14.5589C23.299 14.9666 23.526 15.2931 23.831 15.5384C24.1392 15.7836 24.527 15.9062 24.9943 15.9062ZM33.4249 17.1541C32.709 17.1541 32.0842 16.9901 31.5506 16.6619C31.017 16.3338 30.6027 15.8748 30.3077 15.2848C30.0127 14.6948 29.8652 14.0054 29.8652 13.2166C29.8652 12.4245 30.0127 11.7318 30.3077 11.1385C30.6027 10.5452 31.017 10.0845 31.5506 9.75639C32.0842 9.42827 32.709 9.2642 33.4249 9.2642C34.1408 9.2642 34.7656 9.42827 35.2992 9.75639C35.8328 10.0845 36.2471 10.5452 36.5421 11.1385C36.8371 11.7318 36.9846 12.4245 36.9846 13.2166C36.9846 14.0054 36.8371 14.6948 36.5421 15.2848C36.2471 15.8748 35.8328 16.3338 35.2992 16.6619C34.7656 16.9901 34.1408 17.1541 33.4249 17.1541ZM33.4299 15.9062C33.8939 15.9062 34.2784 15.7836 34.5833 15.5384C34.8882 15.2931 35.1136 14.9666 35.2594 14.5589C35.4086 14.1513 35.4831 13.7022 35.4831 13.2116C35.4831 12.7244 35.4086 12.277 35.2594 11.8693C35.1136 11.4583 34.8882 11.1286 34.5833 10.88C34.2784 10.6314 33.8939 10.5071 33.4299 10.5071C32.9625 10.5071 32.5748 10.6314 32.2665 10.88C31.9616 11.1286 31.7346 11.4583 31.5854 11.8693C31.4396 12.277 31.3667 12.7244 31.3667 13.2116C31.3667 13.7022 31.4396 14.1513 31.5854 14.5589C31.7346 14.9666 31.9616 15.2931 32.2665 15.5384C32.5748 15.7836 32.9625 15.9062 33.4299 15.9062ZM41.5025 17.1491C40.886 17.1491 40.3358 16.9917 39.8519 16.6768C39.3713 16.3587 38.9935 15.9062 38.7184 15.3196C38.4466 14.7296 38.3107 14.022 38.3107 13.1967C38.3107 12.3714 38.4483 11.6655 38.7234 11.0788C39.0018 10.4922 39.3829 10.0431 39.8668 9.73153C40.3507 9.41998 40.8993 9.2642 41.5124 9.2642C41.9864 9.2642 42.3675 9.34375 42.6559 9.50284C42.9476 9.65862 43.1729 9.84091 43.332 10.0497C43.4944 10.2585 43.6204 10.4425 43.7099 10.6016H43.7994V6.81818H45.2859V17H43.8342V15.8118H43.7099C43.6204 15.9742 43.4911 16.1598 43.3221 16.3686C43.1564 16.5774 42.9277 16.7597 42.636 16.9155C42.3443 17.0713 41.9665 17.1491 41.5025 17.1491ZM41.8306 15.8814C42.2582 15.8814 42.6194 15.7687 42.9144 15.5433C43.2127 15.3146 43.4381 14.9981 43.5906 14.5938C43.7463 14.1894 43.8242 13.7187 43.8242 13.1818C43.8242 12.6515 43.748 12.1875 43.5955 11.7898C43.4431 11.392 43.2193 11.0821 42.9244 10.8601C42.6294 10.638 42.2648 10.527 41.8306 10.527C41.3832 10.527 41.0103 10.643 40.712 10.875C40.4137 11.107 40.1883 11.4235 40.0359 11.8246C39.8867 12.2256 39.8121 12.678 39.8121 13.1818C39.8121 13.6922 39.8884 14.1513 40.0408 14.5589C40.1933 14.9666 40.4187 15.2898 40.717 15.5284C41.0186 15.7637 41.3898 15.8814 41.8306 15.8814ZM47.4075 17V9.36364H48.894V17H47.4075ZM48.1582 8.18537C47.8997 8.18537 47.6776 8.09919 47.492 7.92685C47.3097 7.75118 47.2186 7.54238 47.2186 7.30043C47.2186 7.05516 47.3097 6.84635 47.492 6.67401C47.6776 6.49834 47.8997 6.41051 48.1582 6.41051C48.4167 6.41051 48.6371 6.49834 48.8194 6.67401C49.005 6.84635 49.0978 7.05516 49.0978 7.30043C49.0978 7.54238 49.005 7.75118 48.8194 7.92685C48.6371 8.09919 48.4167 8.18537 48.1582 8.18537ZM54.185 17.1541C53.4326 17.1541 52.7847 16.9934 52.2411 16.6719C51.7009 16.3471 51.2833 15.8913 50.9883 15.3047C50.6966 14.7147 50.5508 14.0237 50.5508 13.2315C50.5508 12.4493 50.6966 11.7599 50.9883 11.1634C51.2833 10.5668 51.6942 10.1011 52.2212 9.76633C52.7515 9.43158 53.3713 9.2642 54.0806 9.2642C54.5115 9.2642 54.9291 9.33546 55.3335 9.47798C55.7378 9.6205 56.1007 9.84422 56.4222 10.1491C56.7437 10.4541 56.9973 10.8501 57.1829 11.3374C57.3685 11.8213 57.4613 12.4096 57.4613 13.1023V13.6293H51.391V12.5156H56.0046C56.0046 12.1245 55.9251 11.7782 55.766 11.4766C55.6069 11.1716 55.3832 10.9313 55.0948 10.7557C54.8098 10.58 54.475 10.4922 54.0906 10.4922C53.6729 10.4922 53.3084 10.5949 52.9968 10.8004C52.6886 11.0026 52.4499 11.2678 52.2809 11.5959C52.1152 11.9207 52.0323 12.2737 52.0323 12.6548V13.5249C52.0323 14.0353 52.1218 14.4695 52.3008 14.8274C52.4831 15.1854 52.7366 15.4588 53.0614 15.6477C53.3862 15.8333 53.7657 15.9261 54.1999 15.9261C54.4817 15.9261 54.7385 15.8864 54.9705 15.8068C55.2025 15.724 55.4031 15.6013 55.5721 15.4389C55.7411 15.2765 55.8704 15.076 55.9599 14.8374L57.3668 15.0909C57.2541 15.5052 57.052 15.8681 56.7603 16.1797C56.4719 16.4879 56.109 16.7282 55.6715 16.9006C55.2373 17.0696 54.7418 17.1541 54.185 17.1541ZM64.8329 11.228L63.4856 11.4666C63.4293 11.2943 63.3398 11.1302 63.2172 10.9744C63.0978 10.8187 62.9354 10.6911 62.7299 10.5916C62.5244 10.4922 62.2676 10.4425 61.9593 10.4425C61.5384 10.4425 61.1871 10.5369 60.9054 10.7259C60.6236 10.9115 60.4828 11.1518 60.4828 11.4467C60.4828 11.7019 60.5772 11.9074 60.7662 12.0632C60.9551 12.219 61.26 12.3466 61.6809 12.446L62.894 12.7244C63.5967 12.8868 64.1203 13.1371 64.465 13.4751C64.8097 13.8132 64.9821 14.2524 64.9821 14.7926C64.9821 15.25 64.8495 15.6577 64.5843 16.0156C64.3225 16.3703 63.9563 16.6487 63.4856 16.8509C63.0183 17.053 62.4764 17.1541 61.8599 17.1541C61.0048 17.1541 60.3071 16.9718 59.7669 16.6072C59.2266 16.2393 58.8952 15.7173 58.7725 15.0412L60.2093 14.8224C60.2988 15.197 60.4828 15.4804 60.7612 15.6726C61.0396 15.8615 61.4025 15.956 61.85 15.956C62.3372 15.956 62.7266 15.8549 63.0183 15.6527C63.31 15.4472 63.4558 15.197 63.4558 14.902C63.4558 14.6634 63.3663 14.4628 63.1873 14.3004C63.0117 14.138 62.7415 14.0154 62.377 13.9325L61.0843 13.6491C60.3717 13.4867 59.8448 13.2282 59.5034 12.8736C59.1653 12.5189 58.9963 12.0698 58.9963 11.5263C58.9963 11.0755 59.1222 10.6811 59.3741 10.343C59.626 10.005 59.974 9.74148 60.4181 9.55256C60.8623 9.36032 61.371 9.2642 61.9444 9.2642C62.7697 9.2642 63.4193 9.44318 63.8933 9.80114C64.3672 10.1558 64.6805 10.6314 64.8329 11.228Z" fill="#026AA2"/>
<rect x="0.5" y="0.5" width="75" height="23" rx="11.5" stroke="#B9E6FE"/>
</g>
</svg>
