<svg width="98" height="24" viewBox="0 0 98 24" fill="none" xmlns="http://www.w3.org/2000/svg">
<g style="mix-blend-mode:multiply">
<rect x="0.5" y="0.5" width="97" height="23" rx="11.5" fill="#F8F9FC"/>
<path d="M11.2358 17V6.81818H12.772V15.6776H17.3857V17H11.2358ZM21.2411 17.169C20.7572 17.169 20.3197 17.0795 19.9286 16.9006C19.5375 16.7183 19.2276 16.4548 18.9989 16.1101C18.7736 15.7654 18.6609 15.3428 18.6609 14.8423C18.6609 14.4115 18.7437 14.0568 18.9094 13.7784C19.0752 13.5 19.2989 13.2796 19.5806 13.1172C19.8623 12.9548 20.1772 12.8321 20.5252 12.7493C20.8732 12.6664 21.2279 12.6035 21.5891 12.5604C22.0465 12.5073 22.4177 12.4643 22.7028 12.4311C22.9878 12.3946 23.195 12.3366 23.3242 12.2571C23.4535 12.1776 23.5181 12.0483 23.5181 11.8693V11.8345C23.5181 11.4003 23.3955 11.0639 23.1502 10.8253C22.9083 10.5866 22.547 10.4673 22.0664 10.4673C21.5659 10.4673 21.1715 10.5784 20.8832 10.8004C20.5981 11.0192 20.4009 11.2628 20.2915 11.5312L18.8945 11.2131C19.0603 10.7491 19.3022 10.3745 19.6204 10.0895C19.9419 9.80114 20.3114 9.59233 20.729 9.46307C21.1467 9.33049 21.5858 9.2642 22.0465 9.2642C22.3514 9.2642 22.6746 9.30066 23.016 9.37358C23.3607 9.44318 23.6822 9.57244 23.9805 9.76136C24.2821 9.95028 24.529 10.2204 24.7212 10.5717C24.9135 10.9197 25.0096 11.3722 25.0096 11.929V17H23.5579V15.956H23.4982C23.4021 16.1482 23.2579 16.3371 23.0657 16.5227C22.8735 16.7083 22.6265 16.8625 22.3249 16.9851C22.0233 17.1077 21.6621 17.169 21.2411 17.169ZM21.5643 15.9759C21.9753 15.9759 22.3266 15.8946 22.6183 15.7322C22.9132 15.5698 23.137 15.3577 23.2894 15.0959C23.4452 14.8307 23.5231 14.5473 23.5231 14.2457V13.2614C23.4701 13.3144 23.3673 13.3641 23.2148 13.4105C23.0657 13.4536 22.895 13.4917 22.7028 13.5249C22.5105 13.5547 22.3233 13.5829 22.141 13.6094C21.9587 13.6326 21.8062 13.6525 21.6836 13.669C21.3952 13.7055 21.1317 13.7668 20.8931 13.853C20.6578 13.9392 20.4689 14.0634 20.3263 14.2259C20.1871 14.3849 20.1175 14.5971 20.1175 14.8622C20.1175 15.2301 20.2534 15.5085 20.5252 15.6974C20.797 15.883 21.1433 15.9759 21.5643 15.9759ZM26.9895 17V9.36364H28.4164V10.6065H28.5108C28.6699 10.1856 28.9301 9.85748 29.2914 9.62216C29.6526 9.38352 30.0852 9.2642 30.589 9.2642C31.0994 9.2642 31.5269 9.38352 31.8716 9.62216C32.2196 9.8608 32.4765 10.1889 32.6422 10.6065H32.7218C32.9041 10.1989 33.1941 9.87405 33.5918 9.6321C33.9895 9.38684 34.4635 9.2642 35.0137 9.2642C35.7064 9.2642 36.2715 9.4813 36.709 9.91548C37.1498 10.3497 37.3702 11.0043 37.3702 11.8793V17H35.8837V12.0185C35.8837 11.5014 35.7428 11.1269 35.4611 10.8949C35.1794 10.6629 34.843 10.5469 34.4519 10.5469C33.968 10.5469 33.5918 10.696 33.3233 10.9943C33.0549 11.2893 32.9206 11.6688 32.9206 12.1328V17H31.4391V11.924C31.4391 11.5097 31.3098 11.1766 31.0513 10.9247C30.7928 10.6728 30.4564 10.5469 30.0421 10.5469C29.7604 10.5469 29.5002 10.6214 29.2615 10.7706C29.0262 10.9164 28.8356 11.1203 28.6898 11.3821C28.5473 11.6439 28.476 11.9472 28.476 12.2919V17H26.9895ZM39.3626 19.8636V9.36364H40.8143V10.6016H40.9386C41.0247 10.4425 41.149 10.2585 41.3114 10.0497C41.4738 9.84091 41.6992 9.65862 41.9876 9.50284C42.2759 9.34375 42.6571 9.2642 43.131 9.2642C43.7475 9.2642 44.2977 9.41998 44.7816 9.73153C45.2655 10.0431 45.645 10.4922 45.9201 11.0788C46.1985 11.6655 46.3377 12.3714 46.3377 13.1967C46.3377 14.022 46.2002 14.7296 45.9251 15.3196C45.65 15.9062 45.2721 16.3587 44.7915 16.6768C44.311 16.9917 43.7624 17.1491 43.146 17.1491C42.6819 17.1491 42.3024 17.0713 42.0075 16.9155C41.7158 16.7597 41.4871 16.5774 41.3214 16.3686C41.1557 16.1598 41.0281 15.9742 40.9386 15.8118H40.8491V19.8636H39.3626ZM40.8192 13.1818C40.8192 13.7187 40.8971 14.1894 41.0529 14.5938C41.2087 14.9981 41.4341 15.3146 41.729 15.5433C42.024 15.7687 42.3853 15.8814 42.8129 15.8814C43.257 15.8814 43.6282 15.7637 43.9265 15.5284C44.2248 15.2898 44.4502 14.9666 44.6026 14.5589C44.7584 14.1513 44.8363 13.6922 44.8363 13.1818C44.8363 12.678 44.7601 12.2256 44.6076 11.8246C44.4585 11.4235 44.2331 11.107 43.9315 10.875C43.6332 10.643 43.2603 10.527 42.8129 10.527C42.382 10.527 42.0174 10.638 41.7191 10.8601C41.4241 11.0821 41.2004 11.392 41.0479 11.7898C40.8955 12.1875 40.8192 12.6515 40.8192 13.1818ZM53.7255 11.228L52.3782 11.4666C52.3219 11.2943 52.2324 11.1302 52.1097 10.9744C51.9904 10.8187 51.828 10.6911 51.6225 10.5916C51.417 10.4922 51.1602 10.4425 50.8519 10.4425C50.431 10.4425 50.0797 10.5369 49.7979 10.7259C49.5162 10.9115 49.3754 11.1518 49.3754 11.4467C49.3754 11.7019 49.4698 11.9074 49.6587 12.0632C49.8477 12.219 50.1526 12.3466 50.5735 12.446L51.7866 12.7244C52.4892 12.8868 53.0129 13.1371 53.3576 13.4751C53.7023 13.8132 53.8746 14.2524 53.8746 14.7926C53.8746 15.25 53.7421 15.6577 53.4769 16.0156C53.2151 16.3703 52.8488 16.6487 52.3782 16.8509C51.9109 17.053 51.369 17.1541 50.7525 17.1541C49.8974 17.1541 49.1997 16.9718 48.6594 16.6072C48.1192 16.2393 47.7878 15.7173 47.6651 15.0412L49.1019 14.8224C49.1914 15.197 49.3754 15.4804 49.6538 15.6726C49.9322 15.8615 50.2951 15.956 50.7425 15.956C51.2298 15.956 51.6192 15.8549 51.9109 15.6527C52.2025 15.4472 52.3484 15.197 52.3484 14.902C52.3484 14.6634 52.2589 14.4628 52.0799 14.3004C51.9042 14.138 51.6341 14.0154 51.2695 13.9325L49.9769 13.6491C49.2643 13.4867 48.7373 13.2282 48.396 12.8736C48.0579 12.5189 47.8888 12.0698 47.8888 11.5263C47.8888 11.0755 48.0148 10.6811 48.2667 10.343C48.5186 10.005 48.8666 9.74148 49.3107 9.55256C49.7549 9.36032 50.2636 9.2642 50.837 9.2642C51.6623 9.2642 52.3119 9.44318 52.7859 9.80114C53.2598 10.1558 53.573 10.6314 53.7255 11.228ZM56.9956 12.4659V17H55.5091V6.81818H56.9757V10.6065H57.0701C57.2491 10.1955 57.5225 9.86908 57.8904 9.62713C58.2583 9.38518 58.7389 9.2642 59.3322 9.2642C59.8559 9.2642 60.3133 9.37192 60.7044 9.58736C61.0988 9.80279 61.4037 10.1243 61.6191 10.5518C61.8379 10.9761 61.9473 11.5064 61.9473 12.1428V17H60.4608V12.3217C60.4608 11.7616 60.3166 11.3274 60.0282 11.0192C59.7399 10.7076 59.3388 10.5518 58.8251 10.5518C58.4738 10.5518 58.1589 10.6264 57.8805 10.7756C57.6054 10.9247 57.3883 11.1435 57.2292 11.4318C57.0734 11.7169 56.9956 12.0616 56.9956 12.4659ZM66.1532 17.169C65.6693 17.169 65.2318 17.0795 64.8407 16.9006C64.4496 16.7183 64.1397 16.4548 63.911 16.1101C63.6857 15.7654 63.573 15.3428 63.573 14.8423C63.573 14.4115 63.6558 14.0568 63.8216 13.7784C63.9873 13.5 64.211 13.2796 64.4927 13.1172C64.7744 12.9548 65.0893 12.8321 65.4373 12.7493C65.7853 12.6664 66.14 12.6035 66.5012 12.5604C66.9586 12.5073 67.3298 12.4643 67.6149 12.4311C67.8999 12.3946 68.1071 12.3366 68.2363 12.2571C68.3656 12.1776 68.4302 12.0483 68.4302 11.8693V11.8345C68.4302 11.4003 68.3076 11.0639 68.0623 10.8253C67.8204 10.5866 67.4591 10.4673 66.9785 10.4673C66.478 10.4673 66.0836 10.5784 65.7953 10.8004C65.5102 11.0192 65.313 11.2628 65.2037 11.5312L63.8066 11.2131C63.9724 10.7491 64.2143 10.3745 64.5325 10.0895C64.854 9.80114 65.2235 9.59233 65.6412 9.46307C66.0588 9.33049 66.4979 9.2642 66.9586 9.2642C67.2636 9.2642 67.5867 9.30066 67.9281 9.37358C68.2728 9.44318 68.5943 9.57244 68.8926 9.76136C69.1942 9.95028 69.4411 10.2204 69.6333 10.5717C69.8256 10.9197 69.9217 11.3722 69.9217 11.929V17H68.47V15.956H68.4103C68.3142 16.1482 68.17 16.3371 67.9778 16.5227C67.7856 16.7083 67.5386 16.8625 67.237 16.9851C66.9354 17.1077 66.5742 17.169 66.1532 17.169ZM66.4764 15.9759C66.8874 15.9759 67.2387 15.8946 67.5304 15.7322C67.8253 15.5698 68.0491 15.3577 68.2015 15.0959C68.3573 14.8307 68.4352 14.5473 68.4352 14.2457V13.2614C68.3822 13.3144 68.2794 13.3641 68.127 13.4105C67.9778 13.4536 67.8071 13.4917 67.6149 13.5249C67.4226 13.5547 67.2354 13.5829 67.0531 13.6094C66.8708 13.6326 66.7183 13.6525 66.5957 13.669C66.3074 13.7055 66.0439 13.7668 65.8052 13.853C65.5699 13.9392 65.381 14.0634 65.2385 14.2259C65.0993 14.3849 65.0297 14.5971 65.0297 14.8622C65.0297 15.2301 65.1655 15.5085 65.4373 15.6974C65.7091 15.883 66.0555 15.9759 66.4764 15.9759ZM74.7603 17.1491C74.1438 17.1491 73.5936 16.9917 73.1097 16.6768C72.6291 16.3587 72.2513 15.9062 71.9762 15.3196C71.7044 14.7296 71.5685 14.022 71.5685 13.1967C71.5685 12.3714 71.7061 11.6655 71.9812 11.0788C72.2596 10.4922 72.6407 10.0431 73.1246 9.73153C73.6085 9.41998 74.1571 9.2642 74.7702 9.2642C75.2442 9.2642 75.6254 9.34375 75.9137 9.50284C76.2054 9.65862 76.4308 9.84091 76.5898 10.0497C76.7522 10.2585 76.8782 10.4425 76.9677 10.6016H77.0572V6.81818H78.5437V17H77.092V15.8118H76.9677C76.8782 15.9742 76.7489 16.1598 76.5799 16.3686C76.4142 16.5774 76.1855 16.7597 75.8938 16.9155C75.6022 17.0713 75.2243 17.1491 74.7603 17.1491ZM75.0884 15.8814C75.516 15.8814 75.8772 15.7687 76.1722 15.5433C76.4705 15.3146 76.6959 14.9981 76.8484 14.5938C77.0041 14.1894 77.082 13.7187 77.082 13.1818C77.082 12.6515 77.0058 12.1875 76.8533 11.7898C76.7009 11.392 76.4772 11.0821 76.1822 10.8601C75.8872 10.638 75.5226 10.527 75.0884 10.527C74.641 10.527 74.2681 10.643 73.9698 10.875C73.6715 11.107 73.4461 11.4235 73.2937 11.8246C73.1445 12.2256 73.07 12.678 73.07 13.1818C73.07 13.6922 73.1462 14.1513 73.2987 14.5589C73.4511 14.9666 73.6765 15.2898 73.9748 15.5284C74.2764 15.7637 74.6476 15.8814 75.0884 15.8814ZM83.9565 17.1541C83.2041 17.1541 82.5562 16.9934 82.0126 16.6719C81.4724 16.3471 81.0547 15.8913 80.7598 15.3047C80.4681 14.7147 80.3223 14.0237 80.3223 13.2315C80.3223 12.4493 80.4681 11.7599 80.7598 11.1634C81.0547 10.5668 81.4657 10.1011 81.9927 9.76633C82.523 9.43158 83.1428 9.2642 83.8521 9.2642C84.283 9.2642 84.7006 9.33546 85.1049 9.47798C85.5093 9.6205 85.8722 9.84422 86.1937 10.1491C86.5152 10.4541 86.7688 10.8501 86.9544 11.3374C87.14 11.8213 87.2328 12.4096 87.2328 13.1023V13.6293H81.1625V12.5156H85.7761C85.7761 12.1245 85.6966 11.7782 85.5375 11.4766C85.3784 11.1716 85.1547 10.9313 84.8663 10.7557C84.5813 10.58 84.2465 10.4922 83.862 10.4922C83.4444 10.4922 83.0798 10.5949 82.7683 10.8004C82.46 11.0026 82.2214 11.2678 82.0524 11.5959C81.8867 11.9207 81.8038 12.2737 81.8038 12.6548V13.5249C81.8038 14.0353 81.8933 14.4695 82.0723 14.8274C82.2546 15.1854 82.5081 15.4588 82.8329 15.6477C83.1577 15.8333 83.5372 15.9261 83.9714 15.9261C84.2531 15.9261 84.51 15.8864 84.742 15.8068C84.974 15.724 85.1745 15.6013 85.3436 15.4389C85.5126 15.2765 85.6419 15.076 85.7314 14.8374L87.1383 15.0909C87.0256 15.5052 86.8234 15.8681 86.5318 16.1797C86.2434 16.4879 85.8805 16.7282 85.443 16.9006C85.0088 17.0696 84.5133 17.1541 83.9565 17.1541Z" fill="#363F72"/>
<rect x="0.5" y="0.5" width="97" height="23" rx="11.5" stroke="#D5D9EB"/>
</g>
</svg>
