<svg width="109" height="24" viewBox="0 0 109 24" fill="none" xmlns="http://www.w3.org/2000/svg">
<g style="mix-blend-mode:multiply">
<rect x="0.5" y="0.5" width="108" height="23" rx="11.5" fill="#EEF4FF"/>
<path d="M11.3696 6.81818H13.2339L16.4754 14.733H16.5947L19.8362 6.81818H21.7006V17H20.2389V9.6321H20.1444L17.1416 16.9851H15.9285L12.9257 9.62713H12.8312V17H11.3696V6.81818ZM26.037 17.169C25.5531 17.169 25.1156 17.0795 24.7245 16.9006C24.3334 16.7183 24.0235 16.4548 23.7948 16.1101C23.5695 15.7654 23.4568 15.3428 23.4568 14.8423C23.4568 14.4115 23.5396 14.0568 23.7053 13.7784C23.8711 13.5 24.0948 13.2796 24.3765 13.1172C24.6582 12.9548 24.9731 12.8321 25.3211 12.7493C25.6691 12.6664 26.0238 12.6035 26.385 12.5604C26.8424 12.5073 27.2136 12.4643 27.4987 12.4311C27.7837 12.3946 27.9909 12.3366 28.1201 12.2571C28.2494 12.1776 28.314 12.0483 28.314 11.8693V11.8345C28.314 11.4003 28.1914 11.0639 27.9461 10.8253C27.7042 10.5866 27.3429 10.4673 26.8623 10.4673C26.3618 10.4673 25.9674 10.5784 25.6791 10.8004C25.394 11.0192 25.1968 11.2628 25.0874 11.5312L23.6904 11.2131C23.8561 10.7491 24.0981 10.3745 24.4163 10.0895C24.7378 9.80114 25.1073 9.59233 25.5249 9.46307C25.9426 9.33049 26.3817 9.2642 26.8424 9.2642C27.1473 9.2642 27.4705 9.30066 27.8119 9.37358C28.1566 9.44318 28.4781 9.57244 28.7764 9.76136C29.078 9.95028 29.3249 10.2204 29.5171 10.5717C29.7094 10.9197 29.8055 11.3722 29.8055 11.929V17H28.3538V15.956H28.2941C28.198 16.1482 28.0538 16.3371 27.8616 16.5227C27.6694 16.7083 27.4224 16.8625 27.1208 16.9851C26.8192 17.1077 26.4579 17.169 26.037 17.169ZM26.3602 15.9759C26.7712 15.9759 27.1225 15.8946 27.4142 15.7322C27.7091 15.5698 27.9329 15.3577 28.0853 15.0959C28.2411 14.8307 28.319 14.5473 28.319 14.2457V13.2614C28.266 13.3144 28.1632 13.3641 28.0107 13.4105C27.8616 13.4536 27.6909 13.4917 27.4987 13.5249C27.3064 13.5547 27.1192 13.5829 26.9369 13.6094C26.7546 13.6326 26.6021 13.6525 26.4795 13.669C26.1911 13.7055 25.9276 13.7668 25.689 13.853C25.4537 13.9392 25.2648 14.0634 25.1222 14.2259C24.983 14.3849 24.9134 14.5971 24.9134 14.8622C24.9134 15.2301 25.0493 15.5085 25.3211 15.6974C25.5929 15.883 25.9392 15.9759 26.3602 15.9759ZM35.002 17.1541C34.2629 17.1541 33.6266 16.9867 33.093 16.652C32.5626 16.3139 32.155 15.8482 31.8699 15.255C31.5849 14.6617 31.4424 13.9822 31.4424 13.2166C31.4424 12.4411 31.5882 11.7566 31.8799 11.1634C32.1715 10.5668 32.5825 10.1011 33.1128 9.76633C33.6431 9.43158 34.2679 9.2642 34.9871 9.2642C35.5671 9.2642 36.0842 9.37192 36.5383 9.58736C36.9923 9.79948 37.3586 10.0978 37.637 10.4822C37.9187 10.8667 38.0861 11.3158 38.1391 11.8295H36.6924C36.6128 11.4716 36.4305 11.1634 36.1455 10.9048C35.8638 10.6463 35.4859 10.517 35.012 10.517C34.5977 10.517 34.2348 10.6264 33.9232 10.8452C33.615 11.0606 33.3747 11.3688 33.2023 11.7699C33.03 12.1676 32.9438 12.6383 32.9438 13.1818C32.9438 13.7386 33.0283 14.2192 33.1974 14.6236C33.3664 15.0279 33.605 15.3411 33.9133 15.5632C34.2248 15.7853 34.5911 15.8963 35.012 15.8963C35.2937 15.8963 35.5489 15.8449 35.7776 15.7422C36.0096 15.6361 36.2035 15.4853 36.3593 15.2898C36.5184 15.0942 36.6294 14.8589 36.6924 14.5838H38.1391C38.0861 15.0777 37.9253 15.5185 37.6569 15.9062C37.3884 16.294 37.0288 16.599 36.578 16.821C36.1306 17.0431 35.6053 17.1541 35.002 17.1541ZM39.8481 17V6.81818H43.5768C44.2993 6.81818 44.8976 6.9375 45.3715 7.17614C45.8455 7.41146 46.2001 7.7313 46.4355 8.13565C46.6708 8.53669 46.7884 8.98911 46.7884 9.4929C46.7884 9.91714 46.7106 10.2751 46.5548 10.5668C46.399 10.8551 46.1902 11.0871 45.9284 11.2628C45.6698 11.4351 45.3848 11.5611 45.0732 11.6406V11.7401C45.4113 11.7566 45.7411 11.866 46.0626 12.0682C46.3874 12.267 46.6559 12.5504 46.868 12.9183C47.0801 13.2862 47.1862 13.7337 47.1862 14.2607C47.1862 14.781 47.0635 15.2483 46.8183 15.6626C46.5763 16.0736 46.2018 16.4001 45.6947 16.642C45.1876 16.8807 44.5396 17 43.7508 17H39.8481ZM41.3843 15.6825H43.6017C44.3374 15.6825 44.8644 15.54 45.1826 15.255C45.5008 14.9699 45.6599 14.6136 45.6599 14.1861C45.6599 13.8646 45.5787 13.5696 45.4163 13.3011C45.2539 13.0327 45.0219 12.8189 44.7203 12.6598C44.422 12.5007 44.0673 12.4212 43.6563 12.4212H41.3843V15.6825ZM41.3843 11.223H43.4426C43.7873 11.223 44.0972 11.1567 44.3722 11.0241C44.6507 10.8916 44.8711 10.706 45.0335 10.4673C45.1992 10.2254 45.282 9.94034 45.282 9.61222C45.282 9.19129 45.1346 8.8383 44.8396 8.55327C44.5446 8.26823 44.0922 8.12571 43.4823 8.12571H41.3843V11.223ZM52.1056 17.1541C51.3896 17.1541 50.7649 16.9901 50.2313 16.6619C49.6977 16.3338 49.2834 15.8748 48.9884 15.2848C48.6934 14.6948 48.5459 14.0054 48.5459 13.2166C48.5459 12.4245 48.6934 11.7318 48.9884 11.1385C49.2834 10.5452 49.6977 10.0845 50.2313 9.75639C50.7649 9.42827 51.3896 9.2642 52.1056 9.2642C52.8215 9.2642 53.4462 9.42827 53.9798 9.75639C54.5135 10.0845 54.9278 10.5452 55.2227 11.1385C55.5177 11.7318 55.6652 12.4245 55.6652 13.2166C55.6652 14.0054 55.5177 14.6948 55.2227 15.2848C54.9278 15.8748 54.5135 16.3338 53.9798 16.6619C53.4462 16.9901 52.8215 17.1541 52.1056 17.1541ZM52.1105 15.9062C52.5745 15.9062 52.959 15.7836 53.2639 15.5384C53.5689 15.2931 53.7942 14.9666 53.9401 14.5589C54.0892 14.1513 54.1638 13.7022 54.1638 13.2116C54.1638 12.7244 54.0892 12.277 53.9401 11.8693C53.7942 11.4583 53.5689 11.1286 53.2639 10.88C52.959 10.6314 52.5745 10.5071 52.1105 10.5071C51.6432 10.5071 51.2554 10.6314 50.9472 10.88C50.6423 11.1286 50.4152 11.4583 50.2661 11.8693C50.1202 12.277 50.0473 12.7244 50.0473 13.2116C50.0473 13.7022 50.1202 14.1513 50.2661 14.5589C50.4152 14.9666 50.6423 15.2931 50.9472 15.5384C51.2554 15.7836 51.6432 15.9062 52.1105 15.9062ZM60.5411 17.1541C59.8252 17.1541 59.2004 16.9901 58.6668 16.6619C58.1332 16.3338 57.7189 15.8748 57.4239 15.2848C57.1289 14.6948 56.9814 14.0054 56.9814 13.2166C56.9814 12.4245 57.1289 11.7318 57.4239 11.1385C57.7189 10.5452 58.1332 10.0845 58.6668 9.75639C59.2004 9.42827 59.8252 9.2642 60.5411 9.2642C61.257 9.2642 61.8818 9.42827 62.4154 9.75639C62.949 10.0845 63.3633 10.5452 63.6583 11.1385C63.9533 11.7318 64.1008 12.4245 64.1008 13.2166C64.1008 14.0054 63.9533 14.6948 63.6583 15.2848C63.3633 15.8748 62.949 16.3338 62.4154 16.6619C61.8818 16.9901 61.257 17.1541 60.5411 17.1541ZM60.5461 15.9062C61.0101 15.9062 61.3946 15.7836 61.6995 15.5384C62.0044 15.2931 62.2298 14.9666 62.3756 14.5589C62.5248 14.1513 62.5993 13.7022 62.5993 13.2116C62.5993 12.7244 62.5248 12.277 62.3756 11.8693C62.2298 11.4583 62.0044 11.1286 61.6995 10.88C61.3946 10.6314 61.0101 10.5071 60.5461 10.5071C60.0787 10.5071 59.691 10.6314 59.3827 10.88C59.0778 11.1286 58.8508 11.4583 58.7016 11.8693C58.5558 12.277 58.4829 12.7244 58.4829 13.2116C58.4829 13.7022 58.5558 14.1513 58.7016 14.5589C58.8508 14.9666 59.0778 15.2931 59.3827 15.5384C59.691 15.7836 60.0787 15.9062 60.5461 15.9062ZM67.1272 14.4098L67.1173 12.5952H67.3758L70.4184 9.36364H72.1982L68.7281 13.0426H68.4944L67.1272 14.4098ZM65.76 17V6.81818H67.2465V17H65.76ZM70.5825 17L67.8481 13.3707L68.8722 12.3317L72.407 17H70.5825ZM77.3774 17V6.81818H81.0067C81.7988 6.81818 82.455 6.96236 82.9754 7.25071C83.4958 7.53906 83.8852 7.93347 84.1437 8.43395C84.4023 8.93111 84.5315 9.49124 84.5315 10.1143C84.5315 10.7408 84.4006 11.3042 84.1388 11.8047C83.8802 12.3018 83.4891 12.6963 82.9655 12.9879C82.4451 13.2763 81.7905 13.4205 81.0017 13.4205H78.5059V12.1179H80.8625C81.363 12.1179 81.769 12.0317 82.0805 11.8594C82.3921 11.6837 82.6208 11.4451 82.7666 11.1435C82.9124 10.8419 82.9854 10.4988 82.9854 10.1143C82.9854 9.72988 82.9124 9.38849 82.7666 9.0902C82.6208 8.7919 82.3904 8.55824 82.0756 8.3892C81.764 8.22017 81.353 8.13565 80.8426 8.13565H78.9136V17H77.3774ZM86.2132 17V9.36364H87.6499V10.5767H87.7295C87.8687 10.1657 88.114 9.84257 88.4653 9.60724C88.8199 9.36861 89.221 9.24929 89.6684 9.24929C89.7612 9.24929 89.8706 9.2526 89.9965 9.25923C90.1258 9.26586 90.2269 9.27415 90.2998 9.28409V10.706C90.2401 10.6894 90.1341 10.6712 89.9816 10.6513C89.8292 10.6281 89.6767 10.6165 89.5242 10.6165C89.1729 10.6165 88.8597 10.6911 88.5846 10.8402C88.3128 10.986 88.0974 11.1899 87.9383 11.4517C87.7792 11.7102 87.6997 12.0052 87.6997 12.3366V17H86.2132ZM94.5294 17.1541C93.8135 17.1541 93.1887 16.9901 92.6551 16.6619C92.1215 16.3338 91.7072 15.8748 91.4122 15.2848C91.1172 14.6948 90.9697 14.0054 90.9697 13.2166C90.9697 12.4245 91.1172 11.7318 91.4122 11.1385C91.7072 10.5452 92.1215 10.0845 92.6551 9.75639C93.1887 9.42827 93.8135 9.2642 94.5294 9.2642C95.2453 9.2642 95.8701 9.42827 96.4037 9.75639C96.9373 10.0845 97.3516 10.5452 97.6466 11.1385C97.9416 11.7318 98.089 12.4245 98.089 13.2166C98.089 14.0054 97.9416 14.6948 97.6466 15.2848C97.3516 15.8748 96.9373 16.3338 96.4037 16.6619C95.8701 16.9901 95.2453 17.1541 94.5294 17.1541ZM94.5344 15.9062C94.9984 15.9062 95.3828 15.7836 95.6878 15.5384C95.9927 15.2931 96.2181 14.9666 96.3639 14.5589C96.5131 14.1513 96.5876 13.7022 96.5876 13.2116C96.5876 12.7244 96.5131 12.277 96.3639 11.8693C96.2181 11.4583 95.9927 11.1286 95.6878 10.88C95.3828 10.6314 94.9984 10.5071 94.5344 10.5071C94.067 10.5071 93.6792 10.6314 93.371 10.88C93.0661 11.1286 92.839 11.4583 92.6899 11.8693C92.5441 12.277 92.4711 12.7244 92.4711 13.2116C92.4711 13.7022 92.5441 14.1513 92.6899 14.5589C92.839 14.9666 93.0661 15.2931 93.371 15.5384C93.6792 15.7836 94.067 15.9062 94.5344 15.9062Z" fill="#3538CD"/>
<rect x="0.5" y="0.5" width="108" height="23" rx="11.5" stroke="#C7D7FE"/>
</g>
</svg>
