<svg width="70" height="24" viewBox="0 0 70 24" fill="none" xmlns="http://www.w3.org/2000/svg">
<g style="mix-blend-mode:multiply">
<rect x="0.5" y="0.5" width="69" height="23" rx="11.5" fill="#FEF3F2"/>
<path d="M11.1674 17V6.81818H14.7967C15.5888 6.81818 16.2451 6.96236 16.7654 7.25071C17.2858 7.53906 17.6752 7.93347 17.9338 8.43395C18.1923 8.93111 18.3216 9.49124 18.3216 10.1143C18.3216 10.7408 18.1906 11.3042 17.9288 11.8047C17.6703 12.3018 17.2792 12.6963 16.7555 12.9879C16.2351 13.2763 15.5806 13.4205 14.7917 13.4205H12.296V12.1179H14.6525C15.153 12.1179 15.559 12.0317 15.8706 11.8594C16.1821 11.6837 16.4108 11.4451 16.5566 11.1435C16.7025 10.8419 16.7754 10.4988 16.7754 10.1143C16.7754 9.72988 16.7025 9.38849 16.5566 9.0902C16.4108 8.7919 16.1805 8.55824 15.8656 8.3892C15.554 8.22017 15.1431 8.13565 14.6326 8.13565H12.7037V17H11.1674ZM21.4897 12.4659V17H20.0032V6.81818H21.4698V10.6065H21.5643C21.7433 10.1955 22.0167 9.86908 22.3846 9.62713C22.7525 9.38518 23.2331 9.2642 23.8263 9.2642C24.35 9.2642 24.8074 9.37192 25.1985 9.58736C25.5929 9.80279 25.8978 10.1243 26.1133 10.5518C26.332 10.9761 26.4414 11.5064 26.4414 12.1428V17H24.9549V12.3217C24.9549 11.7616 24.8107 11.3274 24.5224 11.0192C24.234 10.7076 23.833 10.5518 23.3192 10.5518C22.9679 10.5518 22.6531 10.6264 22.3746 10.7756C22.0996 10.9247 21.8825 11.1435 21.7234 11.4318C21.5676 11.7169 21.4897 12.0616 21.4897 12.4659ZM31.6417 17.1541C30.9258 17.1541 30.301 16.9901 29.7674 16.6619C29.2338 16.3338 28.8195 15.8748 28.5245 15.2848C28.2295 14.6948 28.082 14.0054 28.082 13.2166C28.082 12.4245 28.2295 11.7318 28.5245 11.1385C28.8195 10.5452 29.2338 10.0845 29.7674 9.75639C30.301 9.42827 30.9258 9.2642 31.6417 9.2642C32.3576 9.2642 32.9824 9.42827 33.516 9.75639C34.0496 10.0845 34.4639 10.5452 34.7589 11.1385C35.0539 11.7318 35.2013 12.4245 35.2013 13.2166C35.2013 14.0054 35.0539 14.6948 34.7589 15.2848C34.4639 15.8748 34.0496 16.3338 33.516 16.6619C32.9824 16.9901 32.3576 17.1541 31.6417 17.1541ZM31.6467 15.9062C32.1107 15.9062 32.4951 15.7836 32.8001 15.5384C33.105 15.2931 33.3304 14.9666 33.4762 14.5589C33.6254 14.1513 33.6999 13.7022 33.6999 13.2116C33.6999 12.7244 33.6254 12.277 33.4762 11.8693C33.3304 11.4583 33.105 11.1286 32.8001 10.88C32.4951 10.6314 32.1107 10.5071 31.6467 10.5071C31.1793 10.5071 30.7915 10.6314 30.4833 10.88C30.1784 11.1286 29.9513 11.4583 29.8022 11.8693C29.6564 12.277 29.5835 12.7244 29.5835 13.2116C29.5835 13.7022 29.6564 14.1513 29.8022 14.5589C29.9513 14.9666 30.1784 15.2931 30.4833 15.5384C30.7915 15.7836 31.1793 15.9062 31.6467 15.9062ZM38.3471 12.4659V17H36.8606V9.36364H38.2875V10.6065H38.3819C38.5576 10.2022 38.8327 9.87737 39.2072 9.6321C39.585 9.38684 40.0607 9.2642 40.6341 9.2642C41.1544 9.2642 41.6101 9.37358 42.0012 9.59233C42.3923 9.80777 42.6956 10.1293 42.911 10.5568C43.1265 10.9844 43.2342 11.513 43.2342 12.1428V17H41.7477V12.3217C41.7477 11.7682 41.6035 11.3357 41.3152 11.0241C41.0268 10.7093 40.6307 10.5518 40.127 10.5518C39.7823 10.5518 39.4757 10.6264 39.2072 10.7756C38.9421 10.9247 38.7316 11.1435 38.5758 11.4318C38.4234 11.7169 38.3471 12.0616 38.3471 12.4659ZM48.519 17.1541C47.7666 17.1541 47.1187 16.9934 46.5751 16.6719C46.0349 16.3471 45.6172 15.8913 45.3223 15.3047C45.0306 14.7147 44.8848 14.0237 44.8848 13.2315C44.8848 12.4493 45.0306 11.7599 45.3223 11.1634C45.6172 10.5668 46.0282 10.1011 46.5552 9.76633C47.0855 9.43158 47.7053 9.2642 48.4146 9.2642C48.8455 9.2642 49.2631 9.33546 49.6674 9.47798C50.0718 9.6205 50.4347 9.84422 50.7562 10.1491C51.0777 10.4541 51.3313 10.8501 51.5169 11.3374C51.7025 11.8213 51.7953 12.4096 51.7953 13.1023V13.6293H45.725V12.5156H50.3386C50.3386 12.1245 50.2591 11.7782 50.1 11.4766C49.9409 11.1716 49.7172 10.9313 49.4288 10.7557C49.1438 10.58 48.809 10.4922 48.4245 10.4922C48.0069 10.4922 47.6423 10.5949 47.3308 10.8004C47.0225 11.0026 46.7839 11.2678 46.6149 11.5959C46.4492 11.9207 46.3663 12.2737 46.3663 12.6548V13.5249C46.3663 14.0353 46.4558 14.4695 46.6348 14.8274C46.8171 15.1854 47.0706 15.4588 47.3954 15.6477C47.7202 15.8333 48.0997 15.9261 48.5339 15.9261C48.8156 15.9261 49.0725 15.8864 49.3045 15.8068C49.5365 15.724 49.737 15.6013 49.9061 15.4389C50.0751 15.2765 50.2044 15.076 50.2939 14.8374L51.7008 15.0909C51.5881 15.5052 51.3859 15.8681 51.0943 16.1797C50.8059 16.4879 50.443 16.7282 50.0055 16.9006C49.5713 17.0696 49.0758 17.1541 48.519 17.1541ZM59.1669 11.228L57.8196 11.4666C57.7633 11.2943 57.6738 11.1302 57.5511 10.9744C57.4318 10.8187 57.2694 10.6911 57.0639 10.5916C56.8584 10.4922 56.6016 10.4425 56.2933 10.4425C55.8724 10.4425 55.5211 10.5369 55.2393 10.7259C54.9576 10.9115 54.8168 11.1518 54.8168 11.4467C54.8168 11.7019 54.9112 11.9074 55.1001 12.0632C55.2891 12.219 55.594 12.3466 56.0149 12.446L57.228 12.7244C57.9306 12.8868 58.4543 13.1371 58.799 13.4751C59.1437 13.8132 59.3161 14.2524 59.3161 14.7926C59.3161 15.25 59.1835 15.6577 58.9183 16.0156C58.6565 16.3703 58.2902 16.6487 57.8196 16.8509C57.3523 17.053 56.8104 17.1541 56.1939 17.1541C55.3388 17.1541 54.6411 16.9718 54.1009 16.6072C53.5606 16.2393 53.2292 15.7173 53.1065 15.0412L54.5433 14.8224C54.6328 15.197 54.8168 15.4804 55.0952 15.6726C55.3736 15.8615 55.7365 15.956 56.1839 15.956C56.6712 15.956 57.0606 15.8549 57.3523 15.6527C57.6439 15.4472 57.7898 15.197 57.7898 14.902C57.7898 14.6634 57.7003 14.4628 57.5213 14.3004C57.3456 14.138 57.0755 14.0154 56.7109 13.9325L55.4183 13.6491C54.7057 13.4867 54.1787 13.2282 53.8374 12.8736C53.4993 12.5189 53.3303 12.0698 53.3303 11.5263C53.3303 11.0755 53.4562 10.6811 53.7081 10.343C53.96 10.005 54.308 9.74148 54.7521 9.55256C55.1963 9.36032 55.705 9.2642 56.2784 9.2642C57.1037 9.2642 57.7533 9.44318 58.2273 9.80114C58.7012 10.1558 59.0144 10.6314 59.1669 11.228Z" fill="#B42318"/>
<rect x="0.5" y="0.5" width="69" height="23" rx="11.5" stroke="#FECDCA"/>
</g>
</svg>
