<svg width="32" height="32" viewBox="0 0 32 32" fill="none" xmlns="http://www.w3.org/2000/svg">
<g id="receipt-check">
<path id="Accent" opacity="0.4" d="M5.33301 10.4C5.33301 8.15979 5.33301 7.03969 5.76898 6.18404C6.15248 5.43139 6.7644 4.81947 7.51705 4.43597C8.37269 4 9.4928 4 11.733 4H20.2663C22.5066 4 23.6267 4 24.4823 4.43597C25.235 4.81947 25.8469 5.43139 26.2304 6.18404C26.6663 7.03969 26.6663 8.15979 26.6663 10.4V28L22.9997 25.3333L19.6663 28L15.9997 25.3333L12.333 28L8.99967 25.3333L5.33301 28V10.4Z" stroke="#0C111D" stroke-width="2" stroke-linecap="round" stroke-linejoin="round"/>
<path id="Icon" d="M12 14.0001L14.6667 16.6667L20.6667 10.6667" stroke="#98A2B3" stroke-width="2" stroke-linecap="round" stroke-linejoin="round"/>
</g>
</svg>
