<svg width="32" height="32" viewBox="0 0 32 32" fill="none" xmlns="http://www.w3.org/2000/svg">
<g id="receipt-check">
<path id="Solid" fill-rule="evenodd" clip-rule="evenodd" d="M11.6783 2.66675H20.3217C21.395 2.66673 22.2809 2.66672 23.0024 2.72568C23.7519 2.78691 24.4408 2.91833 25.088 3.24805C26.0915 3.75937 26.9074 4.57527 27.4187 5.5788C27.7484 6.22592 27.8798 6.91485 27.9411 7.66432C28 8.3859 28 9.27171 28 10.345V28.0001C28 28.5016 27.7186 28.9607 27.2717 29.1882C26.8248 29.4158 26.288 29.3734 25.8824 29.0784L23.0385 27.0101L20.4996 29.0412C20.0305 29.4165 19.3683 29.4318 18.8824 29.0784L16 26.9821L13.1176 29.0784C12.6317 29.4318 11.9695 29.4165 11.5004 29.0412L8.96148 27.0101L6.11756 29.0784C5.71198 29.3734 5.17519 29.4158 4.7283 29.1882C4.2814 28.9607 4 28.5016 4 28.0001V10.345C3.99998 9.27172 3.99997 8.3859 4.05893 7.66432C4.12016 6.91485 4.25158 6.22591 4.5813 5.5788C5.09263 4.57527 5.90852 3.75937 6.91205 3.24805C7.55917 2.91833 8.2481 2.78691 8.99757 2.72568C9.71915 2.66672 10.605 2.66673 11.6783 2.66675ZM21.6095 11.6096C22.1302 11.0889 22.1302 10.2446 21.6095 9.72394C21.0888 9.20324 20.2446 9.20324 19.7239 9.72394L14.6667 14.7811L12.9428 13.0573C12.4221 12.5366 11.5779 12.5366 11.0572 13.0573C10.5365 13.578 10.5365 14.4222 11.0572 14.9429L13.7239 17.6096C14.2446 18.1303 15.0888 18.1303 15.6095 17.6096L21.6095 11.6096Z" fill="#870064"/>
</g>
</svg>
