<svg width="32" height="32" viewBox="0 0 32 32" fill="none" xmlns="http://www.w3.org/2000/svg">
<path d="M15.2172 29.2015C15.7521 29.5 16.3958 29.4835 16.9277 29.1795C20.5107 27.1318 26.737 22.4179 29.1823 16.2948C32.7714 8.3224 24.3442 1.95834 18.5199 6.5356C17.9123 7.01307 17.1484 7.55954 16.6227 8.07719C16.385 8.31124 15.9661 8.33511 15.7194 8.11061C15.0282 7.48177 13.9481 6.67511 13.2543 6.20577C8.28898 2.84639 -0.745633 7.27463 3.10821 16.7255C4.51997 20.9677 11.2475 26.9862 15.2172 29.2015Z" fill="url(#paint0_radial_1907_40575)"/>
<path d="M15.2172 29.2015C15.7521 29.5 16.3958 29.4835 16.9277 29.1795C20.5107 27.1318 26.737 22.4179 29.1823 16.2948C32.7714 8.3224 24.3442 1.95834 18.5199 6.5356C17.9123 7.01307 17.1484 7.55954 16.6227 8.07719C16.385 8.31124 15.9661 8.33511 15.7194 8.11061C15.0282 7.48177 13.9481 6.67511 13.2543 6.20577C8.28898 2.84639 -0.745633 7.27463 3.10821 16.7255C4.51997 20.9677 11.2475 26.9862 15.2172 29.2015Z" fill="url(#paint1_radial_1907_40575)"/>
<path d="M15.2172 29.2015C15.7521 29.5 16.3958 29.4835 16.9277 29.1795C20.5107 27.1318 26.737 22.4179 29.1823 16.2948C32.7714 8.3224 24.3442 1.95834 18.5199 6.5356C17.9123 7.01307 17.1484 7.55954 16.6227 8.07719C16.385 8.31124 15.9661 8.33511 15.7194 8.11061C15.0282 7.48177 13.9481 6.67511 13.2543 6.20577C8.28898 2.84639 -0.745633 7.27463 3.10821 16.7255C4.51997 20.9677 11.2475 26.9862 15.2172 29.2015Z" fill="url(#paint2_radial_1907_40575)"/>
<path d="M15.2172 29.2015C15.7521 29.5 16.3958 29.4835 16.9277 29.1795C20.5107 27.1318 26.737 22.4179 29.1823 16.2948C32.7714 8.3224 24.3442 1.95834 18.5199 6.5356C17.9123 7.01307 17.1484 7.55954 16.6227 8.07719C16.385 8.31124 15.9661 8.33511 15.7194 8.11061C15.0282 7.48177 13.9481 6.67511 13.2543 6.20577C8.28898 2.84639 -0.745633 7.27463 3.10821 16.7255C4.51997 20.9677 11.2475 26.9862 15.2172 29.2015Z" fill="url(#paint3_radial_1907_40575)"/>
<path d="M15.2172 29.2015C15.7521 29.5 16.3958 29.4835 16.9277 29.1795C20.5107 27.1318 26.737 22.4179 29.1823 16.2948C32.7714 8.3224 24.3442 1.95834 18.5199 6.5356C17.9123 7.01307 17.1484 7.55954 16.6227 8.07719C16.385 8.31124 15.9661 8.33511 15.7194 8.11061C15.0282 7.48177 13.9481 6.67511 13.2543 6.20577C8.28898 2.84639 -0.745633 7.27463 3.10821 16.7255C4.51997 20.9677 11.2475 26.9862 15.2172 29.2015Z" fill="url(#paint4_linear_1907_40575)"/>
<path d="M15.2172 29.2015C15.7521 29.5 16.3958 29.4835 16.9277 29.1795C20.5107 27.1318 26.737 22.4179 29.1823 16.2948C32.7714 8.3224 24.3442 1.95834 18.5199 6.5356C17.9123 7.01307 17.1484 7.55954 16.6227 8.07719C16.385 8.31124 15.9661 8.33511 15.7194 8.11061C15.0282 7.48177 13.9481 6.67511 13.2543 6.20577C8.28898 2.84639 -0.745633 7.27463 3.10821 16.7255C4.51997 20.9677 11.2475 26.9862 15.2172 29.2015Z" fill="url(#paint5_linear_1907_40575)"/>
<path d="M15.2172 29.2015C15.7521 29.5 16.3958 29.4835 16.9277 29.1795C20.5107 27.1318 26.737 22.4179 29.1823 16.2948C32.7714 8.3224 24.3442 1.95834 18.5199 6.5356C17.9123 7.01307 17.1484 7.55954 16.6227 8.07719C16.385 8.31124 15.9661 8.33511 15.7194 8.11061C15.0282 7.48177 13.9481 6.67511 13.2543 6.20577C8.28898 2.84639 -0.745633 7.27463 3.10821 16.7255C4.51997 20.9677 11.2475 26.9862 15.2172 29.2015Z" fill="url(#paint6_radial_1907_40575)" fill-opacity="0.6"/>
<g filter="url(#filter0_f_1907_40575)">
<path d="M15.9082 10.5407V17.3634C15.9082 18.2682 17.0038 18.6971 17.5679 17.9896C19.313 15.8006 20.7206 13.1388 19.1498 10.9645C18.5475 10.1309 17.3938 9.59683 16.451 9.76674C16.0983 9.8303 15.9082 10.1823 15.9082 10.5407Z" fill="#FA1C56"/>
</g>
<g filter="url(#filter1_f_1907_40575)">
<ellipse cx="24.6631" cy="11.3771" rx="4.46173" ry="3.70012" transform="rotate(-44.1901 24.6631 11.3771)" fill="url(#paint7_radial_1907_40575)"/>
</g>
<g filter="url(#filter2_f_1907_40575)">
<ellipse cx="23.4602" cy="6.06678" rx="1.69254" ry="0.355636" transform="rotate(7.16522 23.4602 6.06678)" fill="#FF7383"/>
</g>
<g filter="url(#filter3_f_1907_40575)">
<ellipse cx="9.38876" cy="6.05342" rx="1.51865" ry="0.249413" transform="rotate(-0.697201 9.38876 6.05342)" fill="#FF93BA" fill-opacity="0.5"/>
</g>
<g filter="url(#filter4_f_1907_40575)">
<path d="M14.845 9.96187L15.1575 20.2119C8.28253 13.5244 6.96052 8.82813 9.59497 7.77437C12.095 6.77437 14.095 8.39937 14.845 9.96187Z" fill="url(#paint8_radial_1907_40575)"/>
</g>
<g filter="url(#filter5_f_1907_40575)">
<path d="M14.3452 9.36191C13.5052 9.24191 13.2452 8.54525 13.2202 8.21191C13.7002 8.71191 14.1702 8.75358 14.3452 8.71191V9.36191Z" fill="#FF7383"/>
</g>
<defs>
<filter id="filter0_f_1907_40575" x="13.9082" y="7.73523" width="7.92236" height="12.608" filterUnits="userSpaceOnUse" color-interpolation-filters="sRGB">
<feFlood flood-opacity="0" result="BackgroundImageFix"/>
<feBlend mode="normal" in="SourceGraphic" in2="BackgroundImageFix" result="shape"/>
<feGaussianBlur stdDeviation="1" result="effect1_foregroundBlur_1907_40575"/>
</filter>
<filter id="filter1_f_1907_40575" x="19.0537" y="5.78906" width="11.2188" height="11.176" filterUnits="userSpaceOnUse" color-interpolation-filters="sRGB">
<feFlood flood-opacity="0" result="BackgroundImageFix"/>
<feBlend mode="normal" in="SourceGraphic" in2="BackgroundImageFix" result="shape"/>
<feGaussianBlur stdDeviation="0.75" result="effect1_foregroundBlur_1907_40575"/>
</filter>
<filter id="filter2_f_1907_40575" x="19.7803" y="3.65552" width="7.35986" height="4.82251" filterUnits="userSpaceOnUse" color-interpolation-filters="sRGB">
<feFlood flood-opacity="0" result="BackgroundImageFix"/>
<feBlend mode="normal" in="SourceGraphic" in2="BackgroundImageFix" result="shape"/>
<feGaussianBlur stdDeviation="1" result="effect1_foregroundBlur_1907_40575"/>
</filter>
<filter id="filter3_f_1907_40575" x="6.37012" y="4.30334" width="6.03711" height="3.50018" filterUnits="userSpaceOnUse" color-interpolation-filters="sRGB">
<feFlood flood-opacity="0" result="BackgroundImageFix"/>
<feBlend mode="normal" in="SourceGraphic" in2="BackgroundImageFix" result="shape"/>
<feGaussianBlur stdDeviation="0.75" result="effect1_foregroundBlur_1907_40575"/>
</filter>
<filter id="filter4_f_1907_40575" x="5.33301" y="4.46667" width="12.8247" height="18.7452" filterUnits="userSpaceOnUse" color-interpolation-filters="sRGB">
<feFlood flood-opacity="0" result="BackgroundImageFix"/>
<feBlend mode="normal" in="SourceGraphic" in2="BackgroundImageFix" result="shape"/>
<feGaussianBlur stdDeviation="1.5" result="effect1_foregroundBlur_1907_40575"/>
</filter>
<filter id="filter5_f_1907_40575" x="12.2202" y="7.21191" width="3.125" height="3.14999" filterUnits="userSpaceOnUse" color-interpolation-filters="sRGB">
<feFlood flood-opacity="0" result="BackgroundImageFix"/>
<feBlend mode="normal" in="SourceGraphic" in2="BackgroundImageFix" result="shape"/>
<feGaussianBlur stdDeviation="0.5" result="effect1_foregroundBlur_1907_40575"/>
</filter>
<radialGradient id="paint0_radial_1907_40575" cx="0" cy="0" r="1" gradientUnits="userSpaceOnUse" gradientTransform="translate(15.8829 5.63363) rotate(90) scale(22.9845 24.4021)">
<stop stop-color="#FC0000"/>
<stop offset="0.527969" stop-color="#FF3B79"/>
<stop offset="1" stop-color="#F724B3"/>
</radialGradient>
<radialGradient id="paint1_radial_1907_40575" cx="0" cy="0" r="1" gradientUnits="userSpaceOnUse" gradientTransform="translate(23.025 11.3631) rotate(134.402) scale(21.2647 39.8308)">
<stop offset="0.797874" stop-color="#C82092" stop-opacity="0"/>
<stop offset="0.908039" stop-color="#C82092"/>
</radialGradient>
<radialGradient id="paint2_radial_1907_40575" cx="0" cy="0" r="1" gradientUnits="userSpaceOnUse" gradientTransform="translate(19.9969 17.7886) rotate(-158.663) scale(22.749 32.159)">
<stop offset="0.40984" stop-color="#B91D43" stop-opacity="0"/>
<stop offset="0.833898" stop-color="#B91D43"/>
</radialGradient>
<radialGradient id="paint3_radial_1907_40575" cx="0" cy="0" r="1" gradientUnits="userSpaceOnUse" gradientTransform="translate(15.5603 13.8155) rotate(90) scale(19.7992)">
<stop offset="0.671096" stop-color="#FF7AF2" stop-opacity="0"/>
<stop offset="0.933555" stop-color="#FFBCE6"/>
</radialGradient>
<linearGradient id="paint4_linear_1907_40575" x1="17.7455" y1="16.1331" x2="25.7578" y2="25.6685" gradientUnits="userSpaceOnUse">
<stop offset="0.694491" stop-color="#FF7AF2" stop-opacity="0"/>
<stop offset="0.933555" stop-color="#FFBCE6"/>
</linearGradient>
<linearGradient id="paint5_linear_1907_40575" x1="16.7522" y1="16.5304" x2="7.34924" y2="27.1253" gradientUnits="userSpaceOnUse">
<stop offset="0.694491" stop-color="#FF7AF2" stop-opacity="0"/>
<stop offset="0.933555" stop-color="#FFBCE6"/>
</linearGradient>
<radialGradient id="paint6_radial_1907_40575" cx="0" cy="0" r="1" gradientUnits="userSpaceOnUse" gradientTransform="translate(18.3472 12.8957) rotate(164.618) scale(17.2146 18.1802)">
<stop offset="0.802083" stop-color="#FF73A6" stop-opacity="0"/>
<stop offset="1" stop-color="#FF93BA"/>
</radialGradient>
<radialGradient id="paint7_radial_1907_40575" cx="0" cy="0" r="1" gradientUnits="userSpaceOnUse" gradientTransform="translate(29.1198 11.2517) rotate(172.927) scale(7.29137 9.69562)">
<stop stop-color="#FF7383"/>
<stop offset="1" stop-color="#FF7383" stop-opacity="0"/>
</radialGradient>
<radialGradient id="paint8_radial_1907_40575" cx="0" cy="0" r="1" gradientUnits="userSpaceOnUse" gradientTransform="translate(16.345 13.8393) rotate(-135.591) scale(12.6861 22.52)">
<stop stop-color="#FF6274"/>
<stop offset="1" stop-color="#FF6274" stop-opacity="0"/>
</radialGradient>
</defs>
</svg>
