<svg width="48" height="48" viewBox="0 0 48 48" fill="none" xmlns="http://www.w3.org/2000/svg">
<path fill-rule="evenodd" clip-rule="evenodd" d="M12.5869 8.13397C12.2244 8.08719 11.9043 8.1714 11.663 8.39265C10.6997 9.2761 9.57703 10.4144 8.74331 11.2598C8.49052 11.5161 8.26429 11.7455 8.07712 11.9326C7.5168 12.493 7.51192 12.9138 7.5812 13.1916C7.66812 13.5402 7.92478 13.8438 8.10767 14.0084L8.11631 14.0161L10.4161 16.2181C10.7153 16.5046 10.7256 16.9793 10.4391 17.2785C10.1527 17.5777 9.6779 17.588 9.37872 17.3016L7.09514 15.1151C6.80775 14.8544 6.31396 14.3093 6.12576 13.5545C5.91787 12.7208 6.11778 11.7707 7.01643 10.872C7.19154 10.6969 7.40814 10.4772 7.65345 10.2285C8.48787 9.38235 9.65437 8.19945 10.6492 7.28713C11.2784 6.71012 12.0686 6.55465 12.7789 6.6463C13.4779 6.73651 14.1475 7.06861 14.6251 7.54213C14.9806 7.89465 15.3919 8.29096 15.7912 8.6752L15.8543 8.73594C16.2288 9.0963 16.5905 9.44445 16.873 9.72447C17.1671 10.0161 17.1691 10.491 16.8775 10.7851C16.5859 11.0793 16.111 11.0813 15.8168 10.7896C15.5427 10.5178 15.1884 10.1769 14.8101 9.81283L14.751 9.75599C14.3531 9.37303 13.9338 8.969 13.569 8.60731C13.3263 8.36664 12.9607 8.1822 12.5869 8.13397Z" fill="#5F4982"/>
<path fill-rule="evenodd" clip-rule="evenodd" d="M12.5869 8.13397C12.2244 8.08719 11.9043 8.1714 11.663 8.39265C10.6997 9.2761 9.57703 10.4144 8.74331 11.2598C8.49052 11.5161 8.26429 11.7455 8.07712 11.9326C7.5168 12.493 7.51192 12.9138 7.5812 13.1916C7.66812 13.5402 7.92478 13.8438 8.10767 14.0084L8.11631 14.0161L10.4161 16.2181C10.7153 16.5046 10.7256 16.9793 10.4391 17.2785C10.1527 17.5777 9.6779 17.588 9.37872 17.3016L7.09514 15.1151C6.80775 14.8544 6.31396 14.3093 6.12576 13.5545C5.91787 12.7208 6.11778 11.7707 7.01643 10.872C7.19154 10.6969 7.40814 10.4772 7.65345 10.2285C8.48787 9.38235 9.65437 8.19945 10.6492 7.28713C11.2784 6.71012 12.0686 6.55465 12.7789 6.6463C13.4779 6.73651 14.1475 7.06861 14.6251 7.54213C14.9806 7.89465 15.3919 8.29096 15.7912 8.6752L15.8543 8.73594C16.2288 9.0963 16.5905 9.44445 16.873 9.72447C17.1671 10.0161 17.1691 10.491 16.8775 10.7851C16.5859 11.0793 16.111 11.0813 15.8168 10.7896C15.5427 10.5178 15.1884 10.1769 14.8101 9.81283L14.751 9.75599C14.3531 9.37303 13.9338 8.969 13.569 8.60731C13.3263 8.36664 12.9607 8.1822 12.5869 8.13397Z" fill="url(#paint0_radial_2316_55766)"/>
<g filter="url(#filter0_f_2316_55766)">
<path d="M8.25003 14.7891C8.25003 14.7891 8.47271 15.0236 7.53517 14.0743C6.59763 13.1251 7.06093 12.3019 7.53518 11.7306C8.05081 11.1095 10.1641 9.09773 11.3672 7.91023C11.7389 7.54335 12.821 6.83938 13.9453 7.78133C14.5957 8.32623 14.9394 8.69736 15.2519 8.99424" stroke="url(#paint1_linear_2316_55766)" stroke-width="0.25" stroke-linecap="round"/>
</g>
<path fill-rule="evenodd" clip-rule="evenodd" d="M38.5522 37.0416C38.805 36.7853 39.0313 36.5559 39.2184 36.3687C39.7787 35.8084 39.7836 35.3876 39.7144 35.1097C39.6274 34.7611 39.3708 34.4576 39.1879 34.293L39.1792 34.2852L36.8795 32.0832C36.5803 31.7968 36.57 31.322 36.8564 31.0228C37.1429 30.7236 37.6176 30.7133 37.9168 30.9998L40.2004 33.1862C40.4878 33.4469 40.9816 33.992 41.1698 34.7468C41.3777 35.5806 41.1778 36.5307 40.2791 37.4293C40.104 37.6045 39.8874 37.8241 39.6421 38.0729C38.8077 38.919 37.6412 40.1019 36.6463 41.0142C36.0171 41.5912 35.2269 41.7467 34.5167 41.6551C33.8177 41.5649 33.148 41.2327 32.6704 40.7592C32.3149 40.4067 31.9036 40.0104 31.5044 39.6262L31.4413 39.5655C31.0668 39.2051 30.705 38.8569 30.4226 38.5769C30.1284 38.2853 30.1264 37.8104 30.4181 37.5162C30.7097 37.2221 31.1846 37.2201 31.4787 37.5117C31.7528 37.7835 32.107 38.1244 32.4853 38.4884L32.5445 38.5454C32.9424 38.9283 33.3618 39.3324 33.7266 39.694C33.9693 39.9347 34.3349 40.1192 34.7086 40.1674C35.0712 40.2142 35.3912 40.13 35.6325 39.9087C36.5959 39.0253 37.7185 37.887 38.5522 37.0416Z" fill="#513D75"/>
<g filter="url(#filter1_f_2316_55766)">
<path d="M38.6954 32.3905C38.6954 32.3905 39.152 32.7911 40.0895 33.7403C41.0271 34.6895 40.6579 35.6417 40.1836 36.2129C39.668 36.834 37.5547 38.8458 36.3516 40.0333C35.9799 40.4002 34.8037 40.9753 33.6794 40.0333C33.029 39.4884 32.6853 39.1173 32.3728 38.8204" stroke="url(#paint2_linear_2316_55766)" stroke-width="0.25" stroke-linecap="round"/>
</g>
<circle cx="24.0742" cy="23.6445" r="17.2305" fill="url(#paint3_linear_2316_55766)"/>
<g filter="url(#filter2_f_2316_55766)">
<circle cx="24.0742" cy="23.6445" r="16.4258" fill="url(#paint4_linear_2316_55766)"/>
<circle cx="24.0742" cy="23.6445" r="16.4258" fill="url(#paint5_radial_2316_55766)"/>
</g>
<circle cx="24.0742" cy="23.6445" r="13.4258" fill="url(#paint6_radial_2316_55766)"/>
<circle cx="24.0742" cy="23.6445" r="13.4258" fill="url(#paint7_radial_2316_55766)"/>
<g filter="url(#filter3_f_2316_55766)">
<path d="M23.5347 33.9844C24.6809 33.9844 25.8336 34.6518 26.8862 34.3243C27.9623 33.9734 28.5755 32.6238 29.4878 31.9688C30.4001 31.3138 31.6805 31.1584 32.3472 30.2578C33.1714 29.1444 32.8911 27.5777 33.242 26.5017C33.5812 25.4608 34.5854 24.7243 34.5854 23.5547C34.5854 22.4085 33.4598 21.1333 33.1206 20.0924C32.7697 19.0163 33.1741 17.9016 32.4995 16.9571C31.7283 15.8774 30.3766 15.7487 29.4644 15.0937C28.5755 14.4388 28.1356 13.2086 26.8276 12.7824C25.5197 12.3562 24.5168 13.0782 23.3472 13.0782C22.201 13.0782 21.4227 12.3078 19.9671 12.7824C18.8911 13.1333 18.1891 14.4388 17.2769 15.0937C16.3646 15.7487 15.1016 15.8935 14.435 16.7941C13.6675 17.8309 14.0184 19.1271 13.6675 20.2031C13.3283 21.2441 12.2378 22.3734 12.2378 23.543C12.2378 24.6892 13.2069 25.6309 13.5461 26.6719C13.897 27.7479 13.5461 29.1446 14.4878 30.2812C15.1428 31.1935 16.3646 31.22 17.2769 31.875C18.1657 32.53 18.8727 33.9734 19.9487 34.3243C21.0131 34.6635 22.3885 33.9844 23.5347 33.9844Z" fill="#393138"/>
</g>
<path d="M24.1406 33.9844C25.2868 33.9844 26.4396 34.6518 27.4922 34.3243C28.5682 33.9734 29.1815 32.6238 30.0938 31.9688C31.006 31.3138 32.2865 31.1584 32.9531 30.2578C33.7773 29.1444 33.4971 27.5777 33.8479 26.5017C34.1871 25.4608 35.1914 24.7243 35.1914 23.5547C35.1914 22.4085 34.0657 21.1333 33.7266 20.0924C33.3757 19.0163 33.7801 17.9016 33.1055 16.9571C32.3342 15.8774 30.9826 15.7487 30.0703 15.0937C29.1814 14.4388 28.7415 13.2086 27.4336 12.7824C26.1257 12.3562 25.1227 13.0782 23.9531 13.0782C22.8069 13.0782 22.0287 12.3078 20.5731 12.7824C19.4971 13.1333 18.7951 14.4388 17.8828 15.0937C16.9705 15.7487 15.7076 15.8935 15.0409 16.7941C14.2734 17.8309 14.6243 19.1271 14.2734 20.2031C13.9343 21.2441 12.8438 22.3734 12.8438 23.543C12.8438 24.6892 13.8129 25.6309 14.152 26.6719C14.5029 27.7479 14.152 29.1446 15.0938 30.2812C15.7487 31.1935 16.9705 31.22 17.8828 31.875C18.7717 32.53 19.4787 33.9734 20.5547 34.3243C21.619 34.6635 22.9944 33.9844 24.1406 33.9844Z" fill="url(#paint8_linear_2316_55766)"/>
<g filter="url(#filter4_f_2316_55766)">
<path d="M24.1339 33.417C25.218 33.417 26.3082 34.0482 27.3037 33.7385C28.3214 33.4066 28.9014 32.1302 29.7642 31.5108C30.627 30.8913 31.838 30.7443 32.4685 29.8925C33.248 28.8395 32.983 27.3578 33.3148 26.3401C33.6356 25.3557 34.5854 24.6592 34.5854 23.553C34.5854 22.469 33.5208 21.2629 33.2 20.2784C32.8682 19.2607 33.2506 18.2064 32.6126 17.3131C31.8832 16.292 30.6049 16.1703 29.7421 15.5508C28.9014 14.9314 28.4853 13.7679 27.2483 13.3649C26.0113 12.9618 25.0628 13.6446 23.9566 13.6446C22.8726 13.6446 22.1365 12.916 20.7599 13.3649C19.7422 13.6967 19.0783 14.9314 18.2155 15.5508C17.3527 16.1703 16.1582 16.3072 15.5277 17.159C14.8019 18.1396 15.1337 19.3655 14.8019 20.3831C14.4811 21.3676 13.4497 22.4357 13.4497 23.5419C13.4497 24.626 14.3663 25.5166 14.687 26.5011C15.0189 27.5187 14.687 28.8397 15.5777 29.9147C16.1971 30.7775 17.3527 30.8026 18.2155 31.422C19.0562 32.0415 19.7248 33.4066 20.7425 33.7385C21.7491 34.0593 23.0499 33.417 24.1339 33.417Z" fill="url(#paint9_linear_2316_55766)"/>
</g>
<g filter="url(#filter5_f_2316_55766)">
<path d="M25.3659 18.6489C25.7974 19.0804 26.4971 19.0804 26.9287 18.6489C27.3602 18.2173 27.3602 17.5177 26.9287 17.0861C26.4971 16.6546 25.7974 16.6546 25.3659 17.0861C24.9343 17.5177 24.9344 18.2173 25.3659 18.6489Z" fill="#B36D31"/>
</g>
<g filter="url(#filter6_f_2316_55766)">
<path d="M15.3237 26.5007C15.7552 26.9322 16.4549 26.9322 16.8864 26.5007C17.318 26.0691 17.318 25.3695 16.8864 24.9379C16.4549 24.5064 15.7552 24.5064 15.3237 24.9379C14.8921 25.3695 14.8921 26.0691 15.3237 26.5007Z" fill="#B36D31"/>
</g>
<g filter="url(#filter7_f_2316_55766)">
<path d="M27.2699 30.9145C27.7015 31.346 28.4012 31.346 28.8327 30.9145C29.2643 30.483 29.2643 29.7833 28.8327 29.3517C28.4012 28.9202 27.7015 28.9202 27.2699 29.3517C26.8384 29.7833 26.8384 30.483 27.2699 30.9145Z" fill="#B36D31"/>
</g>
<path d="M25.7065 18.4733C26.138 18.9049 26.8377 18.9049 27.2692 18.4733C27.7008 18.0418 27.7008 17.3421 27.2692 16.9106C26.8377 16.479 26.138 16.479 25.7065 16.9106C25.2749 17.3421 25.2749 18.0418 25.7065 18.4733Z" fill="#C9433E"/>
<path d="M25.7065 18.4733C26.138 18.9049 26.8377 18.9049 27.2692 18.4733C27.7008 18.0418 27.7008 17.3421 27.2692 16.9106C26.8377 16.479 26.138 16.479 25.7065 16.9106C25.2749 17.3421 25.2749 18.0418 25.7065 18.4733Z" fill="url(#paint10_radial_2316_55766)"/>
<path d="M27.5759 30.7311C28.0074 31.1627 28.7071 31.1627 29.1386 30.7311C29.5702 30.2996 29.5702 29.5999 29.1386 29.1684C28.7071 28.7368 28.0074 28.7368 27.5759 29.1684C27.1443 29.5999 27.1443 30.2996 27.5759 30.7311Z" fill="#C9433E"/>
<path d="M27.5759 30.7311C28.0074 31.1627 28.7071 31.1627 29.1386 30.7311C29.5702 30.2996 29.5702 29.5999 29.1386 29.1684C28.7071 28.7368 28.0074 28.7368 27.5759 29.1684C27.1443 29.5999 27.1443 30.2996 27.5759 30.7311Z" fill="url(#paint11_radial_2316_55766)"/>
<path d="M15.5993 26.372C16.0308 26.8036 16.7305 26.8036 17.1621 26.372C17.5936 25.9405 17.5936 25.2408 17.1621 24.8093C16.7305 24.3777 16.0308 24.3777 15.5993 24.8093C15.1677 25.2408 15.1677 25.9405 15.5993 26.372Z" fill="#C9433E"/>
<path d="M15.5993 26.372C16.0308 26.8036 16.7305 26.8036 17.1621 26.372C17.5936 25.9405 17.5936 25.2408 17.1621 24.8093C16.7305 24.3777 16.0308 24.3777 15.5993 24.8093C15.1677 25.2408 15.1677 25.9405 15.5993 26.372Z" fill="url(#paint12_radial_2316_55766)"/>
<g filter="url(#filter8_f_2316_55766)">
<path d="M28.7622 21.2184C29.3106 21.2744 29.7097 21.7644 29.6537 22.3128L29.2673 26.0953C29.2113 26.6437 28.5455 27.0815 27.9971 27.0255C27.4488 26.9695 27.0496 26.4795 27.1056 25.9311L27.492 22.1486C27.5481 21.6002 28.2138 21.1624 28.7622 21.2184Z" fill="#9D7B30"/>
</g>
<path d="M29.0145 21.066C29.5629 21.122 29.9621 21.6119 29.906 22.1603L29.5196 25.9429C29.4636 26.4913 28.9737 26.8904 28.4253 26.8344C27.8769 26.7784 27.4777 26.2884 27.5338 25.74L27.9202 21.9575C27.9762 21.4091 28.4661 21.0099 29.0145 21.066Z" fill="url(#paint13_linear_2316_55766)"/>
<path d="M29.0145 21.066C29.5629 21.122 29.9621 21.6119 29.906 22.1603L29.5196 25.9429C29.4636 26.4913 28.9737 26.8904 28.4253 26.8344C27.8769 26.7784 27.4777 26.2884 27.5338 25.74L27.9202 21.9575C27.9762 21.4091 28.4661 21.0099 29.0145 21.066Z" fill="url(#paint14_radial_2316_55766)"/>
<g filter="url(#filter9_f_2316_55766)">
<path d="M22.8408 18.0271C23.0205 18.5577 22.7362 19.1335 22.2057 19.3133L18.5462 20.5533C18.0157 20.733 17.4398 20.4487 17.2601 19.9181C17.0803 19.3876 17.3646 18.8118 17.8952 18.632L21.5546 17.392C22.0852 17.2122 22.661 17.4966 22.8408 18.0271Z" fill="url(#paint15_linear_2316_55766)"/>
</g>
<g filter="url(#filter10_f_2316_55766)">
<path d="M22.8765 18.0908C23.0563 18.6213 22.7368 19.1269 22.2063 19.3067L17.4259 20.8828C16.8954 21.0626 16.3546 20.8484 16.1748 20.3179C15.9951 19.7874 16.2794 19.2115 16.81 19.0318L21.5903 17.4557C22.1209 17.2759 22.6967 17.5602 22.8765 18.0908Z" fill="url(#paint16_linear_2316_55766)"/>
</g>
<g filter="url(#filter11_f_2316_55766)">
<path d="M22.8764 17.9676C23.0561 18.4982 22.8111 18.8655 22.2805 19.0452L18.6211 20.2852C18.0905 20.465 17.4063 20.4407 17.2265 19.9102C17.0467 19.3796 17.4662 18.9863 17.9968 18.8065L21.6562 17.5665C22.1868 17.3867 22.6966 17.4371 22.8764 17.9676Z" fill="#A27932"/>
</g>
<path d="M23.258 17.8516C23.4378 18.3821 23.1534 18.958 22.6229 19.1377L18.9634 20.3777C18.4329 20.5575 17.8571 20.2731 17.6773 19.7426C17.4975 19.212 17.7819 18.6362 18.3124 18.4565L21.9719 17.2165C22.5024 17.0367 23.0782 17.321 23.258 17.8516Z" fill="url(#paint17_linear_2316_55766)"/>
<path d="M23.258 17.8516C23.4378 18.3821 23.1534 18.958 22.6229 19.1377L18.9634 20.3777C18.4329 20.5575 17.8571 20.2731 17.6773 19.7426C17.4975 19.212 17.7819 18.6362 18.3124 18.4565L21.9719 17.2165C22.5024 17.0367 23.0782 17.321 23.258 17.8516Z" fill="url(#paint18_radial_2316_55766)"/>
<path d="M23.258 17.8516C23.4378 18.3821 23.1534 18.958 22.6229 19.1377L18.9634 20.3777C18.4329 20.5575 17.8571 20.2731 17.6773 19.7426C17.4975 19.212 17.7819 18.6362 18.3124 18.4565L21.9719 17.2165C22.5024 17.0367 23.0782 17.321 23.258 17.8516Z" fill="url(#paint19_radial_2316_55766)"/>
<g filter="url(#filter12_f_2316_55766)">
<path d="M22.5526 18.0668L18.7067 19.3629" stroke="url(#paint20_linear_2316_55766)" stroke-width="0.25" stroke-linecap="round"/>
</g>
<g filter="url(#filter13_f_2316_55766)">
<path d="M23.7029 30.8035C23.3049 31.1976 22.6627 31.1945 22.2685 30.7964L19.5499 28.0508C19.1558 27.6528 19.1589 27.0106 19.557 26.6164C19.955 26.2223 20.5972 26.2255 20.9914 26.6235L23.71 29.3691C24.1042 29.7671 24.101 30.4093 23.7029 30.8035Z" fill="#A07A34"/>
</g>
<path d="M24.1219 30.5415C23.7238 30.9357 23.0816 30.9325 22.6875 30.5344L19.9689 27.7889C19.5747 27.3908 19.5779 26.7486 19.9759 26.3545C20.374 25.9603 21.0162 25.9635 21.4103 26.3615L24.129 29.1071C24.5231 29.5052 24.5199 30.1474 24.1219 30.5415Z" fill="url(#paint21_linear_2316_55766)"/>
<path d="M24.1219 30.5415C23.7238 30.9357 23.0816 30.9325 22.6875 30.5344L19.9689 27.7889C19.5747 27.3908 19.5779 26.7486 19.9759 26.3545C20.374 25.9603 21.0162 25.9635 21.4103 26.3615L24.129 29.1071C24.5231 29.5052 24.5199 30.1474 24.1219 30.5415Z" fill="url(#paint22_radial_2316_55766)"/>
<g filter="url(#filter14_f_2316_55766)">
<path d="M29.3906 21.9375L28.9219 25.9688" stroke="url(#paint23_linear_2316_55766)" stroke-width="0.25" stroke-linecap="round"/>
</g>
<g filter="url(#filter15_f_2316_55766)">
<path d="M22.3595 18.0938L18.3517 19.4533" stroke="url(#paint24_linear_2316_55766)" stroke-width="0.25" stroke-linecap="round"/>
</g>
<g filter="url(#filter16_f_2316_55766)">
<path d="M20.8725 26.6956L23.7894 29.5173" stroke="url(#paint25_linear_2316_55766)" stroke-width="0.25" stroke-linecap="round"/>
</g>
<g filter="url(#filter17_f_2316_55766)">
<path d="M17.5958 19.6836C17.4397 19.2141 18.1816 18.4629 18.1816 18.4629C18.041 19.5879 18.8964 20.4141 18.8964 20.4141C18.6594 20.4801 17.7519 20.1532 17.5958 19.6836Z" fill="url(#paint26_linear_2316_55766)"/>
</g>
<g filter="url(#filter18_f_2316_55766)">
<path d="M19.9439 26.3706C20.2868 26.0137 21.297 26.3204 21.297 26.3204C19.7226 26.5196 19.9033 27.8617 19.9033 27.8617C19.7345 27.6828 19.6011 26.7274 19.9439 26.3706Z" fill="url(#paint27_linear_2316_55766)"/>
</g>
<g filter="url(#filter19_f_2316_55766)">
<path d="M28.3731 26.7998C27.881 26.7483 27.5027 25.7626 27.5027 25.7626C28.6266 26.883 29.575 25.9163 29.575 25.9163C29.5374 26.1594 28.8653 26.8513 28.3731 26.7998Z" fill="url(#paint28_linear_2316_55766)"/>
</g>
<g filter="url(#filter20_f_2316_55766)">
<path d="M27.6094 13.5C28.4297 13.875 28.6172 14.8359 29.5078 15.5156C30.3777 16.1795 31.6854 16.3232 32.3203 17.1094C32.8125 17.7188 33.0469 18.3532 33.0469 20.3906C33.0469 21.3047 33.8672 22.0781 34.4062 22.6875" stroke="url(#paint29_linear_2316_55766)" stroke-width="0.25" stroke-linecap="round"/>
</g>
<defs>
<filter id="filter0_f_2316_55766" x="6.61719" y="6.93628" width="9.00977" height="8.25342" filterUnits="userSpaceOnUse" color-interpolation-filters="sRGB">
<feFlood flood-opacity="0" result="BackgroundImageFix"/>
<feBlend mode="normal" in="SourceGraphic" in2="BackgroundImageFix" result="shape"/>
<feGaussianBlur stdDeviation="0.125" result="effect1_foregroundBlur_2316_55766"/>
</filter>
<filter id="filter1_f_2316_55766" x="31.9978" y="32.0154" width="9.0481" height="8.90552" filterUnits="userSpaceOnUse" color-interpolation-filters="sRGB">
<feFlood flood-opacity="0" result="BackgroundImageFix"/>
<feBlend mode="normal" in="SourceGraphic" in2="BackgroundImageFix" result="shape"/>
<feGaussianBlur stdDeviation="0.125" result="effect1_foregroundBlur_2316_55766"/>
</filter>
<filter id="filter2_f_2316_55766" x="7.14844" y="6.71875" width="33.8516" height="33.8516" filterUnits="userSpaceOnUse" color-interpolation-filters="sRGB">
<feFlood flood-opacity="0" result="BackgroundImageFix"/>
<feBlend mode="normal" in="SourceGraphic" in2="BackgroundImageFix" result="shape"/>
<feGaussianBlur stdDeviation="0.25" result="effect1_foregroundBlur_2316_55766"/>
</filter>
<filter id="filter3_f_2316_55766" x="11.7378" y="12.1279" width="23.3477" height="22.7913" filterUnits="userSpaceOnUse" color-interpolation-filters="sRGB">
<feFlood flood-opacity="0" result="BackgroundImageFix"/>
<feBlend mode="normal" in="SourceGraphic" in2="BackgroundImageFix" result="shape"/>
<feGaussianBlur stdDeviation="0.25" result="effect1_foregroundBlur_2316_55766"/>
</filter>
<filter id="filter4_f_2316_55766" x="13.1997" y="12.9688" width="21.6357" height="21.1094" filterUnits="userSpaceOnUse" color-interpolation-filters="sRGB">
<feFlood flood-opacity="0" result="BackgroundImageFix"/>
<feBlend mode="normal" in="SourceGraphic" in2="BackgroundImageFix" result="shape"/>
<feGaussianBlur stdDeviation="0.125" result="effect1_foregroundBlur_2316_55766"/>
</filter>
<filter id="filter5_f_2316_55766" x="24.7922" y="16.5125" width="2.70996" height="2.70996" filterUnits="userSpaceOnUse" color-interpolation-filters="sRGB">
<feFlood flood-opacity="0" result="BackgroundImageFix"/>
<feBlend mode="normal" in="SourceGraphic" in2="BackgroundImageFix" result="shape"/>
<feGaussianBlur stdDeviation="0.125" result="effect1_foregroundBlur_2316_55766"/>
</filter>
<filter id="filter6_f_2316_55766" x="14.75" y="24.3643" width="2.70996" height="2.70996" filterUnits="userSpaceOnUse" color-interpolation-filters="sRGB">
<feFlood flood-opacity="0" result="BackgroundImageFix"/>
<feBlend mode="normal" in="SourceGraphic" in2="BackgroundImageFix" result="shape"/>
<feGaussianBlur stdDeviation="0.125" result="effect1_foregroundBlur_2316_55766"/>
</filter>
<filter id="filter7_f_2316_55766" x="26.6963" y="28.7781" width="2.70996" height="2.70996" filterUnits="userSpaceOnUse" color-interpolation-filters="sRGB">
<feFlood flood-opacity="0" result="BackgroundImageFix"/>
<feBlend mode="normal" in="SourceGraphic" in2="BackgroundImageFix" result="shape"/>
<feGaussianBlur stdDeviation="0.125" result="effect1_foregroundBlur_2316_55766"/>
</filter>
<filter id="filter8_f_2316_55766" x="26.8503" y="20.9636" width="3.05859" height="6.31665" filterUnits="userSpaceOnUse" color-interpolation-filters="sRGB">
<feFlood flood-opacity="0" result="BackgroundImageFix"/>
<feBlend mode="normal" in="SourceGraphic" in2="BackgroundImageFix" result="shape"/>
<feGaussianBlur stdDeviation="0.125" result="effect1_foregroundBlur_2316_55766"/>
</filter>
<filter id="filter9_f_2316_55766" x="16.9561" y="17.0881" width="6.18872" height="3.76904" filterUnits="userSpaceOnUse" color-interpolation-filters="sRGB">
<feFlood flood-opacity="0" result="BackgroundImageFix"/>
<feBlend mode="normal" in="SourceGraphic" in2="BackgroundImageFix" result="shape"/>
<feGaussianBlur stdDeviation="0.125" result="effect1_foregroundBlur_2316_55766"/>
</filter>
<filter id="filter10_f_2316_55766" x="15.8708" y="17.1519" width="7.30591" height="4.04346" filterUnits="userSpaceOnUse" color-interpolation-filters="sRGB">
<feFlood flood-opacity="0" result="BackgroundImageFix"/>
<feBlend mode="normal" in="SourceGraphic" in2="BackgroundImageFix" result="shape"/>
<feGaussianBlur stdDeviation="0.125" result="effect1_foregroundBlur_2316_55766"/>
</filter>
<filter id="filter11_f_2316_55766" x="16.9343" y="17.2227" width="6.25049" height="3.41333" filterUnits="userSpaceOnUse" color-interpolation-filters="sRGB">
<feFlood flood-opacity="0" result="BackgroundImageFix"/>
<feBlend mode="normal" in="SourceGraphic" in2="BackgroundImageFix" result="shape"/>
<feGaussianBlur stdDeviation="0.125" result="effect1_foregroundBlur_2316_55766"/>
</filter>
<filter id="filter12_f_2316_55766" x="18.3315" y="17.6917" width="4.59595" height="2.04639" filterUnits="userSpaceOnUse" color-interpolation-filters="sRGB">
<feFlood flood-opacity="0" result="BackgroundImageFix"/>
<feBlend mode="normal" in="SourceGraphic" in2="BackgroundImageFix" result="shape"/>
<feGaussianBlur stdDeviation="0.125" result="effect1_foregroundBlur_2316_55766"/>
</filter>
<filter id="filter13_f_2316_55766" x="19.0063" y="26.073" width="5.24731" height="5.27393" filterUnits="userSpaceOnUse" color-interpolation-filters="sRGB">
<feFlood flood-opacity="0" result="BackgroundImageFix"/>
<feBlend mode="normal" in="SourceGraphic" in2="BackgroundImageFix" result="shape"/>
<feGaussianBlur stdDeviation="0.125" result="effect1_foregroundBlur_2316_55766"/>
</filter>
<filter id="filter14_f_2316_55766" x="28.5469" y="21.5625" width="1.21875" height="4.78125" filterUnits="userSpaceOnUse" color-interpolation-filters="sRGB">
<feFlood flood-opacity="0" result="BackgroundImageFix"/>
<feBlend mode="normal" in="SourceGraphic" in2="BackgroundImageFix" result="shape"/>
<feGaussianBlur stdDeviation="0.125" result="effect1_foregroundBlur_2316_55766"/>
</filter>
<filter id="filter15_f_2316_55766" x="17.7266" y="17.4688" width="5.25781" height="2.60962" filterUnits="userSpaceOnUse" color-interpolation-filters="sRGB">
<feFlood flood-opacity="0" result="BackgroundImageFix"/>
<feBlend mode="normal" in="SourceGraphic" in2="BackgroundImageFix" result="shape"/>
<feGaussianBlur stdDeviation="0.25" result="effect1_foregroundBlur_2316_55766"/>
</filter>
<filter id="filter16_f_2316_55766" x="20.4976" y="26.3206" width="3.66675" height="3.57178" filterUnits="userSpaceOnUse" color-interpolation-filters="sRGB">
<feFlood flood-opacity="0" result="BackgroundImageFix"/>
<feBlend mode="normal" in="SourceGraphic" in2="BackgroundImageFix" result="shape"/>
<feGaussianBlur stdDeviation="0.125" result="effect1_foregroundBlur_2316_55766"/>
</filter>
<filter id="filter17_f_2316_55766" x="17.3242" y="18.2129" width="1.82227" height="2.45972" filterUnits="userSpaceOnUse" color-interpolation-filters="sRGB">
<feFlood flood-opacity="0" result="BackgroundImageFix"/>
<feBlend mode="normal" in="SourceGraphic" in2="BackgroundImageFix" result="shape"/>
<feGaussianBlur stdDeviation="0.125" result="effect1_foregroundBlur_2316_55766"/>
</filter>
<filter id="filter18_f_2316_55766" x="19.4802" y="25.9478" width="2.06689" height="2.16406" filterUnits="userSpaceOnUse" color-interpolation-filters="sRGB">
<feFlood flood-opacity="0" result="BackgroundImageFix"/>
<feBlend mode="normal" in="SourceGraphic" in2="BackgroundImageFix" result="shape"/>
<feGaussianBlur stdDeviation="0.125" result="effect1_foregroundBlur_2316_55766"/>
</filter>
<filter id="filter19_f_2316_55766" x="27.2527" y="25.5127" width="2.57227" height="1.53979" filterUnits="userSpaceOnUse" color-interpolation-filters="sRGB">
<feFlood flood-opacity="0" result="BackgroundImageFix"/>
<feBlend mode="normal" in="SourceGraphic" in2="BackgroundImageFix" result="shape"/>
<feGaussianBlur stdDeviation="0.125" result="effect1_foregroundBlur_2316_55766"/>
</filter>
<filter id="filter20_f_2316_55766" x="27.2344" y="13.125" width="7.54688" height="9.9375" filterUnits="userSpaceOnUse" color-interpolation-filters="sRGB">
<feFlood flood-opacity="0" result="BackgroundImageFix"/>
<feBlend mode="normal" in="SourceGraphic" in2="BackgroundImageFix" result="shape"/>
<feGaussianBlur stdDeviation="0.125" result="effect1_foregroundBlur_2316_55766"/>
</filter>
<radialGradient id="paint0_radial_2316_55766" cx="0" cy="0" r="1" gradientUnits="userSpaceOnUse" gradientTransform="translate(12.4452 12.4219) rotate(135.141) scale(6.71201 1.65736)">
<stop stop-color="#3F3749"/>
<stop offset="0.439333" stop-color="#332D3B"/>
<stop offset="1" stop-opacity="0"/>
</radialGradient>
<linearGradient id="paint1_linear_2316_55766" x1="6.99219" y1="13.3126" x2="13.2422" y2="6.79694" gradientUnits="userSpaceOnUse">
<stop stop-color="#7A69A3"/>
<stop offset="0.27686" stop-color="#7456A6"/>
<stop offset="0.831809" stop-color="#654D8D"/>
<stop offset="1" stop-color="#7B69A3"/>
</linearGradient>
<linearGradient id="paint2_linear_2316_55766" x1="40.6325" y1="34.502" x2="34.3825" y2="41.0177" gradientUnits="userSpaceOnUse">
<stop stop-color="#7A69A3"/>
<stop offset="0.27686" stop-color="#7456A6"/>
<stop offset="0.831809" stop-color="#654D8D"/>
<stop offset="1" stop-color="#7B69A3"/>
</linearGradient>
<linearGradient id="paint3_linear_2316_55766" x1="37.211" y1="13.122" x2="10.1977" y2="33.8805" gradientUnits="userSpaceOnUse">
<stop stop-color="#7E75BF"/>
<stop offset="0.506319" stop-color="#58457C"/>
<stop offset="1" stop-color="#4D3966"/>
</linearGradient>
<linearGradient id="paint4_linear_2316_55766" x1="37.7209" y1="13.0086" x2="12.4718" y2="35.2434" gradientUnits="userSpaceOnUse">
<stop stop-color="#5E50A1"/>
<stop offset="0.448599" stop-color="#5C4385"/>
<stop offset="1" stop-color="#5D3F7C"/>
</linearGradient>
<radialGradient id="paint5_radial_2316_55766" cx="0" cy="0" r="1" gradientUnits="userSpaceOnUse" gradientTransform="translate(20.5313 24.75) rotate(82.4465) scale(26.9526)">
<stop offset="0.309957" stop-color="#B5A4CB"/>
<stop offset="0.430675" stop-color="#7E6898" stop-opacity="0"/>
</radialGradient>
<radialGradient id="paint6_radial_2316_55766" cx="0" cy="0" r="1" gradientUnits="userSpaceOnUse" gradientTransform="translate(16.7012 24.4762) rotate(-3.39134) scale(25.2175)">
<stop stop-color="#654B7E"/>
<stop offset="0.465717" stop-color="#4D3A5E"/>
<stop offset="1" stop-color="#1C1C1C"/>
</radialGradient>
<radialGradient id="paint7_radial_2316_55766" cx="0" cy="0" r="1" gradientUnits="userSpaceOnUse" gradientTransform="translate(30.3135 19.255) rotate(111.224) scale(20.6038)">
<stop offset="0.820788" stop-color="#5E3F77" stop-opacity="0"/>
<stop offset="1" stop-color="#60407C"/>
</radialGradient>
<linearGradient id="paint8_linear_2316_55766" x1="32.3437" y1="17.1563" x2="15.5625" y2="28.6876" gradientUnits="userSpaceOnUse">
<stop stop-color="#C6943B"/>
<stop offset="0.159269" stop-color="#DFA930"/>
<stop offset="0.641607" stop-color="#F4C52E"/>
<stop offset="1" stop-color="#E4C03C"/>
</linearGradient>
<linearGradient id="paint9_linear_2316_55766" x1="31.5937" y1="17.3437" x2="16.125" y2="29.7187" gradientUnits="userSpaceOnUse">
<stop stop-color="#F9B93F"/>
<stop offset="0.517369" stop-color="#FFD941"/>
<stop offset="1" stop-color="#FFDE42"/>
</linearGradient>
<radialGradient id="paint10_radial_2316_55766" cx="0" cy="0" r="1" gradientUnits="userSpaceOnUse" gradientTransform="translate(26.9766 17.5078) rotate(110.76) scale(1.37876)">
<stop stop-color="#FF8981"/>
<stop offset="0.471923" stop-color="#FF4E3C"/>
<stop offset="1" stop-color="#C6453D"/>
</radialGradient>
<radialGradient id="paint11_radial_2316_55766" cx="0" cy="0" r="1" gradientUnits="userSpaceOnUse" gradientTransform="translate(28.8459 29.7656) rotate(110.76) scale(1.37876)">
<stop stop-color="#FF8981"/>
<stop offset="0.471923" stop-color="#FF4E3C"/>
<stop offset="1" stop-color="#C6453D"/>
</radialGradient>
<radialGradient id="paint12_radial_2316_55766" cx="0" cy="0" r="1" gradientUnits="userSpaceOnUse" gradientTransform="translate(16.8694 25.4064) rotate(110.76) scale(1.37876)">
<stop stop-color="#FF8981"/>
<stop offset="0.471923" stop-color="#FF4E3C"/>
<stop offset="1" stop-color="#C6453D"/>
</radialGradient>
<linearGradient id="paint13_linear_2316_55766" x1="29.3437" y1="21.004" x2="28.7199" y2="26.8964" gradientUnits="userSpaceOnUse">
<stop stop-color="#539253"/>
<stop offset="1" stop-color="#72AB42"/>
</linearGradient>
<radialGradient id="paint14_radial_2316_55766" cx="0" cy="0" r="1" gradientUnits="userSpaceOnUse" gradientTransform="translate(29.0156 26.25) rotate(94.2947) scale(3.94859 1.62676)">
<stop stop-color="#90E43C"/>
<stop offset="1" stop-color="#96E839" stop-opacity="0"/>
</radialGradient>
<linearGradient id="paint15_linear_2316_55766" x1="24.105" y1="17.7019" x2="16.3237" y2="19.8582" gradientUnits="userSpaceOnUse">
<stop offset="0.793475" stop-color="#9E7830"/>
<stop offset="1" stop-color="#9E7830" stop-opacity="0"/>
</linearGradient>
<linearGradient id="paint16_linear_2316_55766" x1="24.1407" y1="17.7656" x2="16.3595" y2="19.9218" gradientUnits="userSpaceOnUse">
<stop offset="0.793475" stop-color="#D5AB3E"/>
<stop offset="1" stop-color="#D3AB3E" stop-opacity="0"/>
</linearGradient>
<linearGradient id="paint17_linear_2316_55766" x1="23.4543" y1="18.1297" x2="17.7444" y2="20.0411" gradientUnits="userSpaceOnUse">
<stop stop-color="#539253"/>
<stop offset="1" stop-color="#72AB42"/>
</linearGradient>
<radialGradient id="paint18_radial_2316_55766" cx="0" cy="0" r="1" gradientUnits="userSpaceOnUse" gradientTransform="translate(18.4968 19.1071) rotate(162.467) scale(3.87931 1.59822)">
<stop stop-color="#90E43C"/>
<stop offset="1" stop-color="#96E839" stop-opacity="0"/>
</radialGradient>
<radialGradient id="paint19_radial_2316_55766" cx="0" cy="0" r="1" gradientUnits="userSpaceOnUse" gradientTransform="translate(22.6407 18.0821) rotate(154.654) scale(0.492745 0.455203)">
<stop stop-color="#8AD291"/>
<stop offset="1" stop-color="#88CF90" stop-opacity="0"/>
</radialGradient>
<linearGradient id="paint20_linear_2316_55766" x1="22.4525" y1="17.8548" x2="18.5624" y2="19.3126" gradientUnits="userSpaceOnUse">
<stop stop-color="#74AD78"/>
<stop offset="1" stop-color="#B9F270"/>
</linearGradient>
<linearGradient id="paint21_linear_2316_55766" x1="23.9579" y1="30.8398" x2="19.737" y2="26.5456" gradientUnits="userSpaceOnUse">
<stop stop-color="#539253"/>
<stop offset="1" stop-color="#72AB42"/>
</linearGradient>
<radialGradient id="paint22_radial_2316_55766" cx="0" cy="0" r="1" gradientUnits="userSpaceOnUse" gradientTransform="translate(20.9063 26.8124) rotate(-133.531) scale(3.87931 1.59822)">
<stop stop-color="#90E43C"/>
<stop offset="1" stop-color="#96E839" stop-opacity="0"/>
</radialGradient>
<linearGradient id="paint23_linear_2316_55766" x1="29.1562" y1="21.9375" x2="29.1562" y2="25.9688" gradientUnits="userSpaceOnUse">
<stop stop-color="#89D18E"/>
<stop offset="1" stop-color="#B9F270"/>
</linearGradient>
<linearGradient id="paint24_linear_2316_55766" x1="22.2787" y1="17.844" x2="18.6565" y2="19.6133" gradientUnits="userSpaceOnUse">
<stop stop-color="#67B35B"/>
<stop offset="1" stop-color="#7CCD45"/>
</linearGradient>
<linearGradient id="paint25_linear_2316_55766" x1="23.7656" y1="29.5174" x2="21.375" y2="27" gradientUnits="userSpaceOnUse">
<stop stop-color="#89D18E"/>
<stop offset="1" stop-color="#B9F270"/>
</linearGradient>
<linearGradient id="paint26_linear_2316_55766" x1="17.7187" y1="19.7461" x2="18.8964" y2="19.4427" gradientUnits="userSpaceOnUse">
<stop stop-color="#6B9134"/>
<stop offset="1" stop-color="#6B9134" stop-opacity="0"/>
</linearGradient>
<linearGradient id="paint27_linear_2316_55766" x1="19.9459" y1="26.5084" x2="20.7629" y2="27.4093" gradientUnits="userSpaceOnUse">
<stop stop-color="#79A53B"/>
<stop offset="1" stop-color="#6B9134" stop-opacity="0"/>
</linearGradient>
<linearGradient id="paint28_linear_2316_55766" x1="28.4807" y1="26.7136" x2="28.6902" y2="25.5156" gradientUnits="userSpaceOnUse">
<stop stop-color="#79A53B"/>
<stop offset="1" stop-color="#6B9134" stop-opacity="0"/>
</linearGradient>
<linearGradient id="paint29_linear_2316_55766" x1="27.6094" y1="13.5" x2="34.7812" y2="23.3906" gradientUnits="userSpaceOnUse">
<stop stop-color="#F8C05B" stop-opacity="0"/>
<stop offset="0.186928" stop-color="#FFD874"/>
<stop offset="0.454689" stop-color="#E7B052"/>
<stop offset="0.727425" stop-color="#FFD07C"/>
<stop offset="1" stop-color="#F5BF5F" stop-opacity="0"/>
</linearGradient>
</defs>
</svg>
