<svg width="32" height="32" viewBox="0 0 32 32" fill="none" xmlns="http://www.w3.org/2000/svg">
<path fill-rule="evenodd" clip-rule="evenodd" d="M15.619 1.45148C15.8719 1.41493 16.1288 1.41493 16.3817 1.45148C16.6732 1.49361 16.9445 1.59608 17.1599 1.67745L17.2176 1.6992L24.5408 4.44522C25.3646 4.75276 26.0879 5.02284 26.645 5.5138C27.1324 5.94329 27.5078 6.48502 27.7388 7.09215C28.0029 7.78616 28.0018 8.55831 28.0005 9.43757L28.0004 16.0001C28.0004 19.7689 25.9506 22.911 23.7349 25.2193C21.5044 27.543 18.9524 29.1843 17.6029 29.9716L17.5482 30.0036C17.302 30.1482 16.9823 30.3359 16.5595 30.4266C16.2136 30.5008 15.7871 30.5008 15.4412 30.4266C15.0184 30.3359 14.6987 30.1482 14.4525 30.0036L14.3978 29.9716C13.0483 29.1843 10.4963 27.543 8.26577 25.2193C6.05008 22.911 4.00035 19.7689 4.00035 16.0001L4.00017 9.43758C3.9989 8.55832 3.99778 7.78616 4.26187 7.09215C4.4929 6.48502 4.86832 5.94329 5.35567 5.5138C5.91277 5.02284 6.63615 4.75276 7.45988 4.44523L14.7831 1.6992L14.8408 1.67745C15.0562 1.59608 15.3275 1.49361 15.619 1.45148ZM17.3337 7.99992C17.3337 7.26354 16.7367 6.66658 16.0003 6.66658C15.2639 6.66658 14.667 7.26354 14.667 7.99992V8.66658C12.4579 8.66658 10.667 10.4574 10.667 12.6666C10.667 14.8757 12.4579 16.6666 14.667 16.6666H17.3337C18.07 16.6666 18.667 17.2635 18.667 17.9999C18.667 18.7363 18.07 19.3333 17.3337 19.3333H14.4892C14.0465 19.3333 13.6598 19.0847 13.4647 18.7133C13.1224 18.0614 12.3163 17.8104 11.6643 18.1528C11.0124 18.4952 10.7614 19.3012 11.1038 19.9532C11.7413 21.1671 13.0169 21.9999 14.4892 21.9999H14.667V22.6666C14.667 23.403 15.2639 23.9999 16.0003 23.9999C16.7367 23.9999 17.3337 23.403 17.3337 22.6666V21.9999C19.5428 21.9999 21.3337 20.2091 21.3337 17.9999C21.3337 15.7908 19.5428 13.9999 17.3337 13.9999H14.667C13.9306 13.9999 13.3337 13.403 13.3337 12.6666C13.3337 11.9302 13.9306 11.3333 14.667 11.3333H17.5114C17.9541 11.3333 18.3409 11.5818 18.5359 11.9532C18.8783 12.6051 19.6844 12.8561 20.3363 12.5137C20.9882 12.1713 21.2392 11.3653 20.8968 10.7133C20.2593 9.49937 18.9837 8.66658 17.5114 8.66658H17.3337V7.99992Z" fill="#870064"/>
</svg>
