<svg width="48" height="48" viewBox="0 0 48 48" fill="none" xmlns="http://www.w3.org/2000/svg">
<circle cx="24.0705" cy="24.0001" r="19.1663" fill="#00041D"/>
<g filter="url(#filter0_i_2316_55764)">
<path d="M22.1782 4.50618C21.5688 4.56243 21.2915 4.73274 21.229 4.81087C21.454 4.97024 21.4399 5.2679 21.4048 5.39681L28.3188 7.03744L34.647 8.18587C34.7056 7.93978 34.6587 7.61166 34.1665 7.3304C28.5415 4.23665 22.9399 4.43587 22.1782 4.50618Z" fill="url(#paint0_linear_2316_55764)"/>
</g>
<path d="M22.1782 4.50618C21.5688 4.56243 21.2915 4.73274 21.229 4.81087C21.454 4.97024 21.4399 5.2679 21.4048 5.39681L28.3188 7.03744L34.647 8.18587C34.7056 7.93978 34.6587 7.61166 34.1665 7.3304C28.5415 4.23665 22.9399 4.43587 22.1782 4.50618Z" fill="url(#paint1_radial_2316_55764)"/>
<g filter="url(#filter1_i_2316_55764)">
<path d="M5.06302 29.9475C4.96727 29.5956 5.0845 29.3538 5.12747 29.2854L5.97123 29.092C7.17826 30.7131 9.65795 34.0069 9.92045 34.2131C10.1829 34.4194 10.3267 34.7756 10.3658 34.928L13.7642 39.9788C13.6939 40.1975 13.3611 40.5295 12.5923 40.1077C9.0767 38.092 5.60795 31.9514 5.06302 29.9475Z" fill="url(#paint2_linear_2316_55764)"/>
</g>
<path d="M5.06302 29.9475C4.96727 29.5956 5.0845 29.3538 5.12747 29.2854L5.97123 29.092C7.17826 30.7131 9.65795 34.0069 9.92045 34.2131C10.1829 34.4194 10.3267 34.7756 10.3658 34.928L13.7642 39.9788C13.6939 40.1975 13.3611 40.5295 12.5923 40.1077C9.0767 38.092 5.60795 31.9514 5.06302 29.9475Z" fill="url(#paint3_radial_2316_55764)"/>
<path d="M10.5416 9.62154C10.3166 9.94029 10.3423 10.1157 10.354 10.1665L15.0064 8.65472L21.4283 5.34418C21.5783 4.88481 21.2037 4.71528 21.0591 4.69965C20.1041 4.56488 17.772 5.01019 15.2173 6.2641C12.0181 7.99259 10.8228 9.2231 10.5416 9.62154Z" fill="url(#paint4_linear_2316_55764)"/>
<path d="M10.5416 9.62154C10.3166 9.94029 10.3423 10.1157 10.354 10.1665L15.0064 8.65472L21.4283 5.34418C21.5783 4.88481 21.2037 4.71528 21.0591 4.69965C20.1041 4.56488 17.772 5.01019 15.2173 6.2641C12.0181 7.99259 10.8228 9.2231 10.5416 9.62154Z" fill="url(#paint5_radial_2316_55764)"/>
<path d="M10.5416 9.62154C10.3166 9.94029 10.3423 10.1157 10.354 10.1665L15.0064 8.65472L21.4283 5.34418C21.5783 4.88481 21.2037 4.71528 21.0591 4.69965C20.1041 4.56488 17.772 5.01019 15.2173 6.2641C12.0181 7.99259 10.8228 9.2231 10.5416 9.62154Z" fill="url(#paint6_radial_2316_55764)"/>
<path d="M26.608 43.471L26.8657 43.0081L37.2251 37.9163C37.3931 38.0608 37.5298 38.3381 37.2251 38.7952C33.6509 42.3108 28.6704 43.4475 27.8032 43.5764C27.2518 43.6584 26.8663 43.6372 26.6665 43.6035C26.6047 43.5931 26.5775 43.5258 26.608 43.471Z" fill="url(#paint7_radial_2316_55764)"/>
<path d="M43.0728 19.3303C42.9321 19.0256 42.731 18.9084 42.6333 18.885L42.3696 26.0334V31.0022C44.4907 27.0999 43.647 20.3499 43.0728 19.3303Z" fill="url(#paint8_linear_2316_55764)"/>
<path d="M35.0688 7.92801C34.7126 7.74051 34.4106 7.88113 34.2778 7.92801L38.3149 13.1428L42.4634 19.4241C42.8009 19.0678 42.7837 18.6702 42.7446 18.4983C41.0806 10.6936 35.5142 8.16239 35.0688 7.92801Z" fill="#EDEDEE"/>
<path d="M35.0688 7.92801C34.7126 7.74051 34.4106 7.88113 34.2778 7.92801L38.3149 13.1428L42.4634 19.4241C42.8009 19.0678 42.7837 18.6702 42.7446 18.4983C41.0806 10.6936 35.5142 8.16239 35.0688 7.92801Z" fill="url(#paint9_radial_2316_55764)"/>
<g filter="url(#filter2_i_2316_55764)">
<path d="M4.79823 29.1597C3.34613 24.5793 4.28634 19.8274 5.30826 17.5541C5.3909 17.3703 5.55784 17.242 5.75441 17.1975L6.40081 21.4235C6.43462 21.6445 6.44361 21.8687 6.42762 22.0917L5.92434 29.1096L5.34298 29.3899C5.12807 29.4935 4.87034 29.3871 4.79823 29.1597Z" fill="#3D5CBC"/>
</g>
<g filter="url(#filter3_ii_2316_55764)">
<path d="M21.2013 5.29895C18.5673 6.0793 16.4052 7.37324 15.3294 8.1675C15.0899 8.34429 14.9585 8.62747 14.9636 8.92508C14.9882 10.3639 15.1181 11.8919 15.2354 12.7322C15.277 13.0298 15.5355 13.2353 15.8359 13.2438C18.5874 13.3215 20.6674 14.0095 21.7666 14.5379C22.1067 14.7014 22.5096 14.7062 22.8367 14.5181C24.6493 13.4757 26.884 12.4368 28.1898 11.8998C28.5165 11.7655 28.7157 11.4282 28.6686 11.078C28.4634 9.55106 28.3657 8.34648 28.346 7.19849C28.3415 6.93155 28.1794 6.69075 27.9286 6.59921C25.6901 5.78217 23.2507 5.39067 21.9241 5.23702C21.6812 5.20889 21.4357 5.2295 21.2013 5.29895Z" fill="url(#paint10_radial_2316_55764)"/>
</g>
<g filter="url(#filter4_i_2316_55764)">
<path d="M5.87072 16.4742C7.69439 12.9683 9.05486 11.3258 9.77977 10.6233C10.823 9.51811 13.3592 8.68606 14.5079 8.60052C14.7333 8.58374 14.9038 8.76405 14.9249 8.98908L15.287 12.8476C15.3168 13.1657 15.1907 13.4771 14.961 13.699C12.9376 15.6537 11.734 18.2106 11.2735 19.3234C11.1284 19.674 10.8492 19.9556 10.492 20.0835L6.69893 21.442C6.42163 21.5413 6.11927 21.381 6.05962 21.0926C5.81799 19.9239 5.64523 18.39 5.61335 17.5108C5.60021 17.1486 5.70346 16.7957 5.87072 16.4742Z" fill="url(#paint11_linear_2316_55764)"/>
</g>
<path d="M5.87072 16.4742C7.69439 12.9683 9.05486 11.3258 9.77977 10.6233C10.823 9.51811 13.3592 8.68606 14.5079 8.60052C14.7333 8.58374 14.9038 8.76405 14.9249 8.98908L15.287 12.8476C15.3168 13.1657 15.1907 13.4771 14.961 13.699C12.9376 15.6537 11.734 18.2106 11.2735 19.3234C11.1284 19.674 10.8492 19.9556 10.492 20.0835L6.69893 21.442C6.42163 21.5413 6.11927 21.381 6.05962 21.0926C5.81799 19.9239 5.64523 18.39 5.61335 17.5108C5.60021 17.1486 5.70346 16.7957 5.87072 16.4742Z" fill="url(#paint12_linear_2316_55764)"/>
<g filter="url(#filter5_i_2316_55764)">
<path d="M26.022 43.7639C19.2837 43.9397 15.1196 41.8694 13.4243 40.6819C13.2368 40.5558 13.1939 40.3715 13.2017 40.3069C13.4642 40.2975 13.6314 40.1838 13.6704 40.137L20.9243 41.5022L26.8071 42.967C26.8657 43.1858 26.7626 43.6795 26.022 43.7639Z" fill="#867CFF"/>
</g>
<path d="M26.022 43.7639C19.2837 43.9397 15.1196 41.8694 13.4243 40.6819C13.2368 40.5558 13.1939 40.3715 13.2017 40.3069C13.4642 40.2975 13.6314 40.1838 13.6704 40.137L20.9243 41.5022L26.8071 42.967C26.8657 43.1858 26.7626 43.6795 26.022 43.7639Z" fill="url(#paint13_radial_2316_55764)"/>
<g filter="url(#filter6_i_2316_55764)">
<path d="M35.2707 22.9278L35.3072 16.2845C35.3083 16.0759 35.4399 15.8903 35.6343 15.8149C37.304 15.1679 38.2286 14.5459 38.7107 14.1124C38.8816 13.9588 39.1479 13.9426 39.3081 14.1073C40.5517 15.3846 41.7752 17.3092 42.484 18.5822C42.7773 19.109 42.9413 19.6964 42.9784 20.2982C43.1301 22.7617 42.9804 25.0522 42.8413 26.3247C42.8064 26.6432 42.6126 26.9199 42.3302 27.0712L39.3415 28.6726C39.1743 28.7622 38.9671 28.6756 38.9061 28.496C38.0904 26.0967 36.5622 24.5243 35.6361 23.7173C35.4071 23.5177 35.269 23.2316 35.2707 22.9278Z" fill="url(#paint14_radial_2316_55764)"/>
</g>
<g filter="url(#filter7_i_2316_55764)">
<path d="M20.9427 41.2745C21.3799 40.0904 21.4758 38.6758 21.4426 37.7321C21.4312 37.4077 21.6047 37.0987 21.9002 36.9642L27.9759 34.1979C28.2911 34.0544 28.6553 34.0893 28.9611 34.2519C30.7187 35.1864 33.1694 35.3982 34.25 35.3327C34.4389 35.3212 34.6119 35.4687 34.6094 35.658C34.5827 37.6544 34.3386 38.8979 34.0612 39.7016C33.9709 39.9632 33.7896 40.1815 33.5592 40.3349C31.279 41.8528 28.6485 42.8318 27.2568 43.1152C27.068 43.1536 26.8742 43.1531 26.6836 43.1247C24.1472 42.7472 22.166 42.1645 21.1735 41.8085C20.9592 41.7316 20.8638 41.4881 20.9427 41.2745Z" fill="url(#paint15_radial_2316_55764)"/>
</g>
<g filter="url(#filter8_i_2316_55764)">
<path d="M10.3965 19.9013L6.69815 21.4231C6.43675 21.5307 6.23053 21.7427 6.16258 22.017C5.82792 23.3682 5.59609 26.0993 5.73232 28.2512C5.75837 28.6628 5.84884 29.0679 6.03207 29.4373C6.80657 30.9987 8.55078 33.2376 9.66551 34.2864C9.95499 34.5587 10.3838 34.5678 10.7294 34.3715C11.8491 33.7358 12.7627 33.4018 14.443 32.8981C14.7452 32.8075 14.9607 32.5386 14.9802 32.2236L15.3706 25.9177C15.3919 25.5741 15.2327 25.2462 14.9632 25.032C13.0117 23.482 11.8666 21.5249 11.2509 20.2386C11.0979 19.919 10.7242 19.7665 10.3965 19.9013Z" fill="url(#paint16_linear_2316_55764)"/>
</g>
<g filter="url(#filter9_i_2316_55764)">
<path d="M38.7325 29.0962C37.4881 31.7863 35.7039 34.1347 34.7641 35.2076C34.6211 35.3709 34.5296 35.5721 34.5076 35.7881L34.1272 39.5204C34.1154 39.6357 34.1709 39.7524 34.2841 39.7774C34.6797 39.8649 35.5184 39.7077 37.3306 38.5491C39.3579 36.803 41.5728 32.9709 42.3228 31.2366C42.8259 29.9219 42.8502 28.1934 42.7514 27.2002C42.7313 26.9985 42.5144 26.8902 42.3344 26.9835L39.1898 28.6137C38.9876 28.7185 38.8281 28.8896 38.7325 29.0962Z" fill="url(#paint17_radial_2316_55764)"/>
</g>
<path d="M38.7325 29.0962C37.4881 31.7863 35.7039 34.1347 34.7641 35.2076C34.6211 35.3709 34.5296 35.5721 34.5076 35.7881L34.1272 39.5204C34.1154 39.6357 34.1709 39.7524 34.2841 39.7774C34.6797 39.8649 35.5184 39.7077 37.3306 38.5491C39.3579 36.803 41.5728 32.9709 42.3228 31.2366C42.8259 29.9219 42.8502 28.1934 42.7514 27.2002C42.7313 26.9985 42.5144 26.8902 42.3344 26.9835L39.1898 28.6137C38.9876 28.7185 38.8281 28.8896 38.7325 29.0962Z" fill="url(#paint18_radial_2316_55764)"/>
<g filter="url(#filter10_ii_2316_55764)">
<path d="M34.8296 23.506C33.0471 24.2192 30.3559 25.6003 29.1514 26.3023C28.9017 26.4478 28.7397 26.7015 28.7015 26.9879C28.3753 29.4324 28.2508 31.9677 28.3078 33.4312C28.3211 33.7733 28.5263 34.0755 28.8364 34.2203C31.0422 35.2501 32.8455 35.4519 34.0108 35.4499C34.3887 35.4493 34.7555 35.3202 35.0412 35.0728C36.7909 33.558 38.2489 30.8383 38.8226 29.3965C38.9639 29.0415 38.9667 28.6491 38.837 28.2898C38.071 26.1672 36.5592 24.3341 35.621 23.5961C35.396 23.4191 35.0954 23.3996 34.8296 23.506Z" fill="url(#paint19_radial_2316_55764)"/>
</g>
<g filter="url(#filter11_i_2316_55764)">
<path d="M14.491 32.8475C13.004 33.3151 11.453 33.982 10.5489 34.4123C10.2959 34.5327 10.1675 34.8164 10.2557 35.0823C10.7771 36.6531 12.1578 39.2995 14.0337 40.4124C16.3861 41.5698 18.915 41.7962 20.2578 41.7502C20.4816 41.7425 20.6994 41.6525 20.8191 41.4632C21.3681 40.5955 21.4906 38.7387 21.4384 37.4381C21.4285 37.1921 21.2969 36.969 21.0922 36.8321L15.3225 32.9717C15.0775 32.8078 14.7723 32.759 14.491 32.8475Z" fill="url(#paint20_radial_2316_55764)"/>
</g>
<path d="M14.491 32.8475C13.004 33.3151 11.453 33.982 10.5489 34.4123C10.2959 34.5327 10.1675 34.8164 10.2557 35.0823C10.7771 36.6531 12.1578 39.2995 14.0337 40.4124C16.3861 41.5698 18.915 41.7962 20.2578 41.7502C20.4816 41.7425 20.6994 41.6525 20.8191 41.4632C21.3681 40.5955 21.4906 38.7387 21.4384 37.4381C21.4285 37.1921 21.2969 36.969 21.0922 36.8321L15.3225 32.9717C15.0775 32.8078 14.7723 32.759 14.491 32.8475Z" fill="url(#paint21_radial_2316_55764)"/>
<g filter="url(#filter12_ii_2316_55764)">
<path d="M21.6257 22.6067C19.968 23.6298 17.4869 24.6193 15.9156 25.1739C15.5536 25.3017 15.2904 25.619 15.2473 26.0004C14.9751 28.4143 14.9102 30.9655 14.9345 32.31C14.9397 32.5969 15.0751 32.8638 15.3017 33.0398C16.9701 34.3351 19.4143 35.9286 20.9481 36.7834C21.318 36.9895 21.7594 37.0103 22.1519 36.8515C23.934 36.131 26.2539 35.0695 27.7849 34.2916C28.1276 34.1174 28.331 33.7579 28.3225 33.3735C28.2645 30.7485 28.517 28.3491 28.6665 27.1249C28.7108 26.7623 28.5578 26.4044 28.2561 26.1985C26.9902 25.3346 24.4067 23.6751 22.7781 22.6055C22.4303 22.377 21.9798 22.3881 21.6257 22.6067Z" fill="url(#paint22_linear_2316_55764)"/>
</g>
<g filter="url(#filter13_ii_2316_55764)">
<path d="M11.1417 19.3533C12.2019 16.547 13.9199 14.478 15.1396 13.4319C15.3091 13.2864 15.5272 13.2124 15.7506 13.2167C18.6406 13.2723 20.666 14.0174 21.7852 14.5239C22.0985 14.6657 22.3061 14.9692 22.338 15.3116C22.6373 18.5218 22.4958 20.3092 22.338 21.6759C22.3062 21.9507 22.1611 22.2006 21.9323 22.3561C20.1164 23.5898 17.8296 24.4784 16.0157 25.1423C15.6861 25.2629 15.3177 25.2439 15.0287 25.0448C13.474 23.9738 11.9329 21.7133 11.1886 20.2596C11.0444 19.9781 11.03 19.6492 11.1417 19.3533Z" fill="url(#paint23_radial_2316_55764)"/>
</g>
<g filter="url(#filter14_i_2316_55764)">
<path d="M28.6887 11.2233C28.3759 9.37616 28.3756 7.8699 28.4102 7.19121C28.423 6.94028 28.5846 6.77473 28.8352 6.75623C30.2308 6.65318 33.189 6.99296 35.0454 8.31488C37.0056 9.80085 38.3593 12.0735 38.8762 13.3769C38.974 13.6235 38.9222 13.9037 38.7316 14.0882C37.8861 14.9069 36.5563 15.4528 35.714 15.7872C35.4859 15.8777 35.2275 15.8522 35.0219 15.7183L29.1211 11.8754C28.893 11.7269 28.7341 11.4916 28.6887 11.2233Z" fill="url(#paint24_radial_2316_55764)"/>
</g>
<g filter="url(#filter15_ii_2316_55764)">
<path d="M22.3659 21.754C22.5526 19.0961 22.4361 16.7101 22.3561 15.3711C22.3337 14.9954 22.5221 14.6403 22.8529 14.4607C24.2657 13.6939 26.7989 12.4614 28.2853 11.7534C28.5719 11.6169 28.9058 11.6248 29.1814 11.7822C30.9451 12.7897 33.2274 14.3924 34.8215 15.4394C35.1198 15.6353 35.3264 15.945 35.3637 16.2999C35.5566 18.1343 35.4669 20.9155 35.3895 22.6421C35.3732 23.0068 35.1578 23.332 34.8295 23.4918L29.2011 26.2318C28.8863 26.3851 28.5142 26.3625 28.2202 26.1723L22.8239 22.6805C22.5131 22.4795 22.34 22.1232 22.3659 21.754Z" fill="url(#paint25_radial_2316_55764)"/>
</g>
<defs>
<filter id="filter0_i_2316_55764" x="21.229" y="4.27559" width="13.6877" height="3.91021" filterUnits="userSpaceOnUse" color-interpolation-filters="sRGB">
<feFlood flood-opacity="0" result="BackgroundImageFix"/>
<feBlend mode="normal" in="SourceGraphic" in2="BackgroundImageFix" result="shape"/>
<feColorMatrix in="SourceAlpha" type="matrix" values="0 0 0 0 0 0 0 0 0 0 0 0 0 0 0 0 0 0 127 0" result="hardAlpha"/>
<feOffset dx="0.25" dy="-0.2"/>
<feGaussianBlur stdDeviation="0.125"/>
<feComposite in2="hardAlpha" operator="arithmetic" k2="-1" k3="1"/>
<feColorMatrix type="matrix" values="0 0 0 0 0.65098 0 0 0 0 0.65098 0 0 0 0 0.670588 0 0 0 1 0"/>
<feBlend mode="normal" in2="shape" result="effect1_innerShadow_2316_55764"/>
</filter>
<filter id="filter1_i_2316_55764" x="4.87637" y="29.092" width="8.88779" height="11.2188" filterUnits="userSpaceOnUse" color-interpolation-filters="sRGB">
<feFlood flood-opacity="0" result="BackgroundImageFix"/>
<feBlend mode="normal" in="SourceGraphic" in2="BackgroundImageFix" result="shape"/>
<feColorMatrix in="SourceAlpha" type="matrix" values="0 0 0 0 0 0 0 0 0 0 0 0 0 0 0 0 0 0 127 0" result="hardAlpha"/>
<feOffset dx="-0.5"/>
<feGaussianBlur stdDeviation="0.075"/>
<feComposite in2="hardAlpha" operator="arithmetic" k2="-1" k3="1"/>
<feColorMatrix type="matrix" values="0 0 0 0 0.54902 0 0 0 0 0.505882 0 0 0 0 0.768627 0 0 0 1 0"/>
<feBlend mode="normal" in2="shape" result="effect1_innerShadow_2316_55764"/>
</filter>
<filter id="filter2_i_2316_55764" x="3.75188" y="17.1975" width="2.68342" height="12.2322" filterUnits="userSpaceOnUse" color-interpolation-filters="sRGB">
<feFlood flood-opacity="0" result="BackgroundImageFix"/>
<feBlend mode="normal" in="SourceGraphic" in2="BackgroundImageFix" result="shape"/>
<feColorMatrix in="SourceAlpha" type="matrix" values="0 0 0 0 0 0 0 0 0 0 0 0 0 0 0 0 0 0 127 0" result="hardAlpha"/>
<feOffset dx="-0.3"/>
<feGaussianBlur stdDeviation="0.15"/>
<feComposite in2="hardAlpha" operator="arithmetic" k2="-1" k3="1"/>
<feColorMatrix type="matrix" values="0 0 0 0 0.175833 0 0 0 0 0.4336 0 0 0 0 0.879167 0 0 0 1 0"/>
<feBlend mode="normal" in2="shape" result="effect1_innerShadow_2316_55764"/>
</filter>
<filter id="filter3_ii_2316_55764" x="14.7135" y="5.02485" width="14.062" height="9.78506" filterUnits="userSpaceOnUse" color-interpolation-filters="sRGB">
<feFlood flood-opacity="0" result="BackgroundImageFix"/>
<feBlend mode="normal" in="SourceGraphic" in2="BackgroundImageFix" result="shape"/>
<feColorMatrix in="SourceAlpha" type="matrix" values="0 0 0 0 0 0 0 0 0 0 0 0 0 0 0 0 0 0 127 0" result="hardAlpha"/>
<feOffset dx="-0.25" dy="0.15"/>
<feGaussianBlur stdDeviation="0.25"/>
<feComposite in2="hardAlpha" operator="arithmetic" k2="-1" k3="1"/>
<feColorMatrix type="matrix" values="0 0 0 0 0.92549 0 0 0 0 0.921569 0 0 0 0 0.929412 0 0 0 1 0"/>
<feBlend mode="normal" in2="shape" result="effect1_innerShadow_2316_55764"/>
<feColorMatrix in="SourceAlpha" type="matrix" values="0 0 0 0 0 0 0 0 0 0 0 0 0 0 0 0 0 0 127 0" result="hardAlpha"/>
<feOffset dx="0.1" dy="-0.2"/>
<feGaussianBlur stdDeviation="0.15"/>
<feComposite in2="hardAlpha" operator="arithmetic" k2="-1" k3="1"/>
<feColorMatrix type="matrix" values="0 0 0 0 0.580392 0 0 0 0 0.572549 0 0 0 0 0.6 0 0 0 1 0"/>
<feBlend mode="normal" in2="effect1_innerShadow_2316_55764" result="effect2_innerShadow_2316_55764"/>
</filter>
<filter id="filter4_i_2316_55764" x="5.31218" y="8.59937" width="9.97908" height="12.9721" filterUnits="userSpaceOnUse" color-interpolation-filters="sRGB">
<feFlood flood-opacity="0" result="BackgroundImageFix"/>
<feBlend mode="normal" in="SourceGraphic" in2="BackgroundImageFix" result="shape"/>
<feColorMatrix in="SourceAlpha" type="matrix" values="0 0 0 0 0 0 0 0 0 0 0 0 0 0 0 0 0 0 127 0" result="hardAlpha"/>
<feOffset dx="-0.3" dy="0.1"/>
<feGaussianBlur stdDeviation="0.225"/>
<feComposite in2="hardAlpha" operator="arithmetic" k2="-1" k3="1"/>
<feColorMatrix type="matrix" values="0 0 0 0 0.796078 0 0 0 0 0.788235 0 0 0 0 0.858824 0 0 0 1 0"/>
<feBlend mode="normal" in2="shape" result="effect1_innerShadow_2316_55764"/>
</filter>
<filter id="filter5_i_2316_55764" x="13.2008" y="40.137" width="13.6202" height="3.88745" filterUnits="userSpaceOnUse" color-interpolation-filters="sRGB">
<feFlood flood-opacity="0" result="BackgroundImageFix"/>
<feBlend mode="normal" in="SourceGraphic" in2="BackgroundImageFix" result="shape"/>
<feColorMatrix in="SourceAlpha" type="matrix" values="0 0 0 0 0 0 0 0 0 0 0 0 0 0 0 0 0 0 127 0" result="hardAlpha"/>
<feOffset dy="0.25"/>
<feGaussianBlur stdDeviation="0.125"/>
<feComposite in2="hardAlpha" operator="arithmetic" k2="-1" k3="1"/>
<feColorMatrix type="matrix" values="0 0 0 0 0.576471 0 0 0 0 0.513726 0 0 0 0 0.909804 0 0 0 1 0"/>
<feBlend mode="normal" in2="shape" result="effect1_innerShadow_2316_55764"/>
</filter>
<filter id="filter6_i_2316_55764" x="35.2706" y="13.8405" width="7.92136" height="14.8678" filterUnits="userSpaceOnUse" color-interpolation-filters="sRGB">
<feFlood flood-opacity="0" result="BackgroundImageFix"/>
<feBlend mode="normal" in="SourceGraphic" in2="BackgroundImageFix" result="shape"/>
<feColorMatrix in="SourceAlpha" type="matrix" values="0 0 0 0 0 0 0 0 0 0 0 0 0 0 0 0 0 0 127 0" result="hardAlpha"/>
<feOffset dx="0.15" dy="-0.15"/>
<feGaussianBlur stdDeviation="0.15"/>
<feComposite in2="hardAlpha" operator="arithmetic" k2="-1" k3="1"/>
<feColorMatrix type="matrix" values="0 0 0 0 0.564706 0 0 0 0 0.541176 0 0 0 0 0.682353 0 0 0 1 0"/>
<feBlend mode="normal" in2="shape" result="effect1_innerShadow_2316_55764"/>
</filter>
<filter id="filter7_i_2316_55764" x="20.7653" y="34.1077" width="13.8441" height="9.28735" filterUnits="userSpaceOnUse" color-interpolation-filters="sRGB">
<feFlood flood-opacity="0" result="BackgroundImageFix"/>
<feBlend mode="normal" in="SourceGraphic" in2="BackgroundImageFix" result="shape"/>
<feColorMatrix in="SourceAlpha" type="matrix" values="0 0 0 0 0 0 0 0 0 0 0 0 0 0 0 0 0 0 127 0" result="hardAlpha"/>
<feOffset dx="-0.15" dy="0.25"/>
<feGaussianBlur stdDeviation="0.2"/>
<feComposite in2="hardAlpha" operator="arithmetic" k2="-1" k3="1"/>
<feColorMatrix type="matrix" values="0 0 0 0 0.8 0 0 0 0 0.772549 0 0 0 0 0.92549 0 0 0 1 0"/>
<feBlend mode="normal" in2="shape" result="effect1_innerShadow_2316_55764"/>
</filter>
<filter id="filter8_i_2316_55764" x="5.39263" y="19.8523" width="9.97993" height="14.7541" filterUnits="userSpaceOnUse" color-interpolation-filters="sRGB">
<feFlood flood-opacity="0" result="BackgroundImageFix"/>
<feBlend mode="normal" in="SourceGraphic" in2="BackgroundImageFix" result="shape"/>
<feColorMatrix in="SourceAlpha" type="matrix" values="0 0 0 0 0 0 0 0 0 0 0 0 0 0 0 0 0 0 127 0" result="hardAlpha"/>
<feOffset dx="-0.3" dy="0.1"/>
<feGaussianBlur stdDeviation="0.2"/>
<feComposite in2="hardAlpha" operator="arithmetic" k2="-1" k3="1"/>
<feColorMatrix type="matrix" values="0 0 0 0 0.72549 0 0 0 0 0.690196 0 0 0 0 0.878431 0 0 0 1 0"/>
<feBlend mode="normal" in2="shape" result="effect1_innerShadow_2316_55764"/>
</filter>
<filter id="filter9_i_2316_55764" x="34.1256" y="26.9497" width="8.922" height="12.8481" filterUnits="userSpaceOnUse" color-interpolation-filters="sRGB">
<feFlood flood-opacity="0" result="BackgroundImageFix"/>
<feBlend mode="normal" in="SourceGraphic" in2="BackgroundImageFix" result="shape"/>
<feColorMatrix in="SourceAlpha" type="matrix" values="0 0 0 0 0 0 0 0 0 0 0 0 0 0 0 0 0 0 127 0" result="hardAlpha"/>
<feOffset dx="0.25"/>
<feGaussianBlur stdDeviation="0.2"/>
<feComposite in2="hardAlpha" operator="arithmetic" k2="-1" k3="1"/>
<feColorMatrix type="matrix" values="0 0 0 0 0.564706 0 0 0 0 0.505882 0 0 0 0 0.898039 0 0 0 1 0"/>
<feBlend mode="normal" in2="shape" result="effect1_innerShadow_2316_55764"/>
</filter>
<filter id="filter10_ii_2316_55764" x="28.2944" y="23.3407" width="10.8371" height="12.3093" filterUnits="userSpaceOnUse" color-interpolation-filters="sRGB">
<feFlood flood-opacity="0" result="BackgroundImageFix"/>
<feBlend mode="normal" in="SourceGraphic" in2="BackgroundImageFix" result="shape"/>
<feColorMatrix in="SourceAlpha" type="matrix" values="0 0 0 0 0 0 0 0 0 0 0 0 0 0 0 0 0 0 127 0" result="hardAlpha"/>
<feOffset dy="0.2"/>
<feGaussianBlur stdDeviation="0.15"/>
<feComposite in2="hardAlpha" operator="arithmetic" k2="-1" k3="1"/>
<feColorMatrix type="matrix" values="0 0 0 0 0.270588 0 0 0 0 0.596078 0 0 0 0 1 0 0 0 1 0"/>
<feBlend mode="normal" in2="shape" result="effect1_innerShadow_2316_55764"/>
<feColorMatrix in="SourceAlpha" type="matrix" values="0 0 0 0 0 0 0 0 0 0 0 0 0 0 0 0 0 0 127 0" result="hardAlpha"/>
<feOffset dx="0.2" dy="-0.1"/>
<feGaussianBlur stdDeviation="0.2"/>
<feComposite in2="hardAlpha" operator="arithmetic" k2="-1" k3="1"/>
<feColorMatrix type="matrix" values="0 0 0 0 0.00392157 0 0 0 0 0.266667 0 0 0 0 0.666667 0 0 0 1 0"/>
<feBlend mode="normal" in2="effect1_innerShadow_2316_55764" result="effect2_innerShadow_2316_55764"/>
</filter>
<filter id="filter11_i_2316_55764" x="10.0779" y="32.804" width="11.3714" height="9.05166" filterUnits="userSpaceOnUse" color-interpolation-filters="sRGB">
<feFlood flood-opacity="0" result="BackgroundImageFix"/>
<feBlend mode="normal" in="SourceGraphic" in2="BackgroundImageFix" result="shape"/>
<feColorMatrix in="SourceAlpha" type="matrix" values="0 0 0 0 0 0 0 0 0 0 0 0 0 0 0 0 0 0 127 0" result="hardAlpha"/>
<feOffset dx="-0.15" dy="0.1"/>
<feGaussianBlur stdDeviation="0.15"/>
<feComposite in2="hardAlpha" operator="arithmetic" k2="-1" k3="1"/>
<feColorMatrix type="matrix" values="0 0 0 0 0.15 0 0 0 0 0.478913 0 0 0 0 1 0 0 0 1 0"/>
<feBlend mode="normal" in2="shape" result="effect1_innerShadow_2316_55764"/>
</filter>
<filter id="filter12_ii_2316_55764" x="14.7298" y="22.3385" width="14.0443" height="14.8178" filterUnits="userSpaceOnUse" color-interpolation-filters="sRGB">
<feFlood flood-opacity="0" result="BackgroundImageFix"/>
<feBlend mode="normal" in="SourceGraphic" in2="BackgroundImageFix" result="shape"/>
<feColorMatrix in="SourceAlpha" type="matrix" values="0 0 0 0 0 0 0 0 0 0 0 0 0 0 0 0 0 0 127 0" result="hardAlpha"/>
<feOffset dx="0.1" dy="-0.1"/>
<feGaussianBlur stdDeviation="0.2"/>
<feComposite in2="hardAlpha" operator="arithmetic" k2="-1" k3="1"/>
<feColorMatrix type="matrix" values="0 0 0 0 0.521569 0 0 0 0 0.490196 0 0 0 0 0.662745 0 0 0 1 0"/>
<feBlend mode="normal" in2="shape" result="effect1_innerShadow_2316_55764"/>
<feColorMatrix in="SourceAlpha" type="matrix" values="0 0 0 0 0 0 0 0 0 0 0 0 0 0 0 0 0 0 127 0" result="hardAlpha"/>
<feOffset dx="-0.2" dy="0.2"/>
<feGaussianBlur stdDeviation="0.15"/>
<feComposite in2="hardAlpha" operator="arithmetic" k2="-1" k3="1"/>
<feColorMatrix type="matrix" values="0 0 0 0 0.886275 0 0 0 0 0.870588 0 0 0 0 0.929412 0 0 0 1 0"/>
<feBlend mode="normal" in2="effect1_innerShadow_2316_55764" result="effect2_innerShadow_2316_55764"/>
</filter>
<filter id="filter13_ii_2316_55764" x="10.9177" y="13.0666" width="11.7456" height="12.251" filterUnits="userSpaceOnUse" color-interpolation-filters="sRGB">
<feFlood flood-opacity="0" result="BackgroundImageFix"/>
<feBlend mode="normal" in="SourceGraphic" in2="BackgroundImageFix" result="shape"/>
<feColorMatrix in="SourceAlpha" type="matrix" values="0 0 0 0 0 0 0 0 0 0 0 0 0 0 0 0 0 0 127 0" result="hardAlpha"/>
<feOffset dx="0.15" dy="-0.15"/>
<feGaussianBlur stdDeviation="0.25"/>
<feComposite in2="hardAlpha" operator="arithmetic" k2="-1" k3="1"/>
<feColorMatrix type="matrix" values="0 0 0 0 0.129412 0 0 0 0 0.313726 0 0 0 0 0.854902 0 0 0 1 0"/>
<feBlend mode="normal" in2="shape" result="effect1_innerShadow_2316_55764"/>
<feColorMatrix in="SourceAlpha" type="matrix" values="0 0 0 0 0 0 0 0 0 0 0 0 0 0 0 0 0 0 127 0" result="hardAlpha"/>
<feOffset dx="-0.15" dy="0.1"/>
<feGaussianBlur stdDeviation="0.1"/>
<feComposite in2="hardAlpha" operator="arithmetic" k2="-1" k3="1"/>
<feColorMatrix type="matrix" values="0 0 0 0 0.219608 0 0 0 0 0.580392 0 0 0 0 1 0 0 0 1 0"/>
<feBlend mode="normal" in2="effect1_innerShadow_2316_55764" result="effect2_innerShadow_2316_55764"/>
</filter>
<filter id="filter14_i_2316_55764" x="28.3951" y="6.58901" width="10.6794" height="9.25156" filterUnits="userSpaceOnUse" color-interpolation-filters="sRGB">
<feFlood flood-opacity="0" result="BackgroundImageFix"/>
<feBlend mode="normal" in="SourceGraphic" in2="BackgroundImageFix" result="shape"/>
<feColorMatrix in="SourceAlpha" type="matrix" values="0 0 0 0 0 0 0 0 0 0 0 0 0 0 0 0 0 0 127 0" result="hardAlpha"/>
<feOffset dx="0.15" dy="-0.15"/>
<feGaussianBlur stdDeviation="0.125"/>
<feComposite in2="hardAlpha" operator="arithmetic" k2="-1" k3="1"/>
<feColorMatrix type="matrix" values="0 0 0 0 0.231373 0 0 0 0 0.435294 0 0 0 0 0.866667 0 0 0 1 0"/>
<feBlend mode="normal" in2="shape" result="effect1_innerShadow_2316_55764"/>
</filter>
<filter id="filter15_ii_2316_55764" x="22.1044" y="11.5072" width="13.525" height="14.9755" filterUnits="userSpaceOnUse" color-interpolation-filters="sRGB">
<feFlood flood-opacity="0" result="BackgroundImageFix"/>
<feBlend mode="normal" in="SourceGraphic" in2="BackgroundImageFix" result="shape"/>
<feColorMatrix in="SourceAlpha" type="matrix" values="0 0 0 0 0 0 0 0 0 0 0 0 0 0 0 0 0 0 127 0" result="hardAlpha"/>
<feOffset dx="0.15" dy="-0.15"/>
<feGaussianBlur stdDeviation="0.2"/>
<feComposite in2="hardAlpha" operator="arithmetic" k2="-1" k3="1"/>
<feColorMatrix type="matrix" values="0 0 0 0 0.611765 0 0 0 0 0.568627 0 0 0 0 0.776471 0 0 0 1 0"/>
<feBlend mode="normal" in2="shape" result="effect1_innerShadow_2316_55764"/>
<feColorMatrix in="SourceAlpha" type="matrix" values="0 0 0 0 0 0 0 0 0 0 0 0 0 0 0 0 0 0 127 0" result="hardAlpha"/>
<feOffset dx="-0.25" dy="0.15"/>
<feGaussianBlur stdDeviation="0.15"/>
<feComposite in2="hardAlpha" operator="arithmetic" k2="-1" k3="1"/>
<feColorMatrix type="matrix" values="0 0 0 0 0.94902 0 0 0 0 0.941176 0 0 0 0 0.964706 0 0 0 1 0"/>
<feBlend mode="normal" in2="effect1_innerShadow_2316_55764" result="effect2_innerShadow_2316_55764"/>
</filter>
<linearGradient id="paint0_linear_2316_55764" x1="32.1978" y1="7.26009" x2="23.3384" y2="5.10384" gradientUnits="userSpaceOnUse">
<stop stop-color="#E6E6E6"/>
<stop offset="1" stop-color="#D9D9D9"/>
</linearGradient>
<radialGradient id="paint1_radial_2316_55764" cx="0" cy="0" r="1" gradientUnits="userSpaceOnUse" gradientTransform="translate(34.4946 7.49447) rotate(-165.401) scale(5.20719 18.8592)">
<stop stop-color="#EDEDED"/>
<stop offset="1" stop-color="#EDEDED" stop-opacity="0"/>
</radialGradient>
<linearGradient id="paint2_linear_2316_55764" x1="12.5247" y1="39.4522" x2="6.09672" y2="29.092" gradientUnits="userSpaceOnUse">
<stop stop-color="#8078D1"/>
<stop offset="1" stop-color="#807AB0"/>
</linearGradient>
<radialGradient id="paint3_radial_2316_55764" cx="0" cy="0" r="1" gradientUnits="userSpaceOnUse" gradientTransform="translate(5.85984 28.9749) rotate(140.326) scale(0.982035 0.376558)">
<stop offset="0.267371" stop-color="#07216D"/>
<stop offset="1" stop-color="#07216D" stop-opacity="0"/>
</radialGradient>
<linearGradient id="paint4_linear_2316_55764" x1="13.3363" y1="8.91564" x2="20.3998" y2="6.19892" gradientUnits="userSpaceOnUse">
<stop stop-color="#4876CD"/>
<stop offset="1" stop-color="#4386F5"/>
</linearGradient>
<radialGradient id="paint5_radial_2316_55764" cx="0" cy="0" r="1" gradientUnits="userSpaceOnUse" gradientTransform="translate(19.565 6.41645) rotate(-113.199) scale(1.07097 6.26929)">
<stop offset="0.287356" stop-color="#3496FF"/>
<stop offset="1" stop-color="#3496FF" stop-opacity="0"/>
</radialGradient>
<radialGradient id="paint6_radial_2316_55764" cx="0" cy="0" r="1" gradientUnits="userSpaceOnUse" gradientTransform="translate(12.9517 9.72717) rotate(-10.5278) scale(3.51387 1.31378)">
<stop offset="0.21374" stop-color="#084AA0"/>
<stop offset="1" stop-color="#084AA0" stop-opacity="0"/>
</radialGradient>
<radialGradient id="paint7_radial_2316_55764" cx="0" cy="0" r="1" gradientUnits="userSpaceOnUse" gradientTransform="translate(32.7945 40.7748) rotate(58.3629) scale(0.790169 4.56929)">
<stop stop-color="#2C77FF"/>
<stop offset="1" stop-color="#4A67FF"/>
</radialGradient>
<linearGradient id="paint8_linear_2316_55764" x1="44.2446" y1="24.9436" x2="42.3696" y2="24.9436" gradientUnits="userSpaceOnUse">
<stop offset="0.775" stop-color="#5193FF"/>
<stop offset="1" stop-color="#125DCE"/>
</linearGradient>
<radialGradient id="paint9_radial_2316_55764" cx="0" cy="0" r="1" gradientUnits="userSpaceOnUse" gradientTransform="translate(38.9338 14.1829) rotate(-36.4309) scale(0.787872 8.13083)">
<stop stop-color="#A2A4B1"/>
<stop offset="1" stop-color="#A2A4B1" stop-opacity="0"/>
</radialGradient>
<radialGradient id="paint10_radial_2316_55764" cx="0" cy="0" r="1" gradientUnits="userSpaceOnUse" gradientTransform="translate(25.0727 11.9944) rotate(-155.98) scale(9.44272 13.5208)">
<stop stop-color="#DFDFE1"/>
<stop offset="1" stop-color="#BFBEC0"/>
</radialGradient>
<linearGradient id="paint11_linear_2316_55764" x1="7.6486" y1="13.0974" x2="14.5786" y2="16.3168" gradientUnits="userSpaceOnUse">
<stop stop-color="#A09FA2"/>
<stop offset="1" stop-color="#B7B6BA"/>
</linearGradient>
<linearGradient id="paint12_linear_2316_55764" x1="8.99461" y1="20.8538" x2="8.64305" y2="19.9632" gradientUnits="userSpaceOnUse">
<stop stop-color="#847D9D"/>
<stop offset="1" stop-color="#847D9D" stop-opacity="0"/>
</linearGradient>
<radialGradient id="paint13_radial_2316_55764" cx="0" cy="0" r="1" gradientUnits="userSpaceOnUse" gradientTransform="translate(24.1118 42.0881) rotate(103.671) scale(0.892473 4.86613)">
<stop offset="0.417241" stop-color="#6C5DBB"/>
<stop offset="1" stop-color="#6C5DBB" stop-opacity="0"/>
</radialGradient>
<radialGradient id="paint14_radial_2316_55764" cx="0" cy="0" r="1" gradientUnits="userSpaceOnUse" gradientTransform="translate(41.084 15.1163) rotate(97.9975) scale(13.8645 7.1686)">
<stop stop-color="#F0EFF3"/>
<stop offset="1" stop-color="#E0DEF0"/>
</radialGradient>
<radialGradient id="paint15_radial_2316_55764" cx="0" cy="0" r="1" gradientUnits="userSpaceOnUse" gradientTransform="translate(28.2852 34.8133) rotate(90.9002) scale(7.55703 16.6412)">
<stop stop-color="#B4A6F7"/>
<stop stop-color="#B2A8F8"/>
<stop offset="0.0001" stop-color="#B2A8F8"/>
<stop offset="1" stop-color="#8D7FFE"/>
</radialGradient>
<linearGradient id="paint16_linear_2316_55764" x1="15.4048" y1="25.5881" x2="5.69434" y2="28.9163" gradientUnits="userSpaceOnUse">
<stop stop-color="#A39AC6"/>
<stop offset="1" stop-color="#8A82B2"/>
</linearGradient>
<radialGradient id="paint17_radial_2316_55764" cx="0" cy="0" r="1" gradientUnits="userSpaceOnUse" gradientTransform="translate(37.0445 38.7289) rotate(-70.0169) scale(11.3055 37.8345)">
<stop offset="0.340844" stop-color="#B3ADEB"/>
<stop offset="1" stop-color="#DBD8F2"/>
</radialGradient>
<radialGradient id="paint18_radial_2316_55764" cx="0" cy="0" r="1" gradientUnits="userSpaceOnUse" gradientTransform="translate(40.9868 27.6272) rotate(64.0934) scale(0.911957 7.77364)">
<stop offset="0.208079" stop-color="#E8E7EE"/>
<stop offset="1" stop-color="#E8E7EE" stop-opacity="0"/>
</radialGradient>
<radialGradient id="paint19_radial_2316_55764" cx="0" cy="0" r="1" gradientUnits="userSpaceOnUse" gradientTransform="translate(32.9253 24.7267) rotate(86.1004) scale(10.7481 9.60928)">
<stop stop-color="#2987FF"/>
<stop offset="1" stop-color="#1473FF"/>
</radialGradient>
<radialGradient id="paint20_radial_2316_55764" cx="0" cy="0" r="1" gradientUnits="userSpaceOnUse" gradientTransform="translate(18.4165 34.6819) rotate(136.032) scale(7.35952 6.71341)">
<stop stop-color="#1153FF"/>
<stop offset="1" stop-color="#254DFF"/>
</radialGradient>
<radialGradient id="paint21_radial_2316_55764" cx="0" cy="0" r="1" gradientUnits="userSpaceOnUse" gradientTransform="translate(18.229 34.969) rotate(124.472) scale(0.476198 4.72187)">
<stop offset="0.276805" stop-color="#0D44E2"/>
<stop offset="1" stop-color="#0D44E2" stop-opacity="0"/>
</radialGradient>
<linearGradient id="paint22_linear_2316_55764" x1="25.1666" y1="26.7131" x2="18.6978" y2="37.0959" gradientUnits="userSpaceOnUse">
<stop stop-color="#CCC5EB"/>
<stop offset="1" stop-color="#AB9EEA"/>
</linearGradient>
<radialGradient id="paint23_radial_2316_55764" cx="0" cy="0" r="1" gradientUnits="userSpaceOnUse" gradientTransform="translate(21.604 14.807) rotate(143.771) scale(11.7382 12.0103)">
<stop stop-color="#197AFF"/>
<stop offset="1" stop-color="#1462E6"/>
</radialGradient>
<radialGradient id="paint24_radial_2316_55764" cx="0" cy="0" r="1" gradientUnits="userSpaceOnUse" gradientTransform="translate(36.229 7.4008) rotate(117.699) scale(8.47077 9.78831)">
<stop stop-color="#3697FF"/>
<stop offset="1" stop-color="#2890FF"/>
</radialGradient>
<radialGradient id="paint25_radial_2316_55764" cx="0" cy="0" r="1" gradientUnits="userSpaceOnUse" gradientTransform="translate(35.4793 15.4419) rotate(155.871) scale(8.72371 11.632)">
<stop stop-color="#ECEAF2"/>
<stop offset="1" stop-color="#D5CEEA"/>
</radialGradient>
</defs>
</svg>
