<svg width="164" height="44" viewBox="0 0 164 44" fill="none" xmlns="http://www.w3.org/2000/svg">
<g filter="url(#filter0_d_4170_24959)">
<path d="M2 9C2 4.58172 5.58172 1 10 1H154C158.418 1 162 4.58172 162 9V33C162 37.4183 158.418 41 154 41H10C5.58172 41 2 37.4183 2 33V9Z" fill="#1877F2"/>
<g clip-path="url(#clip0_4170_24959)">
<path d="M54.5 21C54.5 14.3726 49.1274 9 42.5 9C35.8726 9 30.5 14.3726 30.5 21C30.5 26.9895 34.8882 31.954 40.625 32.8542V24.4688H37.5781V21H40.625V18.3563C40.625 15.3488 42.4166 13.6875 45.1576 13.6875C46.4701 13.6875 47.8438 13.9219 47.8438 13.9219V16.875H46.3306C44.84 16.875 44.375 17.8001 44.375 18.75V21H47.7031L47.1711 24.4688H44.375V32.8542C50.1118 31.954 54.5 26.9895 54.5 21Z" fill="white"/>
</g>
<path d="M67.5043 26V15.8182H74.027V17.3643H69.3487V20.1286H73.5795V21.6747H69.3487V26H67.5043ZM77.7569 26.1541C77.273 26.1541 76.8372 26.0679 76.4494 25.8956C76.0649 25.7199 75.76 25.4614 75.5346 25.12C75.3126 24.7786 75.2015 24.3577 75.2015 23.8572C75.2015 23.4264 75.2811 23.0701 75.4402 22.7884C75.5993 22.5066 75.8163 22.2812 76.0914 22.1122C76.3665 21.9432 76.6764 21.8156 77.0211 21.7294C77.3691 21.6399 77.7288 21.5753 78.1 21.5355C78.5474 21.4891 78.9103 21.4477 79.1887 21.4112C79.4672 21.3714 79.6693 21.3118 79.7953 21.2322C79.9245 21.1494 79.9892 21.0218 79.9892 20.8494V20.8196C79.9892 20.4451 79.8781 20.1551 79.6561 19.9496C79.434 19.7441 79.1142 19.6413 78.6966 19.6413C78.2557 19.6413 77.9061 19.7375 77.6475 19.9297C77.3923 20.1219 77.22 20.349 77.1305 20.6108L75.4501 20.3722C75.5827 19.9081 75.8014 19.5204 76.1064 19.2088C76.4113 18.8939 76.7842 18.6586 77.225 18.5028C77.6658 18.3438 78.153 18.2642 78.6866 18.2642C79.0545 18.2642 79.4208 18.3073 79.7853 18.3935C80.1499 18.4796 80.483 18.6222 80.7846 18.821C81.0862 19.0166 81.3282 19.2834 81.5105 19.6214C81.6961 19.9595 81.7889 20.3821 81.7889 20.8892V26H80.0588V24.951H79.9991C79.8897 25.1631 79.7356 25.362 79.5368 25.5476C79.3412 25.7299 79.0943 25.8774 78.796 25.9901C78.501 26.0994 78.1547 26.1541 77.7569 26.1541ZM78.2243 24.8317C78.5855 24.8317 78.8987 24.7604 79.1639 24.6179C79.429 24.4721 79.6329 24.2798 79.7754 24.0412C79.9212 23.8026 79.9941 23.5424 79.9941 23.2607V22.3608C79.9378 22.4072 79.8417 22.4503 79.7058 22.4901C79.5732 22.5298 79.4241 22.5646 79.2583 22.5945C79.0926 22.6243 78.9286 22.6508 78.7662 22.674C78.6038 22.6972 78.4629 22.7171 78.3436 22.7337C78.0751 22.7701 77.8348 22.8298 77.6227 22.9126C77.4106 22.9955 77.2432 23.1115 77.1206 23.2607C76.9979 23.4065 76.9366 23.5954 76.9366 23.8274C76.9366 24.1589 77.0576 24.4091 77.2995 24.5781C77.5415 24.7472 77.8497 24.8317 78.2243 24.8317ZM86.9295 26.1491C86.1672 26.1491 85.5126 25.9818 84.9657 25.647C84.4222 25.3123 84.0029 24.8499 83.7079 24.2599C83.4163 23.6667 83.2704 22.9839 83.2704 22.2116C83.2704 21.4361 83.4196 20.7517 83.7179 20.1584C84.0162 19.5618 84.4371 19.0978 84.9806 18.7663C85.5275 18.4316 86.1738 18.2642 86.9196 18.2642C87.5394 18.2642 88.0879 18.3786 88.5652 18.6072C89.0458 18.8326 89.4286 19.1525 89.7136 19.5668C89.9986 19.9777 90.161 20.4583 90.2008 21.0085H88.4806C88.411 20.6406 88.2453 20.334 87.9835 20.0888C87.725 19.8402 87.3786 19.7159 86.9444 19.7159C86.5765 19.7159 86.2534 19.8153 85.975 20.0142C85.6966 20.2098 85.4795 20.4915 85.3237 20.8594C85.1712 21.2273 85.095 21.6681 85.095 22.1818C85.095 22.7022 85.1712 23.1496 85.3237 23.5241C85.4761 23.8954 85.6899 24.1821 85.965 24.3842C86.2434 24.5831 86.5699 24.6825 86.9444 24.6825C87.2096 24.6825 87.4466 24.6328 87.6554 24.5334C87.8675 24.4306 88.0448 24.2831 88.1873 24.0909C88.3298 23.8987 88.4276 23.665 88.4806 23.3899H90.2008C90.1577 23.9302 89.9986 24.4091 89.7235 24.8267C89.4484 25.241 89.0739 25.5658 88.6 25.8011C88.126 26.0331 87.5692 26.1491 86.9295 26.1491ZM95.0593 26.1491C94.2937 26.1491 93.6325 25.9901 93.0756 25.6719C92.5221 25.3504 92.0962 24.8963 91.7979 24.3097C91.4996 23.7197 91.3505 23.0253 91.3505 22.2266C91.3505 21.4411 91.4996 20.7517 91.7979 20.1584C92.0996 19.5618 92.5205 19.0978 93.0607 18.7663C93.601 18.4316 94.2357 18.2642 94.9648 18.2642C95.4355 18.2642 95.8796 18.3404 96.2972 18.4929C96.7182 18.642 97.0894 18.8741 97.4109 19.1889C97.7357 19.5038 97.9909 19.9048 98.1765 20.392C98.3621 20.8759 98.4549 21.4527 98.4549 22.1222V22.674H92.1957V21.4609H96.7298C96.7264 21.1162 96.6519 20.8097 96.506 20.5412C96.3602 20.2694 96.1564 20.0556 95.8945 19.8999C95.636 19.7441 95.3344 19.6662 94.9897 19.6662C94.6218 19.6662 94.2987 19.7557 94.0202 19.9347C93.7418 20.1103 93.5247 20.3423 93.369 20.6307C93.2165 20.9157 93.1386 21.2289 93.1353 21.5703V22.6293C93.1353 23.0734 93.2165 23.4545 93.3789 23.7727C93.5413 24.0876 93.7683 24.3295 94.06 24.4986C94.3517 24.6643 94.6931 24.7472 95.0842 24.7472C95.346 24.7472 95.583 24.7107 95.7951 24.6378C96.0072 24.5616 96.1912 24.4505 96.3469 24.3047C96.5027 24.1589 96.6204 23.9782 96.6999 23.7628L98.3803 23.9517C98.2743 24.3958 98.0721 24.7836 97.7738 25.1151C97.4788 25.4432 97.101 25.6984 96.6403 25.8807C96.1796 26.0597 95.6526 26.1491 95.0593 26.1491ZM100.057 26V15.8182H101.857V19.6264H101.931C102.024 19.4408 102.155 19.2436 102.324 19.0348C102.493 18.8227 102.722 18.642 103.01 18.4929C103.298 18.3404 103.666 18.2642 104.114 18.2642C104.704 18.2642 105.236 18.415 105.71 18.7166C106.187 19.0149 106.565 19.4574 106.843 20.044C107.125 20.6274 107.266 21.3433 107.266 22.1918C107.266 23.0303 107.128 23.7429 106.853 24.3295C106.578 24.9162 106.204 25.3636 105.73 25.6719C105.256 25.9801 104.719 26.1342 104.119 26.1342C103.681 26.1342 103.318 26.0613 103.03 25.9155C102.742 25.7696 102.51 25.594 102.334 25.3885C102.162 25.1797 102.027 24.9825 101.931 24.7969H101.827V26H100.057ZM101.822 22.1818C101.822 22.6757 101.892 23.1082 102.031 23.4794C102.173 23.8506 102.377 24.1406 102.642 24.3494C102.911 24.5549 103.235 24.6577 103.617 24.6577C104.014 24.6577 104.347 24.5516 104.616 24.3395C104.884 24.1241 105.087 23.8307 105.222 23.4595C105.362 23.085 105.431 22.6591 105.431 22.1818C105.431 21.7079 105.363 21.2869 105.227 20.919C105.092 20.5511 104.889 20.2628 104.621 20.054C104.352 19.8452 104.018 19.7408 103.617 19.7408C103.232 19.7408 102.906 19.8419 102.637 20.044C102.369 20.2462 102.165 20.5296 102.026 20.8942C101.89 21.2588 101.822 21.688 101.822 22.1818ZM112.127 26.1491C111.381 26.1491 110.735 25.9851 110.188 25.657C109.641 25.3288 109.217 24.8698 108.915 24.2798C108.617 23.6899 108.468 23.0005 108.468 22.2116C108.468 21.4228 108.617 20.7318 108.915 20.1385C109.217 19.5452 109.641 19.0845 110.188 18.7564C110.735 18.4283 111.381 18.2642 112.127 18.2642C112.873 18.2642 113.519 18.4283 114.066 18.7564C114.613 19.0845 115.035 19.5452 115.333 20.1385C115.635 20.7318 115.786 21.4228 115.786 22.2116C115.786 23.0005 115.635 23.6899 115.333 24.2798C115.035 24.8698 114.613 25.3288 114.066 25.657C113.519 25.9851 112.873 26.1491 112.127 26.1491ZM112.137 24.7074C112.541 24.7074 112.879 24.5964 113.151 24.3743C113.423 24.1489 113.625 23.8473 113.757 23.4695C113.893 23.0916 113.961 22.6707 113.961 22.2067C113.961 21.7393 113.893 21.3168 113.757 20.9389C113.625 20.5578 113.423 20.2545 113.151 20.0291C112.879 19.8037 112.541 19.6911 112.137 19.6911C111.722 19.6911 111.378 19.8037 111.103 20.0291C110.831 20.2545 110.627 20.5578 110.491 20.9389C110.359 21.3168 110.292 21.7393 110.292 22.2067C110.292 22.6707 110.359 23.0916 110.491 23.4695C110.627 23.8473 110.831 24.1489 111.103 24.3743C111.378 24.5964 111.722 24.7074 112.137 24.7074ZM120.644 26.1491C119.899 26.1491 119.252 25.9851 118.705 25.657C118.159 25.3288 117.734 24.8698 117.433 24.2798C117.134 23.6899 116.985 23.0005 116.985 22.2116C116.985 21.4228 117.134 20.7318 117.433 20.1385C117.734 19.5452 118.159 19.0845 118.705 18.7564C119.252 18.4283 119.899 18.2642 120.644 18.2642C121.39 18.2642 122.036 18.4283 122.583 18.7564C123.13 19.0845 123.553 19.5452 123.851 20.1385C124.153 20.7318 124.303 21.4228 124.303 22.2116C124.303 23.0005 124.153 23.6899 123.851 24.2798C123.553 24.8698 123.13 25.3288 122.583 25.657C122.036 25.9851 121.39 26.1491 120.644 26.1491ZM120.654 24.7074C121.059 24.7074 121.397 24.5964 121.669 24.3743C121.94 24.1489 122.142 23.8473 122.275 23.4695C122.411 23.0916 122.479 22.6707 122.479 22.2067C122.479 21.7393 122.411 21.3168 122.275 20.9389C122.142 20.5578 121.94 20.2545 121.669 20.0291C121.397 19.8037 121.059 19.6911 120.654 19.6911C120.24 19.6911 119.895 19.8037 119.62 20.0291C119.348 20.2545 119.145 20.5578 119.009 20.9389C118.876 21.3168 118.81 21.7393 118.81 22.2067C118.81 22.6707 118.876 23.0916 119.009 23.4695C119.145 23.8473 119.348 24.1489 119.62 24.3743C119.895 24.5964 120.24 24.7074 120.654 24.7074ZM127.472 23.6037L127.467 21.4311H127.755L130.499 18.3636H132.602L129.227 22.1222H128.854L127.472 23.6037ZM125.831 26V15.8182H127.631V26H125.831ZM130.624 26L128.138 22.5249L129.351 21.2571L132.776 26H130.624Z" fill="white"/>
</g>
<defs>
<filter id="filter0_d_4170_24959" x="0" y="0" width="164" height="44" filterUnits="userSpaceOnUse" color-interpolation-filters="sRGB">
<feFlood flood-opacity="0" result="BackgroundImageFix"/>
<feColorMatrix in="SourceAlpha" type="matrix" values="0 0 0 0 0 0 0 0 0 0 0 0 0 0 0 0 0 0 127 0" result="hardAlpha"/>
<feOffset dy="1"/>
<feGaussianBlur stdDeviation="1"/>
<feColorMatrix type="matrix" values="0 0 0 0 0.0627451 0 0 0 0 0.0941176 0 0 0 0 0.156863 0 0 0 0.05 0"/>
<feBlend mode="normal" in2="BackgroundImageFix" result="effect1_dropShadow_4170_24959"/>
<feBlend mode="normal" in="SourceGraphic" in2="effect1_dropShadow_4170_24959" result="shape"/>
</filter>
<clipPath id="clip0_4170_24959">
<rect width="24" height="24" fill="white" transform="translate(30.5 9)"/>
</clipPath>
</defs>
</svg>
