<svg width="164" height="44" viewBox="0 0 164 44" fill="none" xmlns="http://www.w3.org/2000/svg">
<g filter="url(#filter0_d_4170_24980)">
<path d="M2 9C2 4.58172 5.58172 1 10 1H154C158.418 1 162 4.58172 162 9V33C162 37.4183 158.418 41 154 41H10C5.58172 41 2 37.4183 2 33V9Z" fill="#870064"/>
<path d="M47.5 16L55.6649 21.7154C56.3261 22.1783 56.6567 22.4097 57.0163 22.4993C57.3339 22.5785 57.6661 22.5785 57.9837 22.4993C58.3433 22.4097 58.6739 22.1783 59.3351 21.7154L67.5 16M52.3 29H62.7C64.3802 29 65.2202 29 65.862 28.673C66.4265 28.3854 66.8854 27.9265 67.173 27.362C67.5 26.7202 67.5 25.8802 67.5 24.2V17.8C67.5 16.1198 67.5 15.2798 67.173 14.638C66.8854 14.0735 66.4265 13.6146 65.862 13.327C65.2202 13 64.3802 13 62.7 13H52.3C50.6198 13 49.7798 13 49.138 13.327C48.5735 13.6146 48.1146 14.0735 47.827 14.638C47.5 15.2798 47.5 16.1198 47.5 17.8V24.2C47.5 25.8802 47.5 26.7202 47.827 27.362C48.1146 27.9265 48.5735 28.3854 49.138 28.673C49.7798 29 50.6198 29 52.3 29Z" stroke="white" stroke-width="2" stroke-linecap="round" stroke-linejoin="round"/>
<path d="M82.5043 26V15.8182H89.1264V17.3643H84.3487V20.1286H88.7834V21.6747H84.3487V24.4538H89.1662V26H82.5043ZM90.9286 26V18.3636H92.6488V19.6612H92.7383C92.8974 19.2237 93.1609 18.8823 93.5288 18.6371C93.8967 18.3885 94.3358 18.2642 94.8462 18.2642C95.3633 18.2642 95.7991 18.3902 96.1538 18.642C96.5117 18.8906 96.7636 19.2304 96.9094 19.6612H96.989C97.158 19.237 97.4431 18.8989 97.8441 18.647C98.2485 18.3918 98.7274 18.2642 99.2809 18.2642C99.9835 18.2642 100.557 18.4863 101.001 18.9304C101.445 19.3745 101.667 20.0225 101.667 20.8743V26H99.8626V21.1527C99.8626 20.6787 99.7366 20.3324 99.4847 20.1136C99.2328 19.8916 98.9246 19.7805 98.56 19.7805C98.1258 19.7805 97.7861 19.9164 97.5408 20.1882C97.2989 20.4567 97.1779 20.8063 97.1779 21.2372V26H95.413V21.0781C95.413 20.6837 95.2937 20.3688 95.055 20.1335C94.8197 19.8982 94.5115 19.7805 94.1303 19.7805C93.8718 19.7805 93.6365 19.8468 93.4244 19.9794C93.2122 20.1087 93.0432 20.2926 92.9173 20.5312C92.7913 20.7666 92.7283 21.0417 92.7283 21.3565V26H90.9286ZM105.691 26.1541C105.207 26.1541 104.771 26.0679 104.383 25.8956C103.999 25.7199 103.694 25.4614 103.468 25.12C103.246 24.7786 103.135 24.3577 103.135 23.8572C103.135 23.4264 103.215 23.0701 103.374 22.7884C103.533 22.5066 103.75 22.2812 104.025 22.1122C104.3 21.9432 104.61 21.8156 104.955 21.7294C105.303 21.6399 105.662 21.5753 106.034 21.5355C106.481 21.4891 106.844 21.4477 107.122 21.4112C107.401 21.3714 107.603 21.3118 107.729 21.2322C107.858 21.1494 107.923 21.0218 107.923 20.8494V20.8196C107.923 20.4451 107.812 20.1551 107.59 19.9496C107.368 19.7441 107.048 19.6413 106.63 19.6413C106.189 19.6413 105.84 19.7375 105.581 19.9297C105.326 20.1219 105.154 20.349 105.064 20.6108L103.384 20.3722C103.516 19.9081 103.735 19.5204 104.04 19.2088C104.345 18.8939 104.718 18.6586 105.159 18.5028C105.599 18.3438 106.087 18.2642 106.62 18.2642C106.988 18.2642 107.354 18.3073 107.719 18.3935C108.084 18.4796 108.417 18.6222 108.718 18.821C109.02 19.0166 109.262 19.2834 109.444 19.6214C109.63 19.9595 109.722 20.3821 109.722 20.8892V26H107.992V24.951H107.933C107.823 25.1631 107.669 25.362 107.47 25.5476C107.275 25.7299 107.028 25.8774 106.73 25.9901C106.435 26.0994 106.088 26.1541 105.691 26.1541ZM106.158 24.8317C106.519 24.8317 106.832 24.7604 107.097 24.6179C107.363 24.4721 107.566 24.2798 107.709 24.0412C107.855 23.8026 107.928 23.5424 107.928 23.2607V22.3608C107.871 22.4072 107.775 22.4503 107.639 22.4901C107.507 22.5298 107.358 22.5646 107.192 22.5945C107.026 22.6243 106.862 22.6508 106.7 22.674C106.537 22.6972 106.396 22.7171 106.277 22.7337C106.009 22.7701 105.768 22.8298 105.556 22.9126C105.344 22.9955 105.177 23.1115 105.054 23.2607C104.932 23.4065 104.87 23.5954 104.87 23.8274C104.87 24.1589 104.991 24.4091 105.233 24.5781C105.475 24.7472 105.783 24.8317 106.158 24.8317ZM111.532 26V18.3636H113.332V26H111.532ZM112.437 17.2798C112.152 17.2798 111.907 17.1854 111.701 16.9964C111.496 16.8042 111.393 16.5739 111.393 16.3054C111.393 16.0336 111.496 15.8033 111.701 15.6143C111.907 15.4221 112.152 15.326 112.437 15.326C112.725 15.326 112.971 15.4221 113.173 15.6143C113.378 15.8033 113.481 16.0336 113.481 16.3054C113.481 16.5739 113.378 16.8042 113.173 16.9964C112.971 17.1854 112.725 17.2798 112.437 17.2798ZM116.982 15.8182V26H115.183V15.8182H116.982Z" fill="white"/>
</g>
<defs>
<filter id="filter0_d_4170_24980" x="0" y="0" width="164" height="44" filterUnits="userSpaceOnUse" color-interpolation-filters="sRGB">
<feFlood flood-opacity="0" result="BackgroundImageFix"/>
<feColorMatrix in="SourceAlpha" type="matrix" values="0 0 0 0 0 0 0 0 0 0 0 0 0 0 0 0 0 0 127 0" result="hardAlpha"/>
<feOffset dy="1"/>
<feGaussianBlur stdDeviation="1"/>
<feColorMatrix type="matrix" values="0 0 0 0 0.0627451 0 0 0 0 0.0941176 0 0 0 0 0.156863 0 0 0 0.05 0"/>
<feBlend mode="normal" in2="BackgroundImageFix" result="effect1_dropShadow_4170_24980"/>
<feBlend mode="normal" in="SourceGraphic" in2="effect1_dropShadow_4170_24980" result="shape"/>
</filter>
</defs>
</svg>
