<svg width="32" height="32" viewBox="0 0 32 32" fill="none" xmlns="http://www.w3.org/2000/svg">
<g filter="url(#filter0_iii_1867_40400)">
<path d="M15.8214 11.106C15.651 11.7678 15.0724 12.2615 14.3884 12.6035C12.4494 13.2744 10.9178 13.9197 9.65054 14.5462C8.52862 15.1008 8.53945 16.8535 9.665 17.4007C10.9801 18.04 12.6313 18.6532 14.4651 19.3801C14.9581 19.5756 15.6549 20.1278 15.8284 20.8066C16.3629 22.8983 17.0901 25.1126 17.8908 27.1568C18.5125 28.7436 20.0493 28.7424 20.6739 27.1568C21.4848 25.0984 22.1009 22.875 22.7962 20.7596C22.9626 20.1064 23.4552 19.5899 24.0905 19.3649C25.8075 18.7566 27.4626 18.0702 28.8118 17.476C30.0717 16.9211 30.0976 15.1195 28.8535 14.5301C27.525 13.9007 25.8724 13.1719 24.0823 12.5214C23.4522 12.2925 22.9675 11.8093 22.7436 11.1235C21.989 8.81255 21.5109 6.85329 20.7093 4.81862C20.0846 3.23297 18.4448 3.28177 17.8201 4.86742C17.0215 6.89458 16.4639 8.91235 15.8214 11.106Z" fill="url(#paint0_linear_1867_40400)"/>
</g>
<path d="M15.8214 11.106C15.651 11.7678 15.0724 12.2615 14.3884 12.6035C12.4494 13.2744 10.9178 13.9197 9.65054 14.5462C8.52862 15.1008 8.53945 16.8535 9.665 17.4007C10.9801 18.04 12.6313 18.6532 14.4651 19.3801C14.9581 19.5756 15.6549 20.1278 15.8284 20.8066C16.3629 22.8983 17.0901 25.1126 17.8908 27.1568C18.5125 28.7436 20.0493 28.7424 20.6739 27.1568C21.4848 25.0984 22.1009 22.875 22.7962 20.7596C22.9626 20.1064 23.4552 19.5899 24.0905 19.3649C25.8075 18.7566 27.4626 18.0702 28.8118 17.476C30.0717 16.9211 30.0976 15.1195 28.8535 14.5301C27.525 13.9007 25.8724 13.1719 24.0823 12.5214C23.4522 12.2925 22.9675 11.8093 22.7436 11.1235C21.989 8.81255 21.5109 6.85329 20.7093 4.81862C20.0846 3.23297 18.4448 3.28177 17.8201 4.86742C17.0215 6.89458 16.4639 8.91235 15.8214 11.106Z" fill="url(#paint1_linear_1867_40400)"/>
<g filter="url(#filter1_ii_1867_40400)">
<path d="M7.76778 5.8163C7.71293 6.02931 7.52669 6.18821 7.30655 6.29828C6.68247 6.5142 6.18953 6.72192 5.78164 6.92356C5.42054 7.10206 5.42403 7.66617 5.78629 7.84228C6.20957 8.04806 6.74101 8.24542 7.33122 8.47939C7.48992 8.5423 7.71418 8.72003 7.77001 8.9385C7.94205 9.61173 8.17611 10.3244 8.43384 10.9824C8.63391 11.4931 9.12855 11.4927 9.3296 10.9824C9.59058 10.3199 9.78887 9.60424 10.0127 8.92337C10.0662 8.71315 10.2248 8.54692 10.4292 8.47448C10.9819 8.27872 11.5146 8.05779 11.9488 7.86653C12.3543 7.68793 12.3627 7.10808 11.9622 6.91838C11.5347 6.7158 11.0028 6.48121 10.4266 6.27186C10.2238 6.19817 10.0678 6.04267 9.99573 5.82194C9.75287 5.07814 9.59898 4.44754 9.34099 3.79266C9.13993 3.28231 8.61213 3.29802 8.41107 3.80837C8.15402 4.46083 7.97457 5.11026 7.76778 5.8163Z" fill="url(#paint2_linear_1867_40400)"/>
</g>
<path d="M7.76778 5.8163C7.71293 6.02931 7.52669 6.18821 7.30655 6.29828C6.68247 6.5142 6.18953 6.72192 5.78164 6.92356C5.42054 7.10206 5.42403 7.66617 5.78629 7.84228C6.20957 8.04806 6.74101 8.24542 7.33122 8.47939C7.48992 8.5423 7.71418 8.72003 7.77001 8.9385C7.94205 9.61173 8.17611 10.3244 8.43384 10.9824C8.63391 11.4931 9.12855 11.4927 9.3296 10.9824C9.59058 10.3199 9.78887 9.60424 10.0127 8.92337C10.0662 8.71315 10.2248 8.54692 10.4292 8.47448C10.9819 8.27872 11.5146 8.05779 11.9488 7.86653C12.3543 7.68793 12.3627 7.10808 11.9622 6.91838C11.5347 6.7158 11.0028 6.48121 10.4266 6.27186C10.2238 6.19817 10.0678 6.04267 9.99573 5.82194C9.75287 5.07814 9.59898 4.44754 9.34099 3.79266C9.13993 3.28231 8.61213 3.29802 8.41107 3.80837C8.15402 4.46083 7.97457 5.11026 7.76778 5.8163Z" fill="url(#paint3_linear_1867_40400)"/>
<g filter="url(#filter2_i_1867_40400)">
<path d="M5.22615 20.0657C5.14967 20.3627 4.88997 20.5843 4.58299 20.7378C3.71274 21.0389 3.02535 21.3285 2.45657 21.6097C1.95304 21.8586 1.9579 22.6452 2.46306 22.8908C3.0533 23.1778 3.79436 23.453 4.6174 23.7792C4.83869 23.8669 5.15142 24.1148 5.22926 24.4194C5.46916 25.3582 5.79555 26.3521 6.15494 27.2695C6.43394 27.9817 7.12368 27.9812 7.40404 27.2695C7.76797 26.3457 8.04446 25.3478 8.35652 24.3983C8.4312 24.1052 8.6523 23.8734 8.93744 23.7724C9.70806 23.4994 10.4509 23.1913 11.0564 22.9246C11.6219 22.6756 11.6335 21.867 11.0751 21.6025C10.4789 21.32 9.73717 20.9929 8.93375 20.7009C8.65096 20.5982 8.43342 20.3813 8.33292 20.0735C7.99426 19.0363 7.77968 18.157 7.41992 17.2438C7.13955 16.5321 6.40356 16.554 6.12319 17.2657C5.76475 18.1755 5.51452 19.0811 5.22615 20.0657Z" fill="url(#paint4_radial_1867_40400)"/>
</g>
<defs>
<filter id="filter0_iii_1867_40400" x="8.41494" y="3.4035" width="21.607" height="25.1929" filterUnits="userSpaceOnUse" color-interpolation-filters="sRGB">
<feFlood flood-opacity="0" result="BackgroundImageFix"/>
<feBlend mode="normal" in="SourceGraphic" in2="BackgroundImageFix" result="shape"/>
<feColorMatrix in="SourceAlpha" type="matrix" values="0 0 0 0 0 0 0 0 0 0 0 0 0 0 0 0 0 0 127 0" result="hardAlpha"/>
<feOffset dx="0.25" dy="-0.25"/>
<feGaussianBlur stdDeviation="0.25"/>
<feComposite in2="hardAlpha" operator="arithmetic" k2="-1" k3="1"/>
<feColorMatrix type="matrix" values="0 0 0 0 0.937255 0 0 0 0 0.482353 0 0 0 0 0.329412 0 0 0 1 0"/>
<feBlend mode="normal" in2="shape" result="effect1_innerShadow_1867_40400"/>
<feColorMatrix in="SourceAlpha" type="matrix" values="0 0 0 0 0 0 0 0 0 0 0 0 0 0 0 0 0 0 127 0" result="hardAlpha"/>
<feOffset dx="0.25" dy="0.25"/>
<feGaussianBlur stdDeviation="0.5"/>
<feComposite in2="hardAlpha" operator="arithmetic" k2="-1" k3="1"/>
<feColorMatrix type="matrix" values="0 0 0 0 0.737255 0 0 0 0 0.615686 0 0 0 0 0.415686 0 0 0 1 0"/>
<feBlend mode="normal" in2="effect1_innerShadow_1867_40400" result="effect2_innerShadow_1867_40400"/>
<feColorMatrix in="SourceAlpha" type="matrix" values="0 0 0 0 0 0 0 0 0 0 0 0 0 0 0 0 0 0 127 0" result="hardAlpha"/>
<feOffset dx="-0.4" dy="0.25"/>
<feGaussianBlur stdDeviation="0.2"/>
<feComposite in2="hardAlpha" operator="arithmetic" k2="-1" k3="1"/>
<feColorMatrix type="matrix" values="0 0 0 0 1 0 0 0 0 0.901961 0 0 0 0 0.458824 0 0 0 1 0"/>
<feBlend mode="normal" in2="effect2_innerShadow_1867_40400" result="effect3_innerShadow_1867_40400"/>
</filter>
<filter id="filter1_ii_1867_40400" x="5.4127" y="3.41766" width="6.94512" height="8.04763" filterUnits="userSpaceOnUse" color-interpolation-filters="sRGB">
<feFlood flood-opacity="0" result="BackgroundImageFix"/>
<feBlend mode="normal" in="SourceGraphic" in2="BackgroundImageFix" result="shape"/>
<feColorMatrix in="SourceAlpha" type="matrix" values="0 0 0 0 0 0 0 0 0 0 0 0 0 0 0 0 0 0 127 0" result="hardAlpha"/>
<feOffset dx="0.1" dy="0.1"/>
<feGaussianBlur stdDeviation="0.1"/>
<feComposite in2="hardAlpha" operator="arithmetic" k2="-1" k3="1"/>
<feColorMatrix type="matrix" values="0 0 0 0 0.803922 0 0 0 0 0.6 0 0 0 0 0.262745 0 0 0 1 0"/>
<feBlend mode="normal" in2="shape" result="effect1_innerShadow_1867_40400"/>
<feColorMatrix in="SourceAlpha" type="matrix" values="0 0 0 0 0 0 0 0 0 0 0 0 0 0 0 0 0 0 127 0" result="hardAlpha"/>
<feOffset dx="-0.1" dy="0.1"/>
<feGaussianBlur stdDeviation="0.1"/>
<feComposite in2="hardAlpha" operator="arithmetic" k2="-1" k3="1"/>
<feColorMatrix type="matrix" values="0 0 0 0 1 0 0 0 0 0.882353 0 0 0 0 0.423529 0 0 0 1 0"/>
<feBlend mode="normal" in2="effect1_innerShadow_1867_40400" result="effect2_innerShadow_1867_40400"/>
</filter>
<filter id="filter2_i_1867_40400" x="2.08154" y="16.5709" width="9.55576" height="11.2326" filterUnits="userSpaceOnUse" color-interpolation-filters="sRGB">
<feFlood flood-opacity="0" result="BackgroundImageFix"/>
<feBlend mode="normal" in="SourceGraphic" in2="BackgroundImageFix" result="shape"/>
<feColorMatrix in="SourceAlpha" type="matrix" values="0 0 0 0 0 0 0 0 0 0 0 0 0 0 0 0 0 0 127 0" result="hardAlpha"/>
<feOffset dx="0.15" dy="-0.15"/>
<feGaussianBlur stdDeviation="0.15"/>
<feComposite in2="hardAlpha" operator="arithmetic" k2="-1" k3="1"/>
<feColorMatrix type="matrix" values="0 0 0 0 1 0 0 0 0 0.458824 0 0 0 0 0.462745 0 0 0 1 0"/>
<feBlend mode="normal" in2="shape" result="effect1_innerShadow_1867_40400"/>
</filter>
<linearGradient id="paint0_linear_1867_40400" x1="26.1289" y1="11.2713" x2="15.0526" y2="22.9314" gradientUnits="userSpaceOnUse">
<stop stop-color="#FFCF5A"/>
<stop offset="1" stop-color="#FEA254"/>
</linearGradient>
<linearGradient id="paint1_linear_1867_40400" x1="14.754" y1="29.2903" x2="20.7919" y2="16.5541" gradientUnits="userSpaceOnUse">
<stop stop-color="#FF886D"/>
<stop offset="1" stop-color="#FF886D" stop-opacity="0"/>
</linearGradient>
<linearGradient id="paint2_linear_1867_40400" x1="11.0853" y1="5.86949" x2="7.52035" y2="9.62239" gradientUnits="userSpaceOnUse">
<stop stop-color="#FFDA72"/>
<stop offset="1" stop-color="#F7A967"/>
</linearGradient>
<linearGradient id="paint3_linear_1867_40400" x1="8.88525" y1="11.9803" x2="8.88525" y2="7.85532" gradientUnits="userSpaceOnUse">
<stop stop-color="#FDA071"/>
<stop offset="1" stop-color="#FDA071" stop-opacity="0"/>
</linearGradient>
<radialGradient id="paint4_radial_1867_40400" cx="0" cy="0" r="1" gradientUnits="userSpaceOnUse" gradientTransform="translate(10.0137 18.5671) rotate(127.221) scale(7.07598 6.89067)">
<stop offset="0.364601" stop-color="#FFBC64"/>
<stop offset="1" stop-color="#FF8F6B"/>
</radialGradient>
</defs>
</svg>
