<svg width="48" height="48" viewBox="0 0 48 48" fill="none" xmlns="http://www.w3.org/2000/svg">
<path d="M24.0029 19.8301C27.3814 19.8301 30.1201 17.0913 30.1201 13.7129C30.1201 13.6738 30.1198 13.6347 30.119 13.5957H17.8868C17.8861 13.6347 17.8857 13.6738 17.8857 13.7129C17.8857 17.0913 20.6245 19.8301 24.0029 19.8301Z" fill="url(#paint0_linear_2316_55760)"/>
<path d="M24.0029 19.8301C27.3814 19.8301 30.1201 17.0913 30.1201 13.7129C30.1201 13.6738 30.1198 13.6347 30.119 13.5957H17.8868C17.8861 13.6347 17.8857 13.6738 17.8857 13.7129C17.8857 17.0913 20.6245 19.8301 24.0029 19.8301Z" fill="url(#paint1_radial_2316_55760)"/>
<g filter="url(#filter0_f_2316_55760)">
<path d="M17.4355 15.4692C17.2717 15.4692 17.1357 15.5976 17.1357 15.7615C17.1357 18.9079 20.5487 20.5569 23.6997 20.5569C26.8507 20.5569 29.4081 18.0092 29.4081 14.8628C29.4081 14.699 29.2722 14.5706 29.1083 14.5706H28.4442C28.2858 14.5706 28.1612 14.7045 28.1612 14.8628C28.1612 17.3173 26.1654 19.31 23.6997 19.31C21.234 19.31 18.3826 18.2159 18.3826 15.7615C18.3826 15.6031 18.258 15.4692 18.0997 15.4692H17.4355Z" fill="#4B892A"/>
</g>
<path d="M3.71162 20.61C3.30327 19.9031 3.53327 19.0006 4.23194 18.5783C6.40302 17.2659 10.6699 14.6903 11.1037 14.4571C11.8755 14.0423 12.2462 13.9473 12.2462 13.9473L17.5608 22.0892L9.11467 26.9656C8.39733 27.3798 7.48008 27.1341 7.06578 26.4168L3.71162 20.61Z" fill="url(#paint2_linear_2316_55760)"/>
<path d="M3.71162 20.61C3.30327 19.9031 3.53327 19.0006 4.23194 18.5783C6.40302 17.2659 10.6699 14.6903 11.1037 14.4571C11.8755 14.0423 12.2462 13.9473 12.2462 13.9473L17.5608 22.0892L9.11467 26.9656C8.39733 27.3798 7.48008 27.1341 7.06578 26.4168L3.71162 20.61Z" fill="url(#paint3_linear_2316_55760)"/>
<path d="M3.71162 20.61C3.30327 19.9031 3.53327 19.0006 4.23194 18.5783C6.40302 17.2659 10.6699 14.6903 11.1037 14.4571C11.8755 14.0423 12.2462 13.9473 12.2462 13.9473L17.5608 22.0892L9.11467 26.9656C8.39733 27.3798 7.48008 27.1341 7.06578 26.4168L3.71162 20.61Z" fill="url(#paint4_radial_2316_55760)"/>
<path d="M3.71162 20.61C3.30327 19.9031 3.53327 19.0006 4.23194 18.5783C6.40302 17.2659 10.6699 14.6903 11.1037 14.4571C11.8755 14.0423 12.2462 13.9473 12.2462 13.9473L17.5608 22.0892L9.11467 26.9656C8.39733 27.3798 7.48008 27.1341 7.06578 26.4168L3.71162 20.61Z" fill="url(#paint5_linear_2316_55760)"/>
<path d="M3.71162 20.61C3.30327 19.9031 3.53327 19.0006 4.23194 18.5783C6.40302 17.2659 10.6699 14.6903 11.1037 14.4571C11.8755 14.0423 12.2462 13.9473 12.2462 13.9473L17.5608 22.0892L9.11467 26.9656C8.39733 27.3798 7.48008 27.1341 7.06578 26.4168L3.71162 20.61Z" fill="url(#paint6_radial_2316_55760)"/>
<path d="M44.2942 20.61C44.7025 19.9031 44.4725 19.0006 43.7738 18.5783C41.6028 17.2659 37.5929 14.8285 36.9021 14.4571C36.2113 14.0858 35.7596 13.9473 35.7596 13.9473L30.4449 22.0892L38.8911 26.9656C39.6084 27.3798 40.5257 27.1341 40.94 26.4168L44.2942 20.61Z" fill="url(#paint7_linear_2316_55760)"/>
<path d="M44.2942 20.61C44.7025 19.9031 44.4725 19.0006 43.7738 18.5783C41.6028 17.2659 37.5929 14.8285 36.9021 14.4571C36.2113 14.0858 35.7596 13.9473 35.7596 13.9473L30.4449 22.0892L38.8911 26.9656C39.6084 27.3798 40.5257 27.1341 40.94 26.4168L44.2942 20.61Z" fill="url(#paint8_linear_2316_55760)"/>
<path d="M44.2942 20.61C44.7025 19.9031 44.4725 19.0006 43.7738 18.5783C41.6028 17.2659 37.5929 14.8285 36.9021 14.4571C36.2113 14.0858 35.7596 13.9473 35.7596 13.9473L30.4449 22.0892L38.8911 26.9656C39.6084 27.3798 40.5257 27.1341 40.94 26.4168L44.2942 20.61Z" fill="url(#paint9_radial_2316_55760)"/>
<path d="M44.2942 20.61C44.7025 19.9031 44.4725 19.0006 43.7738 18.5783C41.6028 17.2659 37.5929 14.8285 36.9021 14.4571C36.2113 14.0858 35.7596 13.9473 35.7596 13.9473L30.4449 22.0892L38.8911 26.9656C39.6084 27.3798 40.5257 27.1341 40.94 26.4168L44.2942 20.61Z" fill="url(#paint10_linear_2316_55760)"/>
<path d="M44.2942 20.61C44.7025 19.9031 44.4725 19.0006 43.7738 18.5783C41.6028 17.2659 37.5929 14.8285 36.9021 14.4571C36.2113 14.0858 35.7596 13.9473 35.7596 13.9473L30.4449 22.0892L38.8911 26.9656C39.6084 27.3798 40.5257 27.1341 40.94 26.4168L44.2942 20.61Z" fill="url(#paint11_linear_2316_55760)"/>
<path d="M14.9518 13.5957C14.0346 13.5957 13.1213 13.7139 12.2344 13.9473V44.0645C12.2344 44.4787 12.5701 44.8145 12.9844 44.8145H35.0156C35.4299 44.8145 35.7656 44.4787 35.7656 44.0645V13.9473L35.7033 13.9322C34.7794 13.7087 33.8321 13.5957 32.8815 13.5957H30.1189C30.1196 13.6347 30.12 13.6738 30.12 13.7129C30.12 17.0913 27.3812 19.8301 24.0028 19.8301C20.6244 19.8301 17.8856 17.0913 17.8856 13.7129C17.8856 13.6738 17.886 13.6347 17.8867 13.5957H14.9518Z" fill="url(#paint12_linear_2316_55760)"/>
<path d="M14.9518 13.5957C14.0346 13.5957 13.1213 13.7139 12.2344 13.9473V44.0645C12.2344 44.4787 12.5701 44.8145 12.9844 44.8145H35.0156C35.4299 44.8145 35.7656 44.4787 35.7656 44.0645V13.9473L35.7033 13.9322C34.7794 13.7087 33.8321 13.5957 32.8815 13.5957H30.1189C30.1196 13.6347 30.12 13.6738 30.12 13.7129C30.12 17.0913 27.3812 19.8301 24.0028 19.8301C20.6244 19.8301 17.8856 17.0913 17.8856 13.7129C17.8856 13.6738 17.886 13.6347 17.8867 13.5957H14.9518Z" fill="url(#paint13_linear_2316_55760)"/>
<path d="M14.9518 13.5957C14.0346 13.5957 13.1213 13.7139 12.2344 13.9473V44.0645C12.2344 44.4787 12.5701 44.8145 12.9844 44.8145H35.0156C35.4299 44.8145 35.7656 44.4787 35.7656 44.0645V13.9473L35.7033 13.9322C34.7794 13.7087 33.8321 13.5957 32.8815 13.5957H30.1189C30.1196 13.6347 30.12 13.6738 30.12 13.7129C30.12 17.0913 27.3812 19.8301 24.0028 19.8301C20.6244 19.8301 17.8856 17.0913 17.8856 13.7129C17.8856 13.6738 17.886 13.6347 17.8867 13.5957H14.9518Z" fill="url(#paint14_linear_2316_55760)"/>
<path d="M14.9518 13.5957C14.0346 13.5957 13.1213 13.7139 12.2344 13.9473V44.0645C12.2344 44.4787 12.5701 44.8145 12.9844 44.8145H35.0156C35.4299 44.8145 35.7656 44.4787 35.7656 44.0645V13.9473L35.7033 13.9322C34.7794 13.7087 33.8321 13.5957 32.8815 13.5957H30.1189C30.1196 13.6347 30.12 13.6738 30.12 13.7129C30.12 17.0913 27.3812 19.8301 24.0028 19.8301C20.6244 19.8301 17.8856 17.0913 17.8856 13.7129C17.8856 13.6738 17.886 13.6347 17.8867 13.5957H14.9518Z" fill="url(#paint15_linear_2316_55760)"/>
<path d="M14.9518 13.5957C14.0346 13.5957 13.1213 13.7139 12.2344 13.9473V44.0645C12.2344 44.4787 12.5701 44.8145 12.9844 44.8145H35.0156C35.4299 44.8145 35.7656 44.4787 35.7656 44.0645V13.9473L35.7033 13.9322C34.7794 13.7087 33.8321 13.5957 32.8815 13.5957H30.1189C30.1196 13.6347 30.12 13.6738 30.12 13.7129C30.12 17.0913 27.3812 19.8301 24.0028 19.8301C20.6244 19.8301 17.8856 17.0913 17.8856 13.7129C17.8856 13.6738 17.886 13.6347 17.8867 13.5957H14.9518Z" fill="url(#paint16_radial_2316_55760)"/>
<path d="M12.2344 28.0801V23.1582H35.7656V28.0801H12.2344Z" fill="url(#paint17_linear_2316_55760)"/>
<g filter="url(#filter1_ii_2316_55760)">
<path d="M17.4964 13.3787C17.2993 13.3787 17.1357 13.5332 17.1357 13.7303C17.1357 17.5154 20.2123 20.5802 24.0029 20.5802C27.7936 20.5802 30.8701 17.5154 30.8701 13.7303C30.8701 13.5332 30.7066 13.3787 30.5095 13.3787H29.7105C29.52 13.3787 29.3701 13.5397 29.3701 13.7303C29.3701 16.683 26.9691 19.0802 24.0029 19.0802C21.0367 19.0802 18.6357 16.683 18.6357 13.7303C18.6357 13.5397 18.4858 13.3787 18.2953 13.3787H17.4964Z" fill="url(#paint18_linear_2316_55760)"/>
</g>
<defs>
<filter id="filter0_f_2316_55760" x="16.1357" y="13.5706" width="14.2723" height="7.98633" filterUnits="userSpaceOnUse" color-interpolation-filters="sRGB">
<feFlood flood-opacity="0" result="BackgroundImageFix"/>
<feBlend mode="normal" in="SourceGraphic" in2="BackgroundImageFix" result="shape"/>
<feGaussianBlur stdDeviation="0.5" result="effect1_foregroundBlur_2316_55760"/>
</filter>
<filter id="filter1_ii_2316_55760" x="16.9357" y="13.1787" width="14.0344" height="7.50166" filterUnits="userSpaceOnUse" color-interpolation-filters="sRGB">
<feFlood flood-opacity="0" result="BackgroundImageFix"/>
<feBlend mode="normal" in="SourceGraphic" in2="BackgroundImageFix" result="shape"/>
<feColorMatrix in="SourceAlpha" type="matrix" values="0 0 0 0 0 0 0 0 0 0 0 0 0 0 0 0 0 0 127 0" result="hardAlpha"/>
<feOffset dx="0.1" dy="-0.2"/>
<feGaussianBlur stdDeviation="0.1"/>
<feComposite in2="hardAlpha" operator="arithmetic" k2="-1" k3="1"/>
<feColorMatrix type="matrix" values="0 0 0 0 0.164706 0 0 0 0 0.705882 0 0 0 0 0.368627 0 0 0 1 0"/>
<feBlend mode="normal" in2="shape" result="effect1_innerShadow_2316_55760"/>
<feColorMatrix in="SourceAlpha" type="matrix" values="0 0 0 0 0 0 0 0 0 0 0 0 0 0 0 0 0 0 127 0" result="hardAlpha"/>
<feOffset dx="-0.2" dy="0.1"/>
<feGaussianBlur stdDeviation="0.1"/>
<feComposite in2="hardAlpha" operator="arithmetic" k2="-1" k3="1"/>
<feColorMatrix type="matrix" values="0 0 0 0 0.286275 0 0 0 0 0.843137 0 0 0 0 0.486275 0 0 0 1 0"/>
<feBlend mode="normal" in2="effect1_innerShadow_2316_55760" result="effect2_innerShadow_2316_55760"/>
</filter>
<linearGradient id="paint0_linear_2316_55760" x1="24.0029" y1="13.5957" x2="24.0029" y2="18.3301" gradientUnits="userSpaceOnUse">
<stop stop-color="#A4D047"/>
<stop offset="1" stop-color="#66A749"/>
</linearGradient>
<radialGradient id="paint1_radial_2316_55760" cx="0" cy="0" r="1" gradientUnits="userSpaceOnUse" gradientTransform="translate(24.0029 13.5957) rotate(90) scale(5.90625 8.88422)">
<stop offset="0.484127" stop-color="#7FB84A" stop-opacity="0"/>
<stop offset="0.944444" stop-color="#4C8A3B"/>
</radialGradient>
<linearGradient id="paint2_linear_2316_55760" x1="13.2658" y1="19.924" x2="6.04706" y2="24.424" gradientUnits="userSpaceOnUse">
<stop stop-color="#90CC68"/>
<stop offset="1" stop-color="#98D766"/>
</linearGradient>
<linearGradient id="paint3_linear_2316_55760" x1="7.87518" y1="16.0333" x2="9.18768" y2="18.3302" gradientUnits="userSpaceOnUse">
<stop stop-color="#A6E36C"/>
<stop offset="1" stop-color="#A6E36C" stop-opacity="0"/>
</linearGradient>
<radialGradient id="paint4_radial_2316_55760" cx="0" cy="0" r="1" gradientUnits="userSpaceOnUse" gradientTransform="translate(4.54706 23.0646) rotate(-32.3998) scale(2.88691 15.1751)">
<stop offset="0.293699" stop-color="#7AB25C"/>
<stop offset="1" stop-color="#93D263" stop-opacity="0"/>
</radialGradient>
<linearGradient id="paint5_linear_2316_55760" x1="12.3283" y1="25.8771" x2="10.2189" y2="23.2052" gradientUnits="userSpaceOnUse">
<stop offset="0.130238" stop-color="#619B51"/>
<stop offset="1" stop-color="#85C26C" stop-opacity="0"/>
</linearGradient>
<radialGradient id="paint6_radial_2316_55760" cx="0" cy="0" r="1" gradientUnits="userSpaceOnUse" gradientTransform="translate(12.7971 23.5333) rotate(180) scale(1.59375 8.10938)">
<stop offset="0.125001" stop-color="#72B25A"/>
<stop offset="1" stop-color="#72B25A" stop-opacity="0"/>
</radialGradient>
<linearGradient id="paint7_linear_2316_55760" x1="35.8125" y1="20.0646" x2="43.2187" y2="23.3458" gradientUnits="userSpaceOnUse">
<stop stop-color="#95D669"/>
<stop offset="1" stop-color="#8FD670"/>
</linearGradient>
<linearGradient id="paint8_linear_2316_55760" x1="40.3594" y1="16.3146" x2="38.625" y2="19.4552" gradientUnits="userSpaceOnUse">
<stop offset="0.174377" stop-color="#C0FE7C"/>
<stop offset="1" stop-color="#98D969" stop-opacity="0"/>
</linearGradient>
<radialGradient id="paint9_radial_2316_55760" cx="0" cy="0" r="1" gradientUnits="userSpaceOnUse" gradientTransform="translate(35.2031 18.424) rotate(2.7263) scale(1.97098 19.0528)">
<stop offset="0.199095" stop-color="#ABF17B"/>
<stop offset="1" stop-color="#ABF17B" stop-opacity="0"/>
</radialGradient>
<linearGradient id="paint10_linear_2316_55760" x1="42.4219" y1="23.9552" x2="42.082" y2="23.7443" gradientUnits="userSpaceOnUse">
<stop stop-color="#8ECE6F"/>
<stop offset="1" stop-color="#8ECE6F" stop-opacity="0"/>
</linearGradient>
<linearGradient id="paint11_linear_2316_55760" x1="36.7031" y1="25.7833" x2="37.8281" y2="23.9552" gradientUnits="userSpaceOnUse">
<stop stop-color="#68A163"/>
<stop offset="1" stop-color="#84CC69" stop-opacity="0"/>
</linearGradient>
<linearGradient id="paint12_linear_2316_55760" x1="12.2344" y1="36.8457" x2="36.2812" y2="36.8457" gradientUnits="userSpaceOnUse">
<stop stop-color="#7ED279"/>
<stop offset="1" stop-color="#88EE94"/>
</linearGradient>
<linearGradient id="paint13_linear_2316_55760" x1="11.1562" y1="43.3145" x2="24" y2="43.3145" gradientUnits="userSpaceOnUse">
<stop stop-color="#6FBE75"/>
<stop offset="1" stop-color="#6FBE75" stop-opacity="0"/>
</linearGradient>
<linearGradient id="paint14_linear_2316_55760" x1="24" y1="13.5957" x2="24" y2="26.4395" gradientUnits="userSpaceOnUse">
<stop stop-color="#A5E26B"/>
<stop offset="1" stop-color="#A5E26B" stop-opacity="0"/>
</linearGradient>
<linearGradient id="paint15_linear_2316_55760" x1="24" y1="45.0957" x2="24" y2="43.4512" gradientUnits="userSpaceOnUse">
<stop stop-color="#539583"/>
<stop offset="1" stop-color="#53AE80" stop-opacity="0"/>
</linearGradient>
<radialGradient id="paint16_radial_2316_55760" cx="0" cy="0" r="1" gradientUnits="userSpaceOnUse" gradientTransform="translate(35.7656 13.5957) rotate(90) scale(12.8906 3.17068)">
<stop stop-color="#B9F87A"/>
<stop offset="1" stop-color="#B9F87A" stop-opacity="0"/>
</radialGradient>
<linearGradient id="paint17_linear_2316_55760" x1="12.2344" y1="26.1582" x2="35.7656" y2="26.1582" gradientUnits="userSpaceOnUse">
<stop stop-color="#BDC792"/>
<stop offset="1" stop-color="#EBF9B6"/>
</linearGradient>
<linearGradient id="paint18_linear_2316_55760" x1="24.0029" y1="13.3787" x2="24.0029" y2="20.5802" gradientUnits="userSpaceOnUse">
<stop stop-color="#2FCF6C"/>
<stop offset="1" stop-color="#2FC36B"/>
</linearGradient>
</defs>
</svg>
