<svg width="70" height="24" viewBox="0 0 70 24" fill="none" xmlns="http://www.w3.org/2000/svg">
<g style="mix-blend-mode:multiply">
<rect x="0.5" y="0.5" width="69" height="23" rx="11.5" fill="#FFFAEB"/>
<path d="M11.0618 8.14062V6.81818H18.9418V8.14062H15.7649V17H14.2337V8.14062H11.0618ZM21.747 17.169C21.2631 17.169 20.8256 17.0795 20.4345 16.9006C20.0434 16.7183 19.7335 16.4548 19.5048 16.1101C19.2794 15.7654 19.1667 15.3428 19.1667 14.8423C19.1667 14.4115 19.2496 14.0568 19.4153 13.7784C19.581 13.5 19.8047 13.2796 20.0865 13.1172C20.3682 12.9548 20.6831 12.8321 21.0311 12.7493C21.3791 12.6664 21.7337 12.6035 22.095 12.5604C22.5524 12.5073 22.9236 12.4643 23.2086 12.4311C23.4937 12.3946 23.7008 12.3366 23.8301 12.2571C23.9593 12.1776 24.024 12.0483 24.024 11.8693V11.8345C24.024 11.4003 23.9013 11.0639 23.6561 10.8253C23.4141 10.5866 23.0529 10.4673 22.5723 10.4673C22.0718 10.4673 21.6774 10.5784 21.389 10.8004C21.104 11.0192 20.9068 11.2628 20.7974 11.5312L19.4004 11.2131C19.5661 10.7491 19.8081 10.3745 20.1262 10.0895C20.4477 9.80114 20.8173 9.59233 21.2349 9.46307C21.6525 9.33049 22.0917 9.2642 22.5524 9.2642C22.8573 9.2642 23.1805 9.30066 23.5218 9.37358C23.8665 9.44318 24.188 9.57244 24.4863 9.76136C24.7879 9.95028 25.0349 10.2204 25.2271 10.5717C25.4193 10.9197 25.5154 11.3722 25.5154 11.929V17H24.0637V15.956H24.0041C23.908 16.1482 23.7638 16.3371 23.5716 16.5227C23.3793 16.7083 23.1324 16.8625 22.8308 16.9851C22.5292 17.1077 22.1679 17.169 21.747 17.169ZM22.0701 15.9759C22.4811 15.9759 22.8324 15.8946 23.1241 15.7322C23.4191 15.5698 23.6428 15.3577 23.7953 15.0959C23.9511 14.8307 24.0289 14.5473 24.0289 14.2457V13.2614C23.9759 13.3144 23.8732 13.3641 23.7207 13.4105C23.5716 13.4536 23.4009 13.4917 23.2086 13.5249C23.0164 13.5547 22.8291 13.5829 22.6468 13.6094C22.4645 13.6326 22.3121 13.6525 22.1895 13.669C21.9011 13.7055 21.6376 13.7668 21.399 13.853C21.1636 13.9392 20.9747 14.0634 20.8322 14.2259C20.693 14.3849 20.6234 14.5971 20.6234 14.8622C20.6234 15.2301 20.7593 15.5085 21.0311 15.6974C21.3029 15.883 21.6492 15.9759 22.0701 15.9759ZM27.6147 17V6.81818H29.1012V10.6016H29.1907C29.2769 10.4425 29.4012 10.2585 29.5636 10.0497C29.726 9.84091 29.9513 9.65862 30.2397 9.50284C30.5281 9.34375 30.9092 9.2642 31.3832 9.2642C31.9996 9.2642 32.5498 9.41998 33.0337 9.73153C33.5176 10.0431 33.8971 10.4922 34.1722 11.0788C34.4506 11.6655 34.5898 12.3714 34.5898 13.1967C34.5898 14.022 34.4523 14.7296 34.1772 15.3196C33.9021 15.9062 33.5243 16.3587 33.0437 16.6768C32.5631 16.9917 32.0146 17.1491 31.3981 17.1491C30.9341 17.1491 30.5546 17.0713 30.2596 16.9155C29.9679 16.7597 29.7392 16.5774 29.5735 16.3686C29.4078 16.1598 29.2802 15.9742 29.1907 15.8118H29.0664V17H27.6147ZM29.0714 13.1818C29.0714 13.7187 29.1493 14.1894 29.305 14.5938C29.4608 14.9981 29.6862 15.3146 29.9812 15.5433C30.2762 15.7687 30.6374 15.8814 31.065 15.8814C31.5091 15.8814 31.8803 15.7637 32.1786 15.5284C32.4769 15.2898 32.7023 14.9666 32.8548 14.5589C33.0105 14.1513 33.0884 13.6922 33.0884 13.1818C33.0884 12.678 33.0122 12.2256 32.8597 11.8246C32.7106 11.4235 32.4852 11.107 32.1836 10.875C31.8853 10.643 31.5124 10.527 31.065 10.527C30.6341 10.527 30.2695 10.638 29.9712 10.8601C29.6763 11.0821 29.4525 11.392 29.3001 11.7898C29.1476 12.1875 29.0714 12.6515 29.0714 13.1818ZM37.7456 6.81818V17H36.2591V6.81818H37.7456ZM43.0366 17.1541C42.2842 17.1541 41.6362 16.9934 41.0927 16.6719C40.5524 16.3471 40.1348 15.8913 39.8398 15.3047C39.5482 14.7147 39.4023 14.0237 39.4023 13.2315C39.4023 12.4493 39.5482 11.7599 39.8398 11.1634C40.1348 10.5668 40.5458 10.1011 41.0728 9.76633C41.6031 9.43158 42.2229 9.2642 42.9322 9.2642C43.363 9.2642 43.7807 9.33546 44.185 9.47798C44.5894 9.6205 44.9523 9.84422 45.2738 10.1491C45.5953 10.4541 45.8488 10.8501 46.0344 11.3374C46.2201 11.8213 46.3129 12.4096 46.3129 13.1023V13.6293H40.2425V12.5156H44.8562C44.8562 12.1245 44.7766 11.7782 44.6175 11.4766C44.4585 11.1716 44.2347 10.9313 43.9464 10.7557C43.6613 10.58 43.3266 10.4922 42.9421 10.4922C42.5245 10.4922 42.1599 10.5949 41.8484 10.8004C41.5401 11.0026 41.3015 11.2678 41.1325 11.5959C40.9667 11.9207 40.8839 12.2737 40.8839 12.6548V13.5249C40.8839 14.0353 40.9734 14.4695 41.1523 14.8274C41.3346 15.1854 41.5882 15.4588 41.913 15.6477C42.2378 15.8333 42.6173 15.9261 43.0515 15.9261C43.3332 15.9261 43.5901 15.8864 43.8221 15.8068C44.0541 15.724 44.2546 15.6013 44.4237 15.4389C44.5927 15.2765 44.7219 15.076 44.8114 14.8374L46.2184 15.0909C46.1057 15.5052 45.9035 15.8681 45.6119 16.1797C45.3235 16.4879 44.9606 16.7282 44.5231 16.9006C44.0889 17.0696 43.5934 17.1541 43.0366 17.1541ZM51.5268 9.36364V10.5568H47.3556V9.36364H51.5268ZM48.4743 7.53409H49.9608V14.7578C49.9608 15.0462 50.0038 15.2633 50.09 15.4091C50.1762 15.5516 50.2872 15.6494 50.4231 15.7024C50.5623 15.7521 50.7131 15.777 50.8755 15.777C50.9949 15.777 51.0993 15.7687 51.1887 15.7521C51.2782 15.7356 51.3478 15.7223 51.3975 15.7124L51.666 16.9403C51.5798 16.9735 51.4572 17.0066 51.2981 17.0398C51.139 17.0762 50.9402 17.0961 50.7015 17.0994C50.3104 17.1061 49.9458 17.0365 49.6078 16.8906C49.2697 16.7448 48.9963 16.5194 48.7875 16.2145C48.5787 15.9096 48.4743 15.5268 48.4743 15.0661V7.53409ZM58.7704 11.228L57.4231 11.4666C57.3668 11.2943 57.2773 11.1302 57.1547 10.9744C57.0353 10.8187 56.8729 10.6911 56.6674 10.5916C56.4619 10.4922 56.2051 10.4425 55.8968 10.4425C55.4759 10.4425 55.1246 10.5369 54.8429 10.7259C54.5611 10.9115 54.4203 11.1518 54.4203 11.4467C54.4203 11.7019 54.5147 11.9074 54.7037 12.0632C54.8926 12.219 55.1975 12.3466 55.6184 12.446L56.8315 12.7244C57.5342 12.8868 58.0578 13.1371 58.4025 13.4751C58.7472 13.8132 58.9196 14.2524 58.9196 14.7926C58.9196 15.25 58.787 15.6577 58.5218 16.0156C58.26 16.3703 57.8938 16.6487 57.4231 16.8509C56.9558 17.053 56.4139 17.1541 55.7974 17.1541C54.9423 17.1541 54.2446 16.9718 53.7044 16.6072C53.1641 16.2393 52.8327 15.7173 52.71 15.0412L54.1468 14.8224C54.2363 15.197 54.4203 15.4804 54.6987 15.6726C54.9771 15.8615 55.34 15.956 55.7875 15.956C56.2747 15.956 56.6641 15.8549 56.9558 15.6527C57.2475 15.4472 57.3933 15.197 57.3933 14.902C57.3933 14.6634 57.3038 14.4628 57.1248 14.3004C56.9492 14.138 56.679 14.0154 56.3145 13.9325L55.0218 13.6491C54.3092 13.4867 53.7823 13.2282 53.4409 12.8736C53.1028 12.5189 52.9338 12.0698 52.9338 11.5263C52.9338 11.0755 53.0597 10.6811 53.3116 10.343C53.5635 10.005 53.9115 9.74148 54.3556 9.55256C54.7998 9.36032 55.3085 9.2642 55.8819 9.2642C56.7072 9.2642 57.3568 9.44318 57.8308 9.80114C58.3047 10.1558 58.618 10.6314 58.7704 11.228Z" fill="#B54708"/>
<rect x="0.5" y="0.5" width="69" height="23" rx="11.5" stroke="#FEDF89"/>
</g>
</svg>
