<svg width="20" height="20" viewBox="0 0 20 20" fill="none" xmlns="http://www.w3.org/2000/svg">
<path d="M9.61148 0.833374C9.01147 0.833374 8.46773 1.18673 8.22405 1.73503L5.42342 8.03644C5.35547 8.18932 5.31999 8.26816 5.29091 8.32367L5.28832 8.32856L5.2828 8.32894C5.22027 8.33297 5.13381 8.33337 4.96651 8.33337L4.30089 8.33337C3.8616 8.33336 3.48263 8.33334 3.17049 8.35885C2.84103 8.38577 2.51335 8.4452 2.19803 8.60586C1.72763 8.84554 1.34518 9.22799 1.10549 9.6984C0.944832 10.0137 0.885402 10.3414 0.858485 10.6708C0.832982 10.983 0.832994 11.3619 0.833008 11.8012V15.6988C0.832994 16.1381 0.832982 16.5171 0.858485 16.8292C0.885402 17.1587 0.944832 17.4864 1.10549 17.8017C1.34518 18.2721 1.72763 18.6545 2.19803 18.8942C2.51335 19.0549 2.84103 19.1143 3.17049 19.1412C3.48263 19.1667 3.86159 19.1667 4.30087 19.1667C4.68681 19.1667 4.99968 18.8538 4.99968 18.4679L4.99968 11.6667C4.99968 11.2065 5.37277 10.8334 5.83301 10.8334C6.29325 10.8334 6.66634 11.2065 6.66634 11.6667L6.66634 17.8334C6.66634 18.3001 6.66634 18.5334 6.75717 18.7117C6.83706 18.8685 6.96455 18.996 7.12135 19.0759C7.29961 19.1667 7.53296 19.1667 7.99967 19.1667H13.266C13.8483 19.1667 14.3318 19.1667 14.7295 19.1364C15.1449 19.1048 15.5277 19.037 15.8973 18.8696C16.4753 18.6077 16.9665 18.1862 17.3132 17.6548C17.535 17.315 17.6602 16.9469 17.7546 16.5412C17.845 16.1527 17.9185 15.6749 18.007 15.0993L18.4534 12.1981C18.5707 11.4356 18.6669 10.8105 18.7009 10.3004C18.736 9.77403 18.713 9.28289 18.5335 8.81213C18.2577 8.08927 17.7392 7.48483 17.0667 7.10241C16.6287 6.85336 16.1467 6.75599 15.6212 6.71064C15.1117 6.66669 14.4793 6.6667 13.7079 6.66671H12.9997C12.7526 6.66671 12.6174 6.66606 12.5202 6.65812L12.5092 6.65717L12.5083 6.64618C12.5003 6.54902 12.4997 6.41381 12.4997 6.16671V3.72157C12.4997 2.12646 11.2066 0.833374 9.61148 0.833374Z" fill="#079455"/>
</svg>
