<svg width="20" height="20" viewBox="0 0 20 20" fill="none" xmlns="http://www.w3.org/2000/svg">
<path d="M13.3335 2.16671C13.3335 1.7 13.3335 1.46664 13.2427 1.28838C13.1628 1.13158 13.0353 1.0041 12.8785 0.924203C12.7002 0.833375 12.4669 0.833375 12.0002 0.833375H6.73392C6.15164 0.833366 5.66815 0.833359 5.27039 0.863638C4.85508 0.895253 4.47224 0.963048 4.10263 1.13052C3.52465 1.39242 3.03343 1.81385 2.6867 2.34528C2.46497 2.68513 2.33975 3.0532 2.24535 3.45888C2.15494 3.84742 2.08143 4.32525 1.9929 4.90079L1.54656 7.80196C1.42925 8.56446 1.33307 9.18952 1.29905 9.69969C1.26396 10.2261 1.28691 10.7172 1.46647 11.188C1.74218 11.9108 2.26074 12.5153 2.93327 12.8977C3.37126 13.1467 3.8532 13.2441 4.37877 13.2894C4.88818 13.3334 5.52059 13.3334 6.29205 13.3334H7.00025C7.24736 13.3334 7.38257 13.334 7.47973 13.342L7.49071 13.3429L7.49167 13.3539C7.49961 13.4511 7.50025 13.5863 7.50025 13.8334V16.2785C7.50025 17.8736 8.79334 19.1667 10.3885 19.1667C10.9885 19.1667 11.5322 18.8134 11.7759 18.2651L14.5765 11.9636C14.6445 11.8108 14.6799 11.7319 14.709 11.6764L14.7116 11.6715L14.7171 11.6711C14.7797 11.6671 14.8661 11.6667 15.0334 11.6667H15.699C16.1383 11.6667 16.5173 11.6667 16.8294 11.6412C17.1589 11.6143 17.4866 11.5549 17.8019 11.3942C18.2723 11.1545 18.6548 10.7721 18.8944 10.3017C19.0551 9.98637 19.1145 9.65869 19.1414 9.32923C19.1669 9.01709 19.1669 8.63813 19.1669 8.19885V4.30124C19.1669 3.86195 19.1669 3.48299 19.1414 3.17085C19.1145 2.8414 19.0551 2.51372 18.8944 2.1984C18.6548 1.72799 18.2723 1.34554 17.8019 1.10586C17.4866 0.945198 17.1589 0.885768 16.8294 0.858851C16.5173 0.833348 16.1384 0.833361 15.6991 0.833375C15.3131 0.833375 15.0002 1.14629 15.0002 1.53229V8.33337C15.0002 8.79361 14.6271 9.16671 14.1668 9.16671C13.7066 9.16671 13.3335 8.79361 13.3335 8.33337V2.16671Z" fill="#D92D20"/>
</svg>
