<svg width="79" height="24" viewBox="0 0 79 24" fill="none" xmlns="http://www.w3.org/2000/svg">
<g style="mix-blend-mode:multiply">
<rect x="0.5" y="0.5" width="78" height="23" rx="11.5" fill="#EFF8FF"/>
<path d="M13.5526 17L10.7288 6.81818H12.3445L14.3282 14.7031H14.4227L16.4859 6.81818H18.0867L20.1499 14.7081H20.2444L22.2231 6.81818H23.8438L21.015 17H19.4688L17.3261 9.37358H17.2465L15.1038 17H13.5526ZM26.5956 17.169C26.1117 17.169 25.6742 17.0795 25.2831 16.9006C24.892 16.7183 24.5821 16.4548 24.3534 16.1101C24.128 15.7654 24.0154 15.3428 24.0154 14.8423C24.0154 14.4115 24.0982 14.0568 24.2639 13.7784C24.4297 13.5 24.6534 13.2796 24.9351 13.1172C25.2168 12.9548 25.5317 12.8321 25.8797 12.7493C26.2277 12.6664 26.5824 12.6035 26.9436 12.5604C27.401 12.5073 27.7722 12.4643 28.0573 12.4311C28.3423 12.3946 28.5494 12.3366 28.6787 12.2571C28.808 12.1776 28.8726 12.0483 28.8726 11.8693V11.8345C28.8726 11.4003 28.75 11.0639 28.5047 10.8253C28.2628 10.5866 27.9015 10.4673 27.4209 10.4673C26.9204 10.4673 26.526 10.5784 26.2377 10.8004C25.9526 11.0192 25.7554 11.2628 25.646 11.5312L24.249 11.2131C24.4147 10.7491 24.6567 10.3745 24.9749 10.0895C25.2964 9.80114 25.6659 9.59233 26.0835 9.46307C26.5012 9.33049 26.9403 9.2642 27.401 9.2642C27.7059 9.2642 28.0291 9.30066 28.3705 9.37358C28.7152 9.44318 29.0367 9.57244 29.335 9.76136C29.6366 9.95028 29.8835 10.2204 30.0757 10.5717C30.268 10.9197 30.3641 11.3722 30.3641 11.929V17H28.9124V15.956H28.8527C28.7566 16.1482 28.6124 16.3371 28.4202 16.5227C28.228 16.7083 27.981 16.8625 27.6794 16.9851C27.3778 17.1077 27.0165 17.169 26.5956 17.169ZM26.9188 15.9759C27.3298 15.9759 27.6811 15.8946 27.9727 15.7322C28.2677 15.5698 28.4914 15.3577 28.6439 15.0959C28.7997 14.8307 28.8776 14.5473 28.8776 14.2457V13.2614C28.8245 13.3144 28.7218 13.3641 28.5693 13.4105C28.4202 13.4536 28.2495 13.4917 28.0573 13.5249C27.865 13.5547 27.6778 13.5829 27.4955 13.6094C27.3132 13.6326 27.1607 13.6525 27.0381 13.669C26.7497 13.7055 26.4862 13.7668 26.2476 13.853C26.0123 13.9392 25.8234 14.0634 25.6808 14.2259C25.5416 14.3849 25.472 14.5971 25.472 14.8622C25.472 15.2301 25.6079 15.5085 25.8797 15.6974C26.1515 15.883 26.4978 15.9759 26.9188 15.9759ZM35.9086 9.36364V10.5568H31.7375V9.36364H35.9086ZM32.8561 7.53409H34.3426V14.7578C34.3426 15.0462 34.3857 15.2633 34.4719 15.4091C34.558 15.5516 34.6691 15.6494 34.805 15.7024C34.9442 15.7521 35.095 15.777 35.2574 15.777C35.3767 15.777 35.4811 15.7687 35.5706 15.7521C35.6601 15.7356 35.7297 15.7223 35.7794 15.7124L36.0479 16.9403C35.9617 16.9735 35.839 17.0066 35.68 17.0398C35.5209 17.0762 35.322 17.0961 35.0834 17.0994C34.6923 17.1061 34.3277 17.0365 33.9896 16.8906C33.6515 16.7448 33.3781 16.5194 33.1693 16.2145C32.9605 15.9096 32.8561 15.5268 32.8561 15.0661V7.53409ZM40.6876 17.1541C39.9485 17.1541 39.3121 16.9867 38.7785 16.652C38.2482 16.3139 37.8405 15.8482 37.5555 15.255C37.2704 14.6617 37.1279 13.9822 37.1279 13.2166C37.1279 12.4411 37.2738 11.7566 37.5654 11.1634C37.8571 10.5668 38.2681 10.1011 38.7984 9.76633C39.3287 9.43158 39.9535 9.2642 40.6727 9.2642C41.2527 9.2642 41.7697 9.37192 42.2238 9.58736C42.6779 9.79948 43.0441 10.0978 43.3225 10.4822C43.6043 10.8667 43.7716 11.3158 43.8247 11.8295H42.3779C42.2984 11.4716 42.1161 11.1634 41.8311 10.9048C41.5493 10.6463 41.1715 10.517 40.6975 10.517C40.2832 10.517 39.9203 10.6264 39.6088 10.8452C39.3005 11.0606 39.0602 11.3688 38.8879 11.7699C38.7155 12.1676 38.6294 12.6383 38.6294 13.1818C38.6294 13.7386 38.7139 14.2192 38.8829 14.6236C39.0519 15.0279 39.2906 15.3411 39.5988 15.5632C39.9104 15.7853 40.2766 15.8963 40.6975 15.8963C40.9793 15.8963 41.2345 15.8449 41.4632 15.7422C41.6952 15.6361 41.8891 15.4853 42.0448 15.2898C42.2039 15.0942 42.315 14.8589 42.3779 14.5838H43.8247C43.7716 15.0777 43.6109 15.5185 43.3424 15.9062C43.074 16.294 42.7143 16.599 42.2636 16.821C41.8161 17.0431 41.2908 17.1541 40.6876 17.1541ZM46.9008 12.4659V17H45.4143V6.81818H46.8809V10.6065H46.9754C47.1544 10.1955 47.4278 9.86908 47.7957 9.62713C48.1636 9.38518 48.6442 9.2642 49.2375 9.2642C49.7612 9.2642 50.2185 9.37192 50.6096 9.58736C51.0041 9.80279 51.309 10.1243 51.5244 10.5518C51.7432 10.9761 51.8525 11.5064 51.8525 12.1428V17H50.366V12.3217C50.366 11.7616 50.2219 11.3274 49.9335 11.0192C49.6452 10.7076 49.2441 10.5518 48.7304 10.5518C48.3791 10.5518 48.0642 10.6264 47.7858 10.7756C47.5107 10.9247 47.2936 11.1435 47.1345 11.4318C46.9787 11.7169 46.9008 12.0616 46.9008 12.4659ZM57.1274 17.1541C56.375 17.1541 55.7271 16.9934 55.1835 16.6719C54.6433 16.3471 54.2256 15.8913 53.9307 15.3047C53.639 14.7147 53.4932 14.0237 53.4932 13.2315C53.4932 12.4493 53.639 11.7599 53.9307 11.1634C54.2256 10.5668 54.6366 10.1011 55.1636 9.76633C55.6939 9.43158 56.3137 9.2642 57.023 9.2642C57.4539 9.2642 57.8715 9.33546 58.2758 9.47798C58.6802 9.6205 59.0431 9.84422 59.3646 10.1491C59.6861 10.4541 59.9397 10.8501 60.1253 11.3374C60.3109 11.8213 60.4037 12.4096 60.4037 13.1023V13.6293H54.3334V12.5156H58.947C58.947 12.1245 58.8675 11.7782 58.7084 11.4766C58.5493 11.1716 58.3256 10.9313 58.0372 10.7557C57.7522 10.58 57.4174 10.4922 57.0329 10.4922C56.6153 10.4922 56.2507 10.5949 55.9392 10.8004C55.6309 11.0026 55.3923 11.2678 55.2233 11.5959C55.0576 11.9207 54.9747 12.2737 54.9747 12.6548V13.5249C54.9747 14.0353 55.0642 14.4695 55.2432 14.8274C55.4255 15.1854 55.679 15.4588 56.0038 15.6477C56.3286 15.8333 56.7081 15.9261 57.1423 15.9261C57.424 15.9261 57.6809 15.8864 57.9129 15.8068C58.1449 15.724 58.3454 15.6013 58.5145 15.4389C58.6835 15.2765 58.8128 15.076 58.9023 14.8374L60.3092 15.0909C60.1965 15.5052 59.9943 15.8681 59.7027 16.1797C59.4143 16.4879 59.0514 16.7282 58.6139 16.9006C58.1797 17.0696 57.6842 17.1541 57.1274 17.1541ZM67.7753 11.228L66.428 11.4666C66.3717 11.2943 66.2822 11.1302 66.1595 10.9744C66.0402 10.8187 65.8778 10.6911 65.6723 10.5916C65.4668 10.4922 65.21 10.4425 64.9017 10.4425C64.4808 10.4425 64.1295 10.5369 63.8477 10.7259C63.566 10.9115 63.4252 11.1518 63.4252 11.4467C63.4252 11.7019 63.5196 11.9074 63.7085 12.0632C63.8975 12.219 64.2024 12.3466 64.6233 12.446L65.8364 12.7244C66.539 12.8868 67.0627 13.1371 67.4074 13.4751C67.7521 13.8132 67.9244 14.2524 67.9244 14.7926C67.9244 15.25 67.7919 15.6577 67.5267 16.0156C67.2649 16.3703 66.8986 16.6487 66.428 16.8509C65.9607 17.053 65.4188 17.1541 64.8023 17.1541C63.9472 17.1541 63.2495 16.9718 62.7093 16.6072C62.169 16.2393 61.8376 15.7173 61.7149 15.0412L63.1517 14.8224C63.2412 15.197 63.4252 15.4804 63.7036 15.6726C63.982 15.8615 64.3449 15.956 64.7923 15.956C65.2796 15.956 65.669 15.8549 65.9607 15.6527C66.2523 15.4472 66.3982 15.197 66.3982 14.902C66.3982 14.6634 66.3087 14.4628 66.1297 14.3004C65.954 14.138 65.6839 14.0154 65.3193 13.9325L64.0267 13.6491C63.3141 13.4867 62.7871 13.2282 62.4458 12.8736C62.1077 12.5189 61.9387 12.0698 61.9387 11.5263C61.9387 11.0755 62.0646 10.6811 62.3165 10.343C62.5684 10.005 62.9164 9.74148 63.3605 9.55256C63.8047 9.36032 64.3134 9.2642 64.8868 9.2642C65.7121 9.2642 66.3617 9.44318 66.8357 9.80114C67.3096 10.1558 67.6228 10.6314 67.7753 11.228Z" fill="#175CD3"/>
<rect x="0.5" y="0.5" width="78" height="23" rx="11.5" stroke="#B2DDFF"/>
</g>
</svg>
