<svg width="104" height="24" viewBox="0 0 104 24" fill="none" xmlns="http://www.w3.org/2000/svg">
<g style="mix-blend-mode:multiply">
<rect x="0.5" y="0.5" width="103" height="23" rx="11.5" fill="#F9FAFB"/>
<path d="M13.5087 17L10.6848 6.81818H12.3006L14.2843 14.7031H14.3787L16.4419 6.81818H18.0428L20.106 14.7081H20.2005L22.1792 6.81818H23.7999L20.9711 17H19.4249L17.2821 9.37358H17.2026L15.0598 17H13.5087ZM26.5517 17.169C26.0678 17.169 25.6303 17.0795 25.2392 16.9006C24.8481 16.7183 24.5382 16.4548 24.3095 16.1101C24.0841 15.7654 23.9714 15.3428 23.9714 14.8423C23.9714 14.4115 24.0543 14.0568 24.22 13.7784C24.3857 13.5 24.6094 13.2796 24.8912 13.1172C25.1729 12.9548 25.4877 12.8321 25.8358 12.7493C26.1838 12.6664 26.5384 12.6035 26.8997 12.5604C27.3571 12.5073 27.7283 12.4643 28.0133 12.4311C28.2984 12.3946 28.5055 12.3366 28.6348 12.2571C28.764 12.1776 28.8287 12.0483 28.8287 11.8693V11.8345C28.8287 11.4003 28.706 11.0639 28.4608 10.8253C28.2188 10.5866 27.8575 10.4673 27.377 10.4673C26.8765 10.4673 26.4821 10.5784 26.1937 10.8004C25.9087 11.0192 25.7115 11.2628 25.6021 11.5312L24.2051 11.2131C24.3708 10.7491 24.6127 10.3745 24.9309 10.0895C25.2524 9.80114 25.622 9.59233 26.0396 9.46307C26.4572 9.33049 26.8964 9.2642 27.3571 9.2642C27.662 9.2642 27.9851 9.30066 28.3265 9.37358C28.6712 9.44318 28.9927 9.57244 29.291 9.76136C29.5926 9.95028 29.8395 10.2204 30.0318 10.5717C30.224 10.9197 30.3201 11.3722 30.3201 11.929V17H28.8684V15.956H28.8088C28.7127 16.1482 28.5685 16.3371 28.3762 16.5227C28.184 16.7083 27.9371 16.8625 27.6355 16.9851C27.3339 17.1077 26.9726 17.169 26.5517 17.169ZM26.8748 15.9759C27.2858 15.9759 27.6371 15.8946 27.9288 15.7322C28.2238 15.5698 28.4475 15.3577 28.6 15.0959C28.7557 14.8307 28.8336 14.5473 28.8336 14.2457V13.2614C28.7806 13.3144 28.6779 13.3641 28.5254 13.4105C28.3762 13.4536 28.2056 13.4917 28.0133 13.5249C27.8211 13.5547 27.6338 13.5829 27.4515 13.6094C27.2692 13.6326 27.1168 13.6525 26.9941 13.669C26.7058 13.7055 26.4423 13.7668 26.2037 13.853C25.9683 13.9392 25.7794 14.0634 25.6369 14.2259C25.4977 14.3849 25.4281 14.5971 25.4281 14.8622C25.4281 15.2301 25.564 15.5085 25.8358 15.6974C26.1075 15.883 26.4539 15.9759 26.8748 15.9759ZM35.8647 9.36364V10.5568H31.6935V9.36364H35.8647ZM32.8121 7.53409H34.2987V14.7578C34.2987 15.0462 34.3417 15.2633 34.4279 15.4091C34.5141 15.5516 34.6251 15.6494 34.761 15.7024C34.9002 15.7521 35.051 15.777 35.2134 15.777C35.3327 15.777 35.4371 15.7687 35.5266 15.7521C35.6161 15.7356 35.6857 15.7223 35.7354 15.7124L36.0039 16.9403C35.9177 16.9735 35.7951 17.0066 35.636 17.0398C35.4769 17.0762 35.2781 17.0961 35.0394 17.0994C34.6483 17.1061 34.2837 17.0365 33.9457 16.8906C33.6076 16.7448 33.3342 16.5194 33.1254 16.2145C32.9165 15.9096 32.8121 15.5268 32.8121 15.0661V7.53409ZM40.7182 17.1541C39.9658 17.1541 39.3179 16.9934 38.7743 16.6719C38.2341 16.3471 37.8165 15.8913 37.5215 15.3047C37.2298 14.7147 37.084 14.0237 37.084 13.2315C37.084 12.4493 37.2298 11.7599 37.5215 11.1634C37.8165 10.5668 38.2275 10.1011 38.7544 9.76633C39.2847 9.43158 39.9045 9.2642 40.6138 9.2642C41.0447 9.2642 41.4623 9.33546 41.8667 9.47798C42.271 9.6205 42.6339 9.84422 42.9554 10.1491C43.2769 10.4541 43.5305 10.8501 43.7161 11.3374C43.9017 11.8213 43.9945 12.4096 43.9945 13.1023V13.6293H37.9242V12.5156H42.5378C42.5378 12.1245 42.4583 11.7782 42.2992 11.4766C42.1401 11.1716 41.9164 10.9313 41.628 10.7557C41.343 10.58 41.0082 10.4922 40.6238 10.4922C40.2061 10.4922 39.8416 10.5949 39.53 10.8004C39.2218 11.0026 38.9831 11.2678 38.8141 11.5959C38.6484 11.9207 38.5655 12.2737 38.5655 12.6548V13.5249C38.5655 14.0353 38.655 14.4695 38.834 14.8274C39.0163 15.1854 39.2698 15.4588 39.5946 15.6477C39.9194 15.8333 40.2989 15.9261 40.7331 15.9261C41.0149 15.9261 41.2717 15.8864 41.5037 15.8068C41.7357 15.724 41.9363 15.6013 42.1053 15.4389C42.2743 15.2765 42.4036 15.076 42.4931 14.8374L43.9 15.0909C43.7873 15.5052 43.5852 15.8681 43.2935 16.1797C43.0051 16.4879 42.6422 16.7282 42.2047 16.9006C41.7705 17.0696 41.275 17.1541 40.7182 17.1541ZM45.6438 17V9.36364H47.0806V10.5767H47.1602C47.2994 10.1657 47.5446 9.84257 47.896 9.60724C48.2506 9.36861 48.6516 9.24929 49.0991 9.24929C49.1919 9.24929 49.3013 9.2526 49.4272 9.25923C49.5565 9.26586 49.6576 9.27415 49.7305 9.28409V10.706C49.6708 10.6894 49.5647 10.6712 49.4123 10.6513C49.2598 10.6281 49.1074 10.6165 48.9549 10.6165C48.6036 10.6165 48.2904 10.6911 48.0153 10.8402C47.7435 10.986 47.5281 11.1899 47.369 11.4517C47.2099 11.7102 47.1303 12.0052 47.1303 12.3366V17H45.6438ZM54.8413 17V6.81818H58.57C59.2925 6.81818 59.8907 6.9375 60.3647 7.17614C60.8387 7.41146 61.1933 7.7313 61.4286 8.13565C61.6639 8.53669 61.7816 8.98911 61.7816 9.4929C61.7816 9.91714 61.7037 10.2751 61.5479 10.5668C61.3922 10.8551 61.1834 11.0871 60.9215 11.2628C60.663 11.4351 60.378 11.5611 60.0664 11.6406V11.7401C60.4045 11.7566 60.7343 11.866 61.0558 12.0682C61.3806 12.267 61.649 12.5504 61.8612 12.9183C62.0733 13.2862 62.1793 13.7337 62.1793 14.2607C62.1793 14.781 62.0567 15.2483 61.8114 15.6626C61.5695 16.0736 61.195 16.4001 60.6879 16.642C60.1808 16.8807 59.5328 17 58.744 17H54.8413ZM56.3775 15.6825H58.5948C59.3306 15.6825 59.8576 15.54 60.1758 15.255C60.494 14.9699 60.6531 14.6136 60.6531 14.1861C60.6531 13.8646 60.5719 13.5696 60.4094 13.3011C60.247 13.0327 60.015 12.8189 59.7134 12.6598C59.4151 12.5007 59.0605 12.4212 58.6495 12.4212H56.3775V15.6825ZM56.3775 11.223H58.4357C58.7804 11.223 59.0903 11.1567 59.3654 11.0241C59.6438 10.8916 59.8642 10.706 60.0266 10.4673C60.1924 10.2254 60.2752 9.94034 60.2752 9.61222C60.2752 9.19129 60.1277 8.8383 59.8327 8.55327C59.5378 8.26823 59.0853 8.12571 58.4755 8.12571H56.3775V11.223ZM67.0987 17.1541C66.3828 17.1541 65.758 16.9901 65.2244 16.6619C64.6908 16.3338 64.2765 15.8748 63.9815 15.2848C63.6866 14.6948 63.5391 14.0054 63.5391 13.2166C63.5391 12.4245 63.6866 11.7318 63.9815 11.1385C64.2765 10.5452 64.6908 10.0845 65.2244 9.75639C65.758 9.42827 66.3828 9.2642 67.0987 9.2642C67.8146 9.2642 68.4394 9.42827 68.973 9.75639C69.5066 10.0845 69.9209 10.5452 70.2159 11.1385C70.5109 11.7318 70.6584 12.4245 70.6584 13.2166C70.6584 14.0054 70.5109 14.6948 70.2159 15.2848C69.9209 15.8748 69.5066 16.3338 68.973 16.6619C68.4394 16.9901 67.8146 17.1541 67.0987 17.1541ZM67.1037 15.9062C67.5677 15.9062 67.9522 15.7836 68.2571 15.5384C68.562 15.2931 68.7874 14.9666 68.9332 14.5589C69.0824 14.1513 69.157 13.7022 69.157 13.2116C69.157 12.7244 69.0824 12.277 68.9332 11.8693C68.7874 11.4583 68.562 11.1286 68.2571 10.88C67.9522 10.6314 67.5677 10.5071 67.1037 10.5071C66.6364 10.5071 66.2486 10.6314 65.9403 10.88C65.6354 11.1286 65.4084 11.4583 65.2592 11.8693C65.1134 12.277 65.0405 12.7244 65.0405 13.2116C65.0405 13.7022 65.1134 14.1513 65.2592 14.5589C65.4084 14.9666 65.6354 15.2931 65.9403 15.5384C66.2486 15.7836 66.6364 15.9062 67.1037 15.9062ZM75.8823 9.36364V10.5568H71.7111V9.36364H75.8823ZM72.8297 7.53409H74.3162V14.7578C74.3162 15.0462 74.3593 15.2633 74.4455 15.4091C74.5317 15.5516 74.6427 15.6494 74.7786 15.7024C74.9178 15.7521 75.0686 15.777 75.231 15.777C75.3503 15.777 75.4547 15.7687 75.5442 15.7521C75.6337 15.7356 75.7033 15.7223 75.753 15.7124L76.0215 16.9403C75.9353 16.9735 75.8127 17.0066 75.6536 17.0398C75.4945 17.0762 75.2956 17.0961 75.057 17.0994C74.6659 17.1061 74.3013 17.0365 73.9632 16.8906C73.6252 16.7448 73.3517 16.5194 73.1429 16.2145C72.9341 15.9096 72.8297 15.5268 72.8297 15.0661V7.53409ZM81.0913 9.36364V10.5568H76.9201V9.36364H81.0913ZM78.0387 7.53409H79.5252V14.7578C79.5252 15.0462 79.5683 15.2633 79.6545 15.4091C79.7406 15.5516 79.8517 15.6494 79.9876 15.7024C80.1268 15.7521 80.2776 15.777 80.44 15.777C80.5593 15.777 80.6637 15.7687 80.7532 15.7521C80.8427 15.7356 80.9123 15.7223 80.962 15.7124L81.2305 16.9403C81.1443 16.9735 81.0217 17.0066 80.8626 17.0398C80.7035 17.0762 80.5046 17.0961 80.266 17.0994C79.8749 17.1061 79.5103 17.0365 79.1722 16.8906C78.8342 16.7448 78.5607 16.5194 78.3519 16.2145C78.1431 15.9096 78.0387 15.5268 78.0387 15.0661V7.53409ZM84.3862 6.81818V17H82.8997V6.81818H84.3862ZM89.6772 17.1541C88.9248 17.1541 88.2769 16.9934 87.7333 16.6719C87.1931 16.3471 86.7754 15.8913 86.4805 15.3047C86.1888 14.7147 86.043 14.0237 86.043 13.2315C86.043 12.4493 86.1888 11.7599 86.4805 11.1634C86.7754 10.5668 87.1864 10.1011 87.7134 9.76633C88.2437 9.43158 88.8635 9.2642 89.5728 9.2642C90.0037 9.2642 90.4213 9.33546 90.8256 9.47798C91.23 9.6205 91.5929 9.84422 91.9144 10.1491C92.2359 10.4541 92.4895 10.8501 92.6751 11.3374C92.8607 11.8213 92.9535 12.4096 92.9535 13.1023V13.6293H86.8832V12.5156H91.4968C91.4968 12.1245 91.4173 11.7782 91.2582 11.4766C91.0991 11.1716 90.8754 10.9313 90.587 10.7557C90.302 10.58 89.9672 10.4922 89.5827 10.4922C89.1651 10.4922 88.8005 10.5949 88.489 10.8004C88.1808 11.0026 87.9421 11.2678 87.7731 11.5959C87.6074 11.9207 87.5245 12.2737 87.5245 12.6548V13.5249C87.5245 14.0353 87.614 14.4695 87.793 14.8274C87.9753 15.1854 88.2288 15.4588 88.5536 15.6477C88.8784 15.8333 89.2579 15.9261 89.6921 15.9261C89.9738 15.9261 90.2307 15.8864 90.4627 15.8068C90.6947 15.724 90.8952 15.6013 91.0643 15.4389C91.2333 15.2765 91.3626 15.076 91.4521 14.8374L92.859 15.0909C92.7463 15.5052 92.5442 15.8681 92.2525 16.1797C91.9641 16.4879 91.6012 16.7282 91.1637 16.9006C90.7295 17.0696 90.234 17.1541 89.6772 17.1541Z" fill="#344054"/>
<rect x="0.5" y="0.5" width="103" height="23" rx="11.5" stroke="#EAECF0"/>
</g>
</svg>
