<svg width="32" height="32" viewBox="0 0 32 32" fill="none" xmlns="http://www.w3.org/2000/svg">
<path d="M12.5555 8.93537C14.0922 6.53791 15.0018 4.3238 15.4764 2.75846C15.6583 2.15852 16.4265 1.91277 16.8826 2.34289C23.755 8.82414 26.0012 13.7723 26.4494 19.491C26.7776 25.0222 24.0588 29.9441 16.7619 29.9441C9.91121 29.9441 4.8556 25.1628 5.54306 17.5847C5.95392 13.0558 7.71462 9.6055 9.1223 7.55161C9.5604 6.91241 10.4731 6.90314 10.978 7.49104L12.2372 8.95731C12.3239 9.05834 12.4837 9.04749 12.5555 8.93537Z" fill="url(#paint0_radial_1544_12928)"/>
<path d="M12.5555 8.93537C14.0922 6.53791 15.0018 4.3238 15.4764 2.75846C15.6583 2.15852 16.4265 1.91277 16.8826 2.34289C23.755 8.82414 26.0012 13.7723 26.4494 19.491C26.7776 25.0222 24.0588 29.9441 16.7619 29.9441C9.91121 29.9441 4.8556 25.1628 5.54306 17.5847C5.95392 13.0558 7.71462 9.6055 9.1223 7.55161C9.5604 6.91241 10.4731 6.90314 10.978 7.49104L12.2372 8.95731C12.3239 9.05834 12.4837 9.04749 12.5555 8.93537Z" fill="url(#paint1_radial_1544_12928)"/>
<path d="M12.5555 8.93537C14.0922 6.53791 15.0018 4.3238 15.4764 2.75846C15.6583 2.15852 16.4265 1.91277 16.8826 2.34289C23.755 8.82414 26.0012 13.7723 26.4494 19.491C26.7776 25.0222 24.0588 29.9441 16.7619 29.9441C9.91121 29.9441 4.8556 25.1628 5.54306 17.5847C5.95392 13.0558 7.71462 9.6055 9.1223 7.55161C9.5604 6.91241 10.4731 6.90314 10.978 7.49104L12.2372 8.95731C12.3239 9.05834 12.4837 9.04749 12.5555 8.93537Z" fill="url(#paint2_linear_1544_12928)"/>
<path d="M12.5555 8.93537C14.0922 6.53791 15.0018 4.3238 15.4764 2.75846C15.6583 2.15852 16.4265 1.91277 16.8826 2.34289C23.755 8.82414 26.0012 13.7723 26.4494 19.491C26.7776 25.0222 24.0588 29.9441 16.7619 29.9441C9.91121 29.9441 4.8556 25.1628 5.54306 17.5847C5.95392 13.0558 7.71462 9.6055 9.1223 7.55161C9.5604 6.91241 10.4731 6.90314 10.978 7.49104L12.2372 8.95731C12.3239 9.05834 12.4837 9.04749 12.5555 8.93537Z" fill="url(#paint3_radial_1544_12928)"/>
<path d="M12.5555 8.93537C14.0922 6.53791 15.0018 4.3238 15.4764 2.75846C15.6583 2.15852 16.4265 1.91277 16.8826 2.34289C23.755 8.82414 26.0012 13.7723 26.4494 19.491C26.7776 25.0222 24.0588 29.9441 16.7619 29.9441C9.91121 29.9441 4.8556 25.1628 5.54306 17.5847C5.95392 13.0558 7.71462 9.6055 9.1223 7.55161C9.5604 6.91241 10.4731 6.90314 10.978 7.49104L12.2372 8.95731C12.3239 9.05834 12.4837 9.04749 12.5555 8.93537Z" fill="url(#paint4_radial_1544_12928)"/>
<path d="M12.5555 8.93537C14.0922 6.53791 15.0018 4.3238 15.4764 2.75846C15.6583 2.15852 16.4265 1.91277 16.8826 2.34289C23.755 8.82414 26.0012 13.7723 26.4494 19.491C26.7776 25.0222 24.0588 29.9441 16.7619 29.9441C9.91121 29.9441 4.8556 25.1628 5.54306 17.5847C5.95392 13.0558 7.71462 9.6055 9.1223 7.55161C9.5604 6.91241 10.4731 6.90314 10.978 7.49104L12.2372 8.95731C12.3239 9.05834 12.4837 9.04749 12.5555 8.93537Z" fill="url(#paint5_radial_1544_12928)"/>
<path d="M12.5555 8.93537C14.0922 6.53791 15.0018 4.3238 15.4764 2.75846C15.6583 2.15852 16.4265 1.91277 16.8826 2.34289C23.755 8.82414 26.0012 13.7723 26.4494 19.491C26.7776 25.0222 24.0588 29.9441 16.7619 29.9441C9.91121 29.9441 4.8556 25.1628 5.54306 17.5847C5.95392 13.0558 7.71462 9.6055 9.1223 7.55161C9.5604 6.91241 10.4731 6.90314 10.978 7.49104L12.2372 8.95731C12.3239 9.05834 12.4837 9.04749 12.5555 8.93537Z" fill="url(#paint6_radial_1544_12928)"/>
<path d="M12.5555 8.93537C14.0922 6.53791 15.0018 4.3238 15.4764 2.75846C15.6583 2.15852 16.4265 1.91277 16.8826 2.34289C23.755 8.82414 26.0012 13.7723 26.4494 19.491C26.7776 25.0222 24.0588 29.9441 16.7619 29.9441C9.91121 29.9441 4.8556 25.1628 5.54306 17.5847C5.95392 13.0558 7.71462 9.6055 9.1223 7.55161C9.5604 6.91241 10.4731 6.90314 10.978 7.49104L12.2372 8.95731C12.3239 9.05834 12.4837 9.04749 12.5555 8.93537Z" fill="url(#paint7_radial_1544_12928)"/>
<g filter="url(#filter0_i_1544_12928)">
<path d="M10.1781 19.877C11.4804 16.7777 14.1526 13.3481 15.9573 11.4876C16.4672 10.9619 17.2914 10.9526 17.83 11.4488C21.2912 14.6378 22.3331 17.5208 23.2173 20.877C24.1371 24.3687 23.2173 29.9947 16.2957 29.9947C10.3349 29.9947 8.27007 24.4176 10.1781 19.877Z" fill="url(#paint8_radial_1544_12928)"/>
<path d="M10.1781 19.877C11.4804 16.7777 14.1526 13.3481 15.9573 11.4876C16.4672 10.9619 17.2914 10.9526 17.83 11.4488C21.2912 14.6378 22.3331 17.5208 23.2173 20.877C24.1371 24.3687 23.2173 29.9947 16.2957 29.9947C10.3349 29.9947 8.27007 24.4176 10.1781 19.877Z" fill="url(#paint9_radial_1544_12928)"/>
<path d="M10.1781 19.877C11.4804 16.7777 14.1526 13.3481 15.9573 11.4876C16.4672 10.9619 17.2914 10.9526 17.83 11.4488C21.2912 14.6378 22.3331 17.5208 23.2173 20.877C24.1371 24.3687 23.2173 29.9947 16.2957 29.9947C10.3349 29.9947 8.27007 24.4176 10.1781 19.877Z" fill="url(#paint10_radial_1544_12928)"/>
</g>
<path d="M10.1781 19.877C11.4804 16.7777 14.1526 13.3481 15.9573 11.4876C16.4672 10.9619 17.2914 10.9526 17.83 11.4488C21.2912 14.6378 22.3331 17.5208 23.2173 20.877C24.1371 24.3687 23.2173 29.9947 16.2957 29.9947C10.3349 29.9947 8.27007 24.4176 10.1781 19.877Z" fill="url(#paint11_linear_1544_12928)"/>
<path d="M10.1781 19.877C11.4804 16.7777 14.1526 13.3481 15.9573 11.4876C16.4672 10.9619 17.2914 10.9526 17.83 11.4488C21.2912 14.6378 22.3331 17.5208 23.2173 20.877C24.1371 24.3687 23.2173 29.9947 16.2957 29.9947C10.3349 29.9947 8.27007 24.4176 10.1781 19.877Z" fill="url(#paint12_radial_1544_12928)"/>
<g filter="url(#filter1_f_1544_12928)">
<path d="M11.8139 11.5386C14.1293 8.14863 15.4834 4.48156 15.8968 3.57666C15.2939 8.21146 13.5367 11.6048 10.2289 15.9747C7.58279 19.4707 7.10501 22.4635 7.12798 23.1918C6.30105 17.6301 8.91965 15.7762 11.8139 11.5386Z" fill="url(#paint13_linear_1544_12928)"/>
</g>
<g filter="url(#filter2_f_1544_12928)">
<path d="M9.81372 7.87435C8.51367 9.48803 5.92956 13.964 5.99354 18.9583C7.27498 13.8359 10.2692 12.2217 9.81372 7.87435Z" fill="url(#paint14_linear_1544_12928)"/>
</g>
<defs>
<filter id="filter0_i_1544_12928" x="9.48975" y="11.0847" width="14.5254" height="18.9099" filterUnits="userSpaceOnUse" color-interpolation-filters="sRGB">
<feFlood flood-opacity="0" result="BackgroundImageFix"/>
<feBlend mode="normal" in="SourceGraphic" in2="BackgroundImageFix" result="shape"/>
<feColorMatrix in="SourceAlpha" type="matrix" values="0 0 0 0 0 0 0 0 0 0 0 0 0 0 0 0 0 0 127 0" result="hardAlpha"/>
<feOffset dx="0.5"/>
<feGaussianBlur stdDeviation="0.25"/>
<feComposite in2="hardAlpha" operator="arithmetic" k2="-1" k3="1"/>
<feColorMatrix type="matrix" values="0 0 0 0 0.952941 0 0 0 0 0.615686 0 0 0 0 0.364706 0 0 0 1 0"/>
<feBlend mode="normal" in2="shape" result="effect1_innerShadow_1544_12928"/>
</filter>
<filter id="filter1_f_1544_12928" x="5.72314" y="2.32666" width="11.4238" height="22.1152" filterUnits="userSpaceOnUse" color-interpolation-filters="sRGB">
<feFlood flood-opacity="0" result="BackgroundImageFix"/>
<feBlend mode="normal" in="SourceGraphic" in2="BackgroundImageFix" result="shape"/>
<feGaussianBlur stdDeviation="0.625" result="effect1_foregroundBlur_1544_12928"/>
</filter>
<filter id="filter2_f_1544_12928" x="4.49219" y="6.37427" width="6.86816" height="14.084" filterUnits="userSpaceOnUse" color-interpolation-filters="sRGB">
<feFlood flood-opacity="0" result="BackgroundImageFix"/>
<feBlend mode="normal" in="SourceGraphic" in2="BackgroundImageFix" result="shape"/>
<feGaussianBlur stdDeviation="0.75" result="effect1_foregroundBlur_1544_12928"/>
</filter>
<radialGradient id="paint0_radial_1544_12928" cx="0" cy="0" r="1" gradientUnits="userSpaceOnUse" gradientTransform="translate(24.0024 19.7201) rotate(-179.474) scale(17.0988 25.7861)">
<stop stop-color="#FF953D"/>
<stop offset="1" stop-color="#FF5141"/>
</radialGradient>
<radialGradient id="paint1_radial_1544_12928" cx="0" cy="0" r="1" gradientUnits="userSpaceOnUse" gradientTransform="translate(10.3726 15.655) rotate(-157.937) scale(10.3441 17.8495)">
<stop stop-color="#CE5327"/>
<stop offset="1" stop-color="#CE5327" stop-opacity="0"/>
</radialGradient>
<linearGradient id="paint2_linear_1544_12928" x1="18.3365" y1="29.9441" x2="18.3365" y2="24.8456" gradientUnits="userSpaceOnUse">
<stop stop-color="#FF7583"/>
<stop offset="1" stop-color="#FF7583" stop-opacity="0"/>
</linearGradient>
<radialGradient id="paint3_radial_1544_12928" cx="0" cy="0" r="1" gradientUnits="userSpaceOnUse" gradientTransform="translate(4.9573 14.3915) rotate(24.0149) scale(3.10465 25.6991)">
<stop stop-color="#FFAA7B"/>
<stop offset="1" stop-color="#FFAA7B" stop-opacity="0"/>
</radialGradient>
<radialGradient id="paint4_radial_1544_12928" cx="0" cy="0" r="1" gradientUnits="userSpaceOnUse" gradientTransform="translate(9.31045 6.25107) rotate(77.3196) scale(3.84035 4.79187)">
<stop stop-color="#FF5E47"/>
<stop offset="1" stop-color="#FF5E47" stop-opacity="0"/>
</radialGradient>
<radialGradient id="paint5_radial_1544_12928" cx="0" cy="0" r="1" gradientUnits="userSpaceOnUse" gradientTransform="translate(16.4292 1.36597) rotate(87.8819) scale(10.1374 9.38321)">
<stop stop-color="#FF2F3C"/>
<stop offset="1" stop-color="#FF2F3C" stop-opacity="0"/>
</radialGradient>
<radialGradient id="paint6_radial_1544_12928" cx="0" cy="0" r="1" gradientUnits="userSpaceOnUse" gradientTransform="translate(13.9001 4.79923) rotate(25.3285) scale(2.29895 4.61352)">
<stop stop-color="#FF846C"/>
<stop offset="1" stop-color="#FF846C" stop-opacity="0"/>
</radialGradient>
<radialGradient id="paint7_radial_1544_12928" cx="0" cy="0" r="1" gradientUnits="userSpaceOnUse" gradientTransform="translate(12.4578 8.20972) rotate(113.224) scale(2.27837 0.522116)">
<stop stop-color="#FFA682"/>
<stop offset="1" stop-color="#FFA682" stop-opacity="0"/>
</radialGradient>
<radialGradient id="paint8_radial_1544_12928" cx="0" cy="0" r="1" gradientUnits="userSpaceOnUse" gradientTransform="translate(21.2045 24.3763) rotate(-168.558) scale(10.0291 12.4891)">
<stop stop-color="#FFDA2F"/>
<stop offset="1" stop-color="#FF8E41"/>
</radialGradient>
<radialGradient id="paint9_radial_1544_12928" cx="0" cy="0" r="1" gradientUnits="userSpaceOnUse" gradientTransform="translate(12.4012 8.59275) rotate(69.0442) scale(14.1425 12.2879)">
<stop stop-color="#FD5639"/>
<stop offset="1" stop-color="#FE5533" stop-opacity="0"/>
</radialGradient>
<radialGradient id="paint10_radial_1544_12928" cx="0" cy="0" r="1" gradientUnits="userSpaceOnUse" gradientTransform="translate(19.2389 20.629) rotate(174.239) scale(9.79866 23.9914)">
<stop offset="0.627719" stop-color="#D7812D" stop-opacity="0"/>
<stop offset="1" stop-color="#D7812D"/>
</radialGradient>
<linearGradient id="paint11_linear_1544_12928" x1="16.5025" y1="10.6123" x2="16.5025" y2="14.2596" gradientUnits="userSpaceOnUse">
<stop stop-color="#F95131"/>
<stop offset="1" stop-color="#F95131" stop-opacity="0"/>
</linearGradient>
<radialGradient id="paint12_radial_1544_12928" cx="0" cy="0" r="1" gradientUnits="userSpaceOnUse" gradientTransform="translate(22.9856 18.8025) rotate(143.063) scale(16.0546 11.6174)">
<stop offset="0.772305" stop-color="#F18A52" stop-opacity="0"/>
<stop offset="1" stop-color="#F18A52"/>
</radialGradient>
<linearGradient id="paint13_linear_1544_12928" x1="14.996" y1="4.25532" x2="7.65573" y2="22.732" gradientUnits="userSpaceOnUse">
<stop stop-color="#FF7558"/>
<stop offset="1" stop-color="#F38758"/>
</linearGradient>
<linearGradient id="paint14_linear_1544_12928" x1="9.54103" y1="8.14386" x2="5.58214" y2="19.4794" gradientUnits="userSpaceOnUse">
<stop stop-color="#FF815B"/>
<stop offset="1" stop-color="#FF9C6D"/>
</linearGradient>
</defs>
</svg>
