<svg width="72" height="72" viewBox="0 0 72 72" fill="none" xmlns="http://www.w3.org/2000/svg">
<g clip-path="url(#clip0_2426_10095)">
<path d="M71.2988 36.8293C71.2988 34.3821 71.1003 31.9217 70.677 29.5142H36.7207V43.3772H56.1659C55.359 47.8482 52.7663 51.8034 48.9699 54.3167V63.3118H60.5708C67.3833 57.0417 71.2988 47.7821 71.2988 36.8293Z" fill="#4285F4"/>
<path d="M36.7203 72.0025C46.4297 72.0025 54.6178 68.8145 60.5836 63.3117L48.9827 54.3166C45.755 56.5125 41.5882 57.7559 36.7335 57.7559C27.3417 57.7559 19.3784 51.4197 16.5211 42.9009H4.5498V52.1737C10.6611 64.3302 23.1087 72.0025 36.7203 72.0025V72.0025Z" fill="#34A853"/>
<path d="M16.5083 42.9008C15.0003 38.4298 15.0003 33.5883 16.5083 29.1172V19.8444H4.55021C-0.555799 30.0168 -0.555799 42.0013 4.55021 52.1736L16.5083 42.9008V42.9008Z" fill="#FBBC04"/>
<path d="M36.7203 14.249C41.8528 14.1696 46.8133 16.1009 50.5303 19.646L60.8085 9.36785C54.3003 3.25651 45.6624 -0.103398 36.7203 0.002426C23.1087 0.002426 10.6611 7.67467 4.5498 19.8444L16.5079 29.1173C19.3519 20.5852 27.3284 14.249 36.7203 14.249V14.249Z" fill="#EA4335"/>
</g>
<defs>
<clipPath id="clip0_2426_10095">
<rect width="72" height="72" fill="white"/>
</clipPath>
</defs>
</svg>
