<svg width="48" height="48" viewBox="0 0 48 48" fill="none" xmlns="http://www.w3.org/2000/svg">
<g filter="url(#filter0_i_2316_55773)">
<path d="M17.8411 11.9958L42.3831 36.5378C44.103 38.2578 44.103 41.0464 42.3831 42.7664C40.6631 44.4863 37.8745 44.4863 36.1545 42.7664L11.6125 18.2244L17.8411 11.9958Z" fill="#A3796E"/>
<path d="M17.8411 11.9958L42.3831 36.5378C44.103 38.2578 44.103 41.0464 42.3831 42.7664C40.6631 44.4863 37.8745 44.4863 36.1545 42.7664L11.6125 18.2244L17.8411 11.9958Z" fill="url(#paint0_linear_2316_55773)"/>
<path d="M17.8411 11.9958L42.3831 36.5378C44.103 38.2578 44.103 41.0464 42.3831 42.7664C40.6631 44.4863 37.8745 44.4863 36.1545 42.7664L11.6125 18.2244L17.8411 11.9958Z" fill="url(#paint1_linear_2316_55773)"/>
</g>
<g filter="url(#filter1_f_2316_55773)">
<path d="M17.7819 16.8821C17.3334 16.4336 17.3334 15.7065 17.7819 15.258C18.2304 14.8095 18.9576 14.8095 19.4061 15.258L41.7508 37.6028C42.1993 38.0513 42.1993 38.7784 41.7508 39.2269C41.3024 39.6754 40.5752 39.6754 40.1267 39.2269L17.7819 16.8821Z" fill="url(#paint2_linear_2316_55773)"/>
<path d="M17.7819 16.8821C17.3334 16.4336 17.3334 15.7065 17.7819 15.258C18.2304 14.8095 18.9576 14.8095 19.4061 15.258L41.7508 37.6028C42.1993 38.0513 42.1993 38.7784 41.7508 39.2269C41.3024 39.6754 40.5752 39.6754 40.1267 39.2269L17.7819 16.8821Z" fill="url(#paint3_radial_2316_55773)"/>
</g>
<g filter="url(#filter2_i_2316_55773)">
<path d="M3.64981 16.2262C4.75421 15.1218 6.08823 15.4852 7.52374 16.2179C7.69898 16.3073 7.85749 16.4261 7.99661 16.5653L12.441 21.0097C12.5407 21.1094 12.6308 21.219 12.7035 21.3399C13.6065 22.841 13.681 24.3591 12.8022 25.238L11.1455 26.8479C10.999 26.9943 10.7616 26.9943 10.6151 26.8479L2.0986 18.3313C1.95216 18.1849 1.95216 17.9474 2.0986 17.801L3.64981 16.2262Z" fill="#ADA9B9"/>
<path d="M3.64981 16.2262C4.75421 15.1218 6.08823 15.4852 7.52374 16.2179C7.69898 16.3073 7.85749 16.4261 7.99661 16.5653L12.441 21.0097C12.5407 21.1094 12.6308 21.219 12.7035 21.3399C13.6065 22.841 13.681 24.3591 12.8022 25.238L11.1455 26.8479C10.999 26.9943 10.7616 26.9943 10.6151 26.8479L2.0986 18.3313C1.95216 18.1849 1.95216 17.9474 2.0986 17.801L3.64981 16.2262Z" fill="url(#paint4_radial_2316_55773)"/>
<path d="M3.64981 16.2262C4.75421 15.1218 6.08823 15.4852 7.52374 16.2179C7.69898 16.3073 7.85749 16.4261 7.99661 16.5653L12.441 21.0097C12.5407 21.1094 12.6308 21.219 12.7035 21.3399C13.6065 22.841 13.681 24.3591 12.8022 25.238L11.1455 26.8479C10.999 26.9943 10.7616 26.9943 10.6151 26.8479L2.0986 18.3313C1.95216 18.1849 1.95216 17.9474 2.0986 17.801L3.64981 16.2262Z" fill="url(#paint5_radial_2316_55773)"/>
<path d="M3.64981 16.2262C4.75421 15.1218 6.08823 15.4852 7.52374 16.2179C7.69898 16.3073 7.85749 16.4261 7.99661 16.5653L12.441 21.0097C12.5407 21.1094 12.6308 21.219 12.7035 21.3399C13.6065 22.841 13.681 24.3591 12.8022 25.238L11.1455 26.8479C10.999 26.9943 10.7616 26.9943 10.6151 26.8479L2.0986 18.3313C1.95216 18.1849 1.95216 17.9474 2.0986 17.801L3.64981 16.2262Z" fill="url(#paint6_radial_2316_55773)"/>
<path d="M3.64981 16.2262C4.75421 15.1218 6.08823 15.4852 7.52374 16.2179C7.69898 16.3073 7.85749 16.4261 7.99661 16.5653L12.441 21.0097C12.5407 21.1094 12.6308 21.219 12.7035 21.3399C13.6065 22.841 13.681 24.3591 12.8022 25.238L11.1455 26.8479C10.999 26.9943 10.7616 26.9943 10.6151 26.8479L2.0986 18.3313C1.95216 18.1849 1.95216 17.9474 2.0986 17.801L3.64981 16.2262Z" fill="url(#paint7_radial_2316_55773)"/>
</g>
<path d="M17.8411 11.9958L42.3831 36.5378C44.103 38.2578 44.103 41.0464 42.3831 42.7664C40.6631 44.4863 37.8745 44.4863 36.1545 42.7664L11.6125 18.2244L17.8411 11.9958Z" fill="url(#paint8_radial_2316_55773)"/>
<g filter="url(#filter3_i_2316_55773)">
<path d="M19.2794 10.0554C18.9875 10.3484 18.988 10.8225 19.2805 11.1149L22.4911 14.3255C22.7254 14.5598 22.7254 14.9397 22.4911 15.174L14.7732 22.8919C14.5389 23.1262 14.159 23.1262 13.9247 22.8919L6.96478 15.932C6.52541 15.4926 6.52541 14.7803 6.96478 14.341L16.7999 4.50586C17.4232 3.88257 18.2891 3.56493 19.1676 3.63735L23.8899 4.02649C24.3986 4.06843 24.6259 4.68609 24.2657 5.04781L19.2794 10.0554Z" fill="#CAC3DA"/>
</g>
<path d="M19.2794 10.0554C18.9875 10.3484 18.988 10.8225 19.2805 11.1149L22.4911 14.3255C22.7254 14.5598 22.7254 14.9397 22.4911 15.174L14.7732 22.8919C14.5389 23.1262 14.159 23.1262 13.9247 22.8919L6.96478 15.932C6.52541 15.4926 6.52541 14.7803 6.96478 14.341L16.7999 4.50586C17.4232 3.88257 18.2891 3.56493 19.1676 3.63735L23.8899 4.02649C24.3986 4.06843 24.6259 4.68609 24.2657 5.04781L19.2794 10.0554Z" fill="url(#paint9_linear_2316_55773)"/>
<path d="M19.2794 10.0554C18.9875 10.3484 18.988 10.8225 19.2805 11.1149L22.4911 14.3255C22.7254 14.5598 22.7254 14.9397 22.4911 15.174L14.7732 22.8919C14.5389 23.1262 14.159 23.1262 13.9247 22.8919L6.96478 15.932C6.52541 15.4926 6.52541 14.7803 6.96478 14.341L16.7999 4.50586C17.4232 3.88257 18.2891 3.56493 19.1676 3.63735L23.8899 4.02649C24.3986 4.06843 24.6259 4.68609 24.2657 5.04781L19.2794 10.0554Z" fill="url(#paint10_radial_2316_55773)"/>
<path d="M19.2794 10.0554C18.9875 10.3484 18.988 10.8225 19.2805 11.1149L22.4911 14.3255C22.7254 14.5598 22.7254 14.9397 22.4911 15.174L14.7732 22.8919C14.5389 23.1262 14.159 23.1262 13.9247 22.8919L6.96478 15.932C6.52541 15.4926 6.52541 14.7803 6.96478 14.341L16.7999 4.50586C17.4232 3.88257 18.2891 3.56493 19.1676 3.63735L23.8899 4.02649C24.3986 4.06843 24.6259 4.68609 24.2657 5.04781L19.2794 10.0554Z" fill="url(#paint11_radial_2316_55773)"/>
<g filter="url(#filter4_f_2316_55773)">
<rect x="9.93164" y="17.8896" width="10.8376" height="6.4176" transform="rotate(-45 9.93164 17.8896)" fill="url(#paint12_linear_2316_55773)"/>
<rect x="9.93164" y="17.8896" width="10.8376" height="6.4176" transform="rotate(-45 9.93164 17.8896)" fill="url(#paint13_linear_2316_55773)"/>
</g>
<g filter="url(#filter5_ii_2316_55773)">
<path d="M38.0826 5.15808C38.5952 5.2933 38.7201 5.92566 38.3452 6.30052L34.7095 9.93617C34.2702 10.3755 34.2702 11.0878 34.7095 11.5272L37.0326 13.8503C37.472 14.2896 38.1842 14.2896 38.6236 13.8503L42.2725 10.2013C42.6463 9.82752 43.2769 9.95032 43.4146 10.4607C43.5832 11.0859 43.6731 11.7434 43.6731 12.4219C43.6731 16.5705 40.31 19.9336 36.1614 19.9336C35.5094 19.9336 34.8769 19.8505 34.2737 19.6944C33.9416 19.6085 33.5833 19.6874 33.3407 19.93L20.4574 32.8133C20.2165 33.0542 20.1368 33.4094 20.2199 33.7398C20.3679 34.3281 20.4465 34.9439 20.4465 35.5781C20.4465 39.7267 17.0834 43.0898 12.9348 43.0898C12.2708 43.0898 11.6268 43.0037 11.0136 42.8419C10.501 42.7067 10.3761 42.0743 10.751 41.6995L14.3867 38.0638C14.826 37.6245 14.826 36.9122 14.3867 36.4728L12.0636 34.1497C11.6242 33.7104 10.912 33.7104 10.4726 34.1497L6.82367 37.7987C6.44986 38.1725 5.81934 38.0497 5.68164 37.5393C5.513 36.9141 5.4231 36.2566 5.4231 35.5781C5.4231 31.4295 8.78619 28.0664 12.9348 28.0664C13.5809 28.0664 14.2079 28.148 14.8061 28.3013C15.1376 28.3863 15.4949 28.3071 15.7369 28.0651L28.634 15.168C28.8744 14.9276 28.9543 14.5735 28.8721 14.2438C28.7268 13.6605 28.6497 13.0502 28.6497 12.4219C28.6497 8.27328 32.0128 4.91016 36.1614 4.91016C36.8254 4.91016 37.4694 4.99633 38.0826 5.15808Z" fill="url(#paint14_linear_2316_55773)"/>
<path d="M38.0826 5.15808C38.5952 5.2933 38.7201 5.92566 38.3452 6.30052L34.7095 9.93617C34.2702 10.3755 34.2702 11.0878 34.7095 11.5272L37.0326 13.8503C37.472 14.2896 38.1842 14.2896 38.6236 13.8503L42.2725 10.2013C42.6463 9.82752 43.2769 9.95032 43.4146 10.4607C43.5832 11.0859 43.6731 11.7434 43.6731 12.4219C43.6731 16.5705 40.31 19.9336 36.1614 19.9336C35.5094 19.9336 34.8769 19.8505 34.2737 19.6944C33.9416 19.6085 33.5833 19.6874 33.3407 19.93L20.4574 32.8133C20.2165 33.0542 20.1368 33.4094 20.2199 33.7398C20.3679 34.3281 20.4465 34.9439 20.4465 35.5781C20.4465 39.7267 17.0834 43.0898 12.9348 43.0898C12.2708 43.0898 11.6268 43.0037 11.0136 42.8419C10.501 42.7067 10.3761 42.0743 10.751 41.6995L14.3867 38.0638C14.826 37.6245 14.826 36.9122 14.3867 36.4728L12.0636 34.1497C11.6242 33.7104 10.912 33.7104 10.4726 34.1497L6.82367 37.7987C6.44986 38.1725 5.81934 38.0497 5.68164 37.5393C5.513 36.9141 5.4231 36.2566 5.4231 35.5781C5.4231 31.4295 8.78619 28.0664 12.9348 28.0664C13.5809 28.0664 14.2079 28.148 14.8061 28.3013C15.1376 28.3863 15.4949 28.3071 15.7369 28.0651L28.634 15.168C28.8744 14.9276 28.9543 14.5735 28.8721 14.2438C28.7268 13.6605 28.6497 13.0502 28.6497 12.4219C28.6497 8.27328 32.0128 4.91016 36.1614 4.91016C36.8254 4.91016 37.4694 4.99633 38.0826 5.15808Z" fill="url(#paint15_radial_2316_55773)"/>
</g>
<rect x="29.1946" y="14.6191" width="6.6954" height="19.3902" transform="rotate(45 29.1946 14.6191)" fill="url(#paint16_linear_2316_55773)"/>
<rect x="29.1946" y="14.6191" width="6.6954" height="19.3902" transform="rotate(45 29.1946 14.6191)" fill="url(#paint17_linear_2316_55773)"/>
<rect x="29.1946" y="14.6191" width="6.6954" height="19.3902" transform="rotate(45 29.1946 14.6191)" fill="url(#paint18_linear_2316_55773)"/>
<rect x="29.1946" y="14.6191" width="6.6954" height="19.3902" transform="rotate(45 29.1946 14.6191)" fill="url(#paint19_radial_2316_55773)"/>
<path d="M10.751 41.6995C10.3761 42.0743 10.501 42.7067 11.0136 42.8419C11.6268 43.0037 12.2708 43.0898 12.9348 43.0898C17.0834 43.0898 20.4465 39.7267 20.4465 35.5781C20.4465 31.4295 17.0834 28.0664 12.9348 28.0664C8.78619 28.0664 5.4231 31.4295 5.4231 35.5781C5.4231 36.2566 5.51304 36.9141 5.68166 37.5393C5.81931 38.0497 6.44983 38.1725 6.82363 37.7987L10.4726 34.1497C10.912 33.7104 11.6242 33.7104 12.0636 34.1497L14.3867 36.4728C14.826 36.9122 14.826 37.6245 14.3867 38.0638L10.751 41.6995Z" fill="url(#paint20_radial_2316_55773)"/>
<path d="M10.751 41.6995C10.3761 42.0743 10.501 42.7067 11.0136 42.8419C11.6268 43.0037 12.2708 43.0898 12.9348 43.0898C17.0834 43.0898 20.4465 39.7267 20.4465 35.5781C20.4465 31.4295 17.0834 28.0664 12.9348 28.0664C8.78619 28.0664 5.4231 31.4295 5.4231 35.5781C5.4231 36.2566 5.51304 36.9141 5.68166 37.5393C5.81931 38.0497 6.44983 38.1725 6.82363 37.7987L10.4726 34.1497C10.912 33.7104 11.6242 33.7104 12.0636 34.1497L14.3867 36.4728C14.826 36.9122 14.826 37.6245 14.3867 38.0638L10.751 41.6995Z" fill="url(#paint21_radial_2316_55773)"/>
<path d="M10.751 41.6995C10.3761 42.0743 10.501 42.7067 11.0136 42.8419C11.6268 43.0037 12.2708 43.0898 12.9348 43.0898C17.0834 43.0898 20.4465 39.7267 20.4465 35.5781C20.4465 31.4295 17.0834 28.0664 12.9348 28.0664C8.78619 28.0664 5.4231 31.4295 5.4231 35.5781C5.4231 36.2566 5.51304 36.9141 5.68166 37.5393C5.81931 38.0497 6.44983 38.1725 6.82363 37.7987L10.4726 34.1497C10.912 33.7104 11.6242 33.7104 12.0636 34.1497L14.3867 36.4728C14.826 36.9122 14.826 37.6245 14.3867 38.0638L10.751 41.6995Z" fill="url(#paint22_radial_2316_55773)"/>
<path d="M38.0826 5.15808C38.5952 5.2933 38.7201 5.92566 38.3452 6.30052L34.7095 9.93617C34.2702 10.3755 34.2702 11.0878 34.7095 11.5272L37.0326 13.8503C37.472 14.2896 38.1842 14.2896 38.6236 13.8503L42.2725 10.2013C42.6463 9.82752 43.2769 9.95032 43.4146 10.4607C43.5832 11.0859 43.6731 11.7434 43.6731 12.4219C43.6731 16.5705 40.31 19.9336 36.1614 19.9336C35.6296 19.9336 35.1107 19.8783 34.6102 19.7732C34.352 19.719 34.1203 19.5817 33.9338 19.3952L29.1881 14.6494C29.0016 14.4629 28.8642 14.2312 28.81 13.9731C28.7049 13.4725 28.6497 12.9537 28.6497 12.4219C28.6497 8.27328 32.0128 4.91016 36.1614 4.91016C36.8254 4.91016 37.4694 4.99633 38.0826 5.15808Z" fill="url(#paint23_radial_2316_55773)"/>
<path d="M38.0826 5.15808C38.5952 5.2933 38.7201 5.92566 38.3452 6.30052L34.7095 9.93617C34.2702 10.3755 34.2702 11.0878 34.7095 11.5272L37.0326 13.8503C37.472 14.2896 38.1842 14.2896 38.6236 13.8503L42.2725 10.2013C42.6463 9.82752 43.2769 9.95032 43.4146 10.4607C43.5832 11.0859 43.6731 11.7434 43.6731 12.4219C43.6731 16.5705 40.31 19.9336 36.1614 19.9336C35.6296 19.9336 35.1107 19.8783 34.6102 19.7732C34.352 19.719 34.1203 19.5817 33.9338 19.3952L29.1881 14.6494C29.0016 14.4629 28.8642 14.2312 28.81 13.9731C28.7049 13.4725 28.6497 12.9537 28.6497 12.4219C28.6497 8.27328 32.0128 4.91016 36.1614 4.91016C36.8254 4.91016 37.4694 4.99633 38.0826 5.15808Z" fill="url(#paint24_radial_2316_55773)"/>
<defs>
<filter id="filter0_i_2316_55773" x="11.6125" y="11.8458" width="32.0605" height="32.2105" filterUnits="userSpaceOnUse" color-interpolation-filters="sRGB">
<feFlood flood-opacity="0" result="BackgroundImageFix"/>
<feBlend mode="normal" in="SourceGraphic" in2="BackgroundImageFix" result="shape"/>
<feColorMatrix in="SourceAlpha" type="matrix" values="0 0 0 0 0 0 0 0 0 0 0 0 0 0 0 0 0 0 127 0" result="hardAlpha"/>
<feOffset dy="-0.15"/>
<feGaussianBlur stdDeviation="0.15"/>
<feComposite in2="hardAlpha" operator="arithmetic" k2="-1" k3="1"/>
<feColorMatrix type="matrix" values="0 0 0 0 0.643137 0 0 0 0 0.384314 0 0 0 0 0.737255 0 0 0 1 0"/>
<feBlend mode="normal" in2="shape" result="effect1_innerShadow_2316_55773"/>
</filter>
<filter id="filter1_f_2316_55773" x="16.4456" y="13.9216" width="26.6416" height="26.6416" filterUnits="userSpaceOnUse" color-interpolation-filters="sRGB">
<feFlood flood-opacity="0" result="BackgroundImageFix"/>
<feBlend mode="normal" in="SourceGraphic" in2="BackgroundImageFix" result="shape"/>
<feGaussianBlur stdDeviation="0.5" result="effect1_foregroundBlur_2316_55773"/>
</filter>
<filter id="filter2_i_2316_55773" x="1.98877" y="15.3769" width="11.5838" height="11.5809" filterUnits="userSpaceOnUse" color-interpolation-filters="sRGB">
<feFlood flood-opacity="0" result="BackgroundImageFix"/>
<feBlend mode="normal" in="SourceGraphic" in2="BackgroundImageFix" result="shape"/>
<feColorMatrix in="SourceAlpha" type="matrix" values="0 0 0 0 0 0 0 0 0 0 0 0 0 0 0 0 0 0 127 0" result="hardAlpha"/>
<feOffset dx="0.15" dy="-0.15"/>
<feGaussianBlur stdDeviation="0.375"/>
<feComposite in2="hardAlpha" operator="arithmetic" k2="-1" k3="1"/>
<feColorMatrix type="matrix" values="0 0 0 0 0.552941 0 0 0 0 0.541176 0 0 0 0 0.592157 0 0 0 1 0"/>
<feBlend mode="normal" in2="shape" result="effect1_innerShadow_2316_55773"/>
</filter>
<filter id="filter3_i_2316_55773" x="6.63525" y="3.3772" width="18.0562" height="19.6904" filterUnits="userSpaceOnUse" color-interpolation-filters="sRGB">
<feFlood flood-opacity="0" result="BackgroundImageFix"/>
<feBlend mode="normal" in="SourceGraphic" in2="BackgroundImageFix" result="shape"/>
<feColorMatrix in="SourceAlpha" type="matrix" values="0 0 0 0 0 0 0 0 0 0 0 0 0 0 0 0 0 0 127 0" result="hardAlpha"/>
<feOffset dx="0.25" dy="-0.25"/>
<feGaussianBlur stdDeviation="0.5"/>
<feComposite in2="hardAlpha" operator="arithmetic" k2="-1" k3="1"/>
<feColorMatrix type="matrix" values="0 0 0 0 0.537255 0 0 0 0 0.52549 0 0 0 0 0.596078 0 0 0 1 0"/>
<feBlend mode="normal" in2="shape" result="effect1_innerShadow_2316_55773"/>
</filter>
<filter id="filter4_f_2316_55773" x="8.93164" y="9.22632" width="14.2012" height="14.2012" filterUnits="userSpaceOnUse" color-interpolation-filters="sRGB">
<feFlood flood-opacity="0" result="BackgroundImageFix"/>
<feBlend mode="normal" in="SourceGraphic" in2="BackgroundImageFix" result="shape"/>
<feGaussianBlur stdDeviation="0.5" result="effect1_foregroundBlur_2316_55773"/>
</filter>
<filter id="filter5_ii_2316_55773" x="5.2231" y="4.71016" width="38.65" height="38.5797" filterUnits="userSpaceOnUse" color-interpolation-filters="sRGB">
<feFlood flood-opacity="0" result="BackgroundImageFix"/>
<feBlend mode="normal" in="SourceGraphic" in2="BackgroundImageFix" result="shape"/>
<feColorMatrix in="SourceAlpha" type="matrix" values="0 0 0 0 0 0 0 0 0 0 0 0 0 0 0 0 0 0 127 0" result="hardAlpha"/>
<feOffset dx="0.2" dy="0.2"/>
<feGaussianBlur stdDeviation="0.3"/>
<feComposite in2="hardAlpha" operator="arithmetic" k2="-1" k3="1"/>
<feColorMatrix type="matrix" values="0 0 0 0 0.701961 0 0 0 0 0.686275 0 0 0 0 0.733333 0 0 0 1 0"/>
<feBlend mode="normal" in2="shape" result="effect1_innerShadow_2316_55773"/>
<feColorMatrix in="SourceAlpha" type="matrix" values="0 0 0 0 0 0 0 0 0 0 0 0 0 0 0 0 0 0 127 0" result="hardAlpha"/>
<feOffset dx="-0.2" dy="-0.2"/>
<feGaussianBlur stdDeviation="0.2"/>
<feComposite in2="hardAlpha" operator="arithmetic" k2="-1" k3="1"/>
<feColorMatrix type="matrix" values="0 0 0 0 0.866667 0 0 0 0 0.854902 0 0 0 0 0.894118 0 0 0 1 0"/>
<feBlend mode="normal" in2="effect1_innerShadow_2316_55773" result="effect2_innerShadow_2316_55773"/>
</filter>
<linearGradient id="paint0_linear_2316_55773" x1="45.2981" y1="40.8357" x2="38.7825" y2="34.3201" gradientUnits="userSpaceOnUse">
<stop offset="0.064748" stop-color="#7F494F"/>
<stop offset="1" stop-color="#7F494F" stop-opacity="0"/>
</linearGradient>
<linearGradient id="paint1_linear_2316_55773" x1="26.3606" y1="31.4138" x2="31.7043" y2="25.8826" gradientUnits="userSpaceOnUse">
<stop offset="0.0577084" stop-color="#733464"/>
<stop offset="1" stop-color="#7C425A" stop-opacity="0"/>
</linearGradient>
<linearGradient id="paint2_linear_2316_55773" x1="26.3138" y1="24.9921" x2="40.0951" y2="38.5389" gradientUnits="userSpaceOnUse">
<stop stop-color="#A77975"/>
<stop offset="1" stop-color="#8F6969"/>
</linearGradient>
<radialGradient id="paint3_radial_2316_55773" cx="0" cy="0" r="1" gradientUnits="userSpaceOnUse" gradientTransform="translate(42.5326 38.9139) rotate(-144.273) scale(3.29128 4.21324)">
<stop stop-color="#9B7775"/>
<stop offset="1" stop-color="#9B7775" stop-opacity="0"/>
</radialGradient>
<radialGradient id="paint4_radial_2316_55773" cx="0" cy="0" r="1" gradientUnits="userSpaceOnUse" gradientTransform="translate(7.70569 23.8052) rotate(-45.6098) scale(4.62359 4.62481)">
<stop stop-color="#CABFDD"/>
<stop offset="1" stop-color="#CABFDD" stop-opacity="0"/>
</radialGradient>
<radialGradient id="paint5_radial_2316_55773" cx="0" cy="0" r="1" gradientUnits="userSpaceOnUse" gradientTransform="translate(6.62637 22.8356) rotate(-47.332) scale(7.33126 16.9991)">
<stop offset="0.599497" stop-color="#BBB9C3" stop-opacity="0"/>
<stop offset="0.775721" stop-color="#8C889A"/>
</radialGradient>
<radialGradient id="paint6_radial_2316_55773" cx="0" cy="0" r="1" gradientUnits="userSpaceOnUse" gradientTransform="translate(9.34512 19.8356) rotate(131.009) scale(2.85745 8.76523)">
<stop stop-color="#DED9EA"/>
<stop offset="1" stop-color="#CAC1DC" stop-opacity="0"/>
</radialGradient>
<radialGradient id="paint7_radial_2316_55773" cx="0" cy="0" r="1" gradientUnits="userSpaceOnUse" gradientTransform="translate(11.1264 19.5544) rotate(-177.818) scale(9.85089 12.7086)">
<stop offset="0.547233" stop-color="#8F8C98" stop-opacity="0"/>
<stop offset="1" stop-color="#8F8C98"/>
</radialGradient>
<radialGradient id="paint8_radial_2316_55773" cx="0" cy="0" r="1" gradientUnits="userSpaceOnUse" gradientTransform="translate(24.1002 23.8292) rotate(-132.466) scale(4.12655 32.5009)">
<stop offset="0.318552" stop-color="#563235"/>
<stop offset="1" stop-color="#563235" stop-opacity="0"/>
</radialGradient>
<linearGradient id="paint9_linear_2316_55773" x1="21.1435" y1="3.93278" x2="20.9977" y2="5.77913" gradientUnits="userSpaceOnUse">
<stop stop-color="#CCCCD3"/>
<stop offset="1" stop-color="#CCCCD3" stop-opacity="0"/>
</linearGradient>
<radialGradient id="paint10_radial_2316_55773" cx="0" cy="0" r="1" gradientUnits="userSpaceOnUse" gradientTransform="translate(23.5729 4.85596) rotate(136.759) scale(2.51783 0.50679)">
<stop stop-color="#DFDDE8"/>
<stop offset="1" stop-color="#CCC9D6" stop-opacity="0"/>
</radialGradient>
<radialGradient id="paint11_radial_2316_55773" cx="0" cy="0" r="1" gradientUnits="userSpaceOnUse" gradientTransform="translate(23.1842 12.4357) rotate(145.582) scale(6.36114 5.08223)">
<stop offset="0.200856" stop-color="#ECEAF4"/>
<stop offset="1" stop-color="#ECEAF4" stop-opacity="0"/>
</radialGradient>
<linearGradient id="paint12_linear_2316_55773" x1="20.705" y1="22.3858" x2="9.82797" y2="23.0337" gradientUnits="userSpaceOnUse">
<stop stop-color="#EDEAF7"/>
<stop offset="1" stop-color="#A89ABE"/>
</linearGradient>
<linearGradient id="paint13_linear_2316_55773" x1="15.3504" y1="17.8896" x2="15.3835" y2="19.8121" gradientUnits="userSpaceOnUse">
<stop offset="0.111441" stop-color="#B2ADC0"/>
<stop offset="1" stop-color="#B2ADC0" stop-opacity="0"/>
</linearGradient>
<linearGradient id="paint14_linear_2316_55773" x1="19.7903" y1="19.3242" x2="27.6653" y2="28.6055" gradientUnits="userSpaceOnUse">
<stop stop-color="#BAB6C1"/>
<stop offset="1" stop-color="#E0DBE7"/>
</linearGradient>
<radialGradient id="paint15_radial_2316_55773" cx="0" cy="0" r="1" gradientUnits="userSpaceOnUse" gradientTransform="translate(44.259 9.48047) rotate(136.302) scale(8.75271 5.9954)">
<stop stop-color="#E1DFE7"/>
<stop offset="1" stop-color="#E1DFE7" stop-opacity="0"/>
</radialGradient>
<linearGradient id="paint16_linear_2316_55773" x1="27.5621" y1="25.0594" x2="33.4845" y2="25.2405" gradientUnits="userSpaceOnUse">
<stop stop-color="#9E9AA4"/>
<stop offset="1" stop-color="#D2CED9" stop-opacity="0"/>
</linearGradient>
<linearGradient id="paint17_linear_2316_55773" x1="32.5671" y1="14.1358" x2="32.5123" y2="15.4007" gradientUnits="userSpaceOnUse">
<stop offset="0.275" stop-color="#C8B4D9"/>
<stop offset="1" stop-color="#C8B4D9" stop-opacity="0"/>
</linearGradient>
<linearGradient id="paint18_linear_2316_55773" x1="37.2407" y1="24.0927" x2="32.1593" y2="23.9329" gradientUnits="userSpaceOnUse">
<stop stop-color="#D3C1E6"/>
<stop offset="1" stop-color="#D3C1E6" stop-opacity="0"/>
</linearGradient>
<radialGradient id="paint19_radial_2316_55773" cx="0" cy="0" r="1" gradientUnits="userSpaceOnUse" gradientTransform="translate(33.2632 33.8104) rotate(-96.7099) scale(1.70208 3.76724)">
<stop offset="0.341463" stop-color="#E0DBE9"/>
<stop offset="1" stop-color="#D3CEDA" stop-opacity="0"/>
</radialGradient>
<radialGradient id="paint20_radial_2316_55773" cx="0" cy="0" r="1" gradientUnits="userSpaceOnUse" gradientTransform="translate(16.0403 36.0586) rotate(-163.225) scale(10.2323 11.9882)">
<stop offset="0.68256" stop-color="#9D99A6" stop-opacity="0"/>
<stop offset="1" stop-color="#9D99A6"/>
</radialGradient>
<radialGradient id="paint21_radial_2316_55773" cx="0" cy="0" r="1" gradientUnits="userSpaceOnUse" gradientTransform="translate(13.2747 32.918) rotate(89.2527) scale(10.7822 14.8715)">
<stop offset="0.405994" stop-color="#E0D0EF" stop-opacity="0"/>
<stop offset="0.944508" stop-color="#CBA8E2"/>
</radialGradient>
<radialGradient id="paint22_radial_2316_55773" cx="0" cy="0" r="1" gradientUnits="userSpaceOnUse" gradientTransform="translate(18.8997 31.5586) rotate(133.719) scale(5.56157 5.47008)">
<stop stop-color="#E9E3F3"/>
<stop offset="1" stop-color="#E9E3F3" stop-opacity="0"/>
</radialGradient>
<radialGradient id="paint23_radial_2316_55773" cx="0" cy="0" r="1" gradientUnits="userSpaceOnUse" gradientTransform="translate(35.8215 19.9336) rotate(-95.856) scale(9.18858 12.6871)">
<stop offset="0.0115057" stop-color="#C3A9D9"/>
<stop offset="1" stop-color="#C3A9D9" stop-opacity="0"/>
</radialGradient>
<radialGradient id="paint24_radial_2316_55773" cx="0" cy="0" r="1" gradientUnits="userSpaceOnUse" gradientTransform="translate(40.134 13.5586) rotate(-160.812) scale(12.4081 13.1685)">
<stop offset="0.696071" stop-color="#AFA6BB" stop-opacity="0"/>
<stop offset="0.956086" stop-color="#9C98A3"/>
</radialGradient>
</defs>
</svg>
