<svg width="32" height="32" viewBox="0 0 32 32" fill="none" xmlns="http://www.w3.org/2000/svg">
<g filter="url(#filter0_ii_1737_16740)">
<path d="M24.2525 15.2517L26.1825 10.2317C26.3825 9.71167 26.2625 9.11167 25.8625 8.71167L21.1425 3.99167C20.7425 3.59167 20.1525 3.47167 19.6225 3.67167L14.6025 5.60167C14.2225 5.75167 13.8725 5.97167 13.5825 6.26167L2.4825 17.3617C1.9225 17.9217 1.9225 18.8217 2.4825 19.3717L10.4825 27.3717C11.0425 27.9317 11.9425 27.9317 12.4925 27.3717L23.5925 16.2717C23.8825 15.9817 24.1025 15.6417 24.2525 15.2517ZM19.2725 10.5917C18.5825 9.90167 18.5825 8.79167 19.2725 8.10167C19.9625 7.41167 21.0725 7.41167 21.7625 8.10167C22.4525 8.79167 22.4525 9.90167 21.7625 10.5917C21.0725 11.2717 19.9525 11.2717 19.2725 10.5917Z" fill="url(#paint0_linear_1737_16740)"/>
</g>
<path d="M24.2525 15.2517L26.1825 10.2317C26.3825 9.71167 26.2625 9.11167 25.8625 8.71167L21.1425 3.99167C20.7425 3.59167 20.1525 3.47167 19.6225 3.67167L14.6025 5.60167C14.2225 5.75167 13.8725 5.97167 13.5825 6.26167L2.4825 17.3617C1.9225 17.9217 1.9225 18.8217 2.4825 19.3717L10.4825 27.3717C11.0425 27.9317 11.9425 27.9317 12.4925 27.3717L23.5925 16.2717C23.8825 15.9817 24.1025 15.6417 24.2525 15.2517ZM19.2725 10.5917C18.5825 9.90167 18.5825 8.79167 19.2725 8.10167C19.9625 7.41167 21.0725 7.41167 21.7625 8.10167C22.4525 8.79167 22.4525 9.90167 21.7625 10.5917C21.0725 11.2717 19.9525 11.2717 19.2725 10.5917Z" fill="url(#paint1_linear_1737_16740)"/>
<path d="M24.2525 15.2517L26.1825 10.2317C26.3825 9.71167 26.2625 9.11167 25.8625 8.71167L21.1425 3.99167C20.7425 3.59167 20.1525 3.47167 19.6225 3.67167L14.6025 5.60167C14.2225 5.75167 13.8725 5.97167 13.5825 6.26167L2.4825 17.3617C1.9225 17.9217 1.9225 18.8217 2.4825 19.3717L10.4825 27.3717C11.0425 27.9317 11.9425 27.9317 12.4925 27.3717L23.5925 16.2717C23.8825 15.9817 24.1025 15.6417 24.2525 15.2517ZM19.2725 10.5917C18.5825 9.90167 18.5825 8.79167 19.2725 8.10167C19.9625 7.41167 21.0725 7.41167 21.7625 8.10167C22.4525 8.79167 22.4525 9.90167 21.7625 10.5917C21.0725 11.2717 19.9525 11.2717 19.2725 10.5917Z" fill="url(#paint2_radial_1737_16740)"/>
<g filter="url(#filter1_f_1737_16740)">
<path d="M24.7012 13.6701C24.6766 13.6707 24.6518 13.6709 24.627 13.6709C23.1097 13.6709 21.8299 12.6538 21.4324 11.2642C21.143 11.3916 20.8231 11.4293 20.5166 11.3773C20.9549 13.1343 22.4903 14.457 24.353 14.576L24.7012 13.6701Z" fill="#E3A242"/>
</g>
<g filter="url(#filter2_ii_1737_16740)">
<path d="M20.5163 7.58001C20.9663 7.58001 21.4163 7.75001 21.7563 8.10001C22.4463 8.79001 22.4463 9.90001 21.7563 10.59C21.4163 10.93 20.9663 11.11 20.5163 11.11C20.0663 11.11 19.6163 10.94 19.2763 10.59C18.5863 9.90001 18.5863 8.79001 19.2763 8.10001C19.6163 7.75001 20.0663 7.58001 20.5163 7.58001ZM20.5163 6.64001C19.7963 6.64001 19.1163 6.92001 18.6063 7.43001C17.5563 8.48001 17.5563 10.19 18.6063 11.25C19.1163 11.76 19.7963 12.04 20.5163 12.04C21.2363 12.04 21.9163 11.76 22.4263 11.25C23.4763 10.2 23.4763 8.49001 22.4263 7.43001C21.9163 6.92001 21.2363 6.64001 20.5163 6.64001Z" fill="#F6424A"/>
<path d="M20.5163 7.58001C20.9663 7.58001 21.4163 7.75001 21.7563 8.10001C22.4463 8.79001 22.4463 9.90001 21.7563 10.59C21.4163 10.93 20.9663 11.11 20.5163 11.11C20.0663 11.11 19.6163 10.94 19.2763 10.59C18.5863 9.90001 18.5863 8.79001 19.2763 8.10001C19.6163 7.75001 20.0663 7.58001 20.5163 7.58001ZM20.5163 6.64001C19.7963 6.64001 19.1163 6.92001 18.6063 7.43001C17.5563 8.48001 17.5563 10.19 18.6063 11.25C19.1163 11.76 19.7963 12.04 20.5163 12.04C21.2363 12.04 21.9163 11.76 22.4263 11.25C23.4763 10.2 23.4763 8.49001 22.4263 7.43001C21.9163 6.92001 21.2363 6.64001 20.5163 6.64001Z" fill="url(#paint3_radial_1737_16740)"/>
<path d="M20.5163 7.58001C20.9663 7.58001 21.4163 7.75001 21.7563 8.10001C22.4463 8.79001 22.4463 9.90001 21.7563 10.59C21.4163 10.93 20.9663 11.11 20.5163 11.11C20.0663 11.11 19.6163 10.94 19.2763 10.59C18.5863 9.90001 18.5863 8.79001 19.2763 8.10001C19.6163 7.75001 20.0663 7.58001 20.5163 7.58001ZM20.5163 6.64001C19.7963 6.64001 19.1163 6.92001 18.6063 7.43001C17.5563 8.48001 17.5563 10.19 18.6063 11.25C19.1163 11.76 19.7963 12.04 20.5163 12.04C21.2363 12.04 21.9163 11.76 22.4263 11.25C23.4763 10.2 23.4763 8.49001 22.4263 7.43001C21.9163 6.92001 21.2363 6.64001 20.5163 6.64001Z" fill="url(#paint4_radial_1737_16740)"/>
</g>
<g filter="url(#filter3_i_1737_16740)">
<path d="M23.1646 6.01374C23.7861 5.5412 24.5616 5.2607 25.4025 5.2607C27.4466 5.2607 29.1036 6.91771 29.1036 8.96175C29.1036 11.0058 27.4466 12.6628 25.4025 12.6628C23.3585 12.6628 21.7015 11.0058 21.7015 8.96175C21.7015 8.67729 21.7336 8.40033 21.7943 8.13429C21.7839 8.12333 21.7733 8.11247 21.7626 8.10172C21.5098 7.84901 21.2008 7.68887 20.8767 7.62128C20.751 8.04619 20.6836 8.49609 20.6836 8.96175C20.6836 11.568 22.7963 13.6807 25.4025 13.6807C28.0087 13.6807 30.1215 11.568 30.1215 8.96175C30.1215 6.35554 28.0087 4.2428 25.4025 4.2428C24.2803 4.2428 23.2496 4.63454 22.4396 5.28875L23.1646 6.01374Z" fill="#AAA2B3"/>
<path d="M23.1646 6.01374C23.7861 5.5412 24.5616 5.2607 25.4025 5.2607C27.4466 5.2607 29.1036 6.91771 29.1036 8.96175C29.1036 11.0058 27.4466 12.6628 25.4025 12.6628C23.3585 12.6628 21.7015 11.0058 21.7015 8.96175C21.7015 8.67729 21.7336 8.40033 21.7943 8.13429C21.7839 8.12333 21.7733 8.11247 21.7626 8.10172C21.5098 7.84901 21.2008 7.68887 20.8767 7.62128C20.751 8.04619 20.6836 8.49609 20.6836 8.96175C20.6836 11.568 22.7963 13.6807 25.4025 13.6807C28.0087 13.6807 30.1215 11.568 30.1215 8.96175C30.1215 6.35554 28.0087 4.2428 25.4025 4.2428C24.2803 4.2428 23.2496 4.63454 22.4396 5.28875L23.1646 6.01374Z" fill="url(#paint5_radial_1737_16740)"/>
</g>
<g filter="url(#filter4_f_1737_16740)">
<circle cx="25.4027" cy="8.93405" r="4.33188" stroke="url(#paint6_linear_1737_16740)" stroke-width="0.15"/>
<circle cx="25.4027" cy="8.93405" r="4.33188" stroke="url(#paint7_radial_1737_16740)" stroke-width="0.15"/>
</g>
<defs>
<filter id="filter0_ii_1737_16740" x="2.0625" y="3.27666" width="24.2148" height="24.815" filterUnits="userSpaceOnUse" color-interpolation-filters="sRGB">
<feFlood flood-opacity="0" result="BackgroundImageFix"/>
<feBlend mode="normal" in="SourceGraphic" in2="BackgroundImageFix" result="shape"/>
<feColorMatrix in="SourceAlpha" type="matrix" values="0 0 0 0 0 0 0 0 0 0 0 0 0 0 0 0 0 0 127 0" result="hardAlpha"/>
<feOffset dy="-0.3"/>
<feGaussianBlur stdDeviation="0.2"/>
<feComposite in2="hardAlpha" operator="arithmetic" k2="-1" k3="1"/>
<feColorMatrix type="matrix" values="0 0 0 0 1 0 0 0 0 0.564706 0 0 0 0 0.372549 0 0 0 1 0"/>
<feBlend mode="normal" in2="shape" result="effect1_innerShadow_1737_16740"/>
<feColorMatrix in="SourceAlpha" type="matrix" values="0 0 0 0 0 0 0 0 0 0 0 0 0 0 0 0 0 0 127 0" result="hardAlpha"/>
<feOffset dy="0.3"/>
<feGaussianBlur stdDeviation="0.15"/>
<feComposite in2="hardAlpha" operator="arithmetic" k2="-1" k3="1"/>
<feColorMatrix type="matrix" values="0 0 0 0 1 0 0 0 0 0.941176 0 0 0 0 0.262745 0 0 0 1 0"/>
<feBlend mode="normal" in2="effect1_innerShadow_1737_16740" result="effect2_innerShadow_1737_16740"/>
</filter>
<filter id="filter1_f_1737_16740" x="19.8666" y="10.6142" width="5.48457" height="4.61177" filterUnits="userSpaceOnUse" color-interpolation-filters="sRGB">
<feFlood flood-opacity="0" result="BackgroundImageFix"/>
<feBlend mode="normal" in="SourceGraphic" in2="BackgroundImageFix" result="shape"/>
<feGaussianBlur stdDeviation="0.325" result="effect1_foregroundBlur_1737_16740"/>
</filter>
<filter id="filter2_ii_1737_16740" x="17.7188" y="6.54001" width="5.59502" height="5.60002" filterUnits="userSpaceOnUse" color-interpolation-filters="sRGB">
<feFlood flood-opacity="0" result="BackgroundImageFix"/>
<feBlend mode="normal" in="SourceGraphic" in2="BackgroundImageFix" result="shape"/>
<feColorMatrix in="SourceAlpha" type="matrix" values="0 0 0 0 0 0 0 0 0 0 0 0 0 0 0 0 0 0 127 0" result="hardAlpha"/>
<feOffset dx="0.1" dy="0.1"/>
<feGaussianBlur stdDeviation="0.15"/>
<feComposite in2="hardAlpha" operator="arithmetic" k2="-1" k3="1"/>
<feColorMatrix type="matrix" values="0 0 0 0 0.784314 0 0 0 0 0.223529 0 0 0 0 0.211765 0 0 0 1 0"/>
<feBlend mode="normal" in2="shape" result="effect1_innerShadow_1737_16740"/>
<feColorMatrix in="SourceAlpha" type="matrix" values="0 0 0 0 0 0 0 0 0 0 0 0 0 0 0 0 0 0 127 0" result="hardAlpha"/>
<feOffset dx="-0.1" dy="-0.1"/>
<feGaussianBlur stdDeviation="0.15"/>
<feComposite in2="hardAlpha" operator="arithmetic" k2="-1" k3="1"/>
<feColorMatrix type="matrix" values="0 0 0 0 0.952941 0 0 0 0 0.176471 0 0 0 0 0.380392 0 0 0 1 0"/>
<feBlend mode="normal" in2="effect1_innerShadow_1737_16740" result="effect2_innerShadow_1737_16740"/>
</filter>
<filter id="filter3_i_1737_16740" x="20.6836" y="4.0928" width="9.43799" height="9.58787" filterUnits="userSpaceOnUse" color-interpolation-filters="sRGB">
<feFlood flood-opacity="0" result="BackgroundImageFix"/>
<feBlend mode="normal" in="SourceGraphic" in2="BackgroundImageFix" result="shape"/>
<feColorMatrix in="SourceAlpha" type="matrix" values="0 0 0 0 0 0 0 0 0 0 0 0 0 0 0 0 0 0 127 0" result="hardAlpha"/>
<feOffset dy="-0.15"/>
<feGaussianBlur stdDeviation="0.25"/>
<feComposite in2="hardAlpha" operator="arithmetic" k2="-1" k3="1"/>
<feColorMatrix type="matrix" values="0 0 0 0 0.631373 0 0 0 0 0.380392 0 0 0 0 0.815686 0 0 0 1 0"/>
<feBlend mode="normal" in2="shape" result="effect1_innerShadow_1737_16740"/>
</filter>
<filter id="filter4_f_1737_16740" x="20.8456" y="4.37722" width="9.11396" height="9.11372" filterUnits="userSpaceOnUse" color-interpolation-filters="sRGB">
<feFlood flood-opacity="0" result="BackgroundImageFix"/>
<feBlend mode="normal" in="SourceGraphic" in2="BackgroundImageFix" result="shape"/>
<feGaussianBlur stdDeviation="0.075" result="effect1_foregroundBlur_1737_16740"/>
</filter>
<linearGradient id="paint0_linear_1737_16740" x1="21.9687" y1="11.1392" x2="3.4375" y2="17.7954" gradientUnits="userSpaceOnUse">
<stop stop-color="#FFD846"/>
<stop offset="1" stop-color="#FFB349"/>
</linearGradient>
<linearGradient id="paint1_linear_1737_16740" x1="3.71875" y1="15.0454" x2="5.84375" y2="17.1704" gradientUnits="userSpaceOnUse">
<stop offset="0.232565" stop-color="#FFBD42"/>
<stop offset="1" stop-color="#FFBD42" stop-opacity="0"/>
</linearGradient>
<radialGradient id="paint2_radial_1737_16740" cx="0" cy="0" r="1" gradientUnits="userSpaceOnUse" gradientTransform="translate(20.3594 9.88916) rotate(92.6291) scale(3.06573 3.30347)">
<stop offset="0.588488" stop-color="#FCA643"/>
<stop offset="1" stop-color="#FFCE46" stop-opacity="0"/>
</radialGradient>
<radialGradient id="paint3_radial_1737_16740" cx="0" cy="0" r="1" gradientUnits="userSpaceOnUse" gradientTransform="translate(18.707 9.34001) rotate(-3.09587) scale(4.51348 5.10986)">
<stop offset="0.883561" stop-color="#FF5856" stop-opacity="0"/>
<stop offset="0.967272" stop-color="#FF5856"/>
</radialGradient>
<radialGradient id="paint4_radial_1737_16740" cx="0" cy="0" r="1" gradientUnits="userSpaceOnUse" gradientTransform="translate(21.3788 11.5338) rotate(149.588) scale(1.0001 1.09979)">
<stop offset="0.187536" stop-color="#CA313A"/>
<stop offset="1" stop-color="#CA313A" stop-opacity="0"/>
</radialGradient>
<radialGradient id="paint5_radial_1737_16740" cx="0" cy="0" r="1" gradientUnits="userSpaceOnUse" gradientTransform="translate(21.3751 7.45172) rotate(120.816) scale(1.03703 1.5785)">
<stop offset="0.184563" stop-color="#8A4172"/>
<stop offset="1" stop-color="#8A4172" stop-opacity="0"/>
</radialGradient>
<linearGradient id="paint6_linear_1737_16740" x1="29.0314" y1="11.8892" x2="26.2971" y2="10.0767" gradientUnits="userSpaceOnUse">
<stop offset="0.251492" stop-color="#B6AAC2"/>
<stop offset="1" stop-color="#B6AAC2" stop-opacity="0"/>
</linearGradient>
<radialGradient id="paint7_radial_1737_16740" cx="0" cy="0" r="1" gradientUnits="userSpaceOnUse" gradientTransform="translate(22.9377 4.6861) rotate(17.6711) scale(1.85306 0.980482)">
<stop offset="0.46086" stop-color="#B6AAC2"/>
<stop offset="1" stop-color="#B6AAC2" stop-opacity="0"/>
</radialGradient>
</defs>
</svg>
