<svg width="41" height="40" viewBox="0 0 41 40" fill="none" xmlns="http://www.w3.org/2000/svg">
<g filter="url(#filter0_d_4061_1608)">
<path d="M2.5 19C2.5 9.05888 10.5589 1 20.5 1C30.4411 1 38.5 9.05888 38.5 19C38.5 28.9411 30.4411 37 20.5 37C10.5589 37 2.5 28.9411 2.5 19Z" fill="white"/>
<path d="M26.3332 19H14.6665M14.6665 19L20.4998 24.8333M14.6665 19L20.4998 13.1667" stroke="#344054" stroke-width="1.66667" stroke-linecap="round" stroke-linejoin="round"/>
<path d="M3 19C3 9.33502 10.835 1.5 20.5 1.5C30.165 1.5 38 9.33502 38 19C38 28.665 30.165 36.5 20.5 36.5C10.835 36.5 3 28.665 3 19Z" stroke="#D0D5DD"/>
</g>
<defs>
<filter id="filter0_d_4061_1608" x="0.5" y="0" width="40" height="40" filterUnits="userSpaceOnUse" color-interpolation-filters="sRGB">
<feFlood flood-opacity="0" result="BackgroundImageFix"/>
<feColorMatrix in="SourceAlpha" type="matrix" values="0 0 0 0 0 0 0 0 0 0 0 0 0 0 0 0 0 0 127 0" result="hardAlpha"/>
<feOffset dy="1"/>
<feGaussianBlur stdDeviation="1"/>
<feColorMatrix type="matrix" values="0 0 0 0 0.0627451 0 0 0 0 0.0941176 0 0 0 0 0.156863 0 0 0 0.05 0"/>
<feBlend mode="normal" in2="BackgroundImageFix" result="effect1_dropShadow_4061_1608"/>
<feBlend mode="normal" in="SourceGraphic" in2="effect1_dropShadow_4061_1608" result="shape"/>
</filter>
</defs>
</svg>
