<svg width="45" height="44" viewBox="0 0 45 44" fill="none" xmlns="http://www.w3.org/2000/svg">
<g clip-path="url(#clip0_2324_13618)">
<path d="M27.7694 2.12169L23.5486 0.990723L19.9917 14.2654L16.7804 2.28093L12.5595 3.4119L16.0291 16.3602L7.38724 7.71841L4.29738 10.8083L13.7764 20.2874L1.97179 17.1243L0.84082 21.3451L13.7388 24.8011C13.5912 24.1642 13.5131 23.5006 13.5131 22.8187C13.5131 17.992 17.4258 14.0792 22.2525 14.0792C27.0792 14.0792 30.992 17.992 30.992 22.8187C30.992 23.4962 30.9148 24.1557 30.769 24.7889L42.4909 27.9297L43.6218 23.709L30.6725 20.2392L42.4779 17.0759L41.3469 12.8551L28.3981 16.3247L37.04 7.68293L33.9501 4.59307L24.6026 13.9406L27.7694 2.12169Z" fill="#FF4405"/>
<path d="M30.7567 24.838C30.3948 26.368 29.6308 27.7424 28.5825 28.8435L37.0745 37.3357L40.1644 34.2458L30.7567 24.838Z" fill="#FF4405"/>
<path d="M28.4968 28.9323C27.4359 30.0159 26.0951 30.8245 24.5916 31.2413L27.6817 42.7735L31.9025 41.6425L28.4968 28.9323Z" fill="#FF4405"/>
<path d="M24.434 31.2835C23.7364 31.4628 23.0053 31.5581 22.2518 31.5581C21.4446 31.5581 20.6629 31.4486 19.9208 31.2437L16.8279 42.7866L21.0487 43.9175L24.434 31.2835Z" fill="#FF4405"/>
<path d="M19.7715 31.2012C18.291 30.7638 16.9741 29.9448 15.9348 28.8581L7.42192 37.3711L10.5118 40.4609L19.7715 31.2012Z" fill="#FF4405"/>
<path d="M15.8647 28.7829C14.8432 27.6893 14.0992 26.3333 13.7451 24.827L1.98486 27.9781L3.11582 32.1989L15.8647 28.7829Z" fill="#FF4405"/>
</g>
<defs>
<clipPath id="clip0_2324_13618">
<rect width="44" height="44" fill="white" transform="translate(0.5)"/>
</clipPath>
</defs>
</svg>
