<svg width="44" height="44" viewBox="0 0 44 44" fill="none" xmlns="http://www.w3.org/2000/svg">
<g id="Logomark">
<path id="Shape" fill-rule="evenodd" clip-rule="evenodd" d="M22 44C34.1503 44 44 34.1503 44 22C44 9.84975 34.1503 0 22 0C9.84971 0 0 9.84975 0 22C0 34.1503 9.84971 44 22 44ZM28.8632 10.2485C29.1973 9.06186 28.0457 8.36015 26.994 9.10944L12.3124 19.5685C11.1718 20.3811 11.3512 22 12.5819 22H16.448V21.9701H23.9828L17.8433 24.1363L15.1368 33.7515C14.8027 34.9382 15.9542 35.6399 17.006 34.8906L31.6876 24.4315C32.8282 23.619 32.6487 22 31.4181 22H25.5553L28.8632 10.2485Z" fill="url(#paint0_linear_4020_10305)"/>
</g>
<defs>
<linearGradient id="paint0_linear_4020_10305" x1="0" y1="0" x2="44" y2="44" gradientUnits="userSpaceOnUse">
<stop stop-color="#F093FB"/>
<stop offset="1" stop-color="#F5576C"/>
</linearGradient>
</defs>
</svg>
