<svg width="32" height="32" viewBox="0 0 32 32" fill="none" xmlns="http://www.w3.org/2000/svg">
<circle cx="7.2627" cy="18.0586" r="3.11328" fill="url(#paint0_radial_4595_13836)"/>
<g filter="url(#filter0_f_4595_13836)">
<circle cx="7.2627" cy="18.0586" r="1.85547" fill="url(#paint1_linear_4595_13836)"/>
</g>
<g filter="url(#filter1_i_4595_13836)">
<circle cx="25.0029" cy="18.0586" r="3.11328" fill="url(#paint2_linear_4595_13836)"/>
<circle cx="25.0029" cy="18.0586" r="3.11328" fill="url(#paint3_radial_4595_13836)"/>
</g>
<g filter="url(#filter2_f_4595_13836)">
<circle cx="25.0029" cy="18.0586" r="1.85547" fill="#FFBF34"/>
<circle cx="25.0029" cy="18.0586" r="1.85547" fill="url(#paint4_radial_4595_13836)"/>
<circle cx="25.0029" cy="18.0586" r="1.85547" fill="url(#paint5_radial_4595_13836)"/>
</g>
<path d="M6.60564 16.9159C6.63585 16.918 6.66636 16.919 6.69713 16.919C6.69713 16.919 6.5971 15.3277 6.49707 14.2336C6.49707 13.7363 6.69713 13.1396 7.09725 12.8412L7.39733 12.5428C7.89748 12.145 8.09754 11.5482 8.09754 10.9515V9.3601C8.09754 8.8628 8.39763 8.46496 8.89777 8.3655C10.0981 8.06712 12.5989 7.56982 16.1999 7.56982C19.801 7.56982 22.3017 8.06712 23.5021 8.3655C23.9022 8.46496 24.3023 8.8628 24.3023 9.3601V10.9515C24.3023 11.5482 24.6024 12.145 25.0025 12.5428C25.9388 13.1989 25.8805 13.5598 25.8027 14.3331C25.7027 15.3277 25.6027 17.0185 25.6027 17.0185C25.614 17.0185 25.6252 17.0183 25.6364 17.0181L25.1407 24.4C24.8413 27.7 22.247 30 19.1538 30H13.1669C9.97394 30 7.47942 27.7 7.18008 24.4L6.60564 16.9159Z" fill="url(#paint6_linear_4595_13836)"/>
<path d="M6.60564 16.9159C6.63585 16.918 6.66636 16.919 6.69713 16.919C6.69713 16.919 6.5971 15.3277 6.49707 14.2336C6.49707 13.7363 6.69713 13.1396 7.09725 12.8412L7.39733 12.5428C7.89748 12.145 8.09754 11.5482 8.09754 10.9515V9.3601C8.09754 8.8628 8.39763 8.46496 8.89777 8.3655C10.0981 8.06712 12.5989 7.56982 16.1999 7.56982C19.801 7.56982 22.3017 8.06712 23.5021 8.3655C23.9022 8.46496 24.3023 8.8628 24.3023 9.3601V10.9515C24.3023 11.5482 24.6024 12.145 25.0025 12.5428C25.9388 13.1989 25.8805 13.5598 25.8027 14.3331C25.7027 15.3277 25.6027 17.0185 25.6027 17.0185C25.614 17.0185 25.6252 17.0183 25.6364 17.0181L25.1407 24.4C24.8413 27.7 22.247 30 19.1538 30H13.1669C9.97394 30 7.47942 27.7 7.18008 24.4L6.60564 16.9159Z" fill="url(#paint7_linear_4595_13836)"/>
<path d="M6.60564 16.9159C6.63585 16.918 6.66636 16.919 6.69713 16.919C6.69713 16.919 6.5971 15.3277 6.49707 14.2336C6.49707 13.7363 6.69713 13.1396 7.09725 12.8412L7.39733 12.5428C7.89748 12.145 8.09754 11.5482 8.09754 10.9515V9.3601C8.09754 8.8628 8.39763 8.46496 8.89777 8.3655C10.0981 8.06712 12.5989 7.56982 16.1999 7.56982C19.801 7.56982 22.3017 8.06712 23.5021 8.3655C23.9022 8.46496 24.3023 8.8628 24.3023 9.3601V10.9515C24.3023 11.5482 24.6024 12.145 25.0025 12.5428C25.9388 13.1989 25.8805 13.5598 25.8027 14.3331C25.7027 15.3277 25.6027 17.0185 25.6027 17.0185C25.614 17.0185 25.6252 17.0183 25.6364 17.0181L25.1407 24.4C24.8413 27.7 22.247 30 19.1538 30H13.1669C9.97394 30 7.47942 27.7 7.18008 24.4L6.60564 16.9159Z" fill="url(#paint8_radial_4595_13836)"/>
<path d="M6.60564 16.9159C6.63585 16.918 6.66636 16.919 6.69713 16.919C6.69713 16.919 6.5971 15.3277 6.49707 14.2336C6.49707 13.7363 6.69713 13.1396 7.09725 12.8412L7.39733 12.5428C7.89748 12.145 8.09754 11.5482 8.09754 10.9515V9.3601C8.09754 8.8628 8.39763 8.46496 8.89777 8.3655C10.0981 8.06712 12.5989 7.56982 16.1999 7.56982C19.801 7.56982 22.3017 8.06712 23.5021 8.3655C23.9022 8.46496 24.3023 8.8628 24.3023 9.3601V10.9515C24.3023 11.5482 24.6024 12.145 25.0025 12.5428C25.9388 13.1989 25.8805 13.5598 25.8027 14.3331C25.7027 15.3277 25.6027 17.0185 25.6027 17.0185C25.614 17.0185 25.6252 17.0183 25.6364 17.0181L25.1407 24.4C24.8413 27.7 22.247 30 19.1538 30H13.1669C9.97394 30 7.47942 27.7 7.18008 24.4L6.60564 16.9159Z" fill="url(#paint9_radial_4595_13836)"/>
<path d="M6.60564 16.9159C6.63585 16.918 6.66636 16.919 6.69713 16.919C6.69713 16.919 6.5971 15.3277 6.49707 14.2336C6.49707 13.7363 6.69713 13.1396 7.09725 12.8412L7.39733 12.5428C7.89748 12.145 8.09754 11.5482 8.09754 10.9515V9.3601C8.09754 8.8628 8.39763 8.46496 8.89777 8.3655C10.0981 8.06712 12.5989 7.56982 16.1999 7.56982C19.801 7.56982 22.3017 8.06712 23.5021 8.3655C23.9022 8.46496 24.3023 8.8628 24.3023 9.3601V10.9515C24.3023 11.5482 24.6024 12.145 25.0025 12.5428C25.9388 13.1989 25.8805 13.5598 25.8027 14.3331C25.7027 15.3277 25.6027 17.0185 25.6027 17.0185C25.614 17.0185 25.6252 17.0183 25.6364 17.0181L25.1407 24.4C24.8413 27.7 22.247 30 19.1538 30H13.1669C9.97394 30 7.47942 27.7 7.18008 24.4L6.60564 16.9159Z" fill="url(#paint10_radial_4595_13836)"/>
<g filter="url(#filter3_ii_4595_13836)">
<path d="M25.1027 5.97854L25.9029 6.37638C27.3034 7.07259 28.1036 8.66395 27.8035 10.3548L26.7032 16.024C26.605 16.6095 26.218 17.0035 25.6366 17.0181C25.6254 17.0184 25.6142 17.0185 25.6029 17.0185C25.6029 17.0185 25.7029 15.3277 25.8029 14.3331C25.8841 13.5254 25.7431 13.2791 25.0027 12.5428C24.6026 12.145 24.3025 11.5482 24.3025 10.9515V9.36011C24.3025 8.86281 23.9024 8.46497 23.5022 8.36551C22.3019 8.06713 19.8012 7.56984 16.2001 7.56984C12.599 7.56984 10.0983 8.06713 8.89796 8.36551C8.39781 8.46497 8.09772 8.86281 8.09772 9.36011V10.9515C8.09772 11.5482 7.89766 12.145 7.39752 12.5428L7.09743 12.8412C6.69731 13.1396 6.49725 13.7363 6.49725 14.2336C6.59728 15.3277 6.69731 16.919 6.69731 16.919C6.66654 16.919 6.63603 16.918 6.60582 16.9159C6.0469 16.8777 5.59186 16.4907 5.49696 15.9245L4.39663 10.2553C4.19657 8.66395 4.99681 7.07259 6.39722 6.37638L7.19745 5.97854C7.6976 5.68016 8.19774 5.28232 8.69789 4.88449L10.4984 2.99475C11.5987 2.00015 13.1992 1.70177 14.5996 2.39799C15.5999 2.69637 16.7002 2.69637 17.7005 2.39799C19.201 1.90069 20.9015 2.29853 22.1018 3.39259L23.6023 4.88448C24.0024 5.38178 24.5025 5.68016 25.1027 5.97854Z" fill="#FFA91B"/>
<path d="M25.1027 5.97854L25.9029 6.37638C27.3034 7.07259 28.1036 8.66395 27.8035 10.3548L26.7032 16.024C26.605 16.6095 26.218 17.0035 25.6366 17.0181C25.6254 17.0184 25.6142 17.0185 25.6029 17.0185C25.6029 17.0185 25.7029 15.3277 25.8029 14.3331C25.8841 13.5254 25.7431 13.2791 25.0027 12.5428C24.6026 12.145 24.3025 11.5482 24.3025 10.9515V9.36011C24.3025 8.86281 23.9024 8.46497 23.5022 8.36551C22.3019 8.06713 19.8012 7.56984 16.2001 7.56984C12.599 7.56984 10.0983 8.06713 8.89796 8.36551C8.39781 8.46497 8.09772 8.86281 8.09772 9.36011V10.9515C8.09772 11.5482 7.89766 12.145 7.39752 12.5428L7.09743 12.8412C6.69731 13.1396 6.49725 13.7363 6.49725 14.2336C6.59728 15.3277 6.69731 16.919 6.69731 16.919C6.66654 16.919 6.63603 16.918 6.60582 16.9159C6.0469 16.8777 5.59186 16.4907 5.49696 15.9245L4.39663 10.2553C4.19657 8.66395 4.99681 7.07259 6.39722 6.37638L7.19745 5.97854C7.6976 5.68016 8.19774 5.28232 8.69789 4.88449L10.4984 2.99475C11.5987 2.00015 13.1992 1.70177 14.5996 2.39799C15.5999 2.69637 16.7002 2.69637 17.7005 2.39799C19.201 1.90069 20.9015 2.29853 22.1018 3.39259L23.6023 4.88448C24.0024 5.38178 24.5025 5.68016 25.1027 5.97854Z" fill="url(#paint11_radial_4595_13836)"/>
<path d="M25.1027 5.97854L25.9029 6.37638C27.3034 7.07259 28.1036 8.66395 27.8035 10.3548L26.7032 16.024C26.605 16.6095 26.218 17.0035 25.6366 17.0181C25.6254 17.0184 25.6142 17.0185 25.6029 17.0185C25.6029 17.0185 25.7029 15.3277 25.8029 14.3331C25.8841 13.5254 25.7431 13.2791 25.0027 12.5428C24.6026 12.145 24.3025 11.5482 24.3025 10.9515V9.36011C24.3025 8.86281 23.9024 8.46497 23.5022 8.36551C22.3019 8.06713 19.8012 7.56984 16.2001 7.56984C12.599 7.56984 10.0983 8.06713 8.89796 8.36551C8.39781 8.46497 8.09772 8.86281 8.09772 9.36011V10.9515C8.09772 11.5482 7.89766 12.145 7.39752 12.5428L7.09743 12.8412C6.69731 13.1396 6.49725 13.7363 6.49725 14.2336C6.59728 15.3277 6.69731 16.919 6.69731 16.919C6.66654 16.919 6.63603 16.918 6.60582 16.9159C6.0469 16.8777 5.59186 16.4907 5.49696 15.9245L4.39663 10.2553C4.19657 8.66395 4.99681 7.07259 6.39722 6.37638L7.19745 5.97854C7.6976 5.68016 8.19774 5.28232 8.69789 4.88449L10.4984 2.99475C11.5987 2.00015 13.1992 1.70177 14.5996 2.39799C15.5999 2.69637 16.7002 2.69637 17.7005 2.39799C19.201 1.90069 20.9015 2.29853 22.1018 3.39259L23.6023 4.88448C24.0024 5.38178 24.5025 5.68016 25.1027 5.97854Z" fill="url(#paint12_linear_4595_13836)"/>
<path d="M25.1027 5.97854L25.9029 6.37638C27.3034 7.07259 28.1036 8.66395 27.8035 10.3548L26.7032 16.024C26.605 16.6095 26.218 17.0035 25.6366 17.0181C25.6254 17.0184 25.6142 17.0185 25.6029 17.0185C25.6029 17.0185 25.7029 15.3277 25.8029 14.3331C25.8841 13.5254 25.7431 13.2791 25.0027 12.5428C24.6026 12.145 24.3025 11.5482 24.3025 10.9515V9.36011C24.3025 8.86281 23.9024 8.46497 23.5022 8.36551C22.3019 8.06713 19.8012 7.56984 16.2001 7.56984C12.599 7.56984 10.0983 8.06713 8.89796 8.36551C8.39781 8.46497 8.09772 8.86281 8.09772 9.36011V10.9515C8.09772 11.5482 7.89766 12.145 7.39752 12.5428L7.09743 12.8412C6.69731 13.1396 6.49725 13.7363 6.49725 14.2336C6.59728 15.3277 6.69731 16.919 6.69731 16.919C6.66654 16.919 6.63603 16.918 6.60582 16.9159C6.0469 16.8777 5.59186 16.4907 5.49696 15.9245L4.39663 10.2553C4.19657 8.66395 4.99681 7.07259 6.39722 6.37638L7.19745 5.97854C7.6976 5.68016 8.19774 5.28232 8.69789 4.88449L10.4984 2.99475C11.5987 2.00015 13.1992 1.70177 14.5996 2.39799C15.5999 2.69637 16.7002 2.69637 17.7005 2.39799C19.201 1.90069 20.9015 2.29853 22.1018 3.39259L23.6023 4.88448C24.0024 5.38178 24.5025 5.68016 25.1027 5.97854Z" fill="url(#paint13_radial_4595_13836)"/>
<path d="M25.1027 5.97854L25.9029 6.37638C27.3034 7.07259 28.1036 8.66395 27.8035 10.3548L26.7032 16.024C26.605 16.6095 26.218 17.0035 25.6366 17.0181C25.6254 17.0184 25.6142 17.0185 25.6029 17.0185C25.6029 17.0185 25.7029 15.3277 25.8029 14.3331C25.8841 13.5254 25.7431 13.2791 25.0027 12.5428C24.6026 12.145 24.3025 11.5482 24.3025 10.9515V9.36011C24.3025 8.86281 23.9024 8.46497 23.5022 8.36551C22.3019 8.06713 19.8012 7.56984 16.2001 7.56984C12.599 7.56984 10.0983 8.06713 8.89796 8.36551C8.39781 8.46497 8.09772 8.86281 8.09772 9.36011V10.9515C8.09772 11.5482 7.89766 12.145 7.39752 12.5428L7.09743 12.8412C6.69731 13.1396 6.49725 13.7363 6.49725 14.2336C6.59728 15.3277 6.69731 16.919 6.69731 16.919C6.66654 16.919 6.63603 16.918 6.60582 16.9159C6.0469 16.8777 5.59186 16.4907 5.49696 15.9245L4.39663 10.2553C4.19657 8.66395 4.99681 7.07259 6.39722 6.37638L7.19745 5.97854C7.6976 5.68016 8.19774 5.28232 8.69789 4.88449L10.4984 2.99475C11.5987 2.00015 13.1992 1.70177 14.5996 2.39799C15.5999 2.69637 16.7002 2.69637 17.7005 2.39799C19.201 1.90069 20.9015 2.29853 22.1018 3.39259L23.6023 4.88448C24.0024 5.38178 24.5025 5.68016 25.1027 5.97854Z" fill="url(#paint14_radial_4595_13836)"/>
<path d="M25.1027 5.97854L25.9029 6.37638C27.3034 7.07259 28.1036 8.66395 27.8035 10.3548L26.7032 16.024C26.605 16.6095 26.218 17.0035 25.6366 17.0181C25.6254 17.0184 25.6142 17.0185 25.6029 17.0185C25.6029 17.0185 25.7029 15.3277 25.8029 14.3331C25.8841 13.5254 25.7431 13.2791 25.0027 12.5428C24.6026 12.145 24.3025 11.5482 24.3025 10.9515V9.36011C24.3025 8.86281 23.9024 8.46497 23.5022 8.36551C22.3019 8.06713 19.8012 7.56984 16.2001 7.56984C12.599 7.56984 10.0983 8.06713 8.89796 8.36551C8.39781 8.46497 8.09772 8.86281 8.09772 9.36011V10.9515C8.09772 11.5482 7.89766 12.145 7.39752 12.5428L7.09743 12.8412C6.69731 13.1396 6.49725 13.7363 6.49725 14.2336C6.59728 15.3277 6.69731 16.919 6.69731 16.919C6.66654 16.919 6.63603 16.918 6.60582 16.9159C6.0469 16.8777 5.59186 16.4907 5.49696 15.9245L4.39663 10.2553C4.19657 8.66395 4.99681 7.07259 6.39722 6.37638L7.19745 5.97854C7.6976 5.68016 8.19774 5.28232 8.69789 4.88449L10.4984 2.99475C11.5987 2.00015 13.1992 1.70177 14.5996 2.39799C15.5999 2.69637 16.7002 2.69637 17.7005 2.39799C19.201 1.90069 20.9015 2.29853 22.1018 3.39259L23.6023 4.88448C24.0024 5.38178 24.5025 5.68016 25.1027 5.97854Z" fill="url(#paint15_radial_4595_13836)"/>
<path d="M25.1027 5.97854L25.9029 6.37638C27.3034 7.07259 28.1036 8.66395 27.8035 10.3548L26.7032 16.024C26.605 16.6095 26.218 17.0035 25.6366 17.0181C25.6254 17.0184 25.6142 17.0185 25.6029 17.0185C25.6029 17.0185 25.7029 15.3277 25.8029 14.3331C25.8841 13.5254 25.7431 13.2791 25.0027 12.5428C24.6026 12.145 24.3025 11.5482 24.3025 10.9515V9.36011C24.3025 8.86281 23.9024 8.46497 23.5022 8.36551C22.3019 8.06713 19.8012 7.56984 16.2001 7.56984C12.599 7.56984 10.0983 8.06713 8.89796 8.36551C8.39781 8.46497 8.09772 8.86281 8.09772 9.36011V10.9515C8.09772 11.5482 7.89766 12.145 7.39752 12.5428L7.09743 12.8412C6.69731 13.1396 6.49725 13.7363 6.49725 14.2336C6.59728 15.3277 6.69731 16.919 6.69731 16.919C6.66654 16.919 6.63603 16.918 6.60582 16.9159C6.0469 16.8777 5.59186 16.4907 5.49696 15.9245L4.39663 10.2553C4.19657 8.66395 4.99681 7.07259 6.39722 6.37638L7.19745 5.97854C7.6976 5.68016 8.19774 5.28232 8.69789 4.88449L10.4984 2.99475C11.5987 2.00015 13.1992 1.70177 14.5996 2.39799C15.5999 2.69637 16.7002 2.69637 17.7005 2.39799C19.201 1.90069 20.9015 2.29853 22.1018 3.39259L23.6023 4.88448C24.0024 5.38178 24.5025 5.68016 25.1027 5.97854Z" fill="url(#paint16_radial_4595_13836)"/>
</g>
<path d="M25.1027 5.97854L25.9029 6.37638C27.3034 7.07259 28.1036 8.66395 27.8035 10.3548L26.7032 16.024C26.605 16.6095 26.218 17.0035 25.6366 17.0181C25.6254 17.0184 25.6142 17.0185 25.6029 17.0185C25.6029 17.0185 25.7029 15.3277 25.8029 14.3331C25.8841 13.5254 25.7431 13.2791 25.0027 12.5428C24.6026 12.145 24.3025 11.5482 24.3025 10.9515V9.36011C24.3025 8.86281 23.9024 8.46497 23.5022 8.36551C22.3019 8.06713 19.8012 7.56984 16.2001 7.56984C12.599 7.56984 10.0983 8.06713 8.89796 8.36551C8.39781 8.46497 8.09772 8.86281 8.09772 9.36011V10.9515C8.09772 11.5482 7.89766 12.145 7.39752 12.5428L7.09743 12.8412C6.69731 13.1396 6.49725 13.7363 6.49725 14.2336C6.59728 15.3277 6.69731 16.919 6.69731 16.919C6.66654 16.919 6.63603 16.918 6.60582 16.9159C6.0469 16.8777 5.59186 16.4907 5.49696 15.9245L4.39663 10.2553C4.19657 8.66395 4.99681 7.07259 6.39722 6.37638L7.19745 5.97854C7.6976 5.68016 8.19774 5.28232 8.69789 4.88449L10.4984 2.99475C11.5987 2.00015 13.1992 1.70177 14.5996 2.39799C15.5999 2.69637 16.7002 2.69637 17.7005 2.39799C19.201 1.90069 20.9015 2.29853 22.1018 3.39259L23.6023 4.88448C24.0024 5.38178 24.5025 5.68016 25.1027 5.97854Z" fill="url(#paint17_radial_4595_13836)"/>
<path d="M25.1027 5.97854L25.9029 6.37638C27.3034 7.07259 28.1036 8.66395 27.8035 10.3548L26.7032 16.024C26.605 16.6095 26.218 17.0035 25.6366 17.0181C25.6254 17.0184 25.6142 17.0185 25.6029 17.0185C25.6029 17.0185 25.7029 15.3277 25.8029 14.3331C25.8841 13.5254 25.7431 13.2791 25.0027 12.5428C24.6026 12.145 24.3025 11.5482 24.3025 10.9515V9.36011C24.3025 8.86281 23.9024 8.46497 23.5022 8.36551C22.3019 8.06713 19.8012 7.56984 16.2001 7.56984C12.599 7.56984 10.0983 8.06713 8.89796 8.36551C8.39781 8.46497 8.09772 8.86281 8.09772 9.36011V10.9515C8.09772 11.5482 7.89766 12.145 7.39752 12.5428L7.09743 12.8412C6.69731 13.1396 6.49725 13.7363 6.49725 14.2336C6.59728 15.3277 6.69731 16.919 6.69731 16.919C6.66654 16.919 6.63603 16.918 6.60582 16.9159C6.0469 16.8777 5.59186 16.4907 5.49696 15.9245L4.39663 10.2553C4.19657 8.66395 4.99681 7.07259 6.39722 6.37638L7.19745 5.97854C7.6976 5.68016 8.19774 5.28232 8.69789 4.88449L10.4984 2.99475C11.5987 2.00015 13.1992 1.70177 14.5996 2.39799C15.5999 2.69637 16.7002 2.69637 17.7005 2.39799C19.201 1.90069 20.9015 2.29853 22.1018 3.39259L23.6023 4.88448C24.0024 5.38178 24.5025 5.68016 25.1027 5.97854Z" fill="url(#paint18_radial_4595_13836)"/>
<path d="M25.1027 5.97854L25.9029 6.37638C27.3034 7.07259 28.1036 8.66395 27.8035 10.3548L26.7032 16.024C26.605 16.6095 26.218 17.0035 25.6366 17.0181C25.6254 17.0184 25.6142 17.0185 25.6029 17.0185C25.6029 17.0185 25.7029 15.3277 25.8029 14.3331C25.8841 13.5254 25.7431 13.2791 25.0027 12.5428C24.6026 12.145 24.3025 11.5482 24.3025 10.9515V9.36011C24.3025 8.86281 23.9024 8.46497 23.5022 8.36551C22.3019 8.06713 19.8012 7.56984 16.2001 7.56984C12.599 7.56984 10.0983 8.06713 8.89796 8.36551C8.39781 8.46497 8.09772 8.86281 8.09772 9.36011V10.9515C8.09772 11.5482 7.89766 12.145 7.39752 12.5428L7.09743 12.8412C6.69731 13.1396 6.49725 13.7363 6.49725 14.2336C6.59728 15.3277 6.69731 16.919 6.69731 16.919C6.66654 16.919 6.63603 16.918 6.60582 16.9159C6.0469 16.8777 5.59186 16.4907 5.49696 15.9245L4.39663 10.2553C4.19657 8.66395 4.99681 7.07259 6.39722 6.37638L7.19745 5.97854C7.6976 5.68016 8.19774 5.28232 8.69789 4.88449L10.4984 2.99475C11.5987 2.00015 13.1992 1.70177 14.5996 2.39799C15.5999 2.69637 16.7002 2.69637 17.7005 2.39799C19.201 1.90069 20.9015 2.29853 22.1018 3.39259L23.6023 4.88448C24.0024 5.38178 24.5025 5.68016 25.1027 5.97854Z" fill="url(#paint19_linear_4595_13836)"/>
<g filter="url(#filter4_f_4595_13836)">
<path d="M15.6025 17.8308L14.0727 21.0003C13.8831 21.6522 14.3382 22.3042 14.9829 22.3042H16.3577C17.0025 22.3042 17.4576 21.6422 17.2679 21.0003L16.3388 17.8308C16.1397 17.1287 15.8111 17.1287 15.6025 17.8308Z" fill="#F1901C"/>
</g>
<g filter="url(#filter5_f_4595_13836)">
<path d="M15.4034 17.5266L14.4125 20.6961C14.2103 21.348 14.6956 22 15.3832 22H16.8493C17.5368 22 18.0221 21.338 17.8199 20.6961L16.829 17.5266C16.6167 16.8245 15.6258 16.8245 15.4034 17.5266Z" fill="#FFCC28"/>
<path d="M15.4034 17.5266L14.4125 20.6961C14.2103 21.348 14.6956 22 15.3832 22H16.8493C17.5368 22 18.0221 21.338 17.8199 20.6961L16.829 17.5266C16.6167 16.8245 15.6258 16.8245 15.4034 17.5266Z" fill="url(#paint20_linear_4595_13836)"/>
<path d="M15.4034 17.5266L14.4125 20.6961C14.2103 21.348 14.6956 22 15.3832 22H16.8493C17.5368 22 18.0221 21.338 17.8199 20.6961L16.829 17.5266C16.6167 16.8245 15.6258 16.8245 15.4034 17.5266Z" fill="url(#paint21_linear_4595_13836)"/>
<path d="M15.4034 17.5266L14.4125 20.6961C14.2103 21.348 14.6956 22 15.3832 22H16.8493C17.5368 22 18.0221 21.338 17.8199 20.6961L16.829 17.5266C16.6167 16.8245 15.6258 16.8245 15.4034 17.5266Z" fill="url(#paint22_linear_4595_13836)"/>
</g>
<path d="M15.4034 17.5266L14.4125 20.6961C14.2103 21.348 14.6956 22 15.3832 22H16.8493C17.5368 22 18.0221 21.338 17.8199 20.6961L16.829 17.5266C16.6167 16.8245 15.6258 16.8245 15.4034 17.5266Z" fill="url(#paint23_linear_4595_13836)"/>
<path d="M13.5563 23.2387L13.5563 23.2387L13.5558 23.2385C13.4059 23.1622 13.2499 23.2093 13.1563 23.3078C13.0625 23.4066 13.0271 23.5623 13.1228 23.7008C13.7563 24.6605 14.8597 25.3 16.1162 25.3C17.3729 25.3 18.4764 24.6603 19.1099 23.7004C19.2048 23.558 19.1706 23.4024 19.0759 23.3041C18.9818 23.2063 18.8259 23.1626 18.6766 23.2385L18.6766 23.2385L18.6761 23.2387C17.936 23.6246 17.064 23.8454 16.1162 23.8454C15.1778 23.8454 14.2964 23.6246 13.5563 23.2387Z" fill="#8A004F" stroke="url(#paint24_linear_4595_13836)" stroke-width="0.1"/>
<g filter="url(#filter6_i_4595_13836)">
<path d="M23.0531 12.9863L23.0508 12.9844L23.0473 12.9815L23.039 12.9747L23.0166 12.9569C22.9992 12.9433 22.9769 12.9262 22.9496 12.9062C22.8951 12.8663 22.8209 12.8147 22.7278 12.7564C22.5421 12.6401 22.2785 12.4952 21.9451 12.3634C21.2756 12.0987 20.3196 11.8855 19.1615 12.0684C18.6185 12.1541 18.2479 12.6637 18.3336 13.2067C18.4193 13.7496 18.929 14.1202 19.4719 14.0345C20.2137 13.9174 20.8077 14.0542 21.2133 14.2145C21.4173 14.2952 21.5725 14.3815 21.6712 14.4433C21.7203 14.4741 21.7546 14.4983 21.7732 14.5119C21.781 14.5176 21.7859 14.5213 21.788 14.523C22.2101 14.8671 22.8317 14.808 23.1813 14.3886C23.5331 13.9663 23.4754 13.3382 23.0531 12.9863Z" fill="#C85C2F"/>
</g>
<g filter="url(#filter7_i_4595_13836)">
<path d="M9.07883 12.9869L9.08028 12.9857L9.08184 12.9844L9.08531 12.9815L9.09368 12.9747L9.11604 12.9569C9.13343 12.9433 9.15581 12.9262 9.18307 12.9062C9.23753 12.8663 9.31178 12.8147 9.40485 12.7564C9.59053 12.6401 9.85412 12.4952 10.1876 12.3634C10.857 12.0987 11.813 11.8855 12.9712 12.0684C13.5141 12.1541 13.8848 12.6637 13.799 13.2067C13.7133 13.7496 13.2037 14.1202 12.6608 14.0345C11.9189 13.9174 11.3249 14.0542 10.9194 14.2145C10.7153 14.2952 10.5602 14.3815 10.4615 14.4433C10.4124 14.4741 10.378 14.4983 10.3594 14.5119C10.3517 14.5176 10.3468 14.5213 10.3447 14.523C9.92255 14.8671 9.30096 14.808 8.95141 14.3886C8.59952 13.9663 8.65657 13.3388 9.07883 12.9869Z" fill="#C85C2F"/>
</g>
<path d="M20.5694 15.3906C21.7871 15.3906 22.8157 16.2301 23.0955 17.3646C23.1787 17.6898 22.9291 17.9999 22.5963 17.9999H18.4366C18.1719 17.9999 17.9601 17.7579 18.013 17.4932C18.2475 16.2982 19.2988 15.3906 20.5694 15.3906Z" fill="white"/>
<path d="M20.1832 15.8975C21.1059 15.8975 21.8471 16.6462 21.8471 17.5614C21.8471 17.7126 21.8244 17.8639 21.7866 18H18.5722C18.5344 17.8563 18.5117 17.7126 18.5117 17.5614C18.5117 16.6462 19.2605 15.8975 20.1832 15.8975Z" fill="url(#paint25_radial_4595_13836)"/>
<path d="M19.2305 17.5614C19.2305 17.0319 19.654 16.6084 20.1834 16.6084C20.7129 16.6084 21.1364 17.0319 21.1364 17.5614C21.1364 17.7202 21.0986 17.8714 21.0305 18H19.3439C19.2683 17.8714 19.2305 17.7202 19.2305 17.5614Z" fill="black"/>
<g filter="url(#filter8_f_4595_13836)">
<path d="M20.0611 16.2494C20.1796 16.4079 19.9319 16.6012 19.6501 16.8118C19.3684 17.0225 19.1594 17.1707 19.0408 17.0122C18.9223 16.8536 19.0546 16.5543 19.3363 16.3437C19.618 16.133 19.9425 16.0908 20.0611 16.2494Z" fill="#C7A7A3"/>
<path d="M20.0611 16.2494C20.1796 16.4079 19.9319 16.6012 19.6501 16.8118C19.3684 17.0225 19.1594 17.1707 19.0408 17.0122C18.9223 16.8536 19.0546 16.5543 19.3363 16.3437C19.618 16.133 19.9425 16.0908 20.0611 16.2494Z" fill="url(#paint26_radial_4595_13836)"/>
</g>
<g filter="url(#filter9_f_4595_13836)">
<path d="M21.6659 17.3422C21.6044 16.912 21.3527 16.5878 21.2345 16.4795L20.75 17.0113L20.9686 17.4367L21.6659 17.3422Z" fill="url(#paint27_linear_4595_13836)"/>
</g>
<path d="M11.6537 15.3906C10.4359 15.3906 9.4073 16.2302 9.12745 17.3647C9.04425 17.6899 9.29385 18.0001 9.62665 18.0001H13.7866C14.0513 18.0001 14.2631 17.758 14.2102 17.4933C13.9757 16.2983 12.9168 15.3906 11.6537 15.3906Z" fill="white"/>
<path d="M12.04 15.8975C11.1172 15.8975 10.376 16.6463 10.376 17.5614C10.376 17.7127 10.3987 17.864 10.4365 18.0001H13.651C13.6888 17.8564 13.7115 17.7127 13.7115 17.5614C13.7039 16.6463 12.9627 15.8975 12.04 15.8975Z" fill="url(#paint28_radial_4595_13836)"/>
<path d="M12.9929 17.5614C12.9929 17.032 12.5694 16.6084 12.0399 16.6084C11.5105 16.6084 11.0869 17.032 11.0869 17.5614C11.0869 17.7202 11.1247 17.8715 11.1928 18.0001H12.8795C12.9475 17.8715 12.9929 17.7202 12.9929 17.5614Z" fill="black"/>
<g filter="url(#filter10_f_4595_13836)">
<path d="M13.56 17.3659C13.56 16.8281 13.1227 16.4697 13.0045 16.3613L12.4668 16.8813L12.7977 17.555L13.56 17.3659Z" fill="url(#paint29_linear_4595_13836)"/>
</g>
<g filter="url(#filter11_f_4595_13836)">
<ellipse cx="11.5376" cy="16.6083" rx="0.726417" ry="0.367634" transform="rotate(-27.914 11.5376 16.6083)" fill="#C7A7A3" fill-opacity="0.9"/>
<ellipse cx="11.5376" cy="16.6083" rx="0.726417" ry="0.367634" transform="rotate(-27.914 11.5376 16.6083)" fill="url(#paint30_radial_4595_13836)"/>
</g>
<g filter="url(#filter12_f_4595_13836)">
<path d="M19.2129 12.7168C20.0149 12.5764 21.579 12.6165 22.6617 13.4587" stroke="url(#paint31_linear_4595_13836)" stroke-width="0.5" stroke-linecap="round"/>
</g>
<g filter="url(#filter13_f_4595_13836)">
<path d="M9.47908 13.6836C10.0892 13.1444 11.4214 12.5766 13.0729 12.8399" stroke="url(#paint32_linear_4595_13836)" stroke-width="0.5" stroke-linecap="round"/>
</g>
<defs>
<filter id="filter0_f_4595_13836" x="4.90723" y="15.7031" width="4.71094" height="4.71094" filterUnits="userSpaceOnUse" color-interpolation-filters="sRGB">
<feFlood flood-opacity="0" result="BackgroundImageFix"/>
<feBlend mode="normal" in="SourceGraphic" in2="BackgroundImageFix" result="shape"/>
<feGaussianBlur stdDeviation="0.25" result="effect1_foregroundBlur_4595_13836"/>
</filter>
<filter id="filter1_i_4595_13836" x="21.8896" y="14.6953" width="6.47656" height="6.47656" filterUnits="userSpaceOnUse" color-interpolation-filters="sRGB">
<feFlood flood-opacity="0" result="BackgroundImageFix"/>
<feBlend mode="normal" in="SourceGraphic" in2="BackgroundImageFix" result="shape"/>
<feColorMatrix in="SourceAlpha" type="matrix" values="0 0 0 0 0 0 0 0 0 0 0 0 0 0 0 0 0 0 127 0" result="hardAlpha"/>
<feOffset dx="0.25" dy="-0.25"/>
<feGaussianBlur stdDeviation="0.25"/>
<feComposite in2="hardAlpha" operator="arithmetic" k2="-1" k3="1"/>
<feColorMatrix type="matrix" values="0 0 0 0 0.85098 0 0 0 0 0.560784 0 0 0 0 0.376471 0 0 0 1 0"/>
<feBlend mode="normal" in2="shape" result="effect1_innerShadow_4595_13836"/>
</filter>
<filter id="filter2_f_4595_13836" x="22.6475" y="15.7031" width="4.71094" height="4.71094" filterUnits="userSpaceOnUse" color-interpolation-filters="sRGB">
<feFlood flood-opacity="0" result="BackgroundImageFix"/>
<feBlend mode="normal" in="SourceGraphic" in2="BackgroundImageFix" result="shape"/>
<feGaussianBlur stdDeviation="0.25" result="effect1_foregroundBlur_4595_13836"/>
</filter>
<filter id="filter3_ii_4595_13836" x="4.36621" y="1.51855" width="23.5" height="15.5" filterUnits="userSpaceOnUse" color-interpolation-filters="sRGB">
<feFlood flood-opacity="0" result="BackgroundImageFix"/>
<feBlend mode="normal" in="SourceGraphic" in2="BackgroundImageFix" result="shape"/>
<feColorMatrix in="SourceAlpha" type="matrix" values="0 0 0 0 0 0 0 0 0 0 0 0 0 0 0 0 0 0 127 0" result="hardAlpha"/>
<feOffset dy="-0.5"/>
<feGaussianBlur stdDeviation="0.375"/>
<feComposite in2="hardAlpha" operator="arithmetic" k2="-1" k3="1"/>
<feColorMatrix type="matrix" values="0 0 0 0 0.984314 0 0 0 0 0.584314 0 0 0 0 0.129412 0 0 0 1 0"/>
<feBlend mode="normal" in2="shape" result="effect1_innerShadow_4595_13836"/>
<feColorMatrix in="SourceAlpha" type="matrix" values="0 0 0 0 0 0 0 0 0 0 0 0 0 0 0 0 0 0 127 0" result="hardAlpha"/>
<feOffset dy="-0.25"/>
<feGaussianBlur stdDeviation="0.125"/>
<feComposite in2="hardAlpha" operator="arithmetic" k2="-1" k3="1"/>
<feColorMatrix type="matrix" values="0 0 0 0 0.972549 0 0 0 0 0.572549 0 0 0 0 0.0156863 0 0 0 1 0"/>
<feBlend mode="normal" in2="effect1_innerShadow_4595_13836" result="effect2_innerShadow_4595_13836"/>
</filter>
<filter id="filter4_f_4595_13836" x="13.2793" y="16.5542" width="4.78223" height="6.5" filterUnits="userSpaceOnUse" color-interpolation-filters="sRGB">
<feFlood flood-opacity="0" result="BackgroundImageFix"/>
<feBlend mode="normal" in="SourceGraphic" in2="BackgroundImageFix" result="shape"/>
<feGaussianBlur stdDeviation="0.375" result="effect1_foregroundBlur_4595_13836"/>
</filter>
<filter id="filter5_f_4595_13836" x="14.1162" y="16.75" width="4" height="5.5" filterUnits="userSpaceOnUse" color-interpolation-filters="sRGB">
<feFlood flood-opacity="0" result="BackgroundImageFix"/>
<feBlend mode="normal" in="SourceGraphic" in2="BackgroundImageFix" result="shape"/>
<feGaussianBlur stdDeviation="0.125" result="effect1_foregroundBlur_4595_13836"/>
</filter>
<filter id="filter6_i_4595_13836" x="18.3213" y="11.6" width="5.34082" height="3.14658" filterUnits="userSpaceOnUse" color-interpolation-filters="sRGB">
<feFlood flood-opacity="0" result="BackgroundImageFix"/>
<feBlend mode="normal" in="SourceGraphic" in2="BackgroundImageFix" result="shape"/>
<feColorMatrix in="SourceAlpha" type="matrix" values="0 0 0 0 0 0 0 0 0 0 0 0 0 0 0 0 0 0 127 0" result="hardAlpha"/>
<feOffset dx="0.25" dy="-0.4"/>
<feGaussianBlur stdDeviation="0.3"/>
<feComposite in2="hardAlpha" operator="arithmetic" k2="-1" k3="1"/>
<feColorMatrix type="matrix" values="0 0 0 0 0.615686 0 0 0 0 0.243137 0 0 0 0 0.0901961 0 0 0 1 0"/>
<feBlend mode="normal" in2="shape" result="effect1_innerShadow_4595_13836"/>
</filter>
<filter id="filter7_i_4595_13836" x="8.7207" y="11.6" width="5.34082" height="3.14658" filterUnits="userSpaceOnUse" color-interpolation-filters="sRGB">
<feFlood flood-opacity="0" result="BackgroundImageFix"/>
<feBlend mode="normal" in="SourceGraphic" in2="BackgroundImageFix" result="shape"/>
<feColorMatrix in="SourceAlpha" type="matrix" values="0 0 0 0 0 0 0 0 0 0 0 0 0 0 0 0 0 0 127 0" result="hardAlpha"/>
<feOffset dx="0.25" dy="-0.4"/>
<feGaussianBlur stdDeviation="0.3"/>
<feComposite in2="hardAlpha" operator="arithmetic" k2="-1" k3="1"/>
<feColorMatrix type="matrix" values="0 0 0 0 0.615686 0 0 0 0 0.243137 0 0 0 0 0.0901961 0 0 0 1 0"/>
<feBlend mode="normal" in2="shape" result="effect1_innerShadow_4595_13836"/>
</filter>
<filter id="filter8_f_4595_13836" x="18.8971" y="16.0533" width="1.29473" height="1.12529" filterUnits="userSpaceOnUse" color-interpolation-filters="sRGB">
<feFlood flood-opacity="0" result="BackgroundImageFix"/>
<feBlend mode="normal" in="SourceGraphic" in2="BackgroundImageFix" result="shape"/>
<feGaussianBlur stdDeviation="0.05" result="effect1_foregroundBlur_4595_13836"/>
</filter>
<filter id="filter9_f_4595_13836" x="20.55" y="16.2795" width="1.31602" height="1.35703" filterUnits="userSpaceOnUse" color-interpolation-filters="sRGB">
<feFlood flood-opacity="0" result="BackgroundImageFix"/>
<feBlend mode="normal" in="SourceGraphic" in2="BackgroundImageFix" result="shape"/>
<feGaussianBlur stdDeviation="0.1" result="effect1_foregroundBlur_4595_13836"/>
</filter>
<filter id="filter10_f_4595_13836" x="12.2668" y="16.1613" width="1.49277" height="1.59385" filterUnits="userSpaceOnUse" color-interpolation-filters="sRGB">
<feFlood flood-opacity="0" result="BackgroundImageFix"/>
<feBlend mode="normal" in="SourceGraphic" in2="BackgroundImageFix" result="shape"/>
<feGaussianBlur stdDeviation="0.1" result="effect1_foregroundBlur_4595_13836"/>
</filter>
<filter id="filter11_f_4595_13836" x="10.773" y="16.0382" width="1.5291" height="1.14043" filterUnits="userSpaceOnUse" color-interpolation-filters="sRGB">
<feFlood flood-opacity="0" result="BackgroundImageFix"/>
<feBlend mode="normal" in="SourceGraphic" in2="BackgroundImageFix" result="shape"/>
<feGaussianBlur stdDeviation="0.05" result="effect1_foregroundBlur_4595_13836"/>
</filter>
<filter id="filter12_f_4595_13836" x="18.4629" y="11.9048" width="4.94922" height="2.30371" filterUnits="userSpaceOnUse" color-interpolation-filters="sRGB">
<feFlood flood-opacity="0" result="BackgroundImageFix"/>
<feBlend mode="normal" in="SourceGraphic" in2="BackgroundImageFix" result="shape"/>
<feGaussianBlur stdDeviation="0.25" result="effect1_foregroundBlur_4595_13836"/>
</filter>
<filter id="filter13_f_4595_13836" x="8.72949" y="12.0234" width="5.09375" height="2.41016" filterUnits="userSpaceOnUse" color-interpolation-filters="sRGB">
<feFlood flood-opacity="0" result="BackgroundImageFix"/>
<feBlend mode="normal" in="SourceGraphic" in2="BackgroundImageFix" result="shape"/>
<feGaussianBlur stdDeviation="0.25" result="effect1_foregroundBlur_4595_13836"/>
</filter>
<radialGradient id="paint0_radial_4595_13836" cx="0" cy="0" r="1" gradientUnits="userSpaceOnUse" gradientTransform="translate(4.14941 18.0586) scale(3.27255 5.72699)">
<stop offset="0.350532" stop-color="#E6962B"/>
<stop offset="1" stop-color="#CA8F29"/>
</radialGradient>
<linearGradient id="paint1_linear_4595_13836" x1="7.26269" y1="18.5782" x2="6.06813" y2="18.5782" gradientUnits="userSpaceOnUse">
<stop stop-color="#BD6A1E"/>
<stop offset="1" stop-color="#D77A1C"/>
</linearGradient>
<linearGradient id="paint2_linear_4595_13836" x1="27.0289" y1="16.023" x2="25.5022" y2="20.7528" gradientUnits="userSpaceOnUse">
<stop stop-color="#FFE446"/>
<stop offset="1" stop-color="#FFC339"/>
</linearGradient>
<radialGradient id="paint3_radial_4595_13836" cx="0" cy="0" r="1" gradientUnits="userSpaceOnUse" gradientTransform="translate(25.6968 17.5647) rotate(-36.0604) scale(1.90707 2.17668)">
<stop offset="0.542503" stop-color="#FFC532"/>
<stop offset="1" stop-color="#FFC532" stop-opacity="0"/>
</radialGradient>
<radialGradient id="paint4_radial_4595_13836" cx="0" cy="0" r="1" gradientUnits="userSpaceOnUse" gradientTransform="translate(24.9258 19.5901) rotate(-61.4675) scale(3.20633 1.87667)">
<stop offset="0.689542" stop-color="#F4A51A" stop-opacity="0"/>
<stop offset="1" stop-color="#F4A51A"/>
</radialGradient>
<radialGradient id="paint5_radial_4595_13836" cx="0" cy="0" r="1" gradientUnits="userSpaceOnUse" gradientTransform="translate(25.0029 18.0586) rotate(44.7077) scale(0.680356 0.877074)">
<stop stop-color="#E59B1F"/>
<stop offset="1" stop-color="#E59B1F" stop-opacity="0"/>
</radialGradient>
<linearGradient id="paint6_linear_4595_13836" x1="23.6424" y1="18.7849" x2="9.40087" y2="20.9071" gradientUnits="userSpaceOnUse">
<stop stop-color="#FFE833"/>
<stop offset="1" stop-color="#FFAC1B"/>
</linearGradient>
<linearGradient id="paint7_linear_4595_13836" x1="6.05353" y1="23.8125" x2="10.366" y2="23.25" gradientUnits="userSpaceOnUse">
<stop stop-color="#D19C3A"/>
<stop offset="1" stop-color="#D19C3A" stop-opacity="0"/>
</linearGradient>
<radialGradient id="paint8_radial_4595_13836" cx="0" cy="0" r="1" gradientUnits="userSpaceOnUse" gradientTransform="translate(18.1785 15.5625) rotate(99.3171) scale(16.2139 22.0095)">
<stop offset="0.643051" stop-color="#D87753" stop-opacity="0"/>
<stop offset="1" stop-color="#D87753"/>
</radialGradient>
<radialGradient id="paint9_radial_4595_13836" cx="0" cy="0" r="1" gradientUnits="userSpaceOnUse" gradientTransform="translate(20.491 15.6875) rotate(-90) scale(2.4375 3)">
<stop stop-color="#FFBA0D"/>
<stop offset="1" stop-color="#FFBA0D" stop-opacity="0"/>
</radialGradient>
<radialGradient id="paint10_radial_4595_13836" cx="0" cy="0" r="1" gradientUnits="userSpaceOnUse" gradientTransform="translate(11.991 15.625) rotate(-90) scale(2.59375 3.22556)">
<stop stop-color="#EE911A"/>
<stop offset="1" stop-color="#EE911A" stop-opacity="0"/>
</radialGradient>
<radialGradient id="paint11_radial_4595_13836" cx="0" cy="0" r="1" gradientUnits="userSpaceOnUse" gradientTransform="translate(23.0017 3.67492) rotate(127.807) scale(10.4546 17.7791)">
<stop stop-color="#FFE336"/>
<stop offset="1" stop-color="#FFE336" stop-opacity="0"/>
</radialGradient>
<linearGradient id="paint12_linear_4595_13836" x1="7.05121" y1="17.5604" x2="12.463" y2="7.94737" gradientUnits="userSpaceOnUse">
<stop stop-color="#E07027"/>
<stop offset="1" stop-color="#E07027" stop-opacity="0"/>
</linearGradient>
<radialGradient id="paint13_radial_4595_13836" cx="0" cy="0" r="1" gradientUnits="userSpaceOnUse" gradientTransform="translate(8.29734 11.6146) rotate(-92.0559) scale(3.4736 1.70596)">
<stop offset="0.227435" stop-color="#FFB42C"/>
<stop offset="1" stop-color="#FFB42C" stop-opacity="0"/>
</radialGradient>
<radialGradient id="paint14_radial_4595_13836" cx="0" cy="0" r="1" gradientUnits="userSpaceOnUse" gradientTransform="translate(23.9986 14.8189) rotate(-66.3998) scale(4.0019 3.26385)">
<stop offset="0.478737" stop-color="#E57D1C"/>
<stop offset="1" stop-color="#E57D1C" stop-opacity="0"/>
</radialGradient>
<radialGradient id="paint15_radial_4595_13836" cx="0" cy="0" r="1" gradientUnits="userSpaceOnUse" gradientTransform="translate(14.6704 2.01856) rotate(51.1339) scale(2.95041 2.60501)">
<stop stop-color="#FFCE2C"/>
<stop offset="1" stop-color="#FFCE2C" stop-opacity="0"/>
</radialGradient>
<radialGradient id="paint16_radial_4595_13836" cx="0" cy="0" r="1" gradientUnits="userSpaceOnUse" gradientTransform="translate(23.9274 10.1904) rotate(-64.4528) scale(6.27444 2.16791)">
<stop stop-color="#FFD93A"/>
<stop offset="1" stop-color="#FFD93A" stop-opacity="0"/>
</radialGradient>
<radialGradient id="paint17_radial_4595_13836" cx="0" cy="0" r="1" gradientUnits="userSpaceOnUse" gradientTransform="translate(17.4119 2.01855) rotate(76.9613) scale(1.4992 2.4647)">
<stop offset="0.207744" stop-color="#DCB85C"/>
<stop offset="1" stop-color="#DCB85C" stop-opacity="0"/>
</radialGradient>
<radialGradient id="paint18_radial_4595_13836" cx="0" cy="0" r="1" gradientUnits="userSpaceOnUse" gradientTransform="translate(8.01251 5.24149) rotate(51.0441) scale(2.15189 4.82159)">
<stop stop-color="#C9993E"/>
<stop offset="1" stop-color="#C9993E" stop-opacity="0"/>
</radialGradient>
<linearGradient id="paint19_linear_4595_13836" x1="6.22301" y1="17.4726" x2="6.80719" y2="14.5517" gradientUnits="userSpaceOnUse">
<stop stop-color="#D66B2A"/>
<stop offset="1" stop-color="#D66B2A" stop-opacity="0"/>
</linearGradient>
<linearGradient id="paint20_linear_4595_13836" x1="14.5046" y1="20.0143" x2="16.2542" y2="20.0143" gradientUnits="userSpaceOnUse">
<stop stop-color="#FAA416"/>
<stop offset="1" stop-color="#FAA416" stop-opacity="0"/>
</linearGradient>
<linearGradient id="paint21_linear_4595_13836" x1="17.8662" y1="20.6157" x2="15.9535" y2="20.5884" gradientUnits="userSpaceOnUse">
<stop stop-color="#FFE721"/>
<stop offset="1" stop-color="#FFE721" stop-opacity="0"/>
</linearGradient>
<linearGradient id="paint22_linear_4595_13836" x1="16.479" y1="22" x2="16.479" y2="20.9314" gradientUnits="userSpaceOnUse">
<stop stop-color="#EB8A1C"/>
<stop offset="1" stop-color="#EB8A1C" stop-opacity="0"/>
</linearGradient>
<linearGradient id="paint23_linear_4595_13836" x1="16.3506" y1="22.0781" x2="16.3506" y2="21.7656" gradientUnits="userSpaceOnUse">
<stop stop-color="#E88613"/>
<stop offset="1" stop-color="#E88613" stop-opacity="0"/>
</linearGradient>
<linearGradient id="paint24_linear_4595_13836" x1="14.7916" y1="25.1309" x2="15.585" y2="23.568" gradientUnits="userSpaceOnUse">
<stop stop-color="#FEAC35"/>
<stop offset="1" stop-color="#FEAC35" stop-opacity="0"/>
</linearGradient>
<radialGradient id="paint25_radial_4595_13836" cx="0" cy="0" r="1" gradientUnits="userSpaceOnUse" gradientTransform="translate(20.1794 17.4088) rotate(90) scale(1.68424 1.9929)">
<stop offset="0.75" stop-color="#925C51"/>
<stop offset="1" stop-color="#694B43"/>
<stop offset="1" stop-color="#804D49"/>
<stop offset="1" stop-color="#85534D"/>
</radialGradient>
<radialGradient id="paint26_radial_4595_13836" cx="0" cy="0" r="1" gradientUnits="userSpaceOnUse" gradientTransform="translate(19.7542 16.9438) rotate(-127.812) scale(0.705284 0.971007)">
<stop offset="0.765532" stop-color="#FFE6E2" stop-opacity="0"/>
<stop offset="0.966159" stop-color="#FFE6E2"/>
</radialGradient>
<linearGradient id="paint27_linear_4595_13836" x1="21.6304" y1="16.8872" x2="21.0454" y2="17.2476" gradientUnits="userSpaceOnUse">
<stop stop-color="#B4948D"/>
<stop offset="1" stop-color="#B4948D" stop-opacity="0"/>
</linearGradient>
<radialGradient id="paint28_radial_4595_13836" cx="0" cy="0" r="1" gradientUnits="userSpaceOnUse" gradientTransform="translate(12.0437 17.4089) rotate(90) scale(1.68433 1.993)">
<stop offset="0.75" stop-color="#925C51"/>
<stop offset="1" stop-color="#694B43"/>
<stop offset="1" stop-color="#804D49"/>
<stop offset="1" stop-color="#85534D"/>
</radialGradient>
<linearGradient id="paint29_linear_4595_13836" x1="13.4304" y1="16.8872" x2="12.8454" y2="17.2477" gradientUnits="userSpaceOnUse">
<stop stop-color="#B4948D"/>
<stop offset="1" stop-color="#B4948D" stop-opacity="0"/>
</linearGradient>
<radialGradient id="paint30_radial_4595_13836" cx="0" cy="0" r="1" gradientUnits="userSpaceOnUse" gradientTransform="translate(11.5095 17.1955) rotate(-90.897) scale(0.921289 1.10743)">
<stop offset="0.765532" stop-color="#FFE6E2" stop-opacity="0"/>
<stop offset="0.966159" stop-color="#FFE6E2"/>
</radialGradient>
<linearGradient id="paint31_linear_4595_13836" x1="21.6592" y1="12.8973" x2="20.8756" y2="11.296" gradientUnits="userSpaceOnUse">
<stop stop-color="#CF715D"/>
<stop offset="1" stop-color="#CF715D" stop-opacity="0"/>
</linearGradient>
<linearGradient id="paint32_linear_4595_13836" x1="11.9981" y1="12.8523" x2="10.4005" y2="11.8088" gradientUnits="userSpaceOnUse">
<stop offset="0.456084" stop-color="#CF715D"/>
<stop offset="1" stop-color="#CF715D" stop-opacity="0"/>
</linearGradient>
</defs>
</svg>
