<svg width="21" height="20" viewBox="0 0 21 20" fill="none" xmlns="http://www.w3.org/2000/svg">
<path d="M18.0007 17.4999H11.334M2.58398 17.9166L7.20838 16.138C7.50416 16.0242 7.65205 15.9673 7.79042 15.8931C7.91332 15.8271 8.03048 15.751 8.14068 15.6654C8.26475 15.5692 8.3768 15.4571 8.60088 15.233L18.0007 5.83326C18.9211 4.91279 18.9211 3.4204 18.0007 2.49993C17.0802 1.57945 15.5878 1.57945 14.6673 2.49992L5.26755 11.8997C5.04346 12.1238 4.93142 12.2358 4.83514 12.3599C4.74963 12.4701 4.67349 12.5873 4.60751 12.7102C4.53324 12.8485 4.47636 12.9964 4.36259 13.2922L2.58398 17.9166ZM2.58398 17.9166L4.29908 13.4574C4.42182 13.1383 4.48318 12.9787 4.58843 12.9057C4.68042 12.8418 4.79424 12.8176 4.90423 12.8386C5.0301 12.8627 5.15097 12.9836 5.39272 13.2253L7.2753 15.1079C7.51704 15.3496 7.63792 15.4705 7.66196 15.5964C7.68296 15.7064 7.65881 15.8202 7.59494 15.9122C7.52186 16.0174 7.36231 16.0788 7.04321 16.2015L2.58398 17.9166Z" stroke="white" stroke-width="1.66667" stroke-linecap="round" stroke-linejoin="round"/>
</svg>
