<svg width="52" height="52" viewBox="0 0 52 52" fill="none" xmlns="http://www.w3.org/2000/svg">
<g filter="url(#filter0_d_3647_26669)">
<rect x="2" y="1" width="48" height="48" rx="10" fill="white"/>
<path fill-rule="evenodd" clip-rule="evenodd" d="M27 16.0548C27.1894 16.0758 27.377 16.1025 27.5625 16.135C28.1065 16.2301 28.6247 15.8663 28.7198 15.3222C28.815 14.7782 28.4511 14.26 27.9071 14.1649C27.287 14.0564 26.6497 14 26 14C19.9249 14 15 18.9249 15 25C15 31.0751 19.9249 36 26 36C26.6489 36 27.2855 35.9437 27.9049 35.8355C28.4489 35.7404 28.8129 35.2224 28.7179 34.6783C28.6228 34.1343 28.1048 33.7703 27.5607 33.8653C27.3758 33.8976 27.1888 33.9243 27 33.9452L27 16.0548Z" fill="black"/>
<path d="M30.9195 16.2345C31.2367 15.7825 31.8604 15.6732 32.3125 15.9905C33.3617 16.7268 34.2762 17.6417 35.0122 18.6913C35.3292 19.1435 35.2197 19.7671 34.7675 20.0842C34.3153 20.4013 33.6917 20.2917 33.3746 19.8395C32.7719 18.98 32.0228 18.2306 31.1635 17.6275C30.7115 17.3103 30.6022 16.6866 30.9195 16.2345Z" fill="black"/>
<path d="M35.6779 22.2806C36.2219 22.1854 36.7401 22.5494 36.8352 23.0934C36.9436 23.7133 37 24.3505 37 25C37 25.6495 36.9436 26.2867 36.8352 26.9066C36.7401 27.4506 36.2219 27.8146 35.6779 27.7194C35.1339 27.6243 34.77 27.1061 34.8651 26.5621C34.9537 26.0554 35 25.5335 35 25C35 24.4665 34.9537 23.9446 34.8651 23.4379C34.77 22.8938 35.1339 22.3757 35.6779 22.2806Z" fill="black"/>
<path d="M34.7639 29.9223C35.2158 30.2397 35.3249 30.8634 35.0075 31.3153C34.2721 32.3625 33.3588 33.2754 32.3113 34.0103C31.8592 34.3276 31.2355 34.2182 30.9183 33.7661C30.6011 33.314 30.7105 32.6903 31.1626 32.3731C32.0204 31.7713 32.7686 31.0234 33.3708 30.1659C33.6882 29.7139 34.3119 29.6049 34.7639 29.9223Z" fill="black"/>
<rect x="2.5" y="1.5" width="47" height="47" rx="9.5" stroke="#EAECF0"/>
</g>
<defs>
<filter id="filter0_d_3647_26669" x="0" y="0" width="52" height="52" filterUnits="userSpaceOnUse" color-interpolation-filters="sRGB">
<feFlood flood-opacity="0" result="BackgroundImageFix"/>
<feColorMatrix in="SourceAlpha" type="matrix" values="0 0 0 0 0 0 0 0 0 0 0 0 0 0 0 0 0 0 127 0" result="hardAlpha"/>
<feOffset dy="1"/>
<feGaussianBlur stdDeviation="1"/>
<feColorMatrix type="matrix" values="0 0 0 0 0.0627451 0 0 0 0 0.0941176 0 0 0 0 0.156863 0 0 0 0.05 0"/>
<feBlend mode="normal" in2="BackgroundImageFix" result="effect1_dropShadow_3647_26669"/>
<feBlend mode="normal" in="SourceGraphic" in2="effect1_dropShadow_3647_26669" result="shape"/>
</filter>
</defs>
</svg>
