<svg width="32" height="32" viewBox="0 0 32 32" fill="none" xmlns="http://www.w3.org/2000/svg">
<g filter="url(#filter0_i_2154_46405)">
<path d="M12.2676 5.15823C12.2676 3.34203 13.7399 1.86969 15.5561 1.86969C17.3723 1.86969 18.8447 3.34203 18.8447 5.15823V8.94269C18.8447 9.26543 18.8223 9.58723 18.7724 9.90894C18.7542 10.0264 18.736 10.1437 18.7247 10.2609C18.6888 10.6314 18.7326 11.1153 18.9844 11.4402L18.3831 12.0203C21.3983 13.5607 23.4644 16.7109 23.4644 20.3466C23.4644 21.3316 23.3127 22.281 23.0316 23.1723L22.0352 29.6788H13.9337V29.676C8.93053 29.5683 4.9165 26.3058 4.9165 20.3466C4.9165 16.8436 6.59381 14.0236 9.13134 12.4335L9.12506 12.4285C9.29792 12.3084 9.50176 12.1862 9.72033 12.0551L9.72192 12.0542C10.4416 11.6227 11.3211 11.0955 11.7852 10.2332C12.1876 9.48558 12.2657 8.27223 12.2657 7.70973L12.2676 7.71059V5.15823Z" fill="url(#paint0_linear_2154_46405)"/>
</g>
<path d="M12.2676 5.15823C12.2676 3.34203 13.7399 1.86969 15.5561 1.86969C17.3723 1.86969 18.8447 3.34203 18.8447 5.15823V8.94269C18.8447 9.26543 18.8223 9.58723 18.7724 9.90894C18.7542 10.0264 18.736 10.1437 18.7247 10.2609C18.6888 10.6314 18.7326 11.1153 18.9844 11.4402L18.3831 12.0203C21.3983 13.5607 23.4644 16.7109 23.4644 20.3466C23.4644 21.3316 23.3127 22.281 23.0316 23.1723L22.0352 29.6788H13.9337V29.676C8.93053 29.5683 4.9165 26.3058 4.9165 20.3466C4.9165 16.8436 6.59381 14.0236 9.13134 12.4335L9.12506 12.4285C9.29792 12.3084 9.50176 12.1862 9.72033 12.0551L9.72192 12.0542C10.4416 11.6227 11.3211 11.0955 11.7852 10.2332C12.1876 9.48558 12.2657 8.27223 12.2657 7.70973L12.2676 7.71059V5.15823Z" fill="url(#paint1_radial_2154_46405)"/>
<path d="M12.2676 5.15823C12.2676 3.34203 13.7399 1.86969 15.5561 1.86969C17.3723 1.86969 18.8447 3.34203 18.8447 5.15823V8.94269C18.8447 9.26543 18.8223 9.58723 18.7724 9.90894C18.7542 10.0264 18.736 10.1437 18.7247 10.2609C18.6888 10.6314 18.7326 11.1153 18.9844 11.4402L18.3831 12.0203C21.3983 13.5607 23.4644 16.7109 23.4644 20.3466C23.4644 21.3316 23.3127 22.281 23.0316 23.1723L22.0352 29.6788H13.9337V29.676C8.93053 29.5683 4.9165 26.3058 4.9165 20.3466C4.9165 16.8436 6.59381 14.0236 9.13134 12.4335L9.12506 12.4285C9.29792 12.3084 9.50176 12.1862 9.72033 12.0551L9.72192 12.0542C10.4416 11.6227 11.3211 11.0955 11.7852 10.2332C12.1876 9.48558 12.2657 8.27223 12.2657 7.70973L12.2676 7.71059V5.15823Z" fill="url(#paint2_radial_2154_46405)"/>
<path d="M12.2676 5.15823C12.2676 3.34203 13.7399 1.86969 15.5561 1.86969C17.3723 1.86969 18.8447 3.34203 18.8447 5.15823V8.94269C18.8447 9.26543 18.8223 9.58723 18.7724 9.90894C18.7542 10.0264 18.736 10.1437 18.7247 10.2609C18.6888 10.6314 18.7326 11.1153 18.9844 11.4402L18.3831 12.0203C21.3983 13.5607 23.4644 16.7109 23.4644 20.3466C23.4644 21.3316 23.3127 22.281 23.0316 23.1723L22.0352 29.6788H13.9337V29.676C8.93053 29.5683 4.9165 26.3058 4.9165 20.3466C4.9165 16.8436 6.59381 14.0236 9.13134 12.4335L9.12506 12.4285C9.29792 12.3084 9.50176 12.1862 9.72033 12.0551L9.72192 12.0542C10.4416 11.6227 11.3211 11.0955 11.7852 10.2332C12.1876 9.48558 12.2657 8.27223 12.2657 7.70973L12.2676 7.71059V5.15823Z" fill="url(#paint3_radial_2154_46405)"/>
<path d="M12.2676 5.15823C12.2676 3.34203 13.7399 1.86969 15.5561 1.86969C17.3723 1.86969 18.8447 3.34203 18.8447 5.15823V8.94269C18.8447 9.26543 18.8223 9.58723 18.7724 9.90894C18.7542 10.0264 18.736 10.1437 18.7247 10.2609C18.6888 10.6314 18.7326 11.1153 18.9844 11.4402L18.3831 12.0203C21.3983 13.5607 23.4644 16.7109 23.4644 20.3466C23.4644 21.3316 23.3127 22.281 23.0316 23.1723L22.0352 29.6788H13.9337V29.676C8.93053 29.5683 4.9165 26.3058 4.9165 20.3466C4.9165 16.8436 6.59381 14.0236 9.13134 12.4335L9.12506 12.4285C9.29792 12.3084 9.50176 12.1862 9.72033 12.0551L9.72192 12.0542C10.4416 11.6227 11.3211 11.0955 11.7852 10.2332C12.1876 9.48558 12.2657 8.27223 12.2657 7.70973L12.2676 7.71059V5.15823Z" fill="url(#paint4_linear_2154_46405)"/>
<g filter="url(#filter1_f_2154_46405)">
<path d="M23.6786 14.7087C23.6786 13.2994 22.5361 12.1569 21.1268 12.1569H18.3003C16.891 12.1569 15.7485 13.2994 15.7485 14.7087C15.7485 15.4946 16.1038 16.1975 16.6625 16.6656C16.0448 17.133 15.6455 17.8749 15.6455 18.7081C15.6455 19.4882 15.9956 20.1883 16.5472 20.6579C15.9956 21.126 15.6455 21.8244 15.6455 22.6045V22.7303C15.6455 23.4295 15.9267 24.0631 16.3822 24.524C15.9273 24.974 15.6455 25.5987 15.6455 26.2892C15.6455 27.6606 16.7572 28.7723 18.1286 28.7723H20.9323C22.3037 28.7723 23.4154 27.6606 23.4154 26.2892C23.4154 25.8352 23.2936 25.4097 23.0809 25.0436C23.951 24.6371 24.554 23.7542 24.554 22.7303V22.6045C24.554 21.8149 24.1954 21.109 23.6321 20.6409C24.1723 20.1715 24.514 19.4788 24.514 18.7081C24.514 17.6858 23.9128 16.8009 23.0448 16.392C23.4394 15.9427 23.6786 15.3537 23.6786 14.7087Z" fill="url(#paint5_linear_2154_46405)"/>
</g>
<g filter="url(#filter2_i_2154_46405)">
<rect x="25.957" y="10.7305" width="5.82021" height="9.0435" rx="2.9101" transform="rotate(90 25.957 10.7305)" fill="url(#paint6_linear_2154_46405)"/>
<rect x="25.957" y="10.7305" width="5.82021" height="9.0435" rx="2.9101" transform="rotate(90 25.957 10.7305)" fill="url(#paint7_radial_2154_46405)"/>
</g>
<g filter="url(#filter3_i_2154_46405)">
<rect x="25.6567" y="24.0152" width="5.6636" height="8.86086" rx="2.8318" transform="rotate(90 25.6567 24.0152)" fill="url(#paint8_linear_2154_46405)"/>
<rect x="25.6567" y="24.0152" width="5.6636" height="8.86086" rx="2.8318" transform="rotate(90 25.6567 24.0152)" fill="url(#paint9_radial_2154_46405)"/>
<rect x="25.6567" y="24.0152" width="5.6636" height="8.86086" rx="2.8318" transform="rotate(90 25.6567 24.0152)" fill="url(#paint10_radial_2154_46405)"/>
</g>
<rect x="25.6567" y="24.0152" width="5.6636" height="8.86086" rx="2.8318" transform="rotate(90 25.6567 24.0152)" fill="url(#paint11_linear_2154_46405)"/>
<rect x="25.6567" y="24.0152" width="5.6636" height="8.86086" rx="2.8318" transform="rotate(90 25.6567 24.0152)" fill="url(#paint12_radial_2154_46405)"/>
<g filter="url(#filter4_f_2154_46405)">
<rect x="19.6216" y="25.6986" width="5.37025" height="1.4762" rx="0.7381" fill="url(#paint13_linear_2154_46405)"/>
</g>
<rect x="26.9551" y="19.7349" width="5.96377" height="10.1593" rx="2.98188" transform="rotate(90 26.9551 19.7349)" fill="#C4C4C4" fill-opacity="0.66"/>
<g filter="url(#filter5_i_2154_46405)">
<rect x="26.9551" y="19.7349" width="5.96377" height="10.1593" rx="2.9101" transform="rotate(90 26.9551 19.7349)" fill="url(#paint14_linear_2154_46405)"/>
<rect x="26.9551" y="19.7349" width="5.96377" height="10.1593" rx="2.9101" transform="rotate(90 26.9551 19.7349)" fill="url(#paint15_radial_2154_46405)"/>
<rect x="26.9551" y="19.7349" width="5.96377" height="10.1593" rx="2.9101" transform="rotate(90 26.9551 19.7349)" fill="url(#paint16_radial_2154_46405)"/>
</g>
<g filter="url(#filter6_f_2154_46405)">
<rect x="19.2319" y="21.8286" width="6.72485" height="1.4762" rx="0.7381" fill="url(#paint17_linear_2154_46405)"/>
</g>
<g filter="url(#filter7_i_2154_46405)">
<rect x="26.9092" y="15.2849" width="5.83326" height="10.1136" rx="2.9101" transform="rotate(90 26.9092 15.2849)" fill="url(#paint18_linear_2154_46405)"/>
<rect x="26.9092" y="15.2849" width="5.83326" height="10.1136" rx="2.9101" transform="rotate(90 26.9092 15.2849)" fill="url(#paint19_radial_2154_46405)"/>
</g>
<path d="M15.556 1.86969C13.7399 1.86969 12.2675 3.34203 12.2675 5.15823V7.71059L12.2656 7.70973C12.2656 8.27223 12.1875 9.48558 11.7852 10.2332C11.321 11.0955 10.4415 11.6227 9.72186 12.0542C9.50269 12.1856 9.29828 12.3081 9.125 12.4285C10.1198 13.2254 12.157 14.8176 12.207 14.78C12.257 14.7425 14.5508 13.5248 15.6914 12.9207L15.6429 12.2301C17.4189 12.1841 18.8446 10.7299 18.8446 8.94269V5.15823C18.8446 3.34203 17.3723 1.86969 15.556 1.86969Z" fill="url(#paint20_radial_2154_46405)"/>
<path d="M15.556 1.86969C13.7399 1.86969 12.2675 3.34203 12.2675 5.15823V7.71059L12.2656 7.70973C12.2656 8.27223 12.1875 9.48558 11.7852 10.2332C11.321 11.0955 10.4415 11.6227 9.72186 12.0542C9.50269 12.1856 9.29828 12.3081 9.125 12.4285C10.1198 13.2254 12.157 14.8176 12.207 14.78C12.257 14.7425 14.5508 13.5248 15.6914 12.9207L15.6429 12.2301C17.4189 12.1841 18.8446 10.7299 18.8446 8.94269V5.15823C18.8446 3.34203 17.3723 1.86969 15.556 1.86969Z" fill="url(#paint21_radial_2154_46405)"/>
<path d="M13.4756 2.61133C12.7382 3.21439 12.2676 4.13135 12.2676 5.15822V5.35034H13.754C13.7592 5.15242 13.7493 4.64566 13.668 4.2019L13.6512 4.11052C13.5689 3.66348 13.4745 3.15094 13.4756 2.61133Z" fill="#FFBF71"/>
<path d="M13.4756 2.61133C12.7382 3.21439 12.2676 4.13135 12.2676 5.15822V5.35034H13.754C13.7592 5.15242 13.7493 4.64566 13.668 4.2019L13.6512 4.11052C13.5689 3.66348 13.4745 3.15094 13.4756 2.61133Z" fill="url(#paint22_radial_2154_46405)"/>
<g filter="url(#filter8_f_2154_46405)">
<rect x="18.856" y="11.5246" width="6.13569" height="2.51555" rx="1.25777" fill="url(#paint23_linear_2154_46405)"/>
</g>
<g filter="url(#filter9_f_2154_46405)">
<rect x="18.7847" y="16" width="7.17206" height="2.51555" rx="1.25777" fill="url(#paint24_linear_2154_46405)"/>
</g>
<g filter="url(#filter10_f_2154_46405)">
<rect x="15.1504" y="3.11243" width="2.86524" height="7.9974" rx="1.43262" fill="url(#paint25_linear_2154_46405)"/>
</g>
<defs>
<filter id="filter0_i_2154_46405" x="4.9165" y="1.86969" width="19.0479" height="27.8091" filterUnits="userSpaceOnUse" color-interpolation-filters="sRGB">
<feFlood flood-opacity="0" result="BackgroundImageFix"/>
<feBlend mode="normal" in="SourceGraphic" in2="BackgroundImageFix" result="shape"/>
<feColorMatrix in="SourceAlpha" type="matrix" values="0 0 0 0 0 0 0 0 0 0 0 0 0 0 0 0 0 0 127 0" result="hardAlpha"/>
<feOffset dx="0.5"/>
<feGaussianBlur stdDeviation="1"/>
<feComposite in2="hardAlpha" operator="arithmetic" k2="-1" k3="1"/>
<feColorMatrix type="matrix" values="0 0 0 0 0.847059 0 0 0 0 0.458824 0 0 0 0 0.360784 0 0 0 1 0"/>
<feBlend mode="normal" in2="shape" result="effect1_innerShadow_2154_46405"/>
</filter>
<filter id="filter1_f_2154_46405" x="13.6455" y="10.1569" width="12.9087" height="20.6154" filterUnits="userSpaceOnUse" color-interpolation-filters="sRGB">
<feFlood flood-opacity="0" result="BackgroundImageFix"/>
<feBlend mode="normal" in="SourceGraphic" in2="BackgroundImageFix" result="shape"/>
<feGaussianBlur stdDeviation="1" result="effect1_foregroundBlur_2154_46405"/>
</filter>
<filter id="filter2_i_2154_46405" x="16.9136" y="10.7305" width="9.54346" height="5.82019" filterUnits="userSpaceOnUse" color-interpolation-filters="sRGB">
<feFlood flood-opacity="0" result="BackgroundImageFix"/>
<feBlend mode="normal" in="SourceGraphic" in2="BackgroundImageFix" result="shape"/>
<feColorMatrix in="SourceAlpha" type="matrix" values="0 0 0 0 0 0 0 0 0 0 0 0 0 0 0 0 0 0 127 0" result="hardAlpha"/>
<feOffset dx="0.5"/>
<feGaussianBlur stdDeviation="0.75"/>
<feComposite in2="hardAlpha" operator="arithmetic" k2="-1" k3="1"/>
<feColorMatrix type="matrix" values="0 0 0 0 0.878431 0 0 0 0 0.541176 0 0 0 0 0.0627451 0 0 0 1 0"/>
<feBlend mode="normal" in2="shape" result="effect1_innerShadow_2154_46405"/>
</filter>
<filter id="filter3_i_2154_46405" x="16.7959" y="23.5152" width="9.36084" height="6.16357" filterUnits="userSpaceOnUse" color-interpolation-filters="sRGB">
<feFlood flood-opacity="0" result="BackgroundImageFix"/>
<feBlend mode="normal" in="SourceGraphic" in2="BackgroundImageFix" result="shape"/>
<feColorMatrix in="SourceAlpha" type="matrix" values="0 0 0 0 0 0 0 0 0 0 0 0 0 0 0 0 0 0 127 0" result="hardAlpha"/>
<feOffset dx="0.5" dy="-0.5"/>
<feGaussianBlur stdDeviation="0.75"/>
<feComposite in2="hardAlpha" operator="arithmetic" k2="-1" k3="1"/>
<feColorMatrix type="matrix" values="0 0 0 0 0.941176 0 0 0 0 0.643137 0 0 0 0 0.215686 0 0 0 1 0"/>
<feBlend mode="normal" in2="shape" result="effect1_innerShadow_2154_46405"/>
</filter>
<filter id="filter4_f_2154_46405" x="18.3716" y="24.4486" width="7.87012" height="3.9762" filterUnits="userSpaceOnUse" color-interpolation-filters="sRGB">
<feFlood flood-opacity="0" result="BackgroundImageFix"/>
<feBlend mode="normal" in="SourceGraphic" in2="BackgroundImageFix" result="shape"/>
<feGaussianBlur stdDeviation="0.625" result="effect1_foregroundBlur_2154_46405"/>
</filter>
<filter id="filter5_i_2154_46405" x="16.7959" y="19.2349" width="10.6592" height="6.46375" filterUnits="userSpaceOnUse" color-interpolation-filters="sRGB">
<feFlood flood-opacity="0" result="BackgroundImageFix"/>
<feBlend mode="normal" in="SourceGraphic" in2="BackgroundImageFix" result="shape"/>
<feColorMatrix in="SourceAlpha" type="matrix" values="0 0 0 0 0 0 0 0 0 0 0 0 0 0 0 0 0 0 127 0" result="hardAlpha"/>
<feOffset dx="0.5" dy="-0.5"/>
<feGaussianBlur stdDeviation="0.75"/>
<feComposite in2="hardAlpha" operator="arithmetic" k2="-1" k3="1"/>
<feColorMatrix type="matrix" values="0 0 0 0 0.941176 0 0 0 0 0.643137 0 0 0 0 0.215686 0 0 0 1 0"/>
<feBlend mode="normal" in2="shape" result="effect1_innerShadow_2154_46405"/>
</filter>
<filter id="filter6_f_2154_46405" x="17.9819" y="20.5786" width="9.2251" height="3.9762" filterUnits="userSpaceOnUse" color-interpolation-filters="sRGB">
<feFlood flood-opacity="0" result="BackgroundImageFix"/>
<feBlend mode="normal" in="SourceGraphic" in2="BackgroundImageFix" result="shape"/>
<feGaussianBlur stdDeviation="0.625" result="effect1_foregroundBlur_2154_46405"/>
</filter>
<filter id="filter7_i_2154_46405" x="16.7954" y="14.7849" width="10.6138" height="6.33325" filterUnits="userSpaceOnUse" color-interpolation-filters="sRGB">
<feFlood flood-opacity="0" result="BackgroundImageFix"/>
<feBlend mode="normal" in="SourceGraphic" in2="BackgroundImageFix" result="shape"/>
<feColorMatrix in="SourceAlpha" type="matrix" values="0 0 0 0 0 0 0 0 0 0 0 0 0 0 0 0 0 0 127 0" result="hardAlpha"/>
<feOffset dx="0.5" dy="-0.5"/>
<feGaussianBlur stdDeviation="0.75"/>
<feComposite in2="hardAlpha" operator="arithmetic" k2="-1" k3="1"/>
<feColorMatrix type="matrix" values="0 0 0 0 0.941176 0 0 0 0 0.643137 0 0 0 0 0.215686 0 0 0 1 0"/>
<feBlend mode="normal" in2="shape" result="effect1_innerShadow_2154_46405"/>
</filter>
<filter id="filter8_f_2154_46405" x="17.606" y="10.2746" width="8.63574" height="5.01556" filterUnits="userSpaceOnUse" color-interpolation-filters="sRGB">
<feFlood flood-opacity="0" result="BackgroundImageFix"/>
<feBlend mode="normal" in="SourceGraphic" in2="BackgroundImageFix" result="shape"/>
<feGaussianBlur stdDeviation="0.625" result="effect1_foregroundBlur_2154_46405"/>
</filter>
<filter id="filter9_f_2154_46405" x="17.5347" y="14.75" width="9.67188" height="5.01556" filterUnits="userSpaceOnUse" color-interpolation-filters="sRGB">
<feFlood flood-opacity="0" result="BackgroundImageFix"/>
<feBlend mode="normal" in="SourceGraphic" in2="BackgroundImageFix" result="shape"/>
<feGaussianBlur stdDeviation="0.625" result="effect1_foregroundBlur_2154_46405"/>
</filter>
<filter id="filter10_f_2154_46405" x="13.9004" y="1.86243" width="5.36523" height="10.4974" filterUnits="userSpaceOnUse" color-interpolation-filters="sRGB">
<feFlood flood-opacity="0" result="BackgroundImageFix"/>
<feBlend mode="normal" in="SourceGraphic" in2="BackgroundImageFix" result="shape"/>
<feGaussianBlur stdDeviation="0.625" result="effect1_foregroundBlur_2154_46405"/>
</filter>
<linearGradient id="paint0_linear_2154_46405" x1="19.254" y1="6.63942" x2="9.19147" y2="27.8269" gradientUnits="userSpaceOnUse">
<stop stop-color="#FFCA44"/>
<stop offset="1" stop-color="#F8A528"/>
</linearGradient>
<radialGradient id="paint1_radial_2154_46405" cx="0" cy="0" r="1" gradientUnits="userSpaceOnUse" gradientTransform="translate(20.4399 4.84414) rotate(141.116) scale(5.01564 14.8034)">
<stop stop-color="#FFE34C"/>
<stop offset="1" stop-color="#FFE34C" stop-opacity="0"/>
</radialGradient>
<radialGradient id="paint2_radial_2154_46405" cx="0" cy="0" r="1" gradientUnits="userSpaceOnUse" gradientTransform="translate(11.309 15.7742) rotate(125.191) scale(7.43021 5.38256)">
<stop stop-color="#FFCA2E"/>
<stop offset="1" stop-color="#FFCA2E" stop-opacity="0"/>
</radialGradient>
<radialGradient id="paint3_radial_2154_46405" cx="0" cy="0" r="1" gradientUnits="userSpaceOnUse" gradientTransform="translate(19.3694 18.1311) rotate(146.743) scale(16.1907 28.3343)">
<stop offset="0.681103" stop-color="#E18E3F" stop-opacity="0"/>
<stop offset="1" stop-color="#E18E3F"/>
</radialGradient>
<linearGradient id="paint4_linear_2154_46405" x1="14.1904" y1="25.5618" x2="14.1904" y2="30.6625" gradientUnits="userSpaceOnUse">
<stop stop-color="#D8796F" stop-opacity="0"/>
<stop offset="1" stop-color="#D8796F"/>
</linearGradient>
<linearGradient id="paint5_linear_2154_46405" x1="20.0998" y1="12.1569" x2="20.0998" y2="25.445" gradientUnits="userSpaceOnUse">
<stop stop-color="#D1730B"/>
<stop offset="1" stop-color="#E27D47"/>
</linearGradient>
<linearGradient id="paint6_linear_2154_46405" x1="28.8671" y1="10.7305" x2="28.8671" y2="19.774" gradientUnits="userSpaceOnUse">
<stop stop-color="#FFDB44"/>
<stop offset="1" stop-color="#F9A928"/>
</linearGradient>
<radialGradient id="paint7_radial_2154_46405" cx="0" cy="0" r="1" gradientUnits="userSpaceOnUse" gradientTransform="translate(31.4468 18.3031) rotate(127.367) scale(2.3211 1.55368)">
<stop stop-color="#D98320"/>
<stop offset="1" stop-color="#D98320" stop-opacity="0"/>
</radialGradient>
<linearGradient id="paint8_linear_2154_46405" x1="28.4885" y1="24.7915" x2="28.4885" y2="32.8761" gradientUnits="userSpaceOnUse">
<stop stop-color="#FFDB44"/>
<stop offset="1" stop-color="#F9A928"/>
</linearGradient>
<radialGradient id="paint9_radial_2154_46405" cx="0" cy="0" r="1" gradientUnits="userSpaceOnUse" gradientTransform="translate(31.3203 31.081) rotate(-90) scale(7.31347 2.78222)">
<stop stop-color="#F29545"/>
<stop offset="1" stop-color="#F29545" stop-opacity="0"/>
</radialGradient>
<radialGradient id="paint10_radial_2154_46405" cx="0" cy="0" r="1" gradientUnits="userSpaceOnUse" gradientTransform="translate(26.651 31.4321) rotate(-90) scale(7.4169 1.99096)">
<stop stop-color="#DA810B"/>
<stop offset="1" stop-color="#FFB610" stop-opacity="0"/>
</radialGradient>
<linearGradient id="paint11_linear_2154_46405" x1="31.9041" y1="28.4456" x2="30.0721" y2="28.4456" gradientUnits="userSpaceOnUse">
<stop stop-color="#DC7C6A"/>
<stop offset="1" stop-color="#DC7C6A" stop-opacity="0"/>
</linearGradient>
<radialGradient id="paint12_radial_2154_46405" cx="0" cy="0" r="1" gradientUnits="userSpaceOnUse" gradientTransform="translate(28.4885 34.0488) rotate(-90) scale(5.60324 8.4227)">
<stop stop-color="#E38811"/>
<stop offset="1" stop-color="#E38811" stop-opacity="0"/>
</radialGradient>
<linearGradient id="paint13_linear_2154_46405" x1="24.7129" y1="26.1034" x2="18.9241" y2="26.1034" gradientUnits="userSpaceOnUse">
<stop stop-color="#FFF166"/>
<stop offset="1" stop-color="#FFF166" stop-opacity="0"/>
</linearGradient>
<linearGradient id="paint14_linear_2154_46405" x1="29.937" y1="20.6249" x2="29.937" y2="29.8942" gradientUnits="userSpaceOnUse">
<stop stop-color="#FFDB44"/>
<stop offset="1" stop-color="#F9A928"/>
</linearGradient>
<radialGradient id="paint15_radial_2154_46405" cx="0" cy="0" r="1" gradientUnits="userSpaceOnUse" gradientTransform="translate(32.9188 27.8361) rotate(-90) scale(8.38517 2.92967)">
<stop stop-color="#F29545"/>
<stop offset="1" stop-color="#F29545" stop-opacity="0"/>
</radialGradient>
<radialGradient id="paint16_radial_2154_46405" cx="0" cy="0" r="1" gradientUnits="userSpaceOnUse" gradientTransform="translate(28.002 28.2386) rotate(-90) scale(8.50376 2.09648)">
<stop stop-color="#DA810B"/>
<stop offset="1" stop-color="#FFB610" stop-opacity="0"/>
</radialGradient>
<linearGradient id="paint17_linear_2154_46405" x1="25.6074" y1="22.2334" x2="18.3586" y2="22.2334" gradientUnits="userSpaceOnUse">
<stop stop-color="#FFF166"/>
<stop offset="1" stop-color="#FFF166" stop-opacity="0"/>
</linearGradient>
<linearGradient id="paint18_linear_2154_46405" x1="29.8258" y1="15.2849" x2="29.8258" y2="25.3985" gradientUnits="userSpaceOnUse">
<stop stop-color="#FFDB44"/>
<stop offset="1" stop-color="#F9A928"/>
</linearGradient>
<radialGradient id="paint19_radial_2154_46405" cx="0" cy="0" r="1" gradientUnits="userSpaceOnUse" gradientTransform="translate(32.0371 23.307) rotate(-90) scale(5.50067 2.44847)">
<stop stop-color="#F29545"/>
<stop offset="1" stop-color="#F29545" stop-opacity="0"/>
</radialGradient>
<radialGradient id="paint20_radial_2154_46405" cx="0" cy="0" r="1" gradientUnits="userSpaceOnUse" gradientTransform="translate(12.5369 4.84414) rotate(90) scale(6.36013 2.36143)">
<stop stop-color="#F3A52A"/>
<stop offset="1" stop-color="#F3A52A" stop-opacity="0"/>
</radialGradient>
<radialGradient id="paint21_radial_2154_46405" cx="0" cy="0" r="1" gradientUnits="userSpaceOnUse" gradientTransform="translate(10.6793 9.03175) rotate(42.9975) scale(3.18567 4.82045)">
<stop stop-color="#CDA25E"/>
<stop offset="1" stop-color="#CDA25E" stop-opacity="0"/>
</radialGradient>
<radialGradient id="paint22_radial_2154_46405" cx="0" cy="0" r="1" gradientUnits="userSpaceOnUse" gradientTransform="translate(13.9853 4.45055) rotate(-168.366) scale(1.63946 3.57849)">
<stop offset="0.549892" stop-color="#CCB28B" stop-opacity="0"/>
<stop offset="1" stop-color="#CCB28B"/>
</radialGradient>
<linearGradient id="paint23_linear_2154_46405" x1="24.6729" y1="12.2143" x2="18.0591" y2="12.2143" gradientUnits="userSpaceOnUse">
<stop stop-color="#FFF166"/>
<stop offset="1" stop-color="#FFF166" stop-opacity="0"/>
</linearGradient>
<linearGradient id="paint24_linear_2154_46405" x1="25.5842" y1="16.6897" x2="17.8532" y2="16.6897" gradientUnits="userSpaceOnUse">
<stop stop-color="#FFF166"/>
<stop offset="1" stop-color="#FFF166" stop-opacity="0"/>
</linearGradient>
<linearGradient id="paint25_linear_2154_46405" x1="17.8668" y1="5.30524" x2="14.7783" y2="5.30524" gradientUnits="userSpaceOnUse">
<stop stop-color="#FFF166"/>
<stop offset="1" stop-color="#FFF166" stop-opacity="0"/>
</linearGradient>
</defs>
</svg>
