<svg width="32" height="32" viewBox="0 0 32 32" fill="none" xmlns="http://www.w3.org/2000/svg">
<g id="file-question-03">
<path id="Fill" opacity="0.12" d="M25.4954 9.49527L19.8386 3.83842C19.4965 3.49638 19.0989 3.22269 18.667 3.02612V8.53351C18.667 9.28025 18.667 9.65361 18.8123 9.93883C18.9401 10.1897 19.1441 10.3937 19.395 10.5215C19.6802 10.6668 20.0536 10.6668 20.8003 10.6668H26.3077C26.1111 10.2349 25.8375 9.8373 25.4954 9.49527Z" fill="#0C111D"/>
<path id="Icon" d="M18.6663 3.02612V8.53351C18.6663 9.28025 18.6663 9.65361 18.8117 9.93883C18.9395 10.1897 19.1435 10.3937 19.3944 10.5215C19.6796 10.6668 20.0529 10.6668 20.7997 10.6668H26.3071M13.133 16.0031C13.3679 15.3352 13.8316 14.7721 14.442 14.4134C15.0523 14.0547 15.7699 13.9236 16.4677 14.0432C17.1654 14.1629 17.7983 14.5257 18.2542 15.0673C18.7102 15.6089 18.9597 16.2944 18.9586 17.0023C18.9586 19.0008 15.9609 20.0001 15.9609 20.0001M15.9997 24.0001H16.013M18.6663 2.66675H11.733C9.4928 2.66675 8.37269 2.66675 7.51705 3.10272C6.7644 3.48622 6.15248 4.09814 5.76898 4.85079C5.33301 5.70643 5.33301 6.82654 5.33301 9.06675V22.9334C5.33301 25.1736 5.33301 26.2937 5.76898 27.1494C6.15248 27.902 6.7644 28.5139 7.51705 28.8974C8.37269 29.3334 9.4928 29.3334 11.733 29.3334H20.2663C22.5066 29.3334 23.6267 29.3334 24.4823 28.8974C25.235 28.5139 25.8469 27.902 26.2304 27.1494C26.6663 26.2937 26.6663 25.1736 26.6663 22.9334V10.6667L18.6663 2.66675Z" stroke="#98A2B3" stroke-width="2" stroke-linecap="round" stroke-linejoin="round"/>
</g>
</svg>
