<svg width="32" height="32" viewBox="0 0 32 32" fill="none" xmlns="http://www.w3.org/2000/svg">
<g id="shield-dollar">
<path id="Accent" opacity="0.4" d="M15.069 28.8198C15.3642 28.992 15.5118 29.0781 15.7201 29.1228C15.8818 29.1575 16.1176 29.1575 16.2792 29.1228C16.4875 29.0781 16.6351 28.992 16.9303 28.8198C19.5277 27.3045 26.6663 22.5446 26.6663 16V9.62346C26.6663 8.55744 26.6663 8.02444 26.492 7.56626C26.338 7.16151 26.0877 6.80036 25.7628 6.51403C25.395 6.18991 24.8959 6.00276 23.8978 5.62845L16.7487 2.94756C16.4715 2.84361 16.3329 2.79163 16.1904 2.77103C16.0639 2.75276 15.9355 2.75276 15.809 2.77103C15.6664 2.79163 15.5278 2.84361 15.2506 2.94756L8.10155 5.62845C7.10341 6.00276 6.60433 6.18991 6.23655 6.51403C5.91165 6.80036 5.66137 7.16151 5.50735 7.56626C5.33301 8.02444 5.33301 8.55744 5.33301 9.62346V16C5.33301 22.5446 12.4716 27.3045 15.069 28.8198Z" stroke="#0C111D" stroke-width="2" stroke-linecap="round" stroke-linejoin="round"/>
<path id="Icon" d="M12.2839 19.3333C12.7002 20.126 13.5314 20.6667 14.4889 20.6667H17.3333C18.8061 20.6667 20 19.4728 20 18C20 16.5272 18.8061 15.3333 17.3333 15.3333H14.6667C13.1939 15.3333 12 14.1394 12 12.6667C12 11.1939 13.1939 10 14.6667 10H17.5111C18.4686 10 19.2998 10.5407 19.7161 11.3333M16 8V10M16 20.6667V22.6667" stroke="#98A2B3" stroke-width="2" stroke-linecap="round" stroke-linejoin="round"/>
</g>
</svg>
