<svg width="32" height="32" viewBox="0 0 32 32" fill="none" xmlns="http://www.w3.org/2000/svg">
<g id="shopping-bag-02">
<path id="Solid" fill-rule="evenodd" clip-rule="evenodd" d="M9.46334 6.67914C10.0762 3.6299 12.7695 1.33325 15.9992 1.33325C19.2289 1.33325 21.9222 3.6299 22.535 6.67914C22.8315 6.6868 23.1057 6.69913 23.3588 6.71897C24.0556 6.7736 24.6972 6.89077 25.3104 7.18186C26.2664 7.63567 27.0658 8.36362 27.6069 9.2731C27.9539 9.85647 28.1305 10.4843 28.2499 11.173C28.3645 11.8338 28.4406 12.6459 28.5325 13.6262L29.3428 22.2692C29.4519 23.4332 29.5417 24.3901 29.5487 25.1705C29.556 25.9779 29.4794 26.7267 29.1735 27.4386C28.702 28.5361 27.8756 29.4436 26.8269 30.0155C26.1467 30.3865 25.4082 30.5327 24.6037 30.6008C23.826 30.6666 22.865 30.6666 21.6958 30.6666H10.3027C9.13349 30.6666 8.17235 30.6666 7.3947 30.6008C6.59015 30.5327 5.85172 30.3865 5.17149 30.0155C4.12278 29.4436 3.29644 28.5361 2.82488 27.4386C2.51902 26.7267 2.44238 25.9779 2.44968 25.1705C2.45674 24.3901 2.54646 23.4332 2.65561 22.2691L3.46588 13.6262C3.55777 12.6459 3.63389 11.8338 3.74849 11.173C3.86791 10.4843 4.04446 9.85647 4.39152 9.2731C4.93259 8.36362 5.73198 7.63567 6.68798 7.18186C7.30121 6.89077 7.9428 6.77359 8.63959 6.71897C8.8927 6.69913 9.16689 6.6868 9.46334 6.67914ZM12.2268 6.66659C12.7759 5.113 14.2576 3.99992 15.9992 3.99992C17.7408 3.99992 19.2225 5.113 19.7716 6.66659L12.2268 6.66659Z" fill="#870064"/>
</g>
</svg>
