<svg width="32" height="32" viewBox="0 0 32 32" fill="none" xmlns="http://www.w3.org/2000/svg">
<g id="shopping-cart-01">
<g id="Accent" opacity="0.4">
<path d="M12.0003 29.3334C12.7367 29.3334 13.3337 28.7365 13.3337 28.0001C13.3337 27.2637 12.7367 26.6667 12.0003 26.6667C11.2639 26.6667 10.667 27.2637 10.667 28.0001C10.667 28.7365 11.2639 29.3334 12.0003 29.3334Z" stroke="#0C111D" stroke-width="2" stroke-linecap="round" stroke-linejoin="round"/>
<path d="M22.667 29.3334C23.4034 29.3334 24.0003 28.7365 24.0003 28.0001C24.0003 27.2637 23.4034 26.6667 22.667 26.6667C21.9306 26.6667 21.3337 27.2637 21.3337 28.0001C21.3337 28.7365 21.9306 29.3334 22.667 29.3334Z" stroke="#0C111D" stroke-width="2" stroke-linecap="round" stroke-linejoin="round"/>
</g>
<path id="Icon" d="M2.66699 2.66675H4.40854C4.73657 2.66675 4.90058 2.66675 5.03257 2.72707C5.14888 2.78023 5.24745 2.86571 5.31653 2.97334C5.39491 3.09547 5.4181 3.25784 5.46449 3.58257L6.09556 8.00008M6.09556 8.00008L7.49809 18.3086C7.67607 19.6168 7.76506 20.2709 8.07779 20.7632C8.35336 21.197 8.74844 21.542 9.21547 21.7566C9.74548 22.0001 10.4056 22.0001 11.7258 22.0001H23.1363C24.393 22.0001 25.0214 22.0001 25.5349 21.774C25.9877 21.5746 26.3761 21.2532 26.6567 20.8457C26.9749 20.3836 27.0925 19.7663 27.3276 18.5318L29.0925 9.26633C29.1752 8.83182 29.2166 8.61457 29.1566 8.44475C29.104 8.29577 29.0002 8.17033 28.8637 8.09077C28.7081 8.00008 28.487 8.00008 28.0446 8.00008H6.09556Z" stroke="#98A2B3" stroke-width="2" stroke-linecap="round" stroke-linejoin="round"/>
</g>
</svg>
