<svg width="128" height="44" viewBox="0 0 128 44" fill="none" xmlns="http://www.w3.org/2000/svg">
<g filter="url(#filter0_d_4761_32073)">
<path d="M2 9C2 4.58172 5.58172 1 10 1H118C122.418 1 126 4.58172 126 9V33C126 37.4183 122.418 41 118 41H10C5.58172 41 2 37.4183 2 33V9Z" fill="white"/>
<g clip-path="url(#clip0_4761_32073)">
<path d="M41.7663 21.2765C41.7663 20.4608 41.7001 19.6406 41.559 18.8381H30.2402V23.4591H36.722C36.453 24.9495 35.5888 26.2679 34.3233 27.1056V30.104H38.1903C40.4611 28.014 41.7663 24.9274 41.7663 21.2765Z" fill="#4285F4"/>
<path d="M30.2401 33.0008C33.4766 33.0008 36.2059 31.9382 38.1945 30.1039L34.3276 27.1055C33.2517 27.8375 31.8627 28.252 30.2445 28.252C27.1139 28.252 24.4595 26.1399 23.507 23.3003H19.5166V26.3912C21.5537 30.4434 25.7029 33.0008 30.2401 33.0008Z" fill="#34A853"/>
<path d="M23.5028 23.3002C23.0001 21.8099 23.0001 20.196 23.5028 18.7057V15.6147H19.5167C17.8147 19.0055 17.8147 23.0004 19.5167 26.3912L23.5028 23.3002Z" fill="#FBBC04"/>
<path d="M30.2401 13.7497C31.9509 13.7232 33.6044 14.367 34.8434 15.5487L38.2695 12.1226C36.1001 10.0855 33.2208 8.96553 30.2401 9.00081C25.7029 9.00081 21.5537 11.5582 19.5166 15.6148L23.5026 18.7058C24.4506 15.8617 27.1095 13.7497 30.2401 13.7497Z" fill="#EA4335"/>
</g>
<path d="M62.9432 19.0795C62.8485 18.7727 62.7178 18.4981 62.5511 18.2557C62.3883 18.0095 62.1913 17.7992 61.9602 17.625C61.733 17.4508 61.4716 17.3201 61.1761 17.233C60.8807 17.142 60.5587 17.0966 60.2102 17.0966C59.5852 17.0966 59.0284 17.2538 58.5398 17.5682C58.0511 17.8826 57.6667 18.3447 57.3864 18.9545C57.1098 19.5606 56.9716 20.2992 56.9716 21.1705C56.9716 22.0492 57.1098 22.7936 57.3864 23.4034C57.6629 24.0133 58.0473 24.4773 58.5398 24.7955C59.0322 25.1098 59.6042 25.267 60.2557 25.267C60.8466 25.267 61.358 25.1534 61.7898 24.9261C62.2254 24.6989 62.5606 24.3769 62.7955 23.9602C63.0303 23.5398 63.1477 23.0473 63.1477 22.483L63.625 22.5568H60.4659V20.9091H65.1875V22.3068C65.1875 23.303 64.9754 24.1648 64.5511 24.892C64.1269 25.6193 63.5436 26.1799 62.8011 26.5739C62.0587 26.964 61.2064 27.1591 60.2443 27.1591C59.1723 27.1591 58.2311 26.9186 57.4205 26.4375C56.6136 25.9527 55.983 25.2652 55.5284 24.375C55.0777 23.4811 54.8523 22.4205 54.8523 21.1932C54.8523 20.2538 54.9848 19.4148 55.25 18.6761C55.5189 17.9375 55.8939 17.3106 56.375 16.7955C56.8561 16.2765 57.4205 15.8826 58.0682 15.6136C58.7159 15.3409 59.4205 15.2045 60.1818 15.2045C60.8258 15.2045 61.4261 15.2992 61.983 15.4886C62.5398 15.6742 63.0341 15.9394 63.4659 16.2841C63.9015 16.6288 64.2595 17.0379 64.5398 17.5114C64.8201 17.9848 65.0038 18.5076 65.0909 19.0795H62.9432ZM70.9418 27.1705C70.0895 27.1705 69.3509 26.983 68.7259 26.608C68.1009 26.233 67.616 25.7083 67.2713 25.0341C66.9304 24.3598 66.7599 23.572 66.7599 22.6705C66.7599 21.7689 66.9304 20.9792 67.2713 20.3011C67.616 19.6231 68.1009 19.0966 68.7259 18.7216C69.3509 18.3466 70.0895 18.1591 70.9418 18.1591C71.794 18.1591 72.5327 18.3466 73.1577 18.7216C73.7827 19.0966 74.2656 19.6231 74.6065 20.3011C74.9512 20.9792 75.1236 21.7689 75.1236 22.6705C75.1236 23.572 74.9512 24.3598 74.6065 25.0341C74.2656 25.7083 73.7827 26.233 73.1577 26.608C72.5327 26.983 71.794 27.1705 70.9418 27.1705ZM70.9531 25.5227C71.4152 25.5227 71.8016 25.3958 72.1122 25.142C72.4228 24.8845 72.6539 24.5398 72.8054 24.108C72.9607 23.6761 73.0384 23.1951 73.0384 22.6648C73.0384 22.1307 72.9607 21.6477 72.8054 21.2159C72.6539 20.7803 72.4228 20.4337 72.1122 20.1761C71.8016 19.9186 71.4152 19.7898 70.9531 19.7898C70.4796 19.7898 70.0857 19.9186 69.7713 20.1761C69.4607 20.4337 69.2277 20.7803 69.0724 21.2159C68.9209 21.6477 68.8452 22.1307 68.8452 22.6648C68.8452 23.1951 68.9209 23.6761 69.0724 24.108C69.2277 24.5398 69.4607 24.8845 69.7713 25.142C70.0857 25.3958 70.4796 25.5227 70.9531 25.5227ZM80.6761 27.1705C79.8239 27.1705 79.0852 26.983 78.4602 26.608C77.8352 26.233 77.3504 25.7083 77.0057 25.0341C76.6648 24.3598 76.4943 23.572 76.4943 22.6705C76.4943 21.7689 76.6648 20.9792 77.0057 20.3011C77.3504 19.6231 77.8352 19.0966 78.4602 18.7216C79.0852 18.3466 79.8239 18.1591 80.6761 18.1591C81.5284 18.1591 82.267 18.3466 82.892 18.7216C83.517 19.0966 84 19.6231 84.3409 20.3011C84.6856 20.9792 84.858 21.7689 84.858 22.6705C84.858 23.572 84.6856 24.3598 84.3409 25.0341C84 25.7083 83.517 26.233 82.892 26.608C82.267 26.983 81.5284 27.1705 80.6761 27.1705ZM80.6875 25.5227C81.1496 25.5227 81.536 25.3958 81.8466 25.142C82.1572 24.8845 82.3883 24.5398 82.5398 24.108C82.6951 23.6761 82.7727 23.1951 82.7727 22.6648C82.7727 22.1307 82.6951 21.6477 82.5398 21.2159C82.3883 20.7803 82.1572 20.4337 81.8466 20.1761C81.536 19.9186 81.1496 19.7898 80.6875 19.7898C80.214 19.7898 79.8201 19.9186 79.5057 20.1761C79.1951 20.4337 78.9621 20.7803 78.8068 21.2159C78.6553 21.6477 78.5795 22.1307 78.5795 22.6648C78.5795 23.1951 78.6553 23.6761 78.8068 24.108C78.9621 24.5398 79.1951 24.8845 79.5057 25.142C79.8201 25.3958 80.214 25.5227 80.6875 25.5227ZM90.3991 30.4545C89.6605 30.4545 89.026 30.3542 88.4957 30.1534C87.9654 29.9564 87.5393 29.6913 87.2173 29.358C86.8954 29.0246 86.6719 28.6553 86.5469 28.25L88.3991 27.8011C88.4825 27.9716 88.6037 28.1402 88.7628 28.3068C88.9219 28.4773 89.1359 28.6174 89.4048 28.7273C89.6776 28.8409 90.0204 28.8977 90.4332 28.8977C91.0166 28.8977 91.4995 28.7557 91.8821 28.4716C92.2647 28.1913 92.456 27.7292 92.456 27.0852V25.4318H92.3537C92.2476 25.6439 92.0923 25.8617 91.8878 26.0852C91.687 26.3087 91.42 26.4962 91.0866 26.6477C90.7571 26.7992 90.3423 26.875 89.8423 26.875C89.1719 26.875 88.5639 26.7178 88.0185 26.4034C87.4768 26.0852 87.045 25.6117 86.723 24.983C86.4048 24.3504 86.2457 23.5587 86.2457 22.608C86.2457 21.6496 86.4048 20.8409 86.723 20.1818C87.045 19.5189 87.4787 19.017 88.0241 18.6761C88.5696 18.3314 89.1776 18.1591 89.848 18.1591C90.3594 18.1591 90.7798 18.2462 91.1094 18.4205C91.4427 18.5909 91.7079 18.7973 91.9048 19.0398C92.1018 19.2784 92.2514 19.5038 92.3537 19.7159H92.4673V18.2727H94.4957V27.142C94.4957 27.8883 94.3177 28.5057 93.9616 28.9943C93.6056 29.483 93.1188 29.8485 92.5014 30.0909C91.884 30.3333 91.1832 30.4545 90.3991 30.4545ZM90.4162 25.2614C90.8518 25.2614 91.223 25.1553 91.5298 24.9432C91.8366 24.7311 92.0696 24.4261 92.2287 24.0284C92.3878 23.6307 92.4673 23.1534 92.4673 22.5966C92.4673 22.0473 92.3878 21.5663 92.2287 21.1534C92.0734 20.7405 91.8423 20.4205 91.5355 20.1932C91.2325 19.9621 90.8594 19.8466 90.4162 19.8466C89.9579 19.8466 89.5753 19.9659 89.2685 20.2045C88.9616 20.4432 88.7306 20.7708 88.5753 21.1875C88.42 21.6004 88.3423 22.0701 88.3423 22.5966C88.3423 23.1307 88.42 23.5985 88.5753 24C88.7344 24.3977 88.9673 24.7083 89.2741 24.9318C89.5848 25.1515 89.9654 25.2614 90.4162 25.2614ZM98.6605 15.3636V27H96.6037V15.3636H98.6605ZM104.639 27.1705C103.764 27.1705 103.009 26.9886 102.372 26.625C101.74 26.2576 101.253 25.7386 100.912 25.0682C100.571 24.3939 100.401 23.6004 100.401 22.6875C100.401 21.7898 100.571 21.0019 100.912 20.3239C101.257 19.642 101.738 19.1117 102.355 18.733C102.973 18.3504 103.698 18.1591 104.531 18.1591C105.069 18.1591 105.577 18.2462 106.054 18.4205C106.535 18.5909 106.959 18.8561 107.327 19.2159C107.698 19.5758 107.99 20.0341 108.202 20.5909C108.414 21.1439 108.52 21.803 108.52 22.5682V23.1989H101.366V21.8125H106.548C106.545 21.4186 106.459 21.0682 106.293 20.7614C106.126 20.4508 105.893 20.2064 105.594 20.0284C105.298 19.8504 104.954 19.7614 104.56 19.7614C104.139 19.7614 103.77 19.8636 103.452 20.0682C103.134 20.2689 102.885 20.5341 102.707 20.8636C102.533 21.1894 102.444 21.5473 102.44 21.9375V23.1477C102.44 23.6553 102.533 24.0909 102.719 24.4545C102.904 24.8144 103.164 25.0909 103.497 25.2841C103.83 25.4735 104.221 25.5682 104.668 25.5682C104.967 25.5682 105.238 25.5265 105.48 25.4432C105.723 25.3561 105.933 25.2292 106.111 25.0625C106.289 24.8958 106.423 24.6894 106.514 24.4432L108.435 24.6591C108.313 25.1667 108.082 25.6098 107.741 25.9886C107.404 26.3636 106.973 26.6553 106.446 26.8636C105.92 27.0682 105.317 27.1705 104.639 27.1705Z" fill="#344054"/>
<path d="M10 1.5H118C122.142 1.5 125.5 4.85786 125.5 9V33C125.5 37.1421 122.142 40.5 118 40.5H10C5.85786 40.5 2.5 37.1421 2.5 33V9C2.5 4.85786 5.85786 1.5 10 1.5Z" stroke="#D0D5DD"/>
</g>
<defs>
<filter id="filter0_d_4761_32073" x="0" y="0" width="128" height="44" filterUnits="userSpaceOnUse" color-interpolation-filters="sRGB">
<feFlood flood-opacity="0" result="BackgroundImageFix"/>
<feColorMatrix in="SourceAlpha" type="matrix" values="0 0 0 0 0 0 0 0 0 0 0 0 0 0 0 0 0 0 127 0" result="hardAlpha"/>
<feOffset dy="1"/>
<feGaussianBlur stdDeviation="1"/>
<feColorMatrix type="matrix" values="0 0 0 0 0.0627451 0 0 0 0 0.0941176 0 0 0 0 0.156863 0 0 0 0.05 0"/>
<feBlend mode="normal" in2="BackgroundImageFix" result="effect1_dropShadow_4761_32073"/>
<feBlend mode="normal" in="SourceGraphic" in2="effect1_dropShadow_4761_32073" result="shape"/>
</filter>
<clipPath id="clip0_4761_32073">
<rect width="24" height="24" fill="white" transform="translate(18 9)"/>
</clipPath>
</defs>
</svg>
