<svg width="148" height="44" viewBox="0 0 148 44" fill="none" xmlns="http://www.w3.org/2000/svg">
<g filter="url(#filter0_d_4761_32075)">
<path d="M2 9C2 4.58172 5.58172 1 10 1H138C142.418 1 146 4.58172 146 9V33C146 37.4183 142.418 41 138 41H10C5.58173 41 2 37.4183 2 33V9Z" fill="#1877F2"/>
<g clip-path="url(#clip0_4761_32075)">
<path d="M42 21C42 14.3726 36.6274 9 30 9C23.3726 9 18 14.3726 18 21C18 26.9895 22.3882 31.954 28.125 32.8542V24.4688H25.0781V21H28.125V18.3563C28.125 15.3488 29.9166 13.6875 32.6576 13.6875C33.9701 13.6875 35.3438 13.9219 35.3438 13.9219V16.875H33.8306C32.34 16.875 31.875 17.8001 31.875 18.75V21H35.2031L34.6711 24.4688H31.875V32.8542C37.6118 31.954 42 26.9895 42 21Z" fill="white"/>
</g>
<path d="M55.1477 27V15.3636H62.6023V17.1307H57.2557V20.2898H62.0909V22.0568H57.2557V27H55.1477ZM66.8651 27.1761C66.312 27.1761 65.8139 27.0777 65.3707 26.8807C64.9313 26.6799 64.5829 26.3845 64.3253 25.9943C64.0715 25.6042 63.9446 25.1231 63.9446 24.5511C63.9446 24.0587 64.0355 23.6515 64.2173 23.3295C64.3991 23.0076 64.6473 22.75 64.9616 22.5568C65.276 22.3636 65.6302 22.2178 66.0241 22.1193C66.4219 22.017 66.8329 21.9432 67.2571 21.8977C67.7685 21.8447 68.1832 21.7973 68.5014 21.7557C68.8196 21.7102 69.0507 21.642 69.1946 21.5511C69.3423 21.4564 69.4162 21.3106 69.4162 21.1136V21.0795C69.4162 20.6515 69.2893 20.3201 69.0355 20.0852C68.7817 19.8504 68.4162 19.733 67.9389 19.733C67.4351 19.733 67.0355 19.8428 66.7401 20.0625C66.4484 20.2822 66.2514 20.5417 66.1491 20.8409L64.2287 20.5682C64.3802 20.0379 64.6302 19.5947 64.9787 19.2386C65.3272 18.8788 65.7533 18.6098 66.2571 18.4318C66.7609 18.25 67.3177 18.1591 67.9276 18.1591C68.348 18.1591 68.7666 18.2083 69.1832 18.3068C69.5999 18.4053 69.9806 18.5682 70.3253 18.7955C70.67 19.0189 70.9465 19.3239 71.1548 19.7102C71.367 20.0966 71.473 20.5795 71.473 21.1591V27H69.4957V25.8011H69.4276C69.3026 26.0436 69.1264 26.2708 68.8991 26.483C68.6757 26.6913 68.3935 26.8598 68.0526 26.9886C67.7154 27.1136 67.3196 27.1761 66.8651 27.1761ZM67.3991 25.6648C67.812 25.6648 68.17 25.5833 68.473 25.4205C68.776 25.2538 69.009 25.0341 69.1719 24.7614C69.3385 24.4886 69.4219 24.1913 69.4219 23.8693V22.8409C69.3575 22.8939 69.2476 22.9432 69.0923 22.9886C68.9408 23.0341 68.7704 23.0739 68.581 23.108C68.3916 23.142 68.2041 23.1723 68.0185 23.1989C67.8329 23.2254 67.6719 23.2481 67.5355 23.267C67.2287 23.3087 66.9541 23.3769 66.7116 23.4716C66.4692 23.5663 66.2779 23.6989 66.1378 23.8693C65.9976 24.036 65.9276 24.2519 65.9276 24.517C65.9276 24.8958 66.0658 25.1818 66.3423 25.375C66.6188 25.5682 66.9711 25.6648 67.3991 25.6648ZM77.348 27.1705C76.4768 27.1705 75.7287 26.9792 75.1037 26.5966C74.4825 26.214 74.0033 25.6856 73.6662 25.0114C73.3329 24.3333 73.1662 23.553 73.1662 22.6705C73.1662 21.7841 73.3366 21.0019 73.6776 20.3239C74.0185 19.642 74.4995 19.1117 75.1207 18.733C75.7457 18.3504 76.4844 18.1591 77.3366 18.1591C78.045 18.1591 78.6719 18.2898 79.2173 18.5511C79.7666 18.8087 80.2041 19.1742 80.5298 19.6477C80.8556 20.1174 81.0412 20.6667 81.0866 21.2955H79.1207C79.0412 20.875 78.8518 20.5246 78.5526 20.2443C78.2571 19.9602 77.8613 19.8182 77.3651 19.8182C76.9446 19.8182 76.5753 19.9318 76.2571 20.1591C75.9389 20.3826 75.6908 20.7045 75.5128 21.125C75.3385 21.5455 75.2514 22.0492 75.2514 22.6364C75.2514 23.2311 75.3385 23.7424 75.5128 24.1705C75.687 24.5947 75.9313 24.9223 76.2457 25.1534C76.5639 25.3807 76.937 25.4943 77.3651 25.4943C77.6681 25.4943 77.9389 25.4375 78.1776 25.3239C78.42 25.2064 78.6226 25.0379 78.7855 24.8182C78.9484 24.5985 79.0601 24.3314 79.1207 24.017H81.0866C81.0374 24.6345 80.8556 25.1818 80.5412 25.6591C80.2268 26.1326 79.7988 26.5038 79.2571 26.7727C78.7154 27.0379 78.0791 27.1705 77.348 27.1705ZM86.6392 27.1705C85.7642 27.1705 85.0085 26.9886 84.3722 26.625C83.7396 26.2576 83.2528 25.7386 82.9119 25.0682C82.571 24.3939 82.4006 23.6004 82.4006 22.6875C82.4006 21.7898 82.571 21.0019 82.9119 20.3239C83.2566 19.642 83.7377 19.1117 84.3551 18.733C84.9725 18.3504 85.6979 18.1591 86.5312 18.1591C87.0691 18.1591 87.5767 18.2462 88.054 18.4205C88.535 18.5909 88.9593 18.8561 89.3267 19.2159C89.6979 19.5758 89.9896 20.0341 90.2017 20.5909C90.4138 21.1439 90.5199 21.803 90.5199 22.5682V23.1989H83.3665V21.8125H88.5483C88.5445 21.4186 88.4593 21.0682 88.2926 20.7614C88.1259 20.4508 87.893 20.2064 87.5938 20.0284C87.2983 19.8504 86.9536 19.7614 86.5597 19.7614C86.1392 19.7614 85.7699 19.8636 85.4517 20.0682C85.1335 20.2689 84.8854 20.5341 84.7074 20.8636C84.5331 21.1894 84.4441 21.5473 84.4403 21.9375V23.1477C84.4403 23.6553 84.5331 24.0909 84.7188 24.4545C84.9044 24.8144 85.1638 25.0909 85.4972 25.2841C85.8305 25.4735 86.2206 25.5682 86.6676 25.5682C86.9669 25.5682 87.2377 25.5265 87.4801 25.4432C87.7225 25.3561 87.9328 25.2292 88.1108 25.0625C88.2888 24.8958 88.4233 24.6894 88.5142 24.4432L90.4347 24.6591C90.3134 25.1667 90.0824 25.6098 89.7415 25.9886C89.4044 26.3636 88.9725 26.6553 88.446 26.8636C87.9195 27.0682 87.3172 27.1705 86.6392 27.1705ZM92.3509 27V15.3636H94.4077V19.7159H94.4929C94.599 19.5038 94.7486 19.2784 94.9418 19.0398C95.1349 18.7973 95.3963 18.5909 95.7259 18.4205C96.0554 18.2462 96.4759 18.1591 96.9872 18.1591C97.6615 18.1591 98.2694 18.3314 98.8111 18.6761C99.3565 19.017 99.7884 19.5227 100.107 20.1932C100.429 20.8598 100.589 21.678 100.589 22.6477C100.589 23.6061 100.432 24.4205 100.118 25.0909C99.8035 25.7614 99.3755 26.2727 98.8338 26.625C98.2921 26.9773 97.6785 27.1534 96.9929 27.1534C96.4929 27.1534 96.0781 27.0701 95.7486 26.9034C95.419 26.7367 95.1539 26.536 94.9531 26.3011C94.7562 26.0625 94.6027 25.8371 94.4929 25.625H94.3736V27H92.3509ZM94.3679 22.6364C94.3679 23.2008 94.4474 23.6951 94.6065 24.1193C94.7694 24.5436 95.0024 24.875 95.3054 25.1136C95.6122 25.3485 95.9834 25.4659 96.419 25.4659C96.8736 25.4659 97.2543 25.3447 97.5611 25.1023C97.8679 24.8561 98.099 24.5208 98.2543 24.0966C98.4134 23.6686 98.4929 23.1818 98.4929 22.6364C98.4929 22.0947 98.4152 21.6136 98.2599 21.1932C98.1046 20.7727 97.8736 20.4432 97.5668 20.2045C97.2599 19.9659 96.8774 19.8466 96.419 19.8466C95.9796 19.8466 95.6065 19.9621 95.2997 20.1932C94.9929 20.4242 94.7599 20.7481 94.6009 21.1648C94.4455 21.5814 94.3679 22.072 94.3679 22.6364ZM106.145 27.1705C105.293 27.1705 104.554 26.983 103.929 26.608C103.304 26.233 102.819 25.7083 102.474 25.0341C102.134 24.3598 101.963 23.572 101.963 22.6705C101.963 21.7689 102.134 20.9792 102.474 20.3011C102.819 19.6231 103.304 19.0966 103.929 18.7216C104.554 18.3466 105.293 18.1591 106.145 18.1591C106.997 18.1591 107.736 18.3466 108.361 18.7216C108.986 19.0966 109.469 19.6231 109.81 20.3011C110.154 20.9792 110.327 21.7689 110.327 22.6705C110.327 23.572 110.154 24.3598 109.81 25.0341C109.469 25.7083 108.986 26.233 108.361 26.608C107.736 26.983 106.997 27.1705 106.145 27.1705ZM106.156 25.5227C106.618 25.5227 107.005 25.3958 107.315 25.142C107.626 24.8845 107.857 24.5398 108.009 24.108C108.164 23.6761 108.241 23.1951 108.241 22.6648C108.241 22.1307 108.164 21.6477 108.009 21.2159C107.857 20.7803 107.626 20.4337 107.315 20.1761C107.005 19.9186 106.618 19.7898 106.156 19.7898C105.683 19.7898 105.289 19.9186 104.974 20.1761C104.664 20.4337 104.431 20.7803 104.276 21.2159C104.124 21.6477 104.048 22.1307 104.048 22.6648C104.048 23.1951 104.124 23.6761 104.276 24.108C104.431 24.5398 104.664 24.8845 104.974 25.142C105.289 25.3958 105.683 25.5227 106.156 25.5227ZM115.879 27.1705C115.027 27.1705 114.288 26.983 113.663 26.608C113.038 26.233 112.554 25.7083 112.209 25.0341C111.868 24.3598 111.697 23.572 111.697 22.6705C111.697 21.7689 111.868 20.9792 112.209 20.3011C112.554 19.6231 113.038 19.0966 113.663 18.7216C114.288 18.3466 115.027 18.1591 115.879 18.1591C116.732 18.1591 117.47 18.3466 118.095 18.7216C118.72 19.0966 119.203 19.6231 119.544 20.3011C119.889 20.9792 120.061 21.7689 120.061 22.6705C120.061 23.572 119.889 24.3598 119.544 25.0341C119.203 25.7083 118.72 26.233 118.095 26.608C117.47 26.983 116.732 27.1705 115.879 27.1705ZM115.891 25.5227C116.353 25.5227 116.739 25.3958 117.05 25.142C117.36 24.8845 117.591 24.5398 117.743 24.108C117.898 23.6761 117.976 23.1951 117.976 22.6648C117.976 22.1307 117.898 21.6477 117.743 21.2159C117.591 20.7803 117.36 20.4337 117.05 20.1761C116.739 19.9186 116.353 19.7898 115.891 19.7898C115.417 19.7898 115.023 19.9186 114.709 20.1761C114.398 20.4337 114.165 20.7803 114.01 21.2159C113.858 21.6477 113.783 22.1307 113.783 22.6648C113.783 23.1951 113.858 23.6761 114.01 24.108C114.165 24.5398 114.398 24.8845 114.709 25.142C115.023 25.3958 115.417 25.5227 115.891 25.5227ZM123.682 24.2614L123.676 21.7784H124.006L127.142 18.2727H129.545L125.688 22.5682H125.261L123.682 24.2614ZM121.807 27V15.3636H123.864V27H121.807ZM127.284 27L124.443 23.0284L125.83 21.5795L129.744 27H127.284Z" fill="white"/>
</g>
<defs>
<filter id="filter0_d_4761_32075" x="0" y="0" width="148" height="44" filterUnits="userSpaceOnUse" color-interpolation-filters="sRGB">
<feFlood flood-opacity="0" result="BackgroundImageFix"/>
<feColorMatrix in="SourceAlpha" type="matrix" values="0 0 0 0 0 0 0 0 0 0 0 0 0 0 0 0 0 0 127 0" result="hardAlpha"/>
<feOffset dy="1"/>
<feGaussianBlur stdDeviation="1"/>
<feColorMatrix type="matrix" values="0 0 0 0 0.0627451 0 0 0 0 0.0941176 0 0 0 0 0.156863 0 0 0 0.05 0"/>
<feBlend mode="normal" in2="BackgroundImageFix" result="effect1_dropShadow_4761_32075"/>
<feBlend mode="normal" in="SourceGraphic" in2="effect1_dropShadow_4761_32075" result="shape"/>
</filter>
<clipPath id="clip0_4761_32075">
<rect width="24" height="24" fill="white" transform="translate(18 9)"/>
</clipPath>
</defs>
</svg>
