<svg width="138" height="44" viewBox="0 0 138 44" fill="none" xmlns="http://www.w3.org/2000/svg">
<g filter="url(#filter0_d_4761_32074)">
<path d="M2 9C2 4.58172 5.58172 1 10 1H128C132.418 1 136 4.58172 136 9V33C136 37.4183 132.418 41 128 41H10C5.58172 41 2 37.4183 2 33V9Z" fill="black"/>
<path d="M38.8428 26.1449C38.5101 26.9135 38.1163 27.6211 37.66 28.2715C37.0381 29.1583 36.5288 29.7721 36.1364 30.113C35.528 30.6724 34.8762 30.959 34.1782 30.9753C33.6771 30.9753 33.0728 30.8327 32.3693 30.5434C31.6636 30.2555 31.015 30.113 30.422 30.113C29.8 30.113 29.133 30.2555 28.4195 30.5434C27.7049 30.8327 27.1293 30.9834 26.6892 30.9984C26.0198 31.0269 25.3526 30.7322 24.6867 30.113C24.2616 29.7422 23.73 29.1067 23.0931 28.2063C22.4098 27.2449 21.848 26.13 21.4078 24.8589C20.9365 23.486 20.7002 22.1565 20.7002 20.8694C20.7002 19.3951 21.0188 18.1235 21.6569 17.0578C22.1584 16.2019 22.8256 15.5267 23.6606 15.0311C24.4956 14.5354 25.3979 14.2828 26.3695 14.2666C26.9011 14.2666 27.5983 14.4311 28.4647 14.7543C29.3287 15.0786 29.8834 15.243 30.1266 15.243C30.3085 15.243 30.9247 15.0507 31.9694 14.6674C32.9573 14.3119 33.7911 14.1647 34.4742 14.2226C36.3251 14.372 37.7157 15.1017 38.6405 16.4162C36.9851 17.4192 36.1662 18.824 36.1825 20.6262C36.1975 22.03 36.7067 23.1981 37.7076 24.1256C38.1611 24.5561 38.6676 24.8888 39.2312 25.1251C39.109 25.4795 38.98 25.819 38.8428 26.1449ZM34.5978 9.44037C34.5978 10.5406 34.1958 11.5679 33.3946 12.5188C32.4277 13.6492 31.2582 14.3024 29.99 14.1993C29.9738 14.0673 29.9645 13.9284 29.9645 13.7824C29.9645 12.7261 30.4243 11.5958 31.2408 10.6715C31.6485 10.2036 32.167 9.81445 32.7957 9.50406C33.4231 9.19829 34.0166 9.0292 34.5747 9.00024C34.591 9.14733 34.5978 9.29443 34.5978 9.44036V9.44037Z" fill="white"/>
<path d="M56.642 27H54.392L58.4886 15.3636H61.0909L65.1932 27H62.9432L59.8352 17.75H59.7443L56.642 27ZM56.7159 22.4375H62.8523V24.1307H56.7159V22.4375ZM66.6349 30.2727V18.2727H68.6577V19.7159H68.777C68.883 19.5038 69.0327 19.2784 69.2259 19.0398C69.419 18.7973 69.6804 18.5909 70.0099 18.4205C70.3395 18.2462 70.7599 18.1591 71.2713 18.1591C71.9455 18.1591 72.5535 18.3314 73.0952 18.6761C73.6406 19.017 74.0724 19.5227 74.3906 20.1932C74.7126 20.8598 74.8736 21.678 74.8736 22.6477C74.8736 23.6061 74.7164 24.4205 74.402 25.0909C74.0876 25.7614 73.6596 26.2727 73.1179 26.625C72.5762 26.9773 71.9626 27.1534 71.277 27.1534C70.777 27.1534 70.3622 27.0701 70.0327 26.9034C69.7031 26.7367 69.438 26.536 69.2372 26.3011C69.0402 26.0625 68.8868 25.8371 68.777 25.625H68.6918V30.2727H66.6349ZM68.652 22.6364C68.652 23.2008 68.7315 23.6951 68.8906 24.1193C69.0535 24.5436 69.2865 24.875 69.5895 25.1136C69.8963 25.3485 70.2675 25.4659 70.7031 25.4659C71.1577 25.4659 71.5384 25.3447 71.8452 25.1023C72.152 24.8561 72.383 24.5208 72.5384 24.0966C72.6974 23.6686 72.777 23.1818 72.777 22.6364C72.777 22.0947 72.6993 21.6136 72.544 21.1932C72.3887 20.7727 72.1577 20.4432 71.8509 20.2045C71.544 19.9659 71.1615 19.8466 70.7031 19.8466C70.2637 19.8466 69.8906 19.9621 69.5838 20.1932C69.277 20.4242 69.044 20.7481 68.8849 21.1648C68.7296 21.5814 68.652 22.072 68.652 22.6364ZM76.6349 30.2727V18.2727H78.6577V19.7159H78.777C78.883 19.5038 79.0327 19.2784 79.2259 19.0398C79.419 18.7973 79.6804 18.5909 80.0099 18.4205C80.3395 18.2462 80.7599 18.1591 81.2713 18.1591C81.9455 18.1591 82.5535 18.3314 83.0952 18.6761C83.6406 19.017 84.0724 19.5227 84.3906 20.1932C84.7126 20.8598 84.8736 21.678 84.8736 22.6477C84.8736 23.6061 84.7164 24.4205 84.402 25.0909C84.0876 25.7614 83.6596 26.2727 83.1179 26.625C82.5762 26.9773 81.9626 27.1534 81.277 27.1534C80.777 27.1534 80.3622 27.0701 80.0327 26.9034C79.7031 26.7367 79.438 26.536 79.2372 26.3011C79.0402 26.0625 78.8868 25.8371 78.777 25.625H78.6918V30.2727H76.6349ZM78.652 22.6364C78.652 23.2008 78.7315 23.6951 78.8906 24.1193C79.0535 24.5436 79.2865 24.875 79.5895 25.1136C79.8963 25.3485 80.2675 25.4659 80.7031 25.4659C81.1577 25.4659 81.5384 25.3447 81.8452 25.1023C82.152 24.8561 82.383 24.5208 82.5384 24.0966C82.6974 23.6686 82.777 23.1818 82.777 22.6364C82.777 22.0947 82.6993 21.6136 82.544 21.1932C82.3887 20.7727 82.1577 20.4432 81.8509 20.2045C81.544 19.9659 81.1615 19.8466 80.7031 19.8466C80.2637 19.8466 79.8906 19.9621 79.5838 20.1932C79.277 20.4242 79.044 20.7481 78.8849 21.1648C78.7296 21.5814 78.652 22.072 78.652 22.6364ZM88.6918 15.3636V27H86.6349V15.3636H88.6918ZM94.6705 27.1705C93.7955 27.1705 93.0398 26.9886 92.4034 26.625C91.7708 26.2576 91.2841 25.7386 90.9432 25.0682C90.6023 24.3939 90.4318 23.6004 90.4318 22.6875C90.4318 21.7898 90.6023 21.0019 90.9432 20.3239C91.2879 19.642 91.7689 19.1117 92.3864 18.733C93.0038 18.3504 93.7292 18.1591 94.5625 18.1591C95.1004 18.1591 95.608 18.2462 96.0852 18.4205C96.5663 18.5909 96.9905 18.8561 97.358 19.2159C97.7292 19.5758 98.0208 20.0341 98.233 20.5909C98.4451 21.1439 98.5511 21.803 98.5511 22.5682V23.1989H91.3977V21.8125H96.5795C96.5758 21.4186 96.4905 21.0682 96.3239 20.7614C96.1572 20.4508 95.9242 20.2064 95.625 20.0284C95.3295 19.8504 94.9848 19.7614 94.5909 19.7614C94.1705 19.7614 93.8011 19.8636 93.483 20.0682C93.1648 20.2689 92.9167 20.5341 92.7386 20.8636C92.5644 21.1894 92.4754 21.5473 92.4716 21.9375V23.1477C92.4716 23.6553 92.5644 24.0909 92.75 24.4545C92.9356 24.8144 93.1951 25.0909 93.5284 25.2841C93.8617 25.4735 94.2519 25.5682 94.6989 25.5682C94.9981 25.5682 95.2689 25.5265 95.5114 25.4432C95.7538 25.3561 95.964 25.2292 96.142 25.0625C96.3201 24.8958 96.4545 24.6894 96.5455 24.4432L98.4659 24.6591C98.3447 25.1667 98.1136 25.6098 97.7727 25.9886C97.4356 26.3636 97.0038 26.6553 96.4773 26.8636C95.9508 27.0682 95.3485 27.1705 94.6705 27.1705ZM106.459 15.3636V27H104.351V15.3636H106.459ZM112.685 27H108.741V15.3636H112.764C113.92 15.3636 114.912 15.5966 115.741 16.0625C116.575 16.5246 117.215 17.1894 117.662 18.0568C118.109 18.9242 118.332 19.9621 118.332 21.1705C118.332 22.3826 118.107 23.4242 117.656 24.2955C117.209 25.1667 116.563 25.8352 115.719 26.3011C114.878 26.767 113.866 27 112.685 27ZM110.849 25.1761H112.582C113.393 25.1761 114.069 25.0284 114.611 24.733C115.152 24.4337 115.56 23.9886 115.832 23.3977C116.105 22.803 116.241 22.0606 116.241 21.1705C116.241 20.2803 116.105 19.5417 115.832 18.9545C115.56 18.3636 115.156 17.9223 114.622 17.6307C114.092 17.3352 113.433 17.1875 112.645 17.1875H110.849V25.1761Z" fill="white"/>
</g>
<defs>
<filter id="filter0_d_4761_32074" x="0" y="0" width="138" height="44" filterUnits="userSpaceOnUse" color-interpolation-filters="sRGB">
<feFlood flood-opacity="0" result="BackgroundImageFix"/>
<feColorMatrix in="SourceAlpha" type="matrix" values="0 0 0 0 0 0 0 0 0 0 0 0 0 0 0 0 0 0 127 0" result="hardAlpha"/>
<feOffset dy="1"/>
<feGaussianBlur stdDeviation="1"/>
<feColorMatrix type="matrix" values="0 0 0 0 0.0627451 0 0 0 0 0.0941176 0 0 0 0 0.156863 0 0 0 0.05 0"/>
<feBlend mode="normal" in2="BackgroundImageFix" result="effect1_dropShadow_4761_32074"/>
<feBlend mode="normal" in="SourceGraphic" in2="effect1_dropShadow_4761_32074" result="shape"/>
</filter>
</defs>
</svg>
