<svg width="114" height="44" viewBox="0 0 114 44" fill="none" xmlns="http://www.w3.org/2000/svg">
<g filter="url(#filter0_d_4761_32076)">
<path d="M2 9C2 4.58172 5.58172 1 10 1H104C108.418 1 112 4.58172 112 9V33C112 37.4183 108.418 41 104 41H10C5.58172 41 2 37.4183 2 33V9Z" fill="#870064"/>
<path d="M20 16L28.1649 21.7154C28.8261 22.1783 29.1567 22.4097 29.5163 22.4993C29.8339 22.5785 30.1661 22.5785 30.4837 22.4993C30.8433 22.4097 31.1739 22.1783 31.8351 21.7154L40 16M24.8 29H35.2C36.8802 29 37.7202 29 38.362 28.673C38.9265 28.3854 39.3854 27.9265 39.673 27.362C40 26.7202 40 25.8802 40 24.2V17.8C40 16.1198 40 15.2798 39.673 14.638C39.3854 14.0735 38.9265 13.6146 38.362 13.327C37.7202 13 36.8802 13 35.2 13H24.8C23.1198 13 22.2798 13 21.638 13.327C21.0735 13.6146 20.6146 14.0735 20.327 14.638C20 15.2798 20 16.1198 20 17.8V24.2C20 25.8802 20 26.7202 20.327 27.362C20.6146 27.9265 21.0735 28.3854 21.638 28.673C22.2798 29 23.1198 29 24.8 29Z" stroke="white" stroke-width="2" stroke-linecap="round" stroke-linejoin="round"/>
<path d="M55.1477 27V15.3636H62.7159V17.1307H57.2557V20.2898H62.3239V22.0568H57.2557V25.233H62.7614V27H55.1477ZM64.7756 27V18.2727H66.7415V19.7557H66.8438C67.0256 19.2557 67.3267 18.8655 67.7472 18.5852C68.1676 18.3011 68.6695 18.1591 69.2528 18.1591C69.8438 18.1591 70.3419 18.303 70.7472 18.5909C71.1563 18.875 71.4441 19.2633 71.6108 19.7557H71.7017C71.8949 19.2708 72.2206 18.8845 72.679 18.5966C73.1411 18.3049 73.6884 18.1591 74.321 18.1591C75.1241 18.1591 75.7794 18.4129 76.2869 18.9205C76.7945 19.428 77.0483 20.1686 77.0483 21.142V27H74.9858V21.4602C74.9858 20.9186 74.8419 20.5227 74.554 20.2727C74.2661 20.0189 73.9138 19.892 73.4972 19.892C73.0009 19.892 72.6127 20.0473 72.3324 20.358C72.0559 20.6648 71.9176 21.0644 71.9176 21.5568V27H69.9006V21.375C69.9006 20.9242 69.7642 20.5644 69.4915 20.2955C69.2225 20.0265 68.8703 19.892 68.4347 19.892C68.1392 19.892 67.8703 19.9678 67.6278 20.1193C67.3854 20.267 67.1922 20.4773 67.0483 20.75C66.9044 21.0189 66.8324 21.3333 66.8324 21.6932V27H64.7756ZM81.6463 27.1761C81.0933 27.1761 80.5952 27.0777 80.152 26.8807C79.7126 26.6799 79.3641 26.3845 79.1065 25.9943C78.8527 25.6042 78.7259 25.1231 78.7259 24.5511C78.7259 24.0587 78.8168 23.6515 78.9986 23.3295C79.1804 23.0076 79.4285 22.75 79.7429 22.5568C80.0573 22.3636 80.4115 22.2178 80.8054 22.1193C81.2031 22.017 81.6141 21.9432 82.0384 21.8977C82.5497 21.8447 82.9645 21.7973 83.2827 21.7557C83.6009 21.7102 83.8319 21.642 83.9759 21.5511C84.1236 21.4564 84.1974 21.3106 84.1974 21.1136V21.0795C84.1974 20.6515 84.0705 20.3201 83.8168 20.0852C83.563 19.8504 83.1974 19.733 82.7202 19.733C82.2164 19.733 81.8168 19.8428 81.5213 20.0625C81.2296 20.2822 81.0327 20.5417 80.9304 20.8409L79.0099 20.5682C79.1615 20.0379 79.4115 19.5947 79.7599 19.2386C80.1084 18.8788 80.5346 18.6098 81.0384 18.4318C81.5421 18.25 82.099 18.1591 82.7088 18.1591C83.1293 18.1591 83.5478 18.2083 83.9645 18.3068C84.3812 18.4053 84.7618 18.5682 85.1065 18.7955C85.4512 19.0189 85.7277 19.3239 85.9361 19.7102C86.1482 20.0966 86.2543 20.5795 86.2543 21.1591V27H84.277V25.8011H84.2088C84.0838 26.0436 83.9077 26.2708 83.6804 26.483C83.4569 26.6913 83.1747 26.8598 82.8338 26.9886C82.4967 27.1136 82.1009 27.1761 81.6463 27.1761ZM82.1804 25.6648C82.5933 25.6648 82.9512 25.5833 83.2543 25.4205C83.5573 25.2538 83.7902 25.0341 83.9531 24.7614C84.1198 24.4886 84.2031 24.1913 84.2031 23.8693V22.8409C84.1387 22.8939 84.0289 22.9432 83.8736 22.9886C83.7221 23.0341 83.5516 23.0739 83.3622 23.108C83.1728 23.142 82.9853 23.1723 82.7997 23.1989C82.6141 23.2254 82.4531 23.2481 82.3168 23.267C82.0099 23.3087 81.7353 23.3769 81.4929 23.4716C81.2505 23.5663 81.0592 23.6989 80.919 23.8693C80.7789 24.036 80.7088 24.2519 80.7088 24.517C80.7088 24.8958 80.8471 25.1818 81.1236 25.375C81.4001 25.5682 81.7524 25.6648 82.1804 25.6648ZM88.3224 27V18.2727H90.3793V27H88.3224ZM89.3565 17.0341C89.0308 17.0341 88.7505 16.9261 88.5156 16.7102C88.2808 16.4905 88.1634 16.2273 88.1634 15.9205C88.1634 15.6098 88.2808 15.3466 88.5156 15.1307C88.7505 14.911 89.0308 14.8011 89.3565 14.8011C89.6861 14.8011 89.9664 14.911 90.1974 15.1307C90.4323 15.3466 90.5497 15.6098 90.5497 15.9205C90.5497 16.2273 90.4323 16.4905 90.1974 16.7102C89.9664 16.9261 89.6861 17.0341 89.3565 17.0341ZM94.5511 15.3636V27H92.4943V15.3636H94.5511Z" fill="white"/>
</g>
<defs>
<filter id="filter0_d_4761_32076" x="0" y="0" width="114" height="44" filterUnits="userSpaceOnUse" color-interpolation-filters="sRGB">
<feFlood flood-opacity="0" result="BackgroundImageFix"/>
<feColorMatrix in="SourceAlpha" type="matrix" values="0 0 0 0 0 0 0 0 0 0 0 0 0 0 0 0 0 0 127 0" result="hardAlpha"/>
<feOffset dy="1"/>
<feGaussianBlur stdDeviation="1"/>
<feColorMatrix type="matrix" values="0 0 0 0 0.0627451 0 0 0 0 0.0941176 0 0 0 0 0.156863 0 0 0 0.05 0"/>
<feBlend mode="normal" in2="BackgroundImageFix" result="effect1_dropShadow_4761_32076"/>
<feBlend mode="normal" in="SourceGraphic" in2="effect1_dropShadow_4761_32076" result="shape"/>
</filter>
</defs>
</svg>
